<?xml version="1.0" encoding="utf-8"?>
<!-- Generator: Adobe Illustrator 21.1.0, SVG Export Plug-In . SVG Version: 6.00 Build 0)  -->
<svg version="1.1" id="Layer_1" xmlns="http://www.w3.org/2000/svg" xmlns:xlink="http://www.w3.org/1999/xlink" x="0px" y="0px"
	 viewBox="0 0 15000 338" style="enable-background:new 0 0 15000 338;" xml:space="preserve">
<style type="text/css">
	.st0{fill:#FFFFFF;}
</style>
<g>
	<path d="M9219,1.5c1927.5,0,3855,0,5782.5,0c0,112.5,0,225,0,337.5c-985,0-1970,0-2955,0c-2-2.4-4-3.9-6,0c-153.5,0-307,0-460.5,0
		c-1.4-1-2.7-2.2-4.3-2.9c-35.5-16.9-65.4-41.1-90.4-71.3c-1.6-2-3.8-3.5-5.7-5.3c-1.3,1.1-2,1.5-2.4,2.1c-0.8,1.2-1.6,2.5-2.2,3.9
		c-5.8,13.2-14.5,23.8-27.2,30.9c-3.4,1.9-3.9,4.8-3.8,8.3c0.2,8.2-1.6,16-6.1,22.8c-2.7,4.1-6.3,7.7-9.4,11.6
		c-141.5,0-283,0-424.5,0c-3.8-11.5-3.5-23.1-0.6-34.7c0.6-2.4,1.4-4.8,1.9-7.2c1.4-7.6-1.4-10.5-8.9-9.1c-3.4,0.6-6.8,1.6-10.3,2
		c-21.2,2.3-38.9-13.4-39.2-34.7c0-2.7,0-5.5,0.5-8.2c1-4.6-0.7-8-3.4-11.7c-6.2-8.4-12.4-17-17.8-25.9c-5-8.3-9-17.2-13.5-25.9
		c-3-5.8-5.6-6.5-10.1-1.6c-3.1,3.4-5.6,7.6-7.3,11.9c-2.9,7.2-5.7,14.5-11.5,19.9c-3.3,3.1-4,6.4-3.4,10.8
		c3.4,24.3-4.5,44.3-23.8,59.5c-3.2,2.5-4.9,5.2-5.3,9.3c-1.5,18.9-11.4,32.6-27.1,42.4c-1.7,1-3.2,2.2-4.9,3.3
		c-135.5,0-271,0-406.5,0c1-21.8,1.9-43.5,13.2-63.1c2-3.4,2.7-7.4-0.2-10.6c-4.7-5.1-10.4-9-16.2-13.3c-1.9,2.9-3.2,5-4.6,7.1
		c-5.4,7.7-13.7,11.2-22.1,9c-8.2-2.1-13.4-7.5-15.2-15.8c-1.8-8.6,1.9-16.7,9.8-21.8c2.3-1.4,4.6-2.8,6.8-4.1
		c-0.2-1-0.1-1.5-0.4-1.9c-0.7-1-1.5-2-2.2-3c-12.7-16.5-23.6-34.2-31-53.7c-4.1-10.7-7.2-21.8-10.8-32.7c-0.8-2.3-0.7-5.8-3.8-5.5
		c-2,0.2-4.3,2.5-5.4,4.4c-2.4,4-4.5,8.4-6.2,12.8c-5.1,12.9-12.1,24.7-21.3,35c-3.2,3.6-4.9,7.3-4.7,12.1
		c0.5,11.5-3.1,21.5-10.4,30.4c-2.2,2.7-3.8,6.5-4.5,10c-1.8,9.5-4.8,18.4-10.2,26.4c-2.3,3.3-2.7,6.7-2.2,10.6
		c0.6,4.9,1,10,0.2,14.9c-3.7,23-25.9,37.7-48.9,32.6c-6.3-1.4-12.5-3-19.6-2.4c0,7.7,0,15.1,0,22.6c-132.5,0-265,0-397.5,0
		c-0.1-1.7-0.1-3.5-0.4-5.2c-4.2-35.2,2.4-68.1,20.1-98.8c1-1.7,2-3.5,2.7-5.3c2-4.8,1.4-9-1.7-13.3c-4.7-6.3-9.9-11.2-18.4-10.6
		c-1.5,0.1-3-0.4-4.4-0.7c-24-5-37.2-30.3-27.4-52.7c1.1-2.5,2.3-5,3.8-7.3c2.9-4.3,2.9-8.6,1.5-13.5c-5.8-19.5-8.3-39.6-8.3-59.9
		c0-16.5,2-32.9,5.7-49c0.6-2.5,0.7-5.1,1.1-7.7c-0.5-0.3-1-0.6-1.5-1c-2.4,1.5-4.9,3-7.3,4.4c-7.3,4.3-14.5,8.9-22,12.6
		c-7.4,3.7-7.8,3.7-5.4,11.9c9.8,33.9,4.5,65.2-15.7,94c-5.2,7.4-10.5,14.6-15.4,22.2c-7,10.7-14.7,20.8-24.9,28.7
		c-3.8,2.9-3.9,6-2.6,10.5c1.5,5.4,2.6,11.4,2,16.9c-0.8,7.2,0.7,12.8,5.1,18.7c16.9,23.1,13,55.1-8.2,74
		c-21.3,18.9-53.3,18.8-74.6-0.4c-1.6-1.4-3.2-2.9-6.2-5.5c0,13.4-0.3,25.2,0.2,37.1c-132.5,0-265,0-397.5,0
		c-0.4-1.5-0.7-2.9-1.1-4.3c-13.6-43.6-9.4-85.4,13.2-125.2c0.9-1.6,1.5-3.4,3-6.7c-5.1,2.3-8.6,4-12.2,5.4
		c-15.1,5.8-29.2,3.7-41.3-6.9c-11.9-10.4-16-24-12.3-39.4c6-24.8,33.5-37.2,56.4-25.7c4.2,2.1,8.1,4.7,13.8,8.1
		c-1.1-4.4-1.6-7.2-2.5-9.8c-13.8-40.9-15.6-82.2-5-124.1C9218.2,7.4,9218.5,4.4,9219,1.5z M9233.5,177.9c-1.9,5.4-1.9,5.4-1.1,9.3
		C9237.3,183,9237.3,183,9233.5,177.9z"/>
	<path d="M8197.5,339c-46,0-92,0-138,0c-1.8-1.7-3.4-3.6-5.3-5.1c-9.1-7.1-17.2-15.3-24-24.6c-18.4-25.4-25.8-53.8-23.1-84.9
		c0.2-2.6,0.3-5.2,0.4-7.7c-0.6-0.3-1.1-0.5-1.7-0.8c-2.4,2-4.8,4-7.1,6.1c-24.1,21.1-60.4,18.9-81.5-5c-3-3.3-5.2-7.3-7.8-11
		c-3.1-4.4-3.9-4.4-8.9,0.3c1.8,1.7,3.6,3.3,5.3,5c6.6,6.6,8.1,16.1,3.8,24.1c-4.2,7.7-12.9,11.9-21.5,10.2
		c-8.9-1.7-15.4-9-16.3-18.2c-0.2-2.4-0.3-4.8-0.4-7.4c-1.9,0-3.2-0.3-4.3,0.1c-6.9,2.2-13.9,4.1-20.5,7c-13,5.7-25.9,7-39.3,1.4
		c-1.2-0.5-2.7-0.6-4.7-0.9c0,10.6,0,20.6,0,30.5c0.1,27,0.2,54,0.2,81c-14.5,0-29,0-43.5,0c-1-0.8-1.8-1.7-2.9-2.2
		c-28.6-14.9-45.5-38.3-50.5-70.1c-0.8-5.4-3.4-9.1-8.2-11.7c-11.4-6.1-20.9-14.4-29-24.5c-1-1.3-2.4-2.2-4.7-4.3
		c-0.9,3.9-1.5,6.7-2.1,9.5c-6,27.2-32.1,44.3-59.4,38.8c-1.7-0.3-3.4-0.8-5.1-1.2c-2.9-0.7-5.4-0.1-7.5,2.2
		c-1.3,1.5-2.8,2.9-4.2,4.3c-33.9,34.1-87.8,37.2-125,7.2c-37.5-30.3-45.9-83.9-19.4-124.3c1.1-1.7,2.2-3.3,3.4-4.9
		c1.9-2.6,1.7-5.1-0.1-7.6c-1.2-1.6-2.4-3.2-3.5-4.9c-12.2-18.9-10.8-43.8,4.2-60.6c13.8-15.6,31.3-20.6,51.6-15.9
		c6,1.4,6,1.4,9-3.4c12.5-19.6,31.8-25.9,53.9-17.6c1.7,0.6,3.5,0.8,5.8,1.4c0-2.6,0.2-4.4,0-6c-1.8-12.3-0.8-24.4,2.5-36.4
		c0.4-1.7,0.5-3.4,0.7-5.1c159.5,0,319,0,478.5,0c-0.9,1.8-1.7,3.6-2.6,5.4c-7.6,14.8-23,23.4-39.5,21.7c-4.6-0.5-9.3-1.9-13.7-3.6
		c-4.7-1.8-9-1.9-13.7-0.1c-14.4,5.4-29.3,8.2-44.7,8.5c-2.6,0-5.1,0.7-7.6,1.1c0,1.7-0.2,2.5,0,3.1c0.7,1.6,1.6,3.1,2.6,4.5
		c13.5,18.1,20.8,38.5,22.6,61c0.3,3.7,1.6,7.3,2.5,10.9c1.1,4.8,4,6.6,9.1,6.9c29.5,1.8,50.2,20.7,55.3,49.8
		c0.4,2.3,1.1,4.6,2.1,8.5c2.4-3.1,3.6-4.8,4.9-6.5c5-6.5,9.6-13.5,15.1-19.5c3.7-4.1,4.4-7.6,2.9-12.7
		c-5.7-19.3,2.4-37.8,19.6-45.9c17.2-8.1,37-2.5,47.8,14.3c3.6,5.6,7.8,7,13.8,5.8c5.5-1.1,7.1-3,5.3-8.3c-2-5.9-4.3-11.7-7.1-17.3
		c-4.3-8.6-6-17.3-4.5-26.8c0.9-5.6,0.9-11.4,1.6-17.1c1.5-11.9,3.1-23.7,4.8-35.6c0.4-2.7,1-5.4,1.4-8.1c111.5,0,223,0,334.5,0
		c2.7,1.2,5.4,2.6,8.1,3.6c14.8,5.2,28.1,13,39.4,24c26.6,25.9,37.8,57.5,33.7,94.4c-0.3,2.6-0.5,5.2-0.7,8.4
		c2.1-0.4,3.1-0.5,3.9-0.9c1.6-0.8,3-1.7,4.5-2.6c29.2-16.8,65.2-4.5,78.1,26.6c1.2,2.8,2.7,5.5,4.3,8.8c6-4.6,11.6-7.8,10-16.1
		c-3.2-15.8,2.5-27.9,16.2-36.3c3.9-2.4,5.4-5.2,4.2-9.9c-8-33.5-6.8-66.9,2.4-100c140.5,0,281,0,421.5,0c2,1.5,3.9,3,6,4.5
		c25.3,18,39.3,42.6,42.4,73.4c2,19.9-0.3,39.4-5.9,58.5c-6,20.7-17.6,37.9-34.3,51.6c-1.3,1.1-2.8,2.1-4,3.3
		c-4.3,4.3-4.2,9,0.3,12.9c1.5,1.3,3.2,2.3,4.8,3.5c24.9,19.1,28.6,55.5,8,79.2c-20.8,24-57.8,25.3-79.9,2.5
		c-4.6-4.7-7.8-10.9-11.4-16.5c-1.9-3-3.4-6.1-8.8-5.8c0.1,23.6-0.2,46.9,0.3,70.3c-128.5,0-257,0-385.5,0
		c-20.1-32.4-27-67.3-20.3-104.9c0.4-2.1,0.3-4.3,0.6-7.5c-3.5,0.5-6.2,0.7-8.7,1.2c-31.7,6.6-60.1-12.2-66.1-44.1
		c-0.4-2.3-1.1-4.6-2-8.3c-4.3,4.4-7.4,7.8-10.8,11c-3.6,3.4-7.3,6.8-11.2,9.9c-3.6,2.9-7.5,5.5-11.1,8.1c0.5,1.1,0.6,1.8,0.9,2
		c1.9,1.2,3.8,2.4,5.7,3.6c12,7.5,18.2,21,15.9,34.6c-2.3,14-13,25.1-26.9,27.9c-14.2,2.9-28.2-3.3-36-15.8
		c-3.9-6.2-3.9-6.2-11.1-4.7c-8.7,1.9-17.3,1.8-26-0.3c-2.3-0.5-4.6-0.9-6.9-1.4c-0.4,1.6-0.7,2.3-0.7,3c0,28.5,0.1,56.9,0.2,85.4
		c-36,0-72,0-108,0c-9.4-9.8-17.3-20.6-22.7-33c-2.6-5.9-4.6-12.1-6.8-18.2c-1.8-4.9-2.8-5.4-7.8-3.7c-3.5,1.2-6.9,2.9-10.5,3.9
		c-5.6,1.6-9.5,4.8-12.4,9.9c-8.4,15-19.7,27.4-33.5,37.6C8199.9,336.5,8198.8,337.8,8197.5,339z M7555,127c3.9,2.2,5.7,3.3,7.7,4.3
		c7.3,3.8,7.4,3.8,11.4-3.4c4.5-8,10.5-14.5,18.1-19.5c2-1.3,3.8-2.9,5.9-4.6c-3.5-5.9-7-10.7-13.2-15.1
		C7582.4,107.4,7572.1,119,7555,127z"/>
	<path d="M7491,1.5c-0.5,2.4-1,4.9-1.5,7.3c-4.6,20.3-16.6,34.1-36.5,39.9c-19.9,5.9-37.6,0.8-52.3-13.9c-8-8-7.9-8.1-17.8-2.8
		c-10.9,5.8-22.3,10-34.3,13c-7.6,1.9-8.5,3.6-4.8,10.3c9,16.6,13.7,34.2,14.8,53c0.2,3.8,1.7,7.9,3.8,11.1
		c5.4,8.5,8.7,17.4,7.8,27.6c-0.3,3.6,1.4,6.1,3.7,8.6c8.1,9.1,11.7,19.8,9.8,31.9c-2.3,14.8-10.6,25.3-24.6,30.6
		c-14,5.3-27,2.8-38.8-6.5c-1.2-0.9-2.2-2-3.3-3c-4.5-4.1-4.8-4.1-10.3-0.8c-0.2,0.1-0.4,0.3-0.6,0.4c-29.6,18.5-61.3,23.2-95,13.9
		c-1.7-0.5-3.4-0.9-5.1-1.2c-0.5-0.1-1,0.1-2.4,0.2c-0.2,2.6-0.6,5.4-0.6,8.3c-0.1,27.7,0,55.5-0.1,83.2c0,2.6-0.3,5.3-0.4,8.8
		c-3.6-0.7-6.3-1-8.8-1.8c-20.2-6.4-34.7-19.3-43.6-38.5c-0.8-1.8-1.6-3.7-2.3-5.5c-1.2-2.7-3.2-3.6-6.1-2.9
		c-1.5,0.4-2.9,0.8-4.4,1.1c-42.1,9.7-82.2-18.6-87.2-61.5c-0.3-2.4-0.6-4.8-1-7.7c-6.1,0-11.7,0-18.1,0c0.7,2.5,1.2,4.3,1.8,6.1
		c5.7,15.5,3.4,29.8-8.2,41.6c-11.6,11.8-25.8,14.5-41.4,9.1c-6.7-2.3-6.8-2.4-10.6,3.8c-3.6,5.8-7.9,10.9-13.9,14.4
		c-14.9,8.6-33.8,5.5-44.7-8.2c-3.9-4.9-8.2-7.1-14.3-8c-52.2-8.2-77.8-67.7-48.1-111.4c0.7-1,1.5-2,2.2-3c3.3-4.8,3.2-4.8-0.5-9.7
		c-2.6-3.4-5.2-6.8-7.1-10.6c-7.4-15.2-6.9-30.4,1-45.4c1.3-2.4,2.6-4.7,4.1-7.4c-6.7-3.2-13-5.6-18.6-9.2
		c-5.6-3.6-11-7.9-15.4-12.9c-4.4-5-8-10.9-11-16.9c-2.9-5.9-4.6-12.4-7.2-19.7c-2.8,2.2-4.8,3.5-6.6,5.1
		c-13.3,12.1-28.6,21-45.5,26.9c-7.7,2.7-8.3,4.1-4.2,11.4c11.2,20.4,15.7,42.1,12.8,65.1c-0.6,4.8,0.8,8,4.2,11.2
		c8.1,7.8,10.5,17.4,7.2,28.2c-1.7,5.7-5.2,10.3-10.1,13.6c-2.9,1.9-4.3,4.1-4.8,7.8c-2.1,17.2-18.6,25.1-33.3,15.7
		c-4-2.6-6.8-2.5-10.7,0c-30.9,19.4-63.5,22.5-97.6,9.8c-1.4-0.5-2.8-1-4.3-1.4c-0.4-0.1-1,0.1-2,0.2c-0.2,1.2-0.8,2.6-0.8,3.9
		c0.3,12-1.3,24,1.6,35.8c0.6,2.6,0.8,5.6,0.2,8.2c-2.4,9.9-1.8,19.9-1.9,29.8c0,1.4-0.3,2.9-0.5,5.1c-2-0.9-3.6-1.3-4.8-2.2
		c-9.7-7.8-15.8-17.9-18.5-30c-0.5-2.2-0.5-4.6-1.6-6.5c-0.9-1.4-2.9-2.8-4.6-2.9c-1.2-0.1-2.8,1.7-3.7,3c-0.9,1.4-1.2,3.3-1.8,4.9
		c-14,39.4-57.2,59-95.9,43.5c-38.2-15.3-56.1-59.3-39-97.1c2.5-5.7,2-9.1-1.9-13.8c-11.8-14.2-8.4-35.1,6.7-45.4
		c14.8-10.1,35.3-6,44.3,9.8c3.3,5.8,6.9,7.3,13.1,6.7c10.6-1.1,20.9,1,30.8,4.8c6.4,2.5,6.5,2.3,10-3.6
		c13.8-23.2,34.2-33.4,61-30.7c1.2,0.1,2.5,0.3,3.7,0.3c0.5,0,0.9-0.3,2.2-0.8c0.1-2.1,0.3-4.5,0.3-6.9c0.1-6.2-0.6-12.6,0.2-18.7
		c1.1-9.2-3.7-15.5-8.9-22.2c-40.7,23.3-75,15.8-103.2-22.3c-1.7,2.4-3.1,4.1-4.2,6c-8.4,13.6-20.2,22.7-35.6,27
		c-4.3,1.2-6.6,3.1-7.8,7.7c-3.8,14.5-17.3,22.3-31.1,18.5c-13.4-3.7-21-17-17.3-31.2c1.1-4.1,1-6.9-2.2-10
		c-21.1-20-24.9-54.7-5.6-80c182.5,0,365,0,547.5,0c2.5,15.5-1.4,29.7-9.2,43c-1.3,2.2-2.6,4.5-3.9,6.7c9.6,0.4,18.5-0.6,26.7,1.4
		c8.5,2,16.2,6.9,25.1,11c-0.6-2.5-1.1-4.8-1.8-7c-4.7-16.4-4.3-32.6,1.5-48.6c0.8-2.1,1.3-4.3,1.9-6.4C7147,1.5,7319,1.5,7491,1.5z
		 M7134.5,133.3c1.4,1.6,1.6,1.9,1.8,1.9c19.5,5.5,35.1,16.3,45.8,33.8c0.8,1.4,3.2,2.8,4.8,2.7c5.1-0.4,10.2-1.4,15.1-2.2
		c2-12.7,1.1-64-1.3-69.3c-1.7,1.1-3.4,1.9-4.7,3.2c-13.7,13.2-29.8,21.5-48.3,25.4C7143.3,129.6,7139.3,131.6,7134.5,133.3z
		 M7003.2,186.3c-9.8-19.5-7.7-37.2,6.9-53.7c-11.3-10.2-15.2-22.9-15.5-37.3c-0.1-4.9-3.9-8-8.6-9.9c-0.4,0.9-0.7,1.4-0.7,1.8
		c0,1.2,0.2,2.5,0.4,3.7c3.1,19.4-2.7,35.4-17.6,48.2c-4.5,3.9-4.6,4.2-0.8,9.1c7.9,10.4,12.8,21.9,14.7,34.8c0.2,1.6,1,3.2,1.6,5
		C6990,187.5,6996.1,186.9,7003.2,186.3z M7107.8,133.5c-6-4-11.4-7.8-17-11.4c-2.3-1.5-4.7-3-7.2-3.8c-1.5-0.4-4.2,0-5.1,1.1
		c-3.8,4.5-7,9.5-10.7,14.4c3.2,4.6,6.3,9,9.2,13.1C7087.4,142.4,7097.1,138.2,7107.8,133.5z M6603.6,9.1c0,2,0,4,0,6.8
		C6606,12.3,6606,12.3,6603.6,9.1z"/>
	<path d="M5814,339c-8.3-8.3-16.1-17-21.7-27.6c-8.5-16.1-12.4-33.1-11.5-51.3c0.1-2.7,0-5.4,0-9.4c-2.5,1.3-4.4,2.1-6.1,3.2
		c-18.3,10.9-38.2,0.1-38.9-21.2c-0.6-18.6,10.3-32.2,27.1-33.5c10.5-0.9,19.1,2.8,25.4,11.4c1.3,1.7,2.6,3.5,4.5,5.9
		c2-2.6,3.5-4.5,4.8-6.4c8.6-12.6,19.5-22.8,32.9-30c4.9-2.6,8.1-6.1,10.5-11.1c7-14.5,21.2-21.8,36.3-19
		c9.3,1.7,16.4,6.8,21.9,14.5c2,2.7,4.6,5.3,7.5,6.9c3.6,2,5.6,0.7,6.5-3.3c1-4.6,1.7-9.3,2.6-14.6c-2.3-0.4-4.4-0.7-6.5-1.2
		c-6.8-1.4-11.2-6.2-11.8-12.7c-0.5-6,2.6-11.5,7.9-14.1c5.8-2.8,12.4-1.4,17,3.6c1.2,1.3,2.2,2.7,3.5,4.5
		c5.5-4.5,10.4-9.5,16.2-13.1c5.9-3.6,12.4-6.6,19.1-8.4c6.4-1.7,13.3-2.2,20-1.9c6.8,0.3,13.6,2.3,21.1,3.6
		c0.1-8.4,2.5-16.5-4-23.6c-2.4-2.6-3.3-6.6-5.1-10.3c-2,0.3-3.9,0.5-5.8,1c-15.3,3.7-29.7,1.5-43.5-5.9c-3.8-2.1-8.3-3.4-12.6-3.9
		c-16.3-1.8-28.7-11.4-33-26.3c-4.3-14.9,1-29.9,13.9-39.8c1.4-1,2.6-2.3,3.8-3.4c29,0,58,0,87,0c-0.1,7-0.3,14-0.2,21
		c0.1,6.7-0.8,13.6,0.8,20.9c4.9-2.8,8.9-4.8,12.7-7.2c3.9-2.4,9.3-2.4,12.3-7.6c-2.1-2.1-4.2-4.1-6.2-6.2
		c-6.2-6.4-13.3-12-16.4-20.9c59,0,118,0,177,0c-7.5,12.1-17.4,21.8-29,30c-11.3,8-24.3,12.2-38.2,17.4c2.6,3.5,4.4,6,6.4,8.4
		c43.4,50.9,16.4,129.7-49,143c-21.7,4.4-42.2,0.8-61.5-10.1c-2.3-1.3-4.6-2.5-8.4-4.5c0.7,3.9,1.1,6,1.5,8.1
		c1,4.6,2.4,9.2,2.8,13.9c0.4,5.1,2.6,8,6.8,10.7c15.8,9.9,22.9,27.2,18.5,44.5c-3.2,12.3-10.6,21.3-22.1,26.9
		c-1.6,0.8-3.2,1.3-4.9,1.8c-0.7,0.2-1.5,0-3.1,0c0-19.3,0-38.4,0-57.5c-1.6-0.2-2.4-0.4-3.1-0.3c-7.1,1.3-14.2,2.6-21.3,3.9
		c-4.4,0.8-5,1.5-4.5,6c0.7,6.4,2.1,12.9,2.2,19.3c0.5,27.6-9.1,51.3-28.4,71.1c-1.6,1.6-3,3.3-4.5,5C5900,339,5857,339,5814,339z"
		/>
	<path d="M5403,1.5c0,24.2,0,48.4,0,72.6c0.4,0.3,0.8,0.5,1.2,0.8c1.7-1.9,3.3-3.8,5-5.8c35.3-39.6,99.9-28.7,119,20.6
		c10.6,27.4,6,53.1-14.1,74.5c-20.6,21.9-46.1,27.5-74.8,18.7c-1.2-0.4-2.4-0.7-3.5-1.3c-4.4-2.5-7.7-1.7-11.1,2.1
		c-5.4,6.1-12.4,9.9-21.3,11.3c-0.3-4.8-0.6-9.1-1-14.7c-21.6,21.9-43.9,23.3-67.9,4.3c-0.4,2.5-0.6,4.1-0.8,5.7
		c-1,6.1-1.5,12.4-3.2,18.3c-1.3,4.6-0.9,7.8,2.4,11.5c30.5,33.3,37.4,71.1,20.9,113.2c-0.7,1.8-1.1,3.8-1.6,5.7
		c-61.5,0-123,0-184.5,0c-0.8-2.3-1.6-4.7-2.5-7c-8-19.5-10.1-39.5-6.1-60.2c0.5-2.6,0.9-5.3,1.5-8.9c-3.2-0.2-5.6-0.4-7.9-0.4
		c-16.7-0.2-30.4-10-35.2-25.3c-4.8-15,0.7-31.4,13.5-40.6c13-9.3,29.7-8.9,43.4,0.9c0.8,0.6,1.6,1.2,2.4,1.8
		c9.4,6.4,9.4,6.4,14.8,15.3c2-1.4,4-2.7,5.9-4.1c10.3-7.7,21.5-13.9,34-16.9c6.8-1.6,9.8-4.8,11.3-11.7
		c5.9-26.7,33.1-42.2,58.8-33.7c5.8,1.9,10.9,5.8,16.3,8.9c1.5,0.8,2.7,2,5,3.8c0.4-2.6,0.9-4.3,1-6.1c0.8-18.8,9.5-32.6,27-39.6
		c17.8-7.1,33.8-3.1,47.5,10.4c0.9,0.9,1.8,1.6,2.8,2.4c0.2,0.1,0.5,0.1,1.7,0.2c0.5-8.4,0.3-16.7,0-25c0-0.7-0.4-1.6-1-1.9
		c-5.6-3.5-9.6-9.1-17.3-9.5c-11.2-0.6-21.5-4.7-30.8-10.9c-3.8-2.5-7-2.6-11.1-0.9c-16.2,6.6-32.8,0.4-40.2-14.3
		c-7.2-14.6-2.4-31.2,12.1-40.4c3.8-2.4,5.8-4.9,5.9-9.5c0.1-4.7,1.1-9.4,1.8-14.1C5349,1.5,5376,1.5,5403,1.5z"/>
	<path d="M6352.5,1.5c9,34.8-5.4,58.4-37.3,74.6c2.8,1.2,4.1,2.2,5.6,2.3c1.7,0.1,3.4-0.6,5.2-0.8c16.6-2.4,32.5,6,39.5,21
		c7.2,15.2,3.4,33.1-9.5,44.4c-1.1,1-2.7,1.7-3.4,2.9c-0.9,1.6-1.9,3.9-1.4,5.3c5.3,13.4,5.2,26.8,0.9,40.4
		c-0.1,0.4,0.2,0.9,0.5,2.4c8.8-0.1,16.9,4.8,26.6,3.6c13.6-1.7,25.8,7.3,29.6,20.3c3.7,13-1.9,26.8-14.2,33
		c-4.4,2.3-7.6,5.2-10.5,9.2c-11.1,15.4-29.7,20.9-46.5,14.3c-16.6-6.5-26.1-22.8-24.2-41.5c0.2-2.4,0.4-4.8,0.7-8
		c-29.4,2.7-52-7.1-61.7-35.5c-9.7-28.3,2-50,26.9-65.8c-17.6-14.9-19.2-31.3-5.3-49.3c-2.1-1.3-3.6-2.4-5.3-3.4
		c-23.3-13.3-34.4-37.2-29.6-63.5c0.4-2,0.6-3.9,0.9-5.9C6277.5,1.5,6315,1.5,6352.5,1.5z"/>
	<path d="M2494.5,1.5c1.5,5.8,3.7,11.5,4.3,17.4c0.7,6.4,0.3,12.9,0,19.4c-0.2,5.9,0,6.5,5.7,7.1c3.2,0.3,6.5,0.4,9.7,0.9
		c45.4,6.7,75.7,49.8,66.6,94.7c-9,44.8-54.1,72.8-98.4,61.1c-44.3-11.7-69.6-58-55.4-101.7c2.9-8.8,5.4-9.9-6.9-12.9
		c-4.3-1-8.3-3.3-12.4-5.1c-3.7-1.5-5.1-4.2-5.1-8.3c0.2-24.2,0.2-48.5,0.3-72.7C2433.5,1.5,2464,1.5,2494.5,1.5z"/>
	<path d="M4803,1.5c-0.1,29-0.2,57.9-0.3,86.9c0,6,0,11.9,0,19.2c7.2-4.8,13.3-8.6,17.1-15.9c13.3-25.7,42.9-36.8,69.6-26.8
		c27.7,10.4,42.6,40.6,34,69c-8.6,28.3-37.7,45.1-66.6,38.4c-4.5-1-9.6-3.1-13.7-1.9c-4.7,1.4-3.2,7.8-4.7,11.9
		c-6,16.7-17.3,27.5-35.5,33.3c-0.7-34,0.1-67-0.5-100.1c-1.7-0.6-2.8-1.1-4-1.3c-7.1-1.4-12.8-5.1-18.3-9.6
		c-5.2-4.2-11-7.6-16.6-11.4c-2.8-1.9-5.1-1.3-7.3,1c-1.2,1.3-2.4,2.5-3.8,3.6c-12.8,10.4-27,12.9-42,6c-15-6.8-22.9-19.2-23-35.7
		c0-16.5,8.1-28.4,22.8-35.8c1.3-0.7,2.8-1.1,4.2-1.7c5.5-2.2,5.3-2.3,5.3-8.3c0-7,0.4-13.9,0.7-20.9C4748,1.5,4775.5,1.5,4803,1.5z
		"/>
	<path d="M4203,1.5c-0.1,31-0.1,62-0.2,92.9c0,0.9,0.3,1.9,0.7,3.7c2-1.7,3.4-2.9,4.8-4.1c9-7.9,19.5-11.3,31.3-9
		c5.1,1,9-0.1,13.2-2.9c18.5-12.2,42.6-9.1,57.4,7c14.4,15.7,15.6,39.5,2.9,56.7c-13,17.6-36.5,23.2-56.3,12.9
		c-4.6-2.4-8.6-2.5-13.5-1.3c-5.7,1.4-11.7,1.4-18.2,2.1c6.7,23.5,1.3,42.5-22.2,56.4c-0.1-31.1,0-60.7-0.1-90.3
		c-6.9-1.3-13.5-1.8-19.4-3.9c-5.7-2.1-10.9-5.9-17.1-9.4c-1.8,1.9-3.9,4.1-6.1,6.4c-18.8,19.6-49.6,20.8-69.8,2.8
		c-20-17.8-22.6-48.1-5.9-69.1c15.9-20,44.3-24.8,66.2-11.1c2.4,1.5,4.8,3.1,8.7,5.5c-2.6-8.9-5.3-15.9-6.4-23.1
		c-1.1-7.3-0.7-14.9-0.9-22.4C4169,1.5,4186,1.5,4203,1.5z"/>
	<path d="M3093,1.5c3.1,13.4,2.4,26.4-4.7,38.5c-2.3,3.8-5,7.4-7.7,11.3c2.4,2.7,5.3,1.3,7.8,1.2c22.3-1.2,41.3,6,56.8,22.1
		c22.5,23.4,25.6,59.9,7.7,87.3c-17.9,27.3-52.3,38.8-83.1,27.8c-30.5-10.9-49.9-41.6-46.4-73.6c0.6-5.2,0.9-10.3-0.5-15.5
		c-1.9-7.1,1.4-12.4,8.7-16.4c4.1-2.2,15.2-13.5,18.3-18.9c-2.7-0.3-5.1-0.5-7.4-0.7c-14.8-1.4-26.6-7.9-35.7-19.7
		c-2.5-3.3-4.1-6.8-4-11c0.1-10.7,0.1-21.5,0.2-32.2C3033,1.5,3063,1.5,3093,1.5z"/>
	<path d="M4576.5,339c-0.4-2.7-0.8-5.4-1.3-8.1c-5.6-27.7,6-55.6,29.4-71c23.2-15.2,53.3-14.9,76.2,0.9c23.1,15.9,34,44.1,27.8,71.6
		c-0.5,2.2-1,4.4-1.6,6.5C4663.5,339,4620,339,4576.5,339z"/>
	<path d="M5853,1.5c1.6,1.8,3.2,3.7,4.9,5.4c15.2,14.4,19.8,36,11.6,55c-8.2,18.9-27.1,30.3-48,29.1c-2-0.1-3.9-0.2-6.3-0.3
		c0,2.2,0,4.1,0,6c0.2,8.2-4.7,14.7-12.3,16.6c-7,1.7-14.3-1.7-17.7-8.1c-3.7-6.9-1.9-15,4.4-20.2c1.5-1.2,3.1-2.3,5-3.8
		c-1.8-2-3.2-3.6-4.7-5.2c-18.9-20.3-17.6-51,3-69.7c1.6-1.5,3.1-3.2,4.7-4.7C5816,1.5,5834.5,1.5,5853,1.5z"/>
	<path d="M1866,1.5c1.9,2.3,3.9,4.5,5.7,6.9c14.2,18.8,14.2,44.6-0.1,63.5c-14.2,18.7-39.4,25.7-61.2,16.9c-7.3-3-7.6-3.2-7.6-10.9
		c0-25.5,0.1-51,0.2-76.4C1824,1.5,1845,1.5,1866,1.5z"/>
	<path d="M5551.5,1.5c-1,2-1.7,4.1-3,5.9c-31.4,44.2-99.9,43.9-130.8-0.6c-1.1-1.6-1.8-3.5-2.7-5.3C5460.5,1.5,5506,1.5,5551.5,1.5z
		"/>
	<path d="M5746.5,1.5c1.6,1.9,3.3,3.7,4.9,5.6c11.9,13.8,10.9,34.3-2.2,46.8c-13,12.5-33.7,12.6-46.9,0.1
		c-13.1-12.4-14.2-32.9-2.4-46.8c1.6-1.9,3.1-3.8,4.6-5.7C5718.5,1.5,5732.5,1.5,5746.5,1.5z"/>
	<path d="M4929,1.5c-9.6,22.6-34.9,37.5-60.5,35.3c-19.8-1.7-35.4-10.9-46.7-27.3c-1.7-2.4-2.6-5.3-3.8-8
		C4855,1.5,4892,1.5,4929,1.5z"/>
	<path d="M3693,1.5c1.7,17.9-13.4,39.9-38.7,39.8c-21.8-0.1-38.5-17.8-37.8-39.8C3642,1.5,3667.5,1.5,3693,1.5z"/>
	<path d="M4308,1.5c-0.8,1.8-1.5,3.7-2.4,5.5c-8.3,17.7-22.3,27.5-41.9,27.5c-19.6,0-33.5-9.8-41.8-27.5c-0.8-1.8-1.6-3.6-2.4-5.4
		C4249,1.5,4278.5,1.5,4308,1.5z"/>
	<path d="M9202.5,1.5c-16,22.6-37.7,32.1-65.1,27.1c-13.7-2.5-25.2-9.5-34.2-20.2c-1.7-2-2.8-4.6-4.2-6.9
		C9133.5,1.5,9168,1.5,9202.5,1.5z"/>
	<path class="st0" d="M6975,1.5c-0.6,2.1-1.2,4.3-1.9,6.4c-5.8,16-6.3,32.2-1.5,48.6c0.6,2.2,1.1,4.5,1.8,7c-8.9-4-16.7-8.9-25.1-11
		c-8.2-2-17.2-1-26.7-1.4c1.3-2.2,2.6-4.4,3.9-6.7c7.8-13.3,11.7-27.5,9.2-43C6948,1.5,6961.5,1.5,6975,1.5z"/>
	<path d="M3988.5,339c0.8-22.6,21.8-39.6,44.3-35c15.3,3.2,24.9,12.7,29.1,27.7c0.7,2.4,1.1,4.8,1.7,7.2
		C4038.5,339,4013.5,339,3988.5,339z"/>
	<path d="M8619,1.5c-1.5,2.5-2.6,5.4-4.5,7.5c-13.7,14.7-30.6,19.7-49.6,13.1c-10.5-3.6-20.9-5.5-32-5.9c-16.3-0.5-32-4.6-47-11
		c-2.3-1-4.3-2.4-6.4-3.7C8526,1.5,8572.5,1.5,8619,1.5z"/>
	<path class="st0" d="M6006,1.5c3.1,8.8,10.2,14.5,16.4,20.9c2,2.1,4.1,4.1,6.2,6.2c-3.1,5.2-8.5,5.2-12.3,7.6
		c-3.8,2.4-7.8,4.4-12.7,7.2c-1.6-7.3-0.7-14.2-0.8-20.9c-0.1-7,0.1-14,0.2-21C6004,1.5,6005,1.5,6006,1.5z"/>
	<path class="st0" d="M12040.5,339c2-3.9,4-2.4,6,0C12044.5,339,12042.5,339,12040.5,339z"/>
	<path class="st0" d="M9233.5,177.9c3.9,5.1,3.9,5.1-1.1,9.3C9231.5,183.3,9231.5,183.3,9233.5,177.9z"/>
	<path d="M4543.9,117.3c-0.1,35.6-29,64.3-64.6,64.2c-35.6-0.1-64.4-29.1-64.2-64.7c0.1-35.6,29.1-64.3,64.7-64.2
		C4515.3,52.7,4544,81.6,4543.9,117.3z"/>
	<path d="M3872.4,39.1c34-0.1,61.7,27.5,61.6,61.5c-0.1,33.7-27.4,61.1-61.1,61.2c-34,0.1-61.6-27.4-61.5-61.5
		C3811.4,66.5,3838.7,39.2,3872.4,39.1z"/>
	<path d="M3439.6,60.7c-0.1,31.9-26.1,57.6-57.9,57.4c-31.5-0.2-57.2-25.9-57.2-57.4c-0.1-31.9,25.8-57.9,57.6-57.9
		C3413.8,2.8,3439.7,28.8,3439.6,60.7z"/>
	<path d="M1912.2,70.5c31.4-0.2,56.9,25,57.1,56.3c0.2,31.4-25.1,56.9-56.4,57.1c-31.3,0.2-56.9-25.1-57.1-56.4
		C1855.7,96.2,1880.9,70.7,1912.2,70.5z"/>
	<path d="M3734.3,118.3c0.1,25.5-15.8,45.4-37.9,50.6c-22.5,5.2-45.7-5.8-55.3-26.9c-2.5-5.5-5-8.5-11.4-9.6
		c-13.1-2.3-20.7-15.6-17.5-28.4c3.1-12.4,15.7-20.4,28.3-16.7c5.7,1.6,8.9,0.2,13.2-3.3c15.9-13.1,33.8-15.7,52.5-7
		C3724.5,85.5,3733.4,100.9,3734.3,118.3z"/>
	<path d="M2719.3,65.6c-0.1-28.3,22.7-51,51-51c28.2,0,51,22.9,50.9,51.2c-0.1,27.9-22.7,50.5-50.6,50.7
		C2742.3,116.6,2719.4,93.8,2719.3,65.6z"/>
	<path d="M3558.3,77.5c1.9-3.4,3.1-5.6,4.4-7.7c7.2-11.7,21.3-17.6,34.3-14.3c5,1.3,5.8,2,5.8,7.1c0.1,15.7,0.1,31.5,0,47.2
		c0,5.6-0.7,6.3-6.2,7.5c-9.6,2.1-18.3,0-26.2-5.8c-1.9-1.5-3.8-3-6.5-5.2c-5.2,18.2-15.5,30.8-33.9,34.9
		c-12.1,2.7-23.4,0.3-33.5-6.7c-20.4-14.1-24.5-42.9-8.8-62.1c9.4-11.4,21.6-16.6,36.3-15.7C3538.4,57.5,3549.2,65,3558.3,77.5z"/>
	<path d="M4753.3,201.7c-0.2,27.6-22.7,49.9-50.4,49.8c-27.6-0.2-49.9-22.8-49.7-50.4c0.2-27.7,22.7-49.9,50.4-49.7
		C4731.2,151.4,4753.5,174,4753.3,201.7z"/>
	<path d="M5086.9,182.7c-25.4,0.1-46.6-19.7-48.3-45c-1.7-25.4,16.7-47.8,41.9-51c25.4-3.2,48.6,13.5,53.5,38.6
		c0.9,4.4,1.3,8.9,1.7,13.4c0.2,2,0.1,4-0.4,5.9C5130.4,165.8,5108.9,182.6,5086.9,182.7z"/>
	<path d="M4036.7,55.7c0,24-19.3,43.4-43.2,43.4c-24,0.1-43.4-19.3-43.5-43.3c0-23.9,19.4-43.4,43.3-43.5
		C4017.3,12.4,4036.7,31.7,4036.7,55.7z"/>
	<path d="M4580.7,226.9c-0.3,23.7-19.7,42.7-43.4,42.5c-24-0.2-43.2-20-42.7-43.9c0.5-23.7,20.1-42.5,43.7-42.1
		C4562.1,183.7,4581,203.2,4580.7,226.9z"/>
	<path d="M3266.5,121.9c-20.7,0.2-37.3-16.1-37.6-36.7c-0.3-20.9,16.4-37.9,37.3-37.9c20.6,0,37.2,16.6,37.3,37.2
		C3303.5,105,3287.1,121.7,3266.5,121.9z"/>
	<path d="M5251.9,47c-0.1,20.6-16.9,37.1-37.4,36.8c-21-0.2-37.2-17-36.7-39.2c0.4-16.3,14.4-34.8,37.1-34.9
		C5235.4,9.7,5252,26.4,5251.9,47z"/>
	<path d="M4802.8,247.7c0-6.5,0.2-13-0.1-19.5c-0.2-4.3,1.7-7,5-9.3c14.6-10.5,35.5-8.2,47.7,5.3c12.4,13.8,12.3,34.9-0.3,48.5
		c-12.4,13.5-33.2,15.5-47.7,4.7c-3.1-2.3-4.7-4.8-4.6-8.8C4802.9,261.7,4802.8,254.7,4802.8,247.7z"/>
	<path d="M4119.2,244.6c-19,0.2-34.5-15.2-34.5-34.2c0-18.7,15.1-33.9,33.8-34c19-0.2,34.5,15.2,34.5,34.2
		C4153,229.2,4137.9,244.4,4119.2,244.6z"/>
	<path d="M1356,129.7c0,18.2-14.6,32.8-32.8,33c-18.5,0.2-33.4-14.7-33.3-33.1c0.1-18.4,15.1-33.3,33.5-33
		C1341.6,96.7,1356.1,111.5,1356,129.7z"/>
	<path d="M4637.1,51.1c0,18.2-14.6,32.9-32.8,32.8c-17.9-0.1-32.4-14.4-32.6-32.3c-0.2-18.2,14.3-33.1,32.5-33.2
		C4622.3,18.3,4637,32.9,4637.1,51.1z"/>
	<path d="M3956.6,226.3c0.1,17.8-14.3,32.5-32.2,32.8c-17.9,0.2-32.6-14.1-32.9-32c-0.3-18.1,14.4-33.1,32.5-33.1
		C3941.8,194,3956.4,208.5,3956.6,226.3z"/>
	<path d="M2188,70.6c0,16.5-13.3,30-29.9,30.1c-16.9,0.1-30.5-13.6-30.3-30.4c0.2-16.6,13.7-29.8,30.3-29.7
		C2174.6,40.6,2188,54.1,2188,70.6z"/>
	<path d="M1222.4,20.9c12.3,0.9,23.2,8.3,27.6,19.6c4.5,11.5,1.5,24.6-7.7,32.9c-9,8.1-22,9.9-32.9,4.7c-4.5-2.1-6.9-4.9-6.7-10.4
		c0.4-11,0.3-22,0-33c-0.1-5,1.7-8.2,6.2-9.8C1213.3,23.4,1217.9,22.3,1222.4,20.9z"/>
	<path d="M2917.9,138.3c-13.4-0.1-24.2-11-24.1-24.4c0.1-13.4,11-24.2,24.5-24.1c13.4,0.1,24.2,11,24.1,24.4
		C2942.3,127.6,2931.3,138.4,2917.9,138.3z"/>
	<path d="M4756.5,113.1c12.8,0,23.4,10.4,23.6,23.3c0.2,13.1-10.5,24-23.7,23.9c-13.1,0-23.8-10.9-23.6-24
		C4733,123.4,4743.6,113,4756.5,113.1z"/>
	<path d="M5154.5,61.4c-12.1-0.1-21.8-9.9-21.7-22.1c0.1-12.1,10-21.8,22.1-21.6c12.2,0.1,21.9,10.2,22,22.8
		C5177.1,51.2,5166,61.5,5154.5,61.4z"/>
	<path d="M2681.4,69.6c-0.1,11.8-9.7,21.3-21.4,21.4c-12.1,0.1-21.8-9.9-21.5-22c0.2-11.8,9.9-21.1,21.8-21
		C2672,48.1,2681.5,57.8,2681.4,69.6z"/>
	<path d="M1564.8,75.8c0.1,11.1-8.8,20.1-19.9,20c-10.8-0.1-19.5-8.8-19.6-19.6c-0.1-11.1,8.8-20.1,19.9-20
		C1556,56.3,1564.7,65,1564.8,75.8z"/>
	<path d="M4245.3,265.7c-10.8,0.1-19.6-8.3-19.8-19.1c-0.3-11,8.6-20.1,19.7-20c10.7,0.1,19.4,8.7,19.5,19.5
		C4264.7,256.8,4256.1,265.5,4245.3,265.7z"/>
	<path d="M3534,238.4c-10.5-0.2-18.8-8.9-18.5-19.5c0.3-10.6,9-18.7,19.6-18.3c10.2,0.4,18.3,8.8,18.2,19.1
		C3553.2,230.2,3544.5,238.6,3534,238.4z"/>
	<path d="M3328.5,227c-0.2,9.7-8.1,17.5-17.8,17.4c-10-0.1-18-8.4-17.6-18.4c0.4-9.7,8.6-17.4,18.2-17.1
		C3321,209.3,3328.7,217.4,3328.5,227z"/>
	<path d="M2981.9,106.6c-9.7,0-17.7-7.8-17.8-17.5c-0.1-10,8.1-18.2,18.1-18c9.7,0.2,17.5,8.3,17.4,17.9
		C2999.6,98.7,2991.7,106.6,2981.9,106.6z"/>
	<path d="M602.8,61.7c0-3,0.2-6,0-9c-0.3-4.2,1.9-6.4,5.5-7.8c7.6-3,16.4-0.7,21.6,5.8c5.3,6.6,5.3,16.2,0.2,22.9
		c-5,6.6-13.8,9-21.5,6.1c-3.9-1.5-6.2-3.8-5.8-8.3C603,68.2,602.8,64.9,602.8,61.7z"/>
	<path d="M2300.1,128.3c0-8.3,7-15.3,15.3-15.3c8.3,0,15.3,7,15.3,15.3c0,8.3-7,15.3-15.3,15.3
		C2307,143.6,2300.1,136.6,2300.1,128.3z"/>
	<path d="M3660.9,257.7c-7.6,0-13.8-6.3-13.7-13.9c0.1-7.6,6.4-13.6,14-13.4c7.3,0.2,13.2,6.1,13.3,13.4
		C3674.8,251.4,3668.5,257.7,3660.9,257.7z"/>
	<path d="M2374,104.3c-7,0-12.8-5.8-12.8-12.8c0-7,5.8-12.8,12.8-12.9c7.1,0,12.8,5.7,12.8,12.8C2386.7,98.5,2381,104.3,2374,104.3z
		"/>
	<path d="M2697.7,214.5c6.8-0.1,12.5,5.4,12.7,12.2c0.1,6.8-5.4,12.5-12.2,12.7c-6.8,0.1-12.5-5.4-12.7-12.2
		C2685.3,220.4,2690.8,214.7,2697.7,214.5z"/>
	<path class="st0" d="M7555,127c17.1-7.9,27.4-19.6,29.9-38.3c6.3,4.5,9.8,9.2,13.2,15.1c-2.1,1.7-3.9,3.3-5.9,4.6
		c-7.6,5-13.6,11.6-18.1,19.5c-4,7.2-4.1,7.2-11.4,3.4C7560.8,130.3,7558.9,129.1,7555,127z"/>
	<path d="M6516.9,138.6c-11.1,0.2-20.2-8.6-20.4-19.7c-0.2-11.1,8.6-20.1,19.7-20.3c11.1-0.2,20.2,8.6,20.4,19.7
		C6536.8,129.3,6527.9,138.4,6516.9,138.6z"/>
	<path d="M6165.9,169.9c-0.1,8.4-7,15.1-15.5,14.9c-8.2-0.2-14.6-6.8-14.5-15.1c0-8.4,7.1-15.2,15.5-15
		C6159.5,155,6166,161.8,6165.9,169.9z"/>
	<path class="st0" d="M7134.5,133.3c4.8-1.7,8.8-3.7,13.1-4.6c18.5-3.9,34.7-12.3,48.3-25.4c1.3-1.3,3.1-2.1,4.7-3.2
		c2.5,5.3,3.3,56.6,1.3,69.3c-4.9,0.8-10,1.8-15.1,2.2c-1.6,0.1-4-1.3-4.8-2.7c-10.6-17.6-26.3-28.3-45.8-33.8
		C7136,135.1,7135.9,134.9,7134.5,133.3z"/>
	<path class="st0" d="M7003.2,186.3c-7.1,0.7-13.2,1.2-19.7,1.9c-0.6-1.8-1.4-3.4-1.6-5c-1.9-12.9-6.8-24.5-14.7-34.8
		c-3.8-4.9-3.7-5.3,0.8-9.1c14.9-12.8,20.8-28.8,17.6-48.2c-0.2-1.2-0.3-2.5-0.4-3.7c0-0.4,0.3-0.9,0.7-1.8c4.6,1.9,8.5,5,8.6,9.9
		c0.3,14.3,4.2,27,15.5,37.3C6995.5,149.1,6993.4,166.8,7003.2,186.3z"/>
	<path class="st0" d="M7107.8,133.5c-10.7,4.7-20.4,8.9-30.8,13.4c-2.9-4.1-5.9-8.5-9.2-13.1c3.6-5,6.9-9.9,10.7-14.4
		c0.9-1.1,3.6-1.6,5.1-1.1c2.6,0.7,5,2.3,7.2,3.8C7096.4,125.7,7101.8,129.5,7107.8,133.5z"/>
	<path class="st0" d="M6603.6,9.1c2.4,3.3,2.4,3.3,0,6.8C6603.6,13.1,6603.6,11.1,6603.6,9.1z"/>
	<path d="M5692,194.6c-14.5-0.7-27.5-8-35-23.3c-7.5-15.2-6-30.3,4.3-43.7c10.3-13.4,24.4-18.6,41.1-15.4c5.4,1,9.6,1.2,14.7-1.9
		c8.4-5.3,19.4-2.3,25.4,5.5c6,7.8,6,19.2-1.3,26c-4.4,4.1-5.2,8.4-5.4,13.8C5734.6,177.4,5716.2,194.6,5692,194.6z"/>
	<path d="M5403.1,296.7c0-30.7,0-61.5,0-92.2c14.7-5.2,35.2,2.4,46.3,17.1c12.8,16.8,13,40.2,0.5,57.2
		C5439,293.9,5418.5,301.9,5403.1,296.7z"/>
	<path d="M5698.4,104.2c-9.4-0.5-16.7-8.6-16.1-18c0.5-9.4,8.6-16.6,18-16.1c9.4,0.5,16.6,8.5,16.1,18
		C5715.9,97.5,5707.8,104.7,5698.4,104.2z"/>
	<path d="M9794.1,228c7.4,0.1,13.2,6.1,13,13.5c-0.2,7.4-6.3,13.2-13.7,12.9c-7-0.3-12.7-6.1-12.7-13.2
		C9780.8,233.8,9786.8,227.9,9794.1,228z"/>
</g>
</svg>
