<?xml version="1.0" encoding="utf-8"?>
<!-- Generator: Adobe Illustrator 21.1.0, SVG Export Plug-In . SVG Version: 6.00 Build 0)  -->
<svg version="1.1" id="Layer_1" xmlns="http://www.w3.org/2000/svg" xmlns:xlink="http://www.w3.org/1999/xlink" x="0px" y="0px"
	 viewBox="0 0 15000 338" style="enable-background:new 0 0 15000 338;" xml:space="preserve">
<style type="text/css">
	.st0{fill:#FFFFFF;}
</style>
<g>
	<path d="M12555.5,338.4c-184.6,0-369.2,0-553.7,0c0-36.4,0-72.7,0-109.1c-8.8,39.3-23.9,75.7-46.1,109.1c-184.6,0-369.2,0-553.7,0
		c0-112.4,0-224.9,0-337.3c126,0,252,0,377.9,0c0.4,0.3,0.8,0.8,1.3,1c30,14.1,54.2,35,73.5,61.9c1.1,1.6,2.5,3,3.7,4.6
		c18-11.7,35.6-23.1,53.6-34.8c-2.1-3.3-3.7-6.4-5.8-9.1c-6.1-8-12.4-15.8-18.6-23.7c164.1,0,328.1,0,492.2,0
		c6.1,3.2,12.1,6.4,18.6,9.8c1.3-3.7,2.3-6.8,3.4-9.8c866.5,0,1733,0,2599.4,0c0,112.4,0,224.9,0,337.3c-599.9,0-1199.7,0-1799.6,0
		c0-16.6,0.2-33.3,0-49.9c-0.2-14.8,2-10.5-11.8-14.4c-0.2,0-0.3,0,0.9-0.2c-12,22-23.6,43.3-35.2,64.5c-184.6,0-369.2,0-553.7,0
		c0-36.4,0-72.7,0-109.1C12592.8,268.6,12577.7,305,12555.5,338.4z M13801.2,332.1c0-7.4,0.2-12.9-0.1-18.3
		c-0.1-1.3-1.6-3.1-2.9-3.7c-6.8-3.1-13.7-5.8-21.2-8.9c-2.3,4.5-4.8,9.2-7.5,14.5C13779.8,321.1,13789.7,326.2,13801.2,332.1z
		 M12000.8,110.3c1.8-14.4,1.4-16.5-3.4-17C11998.6,99.1,11999.7,104.7,12000.8,110.3z"/>
	<path d="M11355.7,338.4c-184.6,0-369.1,0-553.7,0c0-112.4,0-224.9,0-337.3c126,0,252,0,377.9,0c1.6,0.9,3.1,1.8,4.7,2.7
		c60,31.8,94.8,81.2,101.8,148.9c1.6,15.3-0.5,31-1.1,46.5c-0.1,3.4-0.2,5.8,4.2,6.6c22.7,4.1,45.3,8.7,67.9,13
		c14.3,2.7,28.6,5.4,43.6,8.2C11393.8,267.5,11378.2,304.3,11355.7,338.4z M10953,62.8c-1.6,2.5-3,4.5-4.4,6.8
		c7.7,4.6,15,8.9,22.5,13.3c2.7-1.8,2.3-3.7-0.2-5.8C10965.2,72.6,10959.5,68,10953,62.8z"/>
	<path d="M10202.2,1.1c126,0,252,0,377.9,0c1.7,1,3.4,2,5.2,2.9c120.1,60.3,138.5,224,34.3,308.9c-12.1,9.8-26.3,17-39.5,25.4
		c-110.2,0-220.5,0-330.7,0c-7.5-12.7-15-25.4-22.6-38.3c-7.7,3.2-15.4,6.4-24.7,10.2C10202.2,206.2,10202.2,103.6,10202.2,1.1z
		 M10356.1,111.8c6.3-11.4,12.5-22.7,18.9-34.2c-7-5.1-14-10.3-21.3-15.7c-9.5,12.5-16.9,25.5-21.9,40
		C10340.1,105.3,10347.8,108.4,10356.1,111.8z"/>
	<path d="M9602.3,1.1c126,0,252,0,377.9,0c1.7,1,3.4,2,5.2,2.9c120.1,60.3,138.5,224,34.3,308.9c-12.1,9.8-26.3,17-39.5,25.4
		c-51.6,0-103.3,0-154.9,0c-0.6-0.4-1.2-0.8-1.9-1.1c-41.6-20.3-71.9-51.5-90.9-93.7c-1.1-2.5-2.4-4.8-3.6-7.2
		c-36.7,14.1-73.1,28.1-110,42.2c-8.4-21.4-16.2-42.9-16.4-65.5C9601.8,142.4,9602.3,71.8,9602.3,1.1z M9753.6,61.7
		c-24.5,34.3-36.2,72-34.9,114c6.8,0,12.6,0.1,18.4,0c8.7-0.1,8.8-0.1,9-8.6c0.7-30.1,9.3-57.9,25.6-83.2c1.3-2,2.4-4,3.6-6.2
		C9768.1,72.4,9761.3,67.4,9753.6,61.7z M9984.3,195.4c-3.2-0.9-5.4-1.6-8.1-2.4c-1.6,4-3.1,7.7-4.6,11.5c2.7,1.4,4.8,2.4,7.7,3.8
		C9981,203.9,9982.6,199.9,9984.3,195.4z"/>
	<path d="M9225.4,338.4c-13.7-8.7-27.4-17.4-41-26.3c-2.7-1.8-4.8-4.4-7.4-6.9c6.4-6.9,12.4-13.5,18.5-20.1
		c-58.5-64-65.2-133.2-20.5-207.8c-5.9-4.3-11.9-8.9-18.1-13.1c-1.4-1-3.7-0.7-6.9-1.2c-15.9-11.3-33.3-23.5-51.3-36.2
		c-15,19.3-24.4,41.4-33.3,63.9c-15.5-5.2-30.5-10.2-45.6-15.2c-4-1.3-8-2.8-12.1-3.6c-4.1-0.7-5.3-2.8-5.3-6.7
		c0.1-21.4-0.1-42.8-0.1-64.2c126,0,252,0,377.9,0c1.7,1,3.4,2,5.2,2.9c120.1,60.3,138.5,224,34.3,308.9
		c-12.1,9.8-26.3,17-39.5,25.4C9328.7,338.4,9277.1,338.4,9225.4,338.4z M9386.9,184.5c-2.9-0.5-5.3-0.9-7.5-1.3
		c-3.4,8.2-6.3,16.1-9.8,23.7c-3.1,6.8-3.2,7.1,4.2,10.3C9381,207.5,9385.5,196.8,9386.9,184.5z M9383.4,78.2
		c0.6,0.5,1.3,1.1,1.9,1.6c7.8-7.1,15.6-14.2,23.9-21.7c-2.5-2.2-4.7-4.1-7.2-6.3C9395.7,61.3,9388.1,68.8,9383.4,78.2z"/>
	<path d="M8780.5,1.1c13.9,9,28.9,16.7,41.6,27.2c87.4,72.6,88.1,207.8,1.8,281.7c-3,2.6-6.3,4.9-10,7.8
		c-5.7-7.6-11.2-14.8-16.5-21.9c-71.7,43.7-139.9,42.2-204.2-14.7c-58-63.3-60.6-131.5-18.1-204c-7-5.1-14.2-10.4-21.9-16
		c2.6-3.5,4.9-7,7.6-10.2c16.4-19.7,36.1-35.2,58.9-46.8c1.7-0.9,3.3-2.1,4.9-3.1C8676.5,1.1,8728.5,1.1,8780.5,1.1z M8759.3,102.1
		c6.2,7.2,12.3,14.2,18.4,21.2c18.7-11.6,37.3-23.1,56.4-34.8c-8.6-14.5-19.1-26.9-32.3-36.9c-7.5,9-14.4,17.2-21.3,25.5
		C8773.5,85.2,8766.5,93.5,8759.3,102.1z M8787.7,165.6c-7-1.5-8.2,2.1-8.5,7.9c-0.8,18-7.4,33.7-19.2,47.3
		c-1.6,1.9-3.2,3.8-4.8,5.8c2.1,2.2,3.7,3.9,5.2,5.5C8777.4,222.2,8792.4,185.5,8787.7,165.6z"/>
	<path d="M8180.6,1.1c14.1,9.1,28.6,17.6,42.1,27.6c8.5,6.3,15.5,14.8,23.6,22.7c-8.4,7.1-15.8,13.2-23.4,19.5
		c-6.9-6.6-13.7-13.1-20.7-19.8c-14.6,17.4-28.5,34-42.9,51.1c8.3,9.3,17.8,18.1,22,30.9c-2.8,1.4-5.4,2.7-8,4
		c15.3,46.8,1.3,81.7-42.6,105.1c0.8,2.2,1.6,4.5,2.8,7.9c35.4-15.3,52.9-42.2,56-79.7c22.8,0,45.4,0,68.1,0
		c11.1,27.9-22.2,95.5-61.5,124.8c-56.6,42.2-135.2,41.1-190.3-2.9c-32.6-26.1-52.1-59.9-57.9-101.3c-5.7-41.1,4.4-78.7,28-113.1
		c-7.6-5.6-14.8-10.8-22.7-16.6c2.3-3.2,4.5-6.5,7-9.5c16.8-20.3,37.1-36.3,60.6-48.1c1.6-0.8,3.2-1.7,4.8-2.6
		C8077.3,1.1,8129,1.1,8180.6,1.1z"/>
	<path d="M7480.8,1.1c0.6,4.1,1.1,8.2,1.8,13.2c44.8-4.2,85.4,6.3,120.7,35.7c-15.1,18-29.8,35.5-44.6,53.2
		c-4.1-2.4-8.3-4.8-12.6-7.3c-1.4,2.5-2.6,4.6-3.9,7c33.7,25.1,47.8,57.7,30.5,97.6c-16.3,37.6-48,49.9-87.7,44.7
		c-0.5,1.4-0.9,2.5-1.3,3.7c-0.3,1-0.5,2.1-0.8,3.1c10.4,5.9,24.7,4.9,58.1-4.1c10,20.4,20,40.9,30,61.4
		c-32.1,20.2-103.4,29.1-160.5-13.6c-34.3-25.6-55.2-59.6-61.8-101.9c-6.6-42.1,3.5-80.6,27.5-115.9c-7.6-5.6-14.8-10.8-22.6-16.5
		c2.2-3,4.2-6.2,6.6-9.1c16.8-20.5,37.2-36.6,61-48.5c1.6-0.8,3.2-1.7,4.8-2.6C7444.2,1.1,7462.5,1.1,7480.8,1.1z"/>
	<path d="M7003.2,50.3c-15.1,18-29.7,35.4-44.6,53.1c-20.5-15-42.9-22.9-69.1-18.2c0.5,3.1,0.9,5.3,1.3,8.2
		c24.1-2.2,45.9,3.1,64,19.8c12,11.1,19.8,24.8,23.3,40.8c6.8,31.2-7.3,63.9-34.8,80.9c-17,10.5-35.4,13.3-54.9,10
		c-19.4-3.3-34.6-14.1-47.3-28.9c-2.5,2-4.7,3.6-7.9,6.1c-3.2-5.4-6.7-10.4-9.4-15.9c-2.6-5.4-4.5-11.1-6.8-17
		c-21.8,5-43.5,9.9-66.3,15.2c-10.1-46-0.8-87.7,25.3-126.6c-7.6-5.6-14.9-10.9-22.6-16.6c10.5-15.4,23.2-28.2,38.3-39.2
		c4.5,6,8.6,11.4,12.6,16.7c4.4,5.8,4.4,5.8,10.6,1.7c20.4-13.7,42.7-22.5,67-25.6c42.5-5.4,80.9,4.7,115.3,30.3
		C6999.5,46.6,7001.2,48.5,7003.2,50.3z"/>
	<path d="M6226.3,182c-2.9,0.4-5.4,0.7-7.8,1c-10.8-20.4,8.2-68.4,32.6-82.2c1.7,2.2,3.4,4.5,5.3,7.1c34.5-21.2,67.7-20.5,99.7,6.1
		c-10.6,11.4-20.4,21.9-30.6,32.9c1.8,2.4,3.5,4.7,5.5,7.5c13.1-6.7,25.9-13.3,39.6-20.4c11.3,20.9,12.3,42.5,3.6,64.5
		c-10.9,27.7-39,47.4-66.7,47.7C6263.4,246.6,6238.2,223.2,6226.3,182z"/>
	<path d="M5617.4,158.6c1-15.2,6.7-28.3,16.2-40.6c2.7,2.1,5,3.8,7.6,5.8c20.4-23.8,45.5-34.6,77.8-29c-3.1,14.8-6.1,28.9-8.9,42.3
		c7.4,5.6,14.8,11.1,22.7,17.1c11.5-6.2,24.4-13.1,37.6-20.2c6.2,9,8.5,19.1,9.4,29.4c3.6,40.5-26.2,77.4-66.4,82.5
		c-45.9,5.8-86.3-29.2-87-75.5c0-0.5,0-1.1,0-1.6C5626.4,160.1,5626.4,160.1,5617.4,158.6z"/>
	<path d="M5029.3,147.7c-3.4-0.8-6-1.3-9.7-2.2c2.2-5.5,4.3-10.7,6.4-16c3.4,1.6,5.9,2.8,8.5,4.1c2.9-3.7,5.8-7.3,8.8-11
		c11.8,9.3,23.1,18.3,34.9,27.5c7.4-7.4,16.3-12.5,27.5-11.6c11.2,0.9,19.3,7.1,25.7,16.2c13-7,25.8-13.9,38.6-20.7
		c14.5,16,13.2,54.3-2.7,78.1c-19.5,29.3-56.2,41.6-89.4,29.8c-19.1-6.8-33.4-19.4-42.8-37.3
		C5025.7,186.7,5024.8,167.7,5029.3,147.7z"/>
	<path d="M6270.8,89.7c-4.6-11.3-8.8-21.8-13.1-32.3c-4.2-10.5-8.5-21-12.7-31.5c34.3-25.1,127.5-10.7,158.1,24.6
		c-14.6,17.4-29.3,34.9-44.4,52.9C6332.2,83.2,6302.7,78.4,6270.8,89.7z"/>
	<path d="M4489.9,199c-19.9-17.6-23.1-36.3-8.7-51c14.4-14.6,33-12.2,50.7,6.8c6.4-3.5,12.8-6.9,19.2-10.4
		c6.4-3.4,12.8-6.9,19.2-10.3c17,20.8,11.9,63.1-10,87.4c-26.2,29.1-68.7,29.7-88.8,17C4477.6,225.3,4483.8,212.1,4489.9,199z"/>
	<path d="M3966.5,212.1c-12-8.1-24.1-16.3-36.2-24.4c-20.5,16.6-37.7,17.3-50.5,2.1c-10.8-12.7-9.5-31.9,2.7-43.1
		c14.6-13.3,31.7-10.6,49.5,7.9c12.7-6.8,25.4-13.6,38.1-20.5C3983,147.6,3985.7,190.5,3966.5,212.1z"/>
	<path d="M3371,133.8c5.3,8.9,8.5,17.7,8.3,28c-14.6,1.5-28.8,2.9-43.6,4.4c-0.8,11.7-4.2,22.4-14.7,29.4
		c-5.8,3.9-12.3,5.7-19.3,5.2c-13.9-0.9-26.1-11.4-28.6-24.8c-2.7-14.2,4.2-28.1,16.9-34.3c14.3-6.9,28.6-2.5,41.9,13.1
		C3344.8,147.9,3357.6,141,3371,133.8z"/>
	<path d="M5803.6,50.2c-15.2,18-29.7,35.4-44.3,52.7c-9.6-5.3-19.2-10.7-29.1-16.2c6.7-20.6,13.4-41.2,20.3-61.8
		c0.4-1.2,3.2-2.8,4.3-2.4C5772.9,28.2,5789.1,37.3,5803.6,50.2z"/>
	<path d="M2703.7,139.9c0.3,5.1,0.4,10.2,1.1,15.2c0.8,6,5.1,7.9,10.3,5c2.2-1.2,4.2-2.9,6.2-4.5c1.9-1.6,3.7-3.5,5.5-5.2
		c9.5,7.4,10.9,24.1,3.3,36c-8.6,13.6-26,18.4-40.4,11.1c-14.1-7.1-20.6-24-15.1-38.7C2679.5,146,2693.2,137.1,2703.7,139.9z"/>
	<path d="M2114.3,200c-6.2,0-11.5,0.8-16.4-0.2c-14.9-3-23.9-15.6-23.7-32.3c0.2-13,10.7-25.5,23.6-28.1c7-1.4,7.9-1,7.4,6
		C2103.9,163.7,2107.2,181.2,2114.3,200z"/>
	<path d="M8483.9,49.4c-2.5,4.9-4.9,9.5-7.3,14.3c-20.1-9.4-39.8-18.6-59.4-27.8c-2.3-1.1-4.6-2.5-7-3c-6.4-1.1-8.1-5-7.6-10.9
		c0.4-5,0.1-10.1,0.1-15.1c0.6-0.3,1.1-0.7,1.7-1C8430.7,20.3,8457,34.7,8483.9,49.4z"/>
	<path d="M1477.4,155.3c5-11,16.6-17.6,26.4-15.6c0,5.6,0.4,11.2-0.1,16.8c-0.6,6.3-4.5,8.8-10.4,6.6
		C1487.9,161.1,1482.9,158,1477.4,155.3z"/>
	<path d="M5164.6,86.7c9.6-14.6,19.3-29.2,29.3-44.3c3.6,2.9,6.6,5.2,9.9,7.8c-12.6,13.1-22.9,27.5-36.8,38.5
		C5166.2,88,5165.4,87.4,5164.6,86.7z"/>
	<path d="M6153.9,61.1c2.3-2.9,4.4-5.8,6.8-8.8c7.7,6.6,15,12.8,22.6,19.4c-1.6,2.1-3.1,4-5,6.4
		C6170.1,72.3,6162.2,66.9,6153.9,61.1z"/>
	<path class="st0" d="M12000.8,110.3c-1.1-5.6-2.2-11.2-3.4-17C12002.2,93.8,12002.6,95.9,12000.8,110.3z"/>
</g>
</svg>
