<?xml version="1.0" encoding="utf-8"?>
<!-- Generator: Adobe Illustrator 22.1.0, SVG Export Plug-In . SVG Version: 6.00 Build 0)  -->
<svg version="1.1" id="Layer_1" xmlns="http://www.w3.org/2000/svg" xmlns:xlink="http://www.w3.org/1999/xlink" x="0px" y="0px"
	 viewBox="0 0 16000 360" style="enable-background:new 0 0 16000 360;" xml:space="preserve">
<style type="text/css">
	.st0{fill:#BE1622;}
</style>
<path class="st0" d="M838.8,233.1c0-4.4-12.5-1.4-23.9-8c-31.7-18.4-107.3-79.2-23.9,8c3.1,3.2,10.7,8,23.9,8
	S838.8,237.5,838.8,233.1z"/>
<path class="st0" d="M1186.6,234.9c0-4.4-27.6,4.7-23.9-8c11.2-38.7-107.3-79.2-23.9,8c3.1,3.2,10.8,6.4,23.9,8
	C1186.6,245.9,1186.6,239.3,1186.6,234.9z"/>
<path class="st0" d="M1530.5,245.3c0-3.9-30.2,0.1-21-7c48.2-37.3-62.5-94.1-21,7c1.5,3.6,9.5,5.6,21,7
	C1530.5,254.9,1530.5,249.2,1530.5,245.3z"/>
<path class="st0" d="M1877.5,254c0-5-41.1-3.2-27.3-9.1c60.4-25.8-18.5-125-27.3,9.1c-0.3,5,12.3,7.3,27.3,9.1
	C1877.5,266.5,1877.5,259,1877.5,254z"/>
<path class="st0" d="M2241.2,242.8c0-6.5-52-22.1-35.4-11.8c96.9,60,123.9-146.8-35.4,11.8c-4.6,4.6,16,9.4,35.4,11.8
	C2241.2,259.1,2241.2,249.3,2241.2,242.8z"/>
<path class="st0" d="M2660.4,249c0-7.7-61-26-41.5-13.9c113.7,70.4,145.4-172.3-41.5,13.9c-5.4,5.4,18.8,11.1,41.5,13.9
	C2660.4,268.1,2660.4,256.6,2660.4,249z"/>
<path class="st0" d="M3197.2,254.7c0-7.7-171.1-41.2-151.6-29.1c113.7,70.4,145.4-172.3-41.5,13.9c-5.4,5.4,18.8,11.1,41.5,13.9
	C3087.1,258.6,3197.2,262.4,3197.2,254.7z"/>
<path class="st0" d="M3683.4,237.9c0-7.7-26.3-39.4-6.9-27.3c113.7,70.4,0.7-174.1-186.2,12.1c-5.4,5.4,18.8,11.1,41.5,13.9
	C3573.3,241.8,3683.4,245.6,3683.4,237.9z"/>
<path class="st0" d="M4208.4,235.2c0-7.7,54.5-18.5,74-6.4c113.7,70.4-80.2-195-267.1-8.8c-5.4,5.4,18.8,11.1,41.5,13.9
	C4098.3,239.1,4208.4,242.9,4208.4,235.2z"/>
<path class="st0" d="M4785.1,273.7c0-7.7,54.5-18.5,74-6.4c113.7,70.4,12.9-238.2-174-51.9c-5.4,5.4-74.3,54.2-51.5,57
	C4675,277.6,4785.1,281.4,4785.1,273.7z"/>
<path class="st0" d="M5253.9,262.4c0-7.7,54.5-18.5,74-6.4c113.7,70.4,12.9-238.2-174-51.9c-5.4,5.4-74.3,54.2-51.5,57
	C5143.8,266.3,5253.9,270.1,5253.9,262.4z"/>
<path class="st0" d="M5665.4,297c0-7.7,54.5-18.5,74-6.4c113.7,70.4,207.4-345.2,20.5-159c-5.4,5.4-268.8,161.2-246.1,164.1
	C5555.3,300.8,5665.4,304.6,5665.4,297z"/>
<path class="st0" d="M6123.3,303.3c0-6.1,42.9-14.6,58.3-5.1c89.6,55.5,151.1-393,9.9-145.3c-3,5.3-205.5,147.1-187.6,149.3
	C6036.6,306.3,6123.3,309.3,6123.3,303.3z"/>
<path class="st0" d="M6507.4,324.3c0-4.3,30.5-10.4,41.5-3.6c63.7,39.5,91-359.9-9.5-183.6c-2.1,3.7-129.7,184.9-116.9,186.4
	C6445.7,326.5,6507.4,328.6,6507.4,324.3z"/>
<path class="st0" d="M6884.1,325c0-3.8,26.9-9.1,36.6-3.2c56.2,34.8-2-385.4-90.7-229.8c-1.9,3.3-32.1,230.9-20.9,232.4
	C6829.7,326.9,6884.1,328.8,6884.1,325z"/>
<path class="st0" d="M7259,334.9c0-3.8,34.6-239.5,48.5-233.5c81.2,34.8-116.1-193.3-126.6,0.5c-0.2,3.8-46.3,230.9-30.1,232.4
	C7180.4,336.9,7259,338.7,7259,334.9z"/>
<path class="st0" d="M7702.6,351c0-3.8,2.7-220.9,3.4-232.2c7.6-120.7-114.5-82.4-184.5-81.9c-6.6,0-23.8,313.4-4.3,314.8
	C7552.9,354.2,7702.6,354.8,7702.6,351z"/>
<path class="st0" d="M8214.1,337.8c0-3.8,31.9-311.5,10.2-311.5c-124.1,0-133.7-0.5-210.6,0c-7.3,0-24.9,310.7-3.4,312.1
	C8049.6,341,8214.1,341.6,8214.1,337.8z"/>
<path class="st0" d="M8780.6,328.8c0-3.8-38.4-220.4-71.3-220.4c-188.4,0-116.3-91.5-233-91c-11,0-37.8,310.7-5.2,312.1
	C8530.8,331.9,8780.6,332.6,8780.6,328.8z"/>
<path class="st0" d="M9515.9,337.5c0-3.8,19.8-150.9-2.1-150.9c-125.3,0-262.4-160.8-340-160.3c-7.3,0-25.1,310.7-3.4,312.1
	C9210,341,9515.9,341.3,9515.9,337.5z"/>
<path class="st0" d="M10183,332.9c0-7.7,20.8-305-2.2-305c-131.3,0-288.4,0.2-369.7,1.2c-7.7,0.1-13,302.8,9.8,305.7
	C9862.4,340,10183,340.6,10183,332.9z"/>
<g>
	<circle class="st0" cx="447.2" cy="231.4" r="6.1"/>
	<circle class="st0" cx="371" cy="182.1" r="1.4"/>
	<circle class="st0" cx="383.3" cy="183" r="3.4"/>
	<circle class="st0" cx="404.1" cy="190.5" r="6.2"/>
	<circle class="st0" cx="445.5" cy="209.7" r="6.8"/>
	<circle class="st0" cx="424.5" cy="197.5" r="7.9"/>
	<circle class="st0" cx="425.7" cy="223" r="4.7"/>
	<circle class="st0" cx="407.3" cy="209.7" r="5.8"/>
</g>
<rect x="10511.9" y="19.7" class="st0" width="408.4" height="309.4"/>
<rect x="11240.6" y="19.7" class="st0" width="889.6" height="318.3"/>
<rect x="12575.7" class="st0" width="3424.3" height="360"/>
</svg>
