<svg xmlns="http://www.w3.org/2000/svg" viewBox="0 0 11222.91 338.75"><title>25Asset 1</title><path d="M30,1.38v39.5c0,.62,0,1.25-.07,1.87a1,1,0,0,1-1,.93,1,1,0,0,1-1.18-.93,7.26,7.26,0,0,1-.06-.93q0-20.22,0-40.44Z" transform="translate(-27.71 -0.37)"/><path d="M421.5,338.88q0-12.75,0-25.49,0-7,0-14.05a9.43,9.43,0,0,1,.11-1.68c.1-.58.57-.78,1.13-.75a.87.87,0,0,1,.93.75,15.46,15.46,0,0,1,.11,2q0,19.57,0,39.17Z" transform="translate(-27.71 -0.37)"/><path d="M485.25,1.38V40.89c0,.31,0,.62,0,.93-.06,1.71-.23,1.91-2,1.92-2.94,0-5.87,0-8.81,0-1.8,0-2-.21-2-2.11,0-7.24,0-14.48,0-21.72q0-9.27.05-18.53Z" transform="translate(-27.71 -0.37)"/><path d="M866.25,338.88q0-10.12,0-20.24,0-9.37,0-18.75c0-.56,0-1.12,0-1.68a1.24,1.24,0,0,1,1.41-1.36l4.87,0c1.62,0,3.25,0,4.87,0,1.3,0,1.51.28,1.61,1.54,0,.44,0,.88,0,1.32v39.17Z" transform="translate(-27.71 -0.37)"/><path d="M942.75,1.38q0,13.77,0,27.55c0,4.25,0,8.5,0,12.75,0,1.86-.2,2-2,2.06-2.81,0-5.63,0-8.44,0-2.18,0-2.3.12-2.3,2.37q0,18.18,0,36.37c0,.62,0,1.25,0,1.87s-.25,1.38-1.18,1.35-1-.57-1.07-1.26,0-1.25,0-1.88q0-18,0-36c0-2.83,0-2.83-2.77-2.83-2.94,0-5.88,0-8.81,0-2.1,0-2.23-.14-2.24-2.25V1.38Z" transform="translate(-27.71 -0.37)"/><path d="M1308.38,338.88V300.66c0-.5,0-1,0-1.5,0-2.19.15-2.32,2.35-2.33h8.06c2.56,0,2.66-.1,2.66-2.62q0-14.7,0-29.41c0-2.69,0-5.37,0-8.06,0-1.72.25-2.14,1.13-2.16s1.15.43,1.15,2.13q0,18.36,0,36.72c0,3.51-.26,3.42,3.32,3.41h7.87c2.21,0,2.34.14,2.35,2.33q0,11.8,0,23.6c0,5.37,0,10.74,0,16.12Z" transform="translate(-27.71 -0.37)"/><path d="M986.25,1.38v39.5c0,.62,0,1.25-.07,1.87a1,1,0,0,1-1,.93,1,1,0,0,1-1.18-.93,7.26,7.26,0,0,1-.06-.93q0-20.22,0-40.44Z" transform="translate(-27.71 -0.37)"/><path d="M1265.25,338.88q0-12.75,0-25.49,0-7,0-14.05a9.43,9.43,0,0,1,.11-1.68c.1-.58.57-.78,1.13-.75a.87.87,0,0,1,.93.75,15.46,15.46,0,0,1,.11,2q0,19.57,0,39.17Z" transform="translate(-27.71 -0.37)"/><path d="M1401,1.38q0,10,0,20.05V40.75c0,.5,0,1,0,1.5-.09,1.17-.31,1.42-1.48,1.48s-2.62,0-3.93,0c-2.69,0-5.38,0-8.06,0-2.19,0-2.3.12-2.3,2.37q0,18.18,0,36.37c0,.62,0,1.25,0,1.87a1.23,1.23,0,0,1-1.37,1.41c-3.31,0-6.62,0-9.93,0-1.15,0-1.37-.32-1.46-1.5,0-.56,0-1.13,0-1.69v-36c0-2.82,0-2.82-2.78-2.82-3.69,0-7.37,0-11.06,0-2.09,0-2.23-.14-2.23-2.25q0-20.07,0-40.12Z" transform="translate(-27.71 -0.37)"/><path d="M1750.13,338.88q0-19.59,0-39.16v-.56c0-2.19.15-2.32,2.36-2.33h11c2.56,0,2.67-.1,2.67-2.62V257.67c0-3.17,0-3.17,3.2-3.17h6.93c2.66,0,2.67,0,2.67,2.75q0,18.09,0,36.16c0,.5,0,1,0,1.5,0,1.72.21,1.87,2,1.91.94,0,1.87,0,2.81,0h8.62c2.21,0,2.35.14,2.35,2.33q0,11.23,0,22.48,0,8.61,0,17.24Z" transform="translate(-27.71 -0.37)"/><path d="M1441.5,1.38V40.89c0,.31,0,.62,0,.93-.06,1.71-.23,1.91-2,1.92-2.94,0-5.87,0-8.81,0-1.8,0-2-.21-2-2.11,0-7.24,0-14.48,0-21.72q0-9.27,0-18.53Z" transform="translate(-27.71 -0.37)"/><path d="M1710,338.88q0-10.12,0-20.24V299.89c0-.56,0-1.12,0-1.68a1.24,1.24,0,0,1,1.41-1.36l4.87,0c1.62,0,3.25,0,4.87,0,1.3,0,1.51.28,1.61,1.54,0,.44,0,.88,0,1.32v39.17Z" transform="translate(-27.71 -0.37)"/><path d="M1857,1.38V40.91c0,.19,0,.38,0,.56,0,2.12-.15,2.27-2.21,2.28-3.12,0-6.24,0-9.37,0-.5,0-1,0-1.49,0a1,1,0,0,0-1.09,1.06c0,.62,0,1.24,0,1.87V83.27c0,2.44-.08,2.52-2.53,2.53-2.69,0-5.37,0-8.06,0-2.06,0-2.2.15-2.2,2.28q0,18.54,0,37.1c0,.62,0,1.25-.06,1.87a1,1,0,0,1-1.1,1,1,1,0,0,1-1.09-1c0-.62,0-1.24,0-1.87q0-18.18,0-36.35c0-3,0-3-3-3-2.88,0-5.75,0-8.62,0-2,0-2.15-.19-2.15-2.15q0-12.36,0-24.73c0-4.31,0-8.62,0-12.93,0-2.09-.14-2.21-2.25-2.22-3.75,0-7.5,0-11.24,0V1.38Z" transform="translate(-27.71 -0.37)"/><path d="M2194.5,338.88q0-10-.05-20.06V299.89c0-.56,0-1.12,0-1.69a1.23,1.23,0,0,1,1.41-1.35l3.94,0c2.18,0,4.37,0,6.56,0,1.77,0,2-.21,2-1.93,0-1.49,0-3,0-4.49V257.22c0-2.71,0-2.72,2.71-2.72s5.37,0,8.06,0c2.19,0,2.3-.12,2.3-2.35q0-18.19,0-36.37c0-.68,0-1.37,0-2.06s.34-1.19,1.14-1.18,1.06.55,1.09,1.24,0,1.25,0,1.88v36c0,2.86,0,2.86,2.93,2.87h8.25c2.22,0,2.36.14,2.36,2.32q0,12.66,0,25.31c0,4.06,0,8.12,0,12.18,0,2.38.14,2.5,2.58,2.51,3.5,0,7,0,10.5.06v42Z" transform="translate(-27.71 -0.37)"/><path d="M1899,1.38q0,13.77,0,27.55c0,4.25,0,8.5,0,12.75,0,1.86-.2,2-2,2.06-2.81,0-5.63,0-8.44,0-2.18,0-2.3.12-2.3,2.37q0,18.18,0,36.37c0,.62,0,1.25,0,1.87s-.25,1.38-1.18,1.35-1-.57-1.07-1.26,0-1.25,0-1.88q0-18,0-36c0-2.83,0-2.83-2.77-2.83-2.94,0-5.88,0-8.81,0-2.1,0-2.23-.14-2.24-2.25V1.38Z" transform="translate(-27.71 -0.37)"/><path d="M2152.13,338.88V300.66c0-.5,0-1,0-1.5,0-2.19.15-2.32,2.35-2.33h8.06c2.56,0,2.66-.1,2.66-2.62q0-14.7,0-29.41c0-2.69,0-5.37,0-8.06,0-1.72.25-2.14,1.13-2.16s1.15.43,1.15,2.13q0,18.36,0,36.72c0,3.51-.26,3.42,3.32,3.41h7.87c2.21,0,2.34.14,2.35,2.33q0,11.8,0,23.6c0,5.37,0,10.74,0,16.12Z" transform="translate(-27.71 -0.37)"/><path d="M1942.5,1.38v39.5c0,.62,0,1.25-.07,1.87a1,1,0,0,1-1,.93,1,1,0,0,1-1.18-.93,7.26,7.26,0,0,1-.06-.93q0-20.22,0-40.44Z" transform="translate(-27.71 -0.37)"/><path d="M2109,338.88q0-12.75,0-25.49,0-7,0-14.05a9.43,9.43,0,0,1,.11-1.68c.1-.58.57-.78,1.13-.75a.87.87,0,0,1,.93.75,15.46,15.46,0,0,1,.11,2q0,19.57,0,39.17Z" transform="translate(-27.71 -0.37)"/><path d="M2307,1.38V40.91c0,.25,0,.5,0,.75,0,1.88-.2,2-2,2.09-.87,0-1.75,0-2.62,0a1.15,1.15,0,0,0-1.28,1.27c0,.63,0,1.25,0,1.88v36c0,2.89,0,2.9-2.92,2.9h-10.3c-2.55,0-2.57,0-2.57,2.66q0,18.27,0,36.54c0,3.13,0,3.13-3,3.13-2.56,0-5.12,0-7.68,0-1.86,0-2.06-.2-2.07-2,0-4.62,0-9.25,0-13.87V88.6c0-2.75,0-2.79-2.86-2.8-3.62,0-7.24,0-10.87,0-2.2,0-2.34-.14-2.34-2.33q0-18.27,0-36.53c0-3.17,0-3.17-3.18-3.18h-2.81V1.38Z" transform="translate(-27.71 -0.37)"/><path d="M2644.5,338.88q0-9.94-.05-19.87V299.89c0-.56,0-1.12,0-1.69a1.24,1.24,0,0,1,1.41-1.36l2.81,0c.91,0,1.4-.42,1.4-1.36,0-.56,0-1.12,0-1.69V257c0-2.46.08-2.53,2.53-2.53h11.24c2.19,0,2.31-.12,2.31-2.35V215.59c0-3.13,0-3.14,3.06-3.14,2.62,0,5.25,0,7.87,0,1.61,0,1.85.26,1.86,1.87,0,4.5,0,9,0,13.49v23.62c0,.56,0,1.12,0,1.69a1.22,1.22,0,0,0,1.41,1.35l2.44,0h9.37c2.47,0,2.55.08,2.56,2.5v24.93c0,4.19,0,8.37,0,12.56,0,2.14.19,2.3,2.38,2.33l3.19.06v42Z" transform="translate(-27.71 -0.37)"/><path d="M2357.25,1.38q0,10,.05,20.05,0,9.66,0,19.32c0,.5,0,1,0,1.5-.09,1.17-.31,1.42-1.48,1.48s-2.62,0-3.93,0c-2.69,0-5.38,0-8.06,0-2.19,0-2.3.12-2.3,2.37q0,18.18,0,36.37c0,.62,0,1.25,0,1.87a1.23,1.23,0,0,1-1.37,1.41c-3.31,0-6.62,0-9.93,0-1.15,0-1.37-.32-1.46-1.5,0-.56,0-1.13,0-1.69v-36c0-2.82,0-2.82-2.78-2.82-3.69,0-7.37,0-11.06,0-2.09,0-2.23-.14-2.23-2.25q0-20.07,0-40.12Z" transform="translate(-27.71 -0.37)"/><path d="M2593.88,338.88q0-19.59,0-39.16v-.56c0-2.19.15-2.32,2.36-2.33h11.05c2.56,0,2.67-.1,2.67-2.62V257.67c0-3.17,0-3.17,3.2-3.17h6.93c2.66,0,2.67,0,2.67,2.75q0,18.09,0,36.16c0,.5,0,1,0,1.5,0,1.72.21,1.87,2,1.91.94,0,1.87,0,2.81,0h8.62c2.21,0,2.35.14,2.35,2.33q0,11.23,0,22.48,0,8.61-.05,17.24Z" transform="translate(-27.71 -0.37)"/><path d="M2397.75,1.38V40.89c0,.31,0,.62,0,.93-.06,1.71-.23,1.91-2,1.92-2.94,0-5.87,0-8.81,0-1.8,0-2-.21-2-2.11,0-7.24,0-14.48,0-21.72q0-9.27.05-18.53Z" transform="translate(-27.71 -0.37)"/><path d="M2553.75,338.88q0-10.12-.05-20.24V299.89c0-.56,0-1.12,0-1.68a1.24,1.24,0,0,1,1.41-1.36l4.87,0c1.62,0,3.25,0,4.87,0,1.3,0,1.51.28,1.61,1.54,0,.44,0,.88,0,1.32v39.17Z" transform="translate(-27.71 -0.37)"/><path d="M2813.25,1.38V40.93c0,.31,0,.62,0,.93-.06,1.63-.25,1.86-1.85,1.88-3.13,0-6.25,0-9.38,0-.5,0-1,0-1.49,0-1.18.09-1.38.3-1.47,1.49,0,.55,0,1.12,0,1.68V82.75c0,3,0,3-3.14,3h-7.31c-2.22,0-2.34.12-2.34,2.33q0,16.77,0,33.55c0,1.5,0,3,0,4.5a6,6,0,0,1-.09,1.12.91.91,0,0,1-.94.75c-.56,0-1.05-.15-1.14-.74a12.69,12.69,0,0,1-.11-2q0-18.18,0-36.37c0-3.09,0-3.09-3.13-3.09-2.75,0-5.5,0-8.25,0-2.32,0-2.44-.11-2.44-2.44V47c0-.56,0-1.13,0-1.69-.09-1.27-.28-1.52-1.6-1.53-3.31,0-6.63,0-9.94,0-1.29,0-1.47.27-1.55,1.58,0,.56,0,1.12,0,1.69q0,17.89,0,35.8c0,2.94,0,2.94-2.86,3s-6,0-9,0c-2.15,0-2.34.19-2.34,2.37q0,18.38,0,36.74c0,3.21,0,3.21-3.17,3.21h-7.31c-2.19,0-2.31.13-2.31,2.36q0,17.81,0,35.62c0,.87,0,1.75,0,2.62s-.23,1.39-1.16,1.36-1.07-.7-1.1-1.43c0-.56,0-1.13,0-1.69q0-17.62,0-35.24c0-3.94.26-3.59-3.69-3.6h-7.68c-2.35,0-2.45-.1-2.45-2.43V89.15c0-3.5.21-3.35-3.38-3.35l-10.12,0V1.38Z" transform="translate(-27.71 -0.37)"/><path d="M3038.25,338.88q0-10-.05-20.07V300.25c0-.44,0-.87,0-1.31.05-1.92.21-2.08,2.21-2.11,1.43,0,2.87,0,4.31,0,1.87,0,3.75,0,5.62,0,1.53,0,1.75-.24,1.77-1.75,0-2.12,0-4.25,0-6.37V258.12c0-.5,0-1,0-1.5,0-1.94.19-2.1,2.18-2.12,2.75,0,5.5,0,8.25,0s2.64,0,2.64-2.58q0-18.28,0-36.56c0-.63,0-1.26.07-1.88a1,1,0,0,1,1.16-.94.93.93,0,0,1,1,.93c.06.62.08,1.24.08,1.87v36.18c0,3,0,3,3,3h8.06c2.37,0,2.46.1,2.47,2.4,0,3.5,0,7,0,10.5q0,13.31,0,26.62c0,2.76,0,2.8,2.86,2.8h7.87c2.57,0,2.67-.1,2.67-2.62V257.45c0-2.95,0-2.95,3.05-2.95h8.44c2.35,0,2.43-.08,2.44-2.42V215.88c0-.56,0-1.12,0-1.68.08-1.47.29-1.72,1.81-1.73,2.81,0,5.63,0,8.44,0s2.81,0,2.81-2.85q0-18.19,0-36.38c0-.62,0-1.25,0-1.87s.38-1.17,1.17-1.15,1,.44,1.05,1.08,0,1.24,0,1.87v36.37c0,2.92,0,2.93,2.87,2.93s5.62,0,8.44,0c2.07,0,2.23.16,2.23,2.26q0,18.19,0,36.37c0,3.6-.18,3.41,3.34,3.41h9.75v84.38Z" transform="translate(-27.71 -0.37)"/><path d="M2855.25,1.38q0,13.77,0,27.55c0,4.25,0,8.5,0,12.75,0,1.86-.2,2-2,2.06-2.81,0-5.63,0-8.44,0-2.18,0-2.3.12-2.3,2.37q0,18.18,0,36.37c0,.62,0,1.25,0,1.87s-.25,1.38-1.18,1.35-1-.57-1.07-1.26,0-1.25,0-1.88q0-18,0-36c0-2.83,0-2.83-2.77-2.83-2.94,0-5.88,0-8.81,0-2.1,0-2.23-.14-2.24-2.25V1.38Z" transform="translate(-27.71 -0.37)"/><path d="M2995.88,338.88V300.66c0-.5,0-1,0-1.5,0-2.19.15-2.32,2.35-2.33h8.06c2.56,0,2.66-.1,2.66-2.62q0-14.7,0-29.41c0-2.69,0-5.37,0-8.06,0-1.72.25-2.14,1.13-2.16s1.15.43,1.15,2.13q0,18.36,0,36.72c0,3.51-.26,3.42,3.32,3.41h7.87c2.21,0,2.34.14,2.35,2.33q0,11.8,0,23.6c0,5.37,0,10.74,0,16.12Z" transform="translate(-27.71 -0.37)"/><path d="M2898.75,1.38v39.5c0,.62,0,1.25-.07,1.87a1,1,0,0,1-1,.93,1,1,0,0,1-1.18-.93,7.26,7.26,0,0,1-.06-.93q0-20.22,0-40.44Z" transform="translate(-27.71 -0.37)"/><path d="M2952.75,338.88q0-12.75,0-25.49,0-7,0-14.05a9.43,9.43,0,0,1,.11-1.68c.1-.58.57-.78,1.13-.75a.87.87,0,0,1,.93.75,15.46,15.46,0,0,1,.11,2q0,19.57,0,39.17Z" transform="translate(-27.71 -0.37)"/><path d="M3263.25,1.38V40.93c0,.37,0,.75,0,1.12-.08,1.4-.28,1.62-1.66,1.69-.93,0-1.87,0-2.81,0-1.16.07-1.37.29-1.45,1.48,0,.56,0,1.13,0,1.69v35.8c0,3,0,3-3,3h-10.5c-2.22,0-2.33.12-2.33,2.33q0,18.47,0,36.93c0,3.07,0,3.07-3.11,3.07h-7.31c-2.27,0-2.37-.12-2.38-2.5v-23c0-4.82,0-9.63,0-14.44,0-2.15-.19-2.33-2.38-2.34-3.75,0-7.49,0-11.24,0-2.34,0-2.44-.11-2.45-2.43V46.63c0-2.88,0-2.88-2.92-2.88h-.38c-2.19,0-2.31.12-2.31,2.35q0,18.28,0,36.55c0,3.13,0,3.13-3.05,3.14h-.56c-2.15,0-2.33.2-2.34,2.39q0,18.38,0,36.74c0,3.2,0,3.2-3.18,3.2h-10.31c-2.19,0-2.3.12-2.3,2.37q0,18.27,0,36.55c0,3.12,0,3.12-3.06,3.12-2.56,0-5.12,0-7.69,0-1.83,0-2-.21-2-2.06,0-4.94,0-9.88,0-14.81V131.17c0-.44,0-.88,0-1.31-.07-1.48-.26-1.67-1.81-1.72-1,0-2,0-3,0h-8.81c-2.35,0-2.44-.09-2.45-2.42V89.16c0-3.51.23-3.37-3.37-3.36-.88,0-1.75,0-2.62,0V1.38Z" transform="translate(-27.71 -0.37)"/><path d="M3488.25,338.88q0-8.25-.05-16.5V299.13c0-2.16.15-2.28,2.39-2.3l1.88,0a1.22,1.22,0,0,0,1.39-1.38c0-.56,0-1.12,0-1.69V257.37c0-2.87,0-2.87,2.94-2.87h10.49c2.62,0,2.65,0,2.65-2.58V215.72c0-.56,0-1.12,0-1.68.09-1.29.29-1.48,1.59-1.58h.75c2.88,0,5.75,0,8.63,0,1.52,0,1.73.25,1.8,1.73,0,.56,0,1.12,0,1.69q0,17.9,0,35.81c0,2.79,0,2.79,2.81,2.79h9.75c3.23,0,3.23,0,3.23,3.14v35.81c0,.63,0,1.25,0,1.88,0,.88.41,1.44,1.34,1.46s2.12,0,3.18,0a1.21,1.21,0,0,0,1.32-1.28c0-.62,0-1.25,0-1.87v-36c0-3.12,0-3.12,3.05-3.14h.94c1.4-.09,1.59-.27,1.67-1.67,0-.56,0-1.13,0-1.69V215.32c0-2.86,0-2.87,3-2.87,3.56,0,7.12,0,10.68,0,2.3,0,2.45-.15,2.45-2.47q0-18.37,0-36.75c0-3.1,0-3.11,3.08-3.11,2.57,0,5.13,0,7.69,0,1.83,0,2,.2,2,2.08,0,5.19,0,10.37,0,15.56v21c0,.44,0,.88,0,1.31,0,2.26.1,2.36,2.3,2.37,3.56,0,7.12,0,10.68,0,2.8,0,2.81,0,2.81,2.83v36.37c0,2.84,0,2.84,2.76,2.85h2.82v84.38Z" transform="translate(-27.71 -0.37)"/><path d="M3313.5,1.38q0,10,.05,20.05,0,9.66,0,19.32c0,.5,0,1,0,1.5-.09,1.17-.31,1.42-1.48,1.48s-2.62,0-3.93,0c-2.69,0-5.38,0-8.06,0-2.19,0-2.3.12-2.3,2.37q0,18.18,0,36.37c0,.62,0,1.25,0,1.87a1.23,1.23,0,0,1-1.37,1.41c-3.31,0-6.62,0-9.93,0-1.15,0-1.37-.32-1.46-1.5,0-.56,0-1.13,0-1.69v-36c0-2.82,0-2.82-2.78-2.82-3.69,0-7.37,0-11.06,0-2.09,0-2.23-.14-2.23-2.25q0-20.07,0-40.12Z" transform="translate(-27.71 -0.37)"/><path d="M3437.63,338.88q0-19.59,0-39.16v-.56c0-2.19.15-2.32,2.36-2.33H3451c2.56,0,2.67-.1,2.67-2.62V257.67c0-3.17,0-3.17,3.2-3.17h6.93c2.66,0,2.67,0,2.67,2.75q0,18.09,0,36.16c0,.5,0,1,0,1.5,0,1.72.21,1.87,2,1.91.94,0,1.87,0,2.81,0h8.62c2.21,0,2.35.14,2.35,2.33q0,11.23,0,22.48,0,8.61-.05,17.24Z" transform="translate(-27.71 -0.37)"/><path d="M3354,1.38V40.89c0,.31,0,.62,0,.93-.06,1.71-.23,1.91-2,1.92-2.94,0-5.87,0-8.81,0-1.8,0-2-.21-2-2.11,0-7.24,0-14.48,0-21.72q0-9.27.05-18.53Z" transform="translate(-27.71 -0.37)"/><path d="M3397.5,338.88q0-10.12-.05-20.24V299.89c0-.56,0-1.12,0-1.68a1.24,1.24,0,0,1,1.41-1.36l4.87,0c1.62,0,3.25,0,4.87,0,1.3,0,1.51.28,1.61,1.54,0,.44,0,.88,0,1.32v39.17Z" transform="translate(-27.71 -0.37)"/><path d="M3769.5,1.38V40.93c0,.31,0,.62,0,.94-.06,1.62-.25,1.85-1.85,1.87-3.13,0-6.25,0-9.38,0-.5,0-1,0-1.5,0-1.17.09-1.37.3-1.46,1.49,0,.56,0,1.12,0,1.68q0,17.45,0,34.87c0,4.39.4,4-4.08,4-2.12,0-4.25,0-6.37,0s-2.34.12-2.34,2.33q0,17.72,0,35.43c0,.88,0,1.75,0,2.63a5.87,5.87,0,0,1-.09,1.11.93.93,0,0,1-1,.75c-.56,0-1-.16-1.13-.74a12.87,12.87,0,0,1-.11-2.06q0-18.18,0-36.36c0-3.09,0-3.09-3.14-3.09-2.81,0-5.62,0-8.43,0-2.08,0-2.24-.16-2.24-2.25q0-18.09,0-36.18c0-.56,0-1.12,0-1.69,0-1.71-.22-1.89-2-1.91-2.94,0-5.87,0-8.81,0-2.19,0-2.3.12-2.3,2.36q0,17.91,0,35.81c0,.56,0,1.12,0,1.68,0,2-.19,2.17-2.13,2.18-3,0-6,0-9,0-.5,0-1,0-1.5,0-1.24.11-1.48.35-1.57,1.63,0,.56,0,1.12,0,1.68v36.18c0,2.81,0,2.81-2.81,2.82h-7.5c-2.42,0-2.48.07-2.48,2.57v36.18c0,.62,0,1.25,0,1.87s-.26,1.37-1.18,1.34-1-.57-1.07-1.26,0-1.25,0-1.88q0-18,0-36c0-2.82,0-2.83-2.77-2.83-2.94,0-5.87,0-8.81,0-2.1,0-2.23-.14-2.24-2.25V89.13c0-3.5.18-3.34-3.41-3.33-2.56,0-5.12,0-7.68,0-1.85,0-2,.18-2,2.06q0,10.78,0,21.56,0,7.69,0,15.37c0,3.43.15,3.34-3.24,3.33h-8.43c-2.49,0-2.54.05-2.54,2.5q0,18.18,0,36.37c0,3.17,0,3.17-3.2,3.17h-7.13c-2.39,0-2.45.07-2.46,2.39,0,4.25,0,8.5,0,12.75v24.37c0,.56,0,1.12-.05,1.68a1.1,1.1,0,0,1-2.19.07c-.05-.62-.05-1.25-.05-1.87q0-18.19,0-36.37c0-3,0-3-3-3h-8.25c-2.48,0-2.56-.07-2.56-2.5q0-11.71,0-23.44c0-4.62,0-9.24,0-13.87,0-2.09-.13-2.22-2.25-2.23h-11.24V1.38Z" transform="translate(-27.71 -0.37)"/><path d="M3882,338.88q0-9.86-.05-19.69V299.88c0-.5,0-1,0-1.5.1-1.25.3-1.47,1.62-1.53,1.06-.05,2.12,0,3.18,0,2.44,0,4.88,0,7.32,0,1.53,0,1.74-.24,1.78-1.74s0-3.25,0-4.87V258.33c0-.5,0-1,0-1.5,0-2.19.14-2.32,2.35-2.33h7.31c3.63,0,3.42.23,3.42-3.51q0-17.72,0-35.43c0-.63,0-1.25,0-1.88s.38-1.17,1.17-1.15,1,.46,1,1.09.05,1.24.05,1.87v36c0,3,0,3,3,3,2.75,0,5.5,0,8.25,0,2.19,0,2.32.14,2.32,2.36q0,17.07,0,34.12c0,1.38,0,2.75,0,4.13s.33,1.67,1.68,1.69c3.31,0,6.63,0,9.94,0,1.45,0,1.68-.31,1.76-1.81,0-.56,0-1.12,0-1.68v-36c0-2.8,0-2.81,2.81-2.81s5.88,0,8.81,0c2.18,0,2.3-.13,2.31-2.37v-36c0-.56,0-1.12,0-1.69.06-1.75.24-2,1.95-2,2.5,0,5,0,7.5,0,3.73,0,3.63.19,3.63-3.54q0-18,0-36a16.71,16.71,0,0,1,.08-1.87.94.94,0,0,1,1.05-.85.93.93,0,0,1,1.07.82,17.65,17.65,0,0,1,.08,2.06q0,18.27,0,36.55c0,2.81,0,2.82,2.79,2.82s5.63,0,8.44,0c2.17,0,2.31.14,2.31,2.37q0,16.21,0,32.43c0,1.81,0,3.62,0,5.44,0,1.54.23,1.76,1.73,1.78,3.31,0,6.62,0,9.93,0,1.49,0,1.71-.24,1.72-1.8,0-3.88,0-7.75,0-11.63V215.18c0-2.7,0-2.72,2.71-2.73,3,0,6,0,9,0,2.08,0,2.21-.15,2.21-2.27q0-18.47,0-36.93c0-3.13,0-3.13,3-3.13h7.69c2.22,0,2.33-.12,2.33-2.33q0-16.78,0-33.56c0-1.31,0-2.62,0-3.93a8.16,8.16,0,0,1,.09-1.31.94.94,0,0,1,1.06-.83.93.93,0,0,1,1,.85,20.07,20.07,0,0,1,.08,2.05q0,18.09,0,36.18c0,2.88,0,2.88,2.92,2.88h8.06c2.48,0,2.56.08,2.56,2.5q0,12.48,0,24.94c0,4.12,0,8.25,0,12.37,0,2.38.14,2.5,2.58,2.52l10.5.05V338.88Z" transform="translate(-27.71 -0.37)"/><path d="M3811.5,1.38q0,13.77,0,27.55c0,4.25,0,8.5,0,12.75,0,1.86-.2,2-2,2.06-2.81,0-5.63,0-8.44,0-2.18,0-2.3.12-2.3,2.37q0,18.18,0,36.37c0,.62,0,1.25,0,1.87s-.25,1.38-1.18,1.35-1-.57-1.07-1.26,0-1.25,0-1.88q0-18,0-36c0-2.83,0-2.83-2.77-2.83-2.94,0-5.88,0-8.81,0-2.1,0-2.23-.14-2.24-2.25V1.38Z" transform="translate(-27.71 -0.37)"/><path d="M3839.63,338.88V300.66c0-.5,0-1,0-1.5,0-2.19.15-2.32,2.35-2.33H3850c2.56,0,2.66-.1,2.66-2.62q0-14.7,0-29.41c0-2.69,0-5.37,0-8.06,0-1.72.25-2.14,1.13-2.16s1.15.43,1.15,2.13q0,18.36,0,36.72c0,3.51-.26,3.42,3.32,3.41,2.62,0,5.24,0,7.87,0,2.21,0,2.34.14,2.35,2.33q0,11.8,0,23.6c0,5.37,0,10.74,0,16.12Z" transform="translate(-27.71 -0.37)"/><path d="M3855,1.38v39.5c0,.62,0,1.25-.07,1.87a1,1,0,0,1-1,.93,1,1,0,0,1-1.18-.93,7.26,7.26,0,0,1-.06-.93q0-20.22,0-40.44Z" transform="translate(-27.71 -0.37)"/><path d="M3796.5,338.88q0-12.75,0-25.49,0-7,0-14.05a9.43,9.43,0,0,1,.11-1.68c.1-.58.57-.78,1.13-.75a.87.87,0,0,1,.93.75,15.46,15.46,0,0,1,.11,2q0,19.57,0,39.17Z" transform="translate(-27.71 -0.37)"/><path d="M4219.5,1.38V40.93c0,.37,0,.75,0,1.12-.08,1.4-.28,1.62-1.66,1.69-.93,0-1.87,0-2.81,0-1.16.07-1.37.29-1.45,1.48,0,.56,0,1.13,0,1.69v36c0,2.85,0,2.85-2.78,2.86h-10.68c-2.22,0-2.33.12-2.33,2.34q0,18.47,0,36.92c0,3.07,0,3.07-3.11,3.07h-7.13c-2.47,0-2.55-.08-2.56-2.5V101.44c0-4.37,0-8.75,0-13.12,0-2.39-.14-2.51-2.58-2.52-3.75,0-7.5,0-11.25,0-2.09,0-2.24-.15-2.24-2.24q0-18.47,0-36.93c0-2.87,0-2.87-2.94-2.87h-.37c-2.19,0-2.3.12-2.3,2.36q0,18.29,0,36.56c0,3.1,0,3.11-3.06,3.12h-.57c-2.13,0-2.31.2-2.32,2.4q0,18.38,0,36.75c0,3.18,0,3.18-3.19,3.18h-9.57c-3,0-3,0-3,3.13v35.81c0,3.1,0,3.1-3.08,3.1-2.5,0-5,0-7.5,0-2.05,0-2.21-.17-2.21-2.28q0-18.18,0-36.37c0-3.6.17-3.39-3.34-3.39s-7,0-10.49,0c-2.11,0-2.24-.14-2.24-2.24q0-18.37,0-36.74c0-3.46.26-3.36-3.39-3.34-2.09,0-2.22.14-2.22,2.26q0,18.47,0,36.93c0,3.13,0,3.13-3,3.14s-2.91,0-2.91,2.88v36.18c0,3,0,3-3,3H4087.9c-2.63,0-2.64,0-2.64,2.58q0,18.18,0,36.37c0,3.53.16,3.38-3.37,3.37-2.38,0-4.75,0-7.13,0-2.18,0-2.3-.14-2.3-2.37q0-17.53,0-35.06c0-1,0-2,0-3-.06-1.58-.3-1.86-1.88-1.88-3.81,0-7.63,0-11.44,0-2.73,0-2.75,0-2.75-2.68V130.93c0-2.79,0-2.79-2.81-2.8h-3.18V1.38Z" transform="translate(-27.71 -0.37)"/><path d="M4332,338.88c0-.69-.05-1.38-.05-2.07V299.88c0-.5,0-1,0-1.5.1-1.25.3-1.46,1.62-1.54.87,0,1.75,0,2.62,0a1.23,1.23,0,0,0,1.4-1.37c0-.56,0-1.12,0-1.69V257.39c0-2.89,0-2.89,2.92-2.89h9.94c3.36,0,3.22.17,3.22-3.32V215.56c0-3.11,0-3.11,3.09-3.11,2.5,0,5,0,7.5,0,2.06,0,2.18.15,2.21,2.27,0,.5,0,1,0,1.5V251.1c0,.56,0,1.13,0,1.69.07,1.42.26,1.61,1.64,1.69.44,0,.87,0,1.31,0H4380c2.19,0,2.32.14,2.32,2.36q0,18.18,0,36.36c0,.57,0,1.13,0,1.69.07,1.6.3,1.84,1.87,1.9.81,0,1.62,0,2.43,0,1.25-.08,1.48-.34,1.57-1.62,0-.56,0-1.12,0-1.69V257.31c0-2.8,0-2.8,2.81-2.81s2.86,0,2.86-2.94V215.38c0-2.92,0-2.93,2.89-2.93h10.12c3.07,0,3.07,0,3.07-3.16v-36c0-3.18,0-3.18,3.2-3.18h6.38c3.22,0,3.22,0,3.22,3.14q0,17.72,0,35.43c0,4.05-.38,3.75,3.72,3.76,3.25,0,6.5,0,9.75,0,2.18,0,2.31.14,2.31,2.36q0,18.28,0,36.56c0,3.12,0,3.12,3.05,3.12,2.85,0,2.85,0,2.85-2.95V215c0-2.46.09-2.55,2.52-2.54,3.34,0,3.15,0,3.15-3.22V173.06c0-2.93,0-2.94,2.87-2.94h10.87c2.22,0,2.34-.11,2.34-2.33V131.23c0-3.15,0-3.15,3.22-3.15,2.5,0,5,0,7.5,0,1.87,0,2,.21,2.08,2,0,.5,0,1,0,1.5v34.87c0,.5,0,1,0,1.5,0,2,.17,2.11,2.16,2.12,3.63,0,7.25,0,10.87,0,2.74,0,2.76,0,2.76,2.69v36.36c0,3.27,0,3.27,3.33,3.28l2.25.05V338.88Z" transform="translate(-27.71 -0.37)"/><path d="M4269.75,1.38q0,10,.05,20.05V40.75c0,.5,0,1,0,1.5-.09,1.17-.31,1.42-1.48,1.48s-2.62,0-3.93,0c-2.69,0-5.38,0-8.06,0-2.19,0-2.3.12-2.3,2.37q0,18.18,0,36.37c0,.62,0,1.25,0,1.87a1.23,1.23,0,0,1-1.37,1.41c-3.31,0-6.62,0-9.93,0-1.15,0-1.37-.32-1.46-1.5,0-.56,0-1.13,0-1.69v-36c0-2.82,0-2.82-2.78-2.82-3.69,0-7.37,0-11.06,0-2.09,0-2.23-.14-2.23-2.25q0-20.07,0-40.12Z" transform="translate(-27.71 -0.37)"/><path d="M4281.38,338.88q0-19.59,0-39.16v-.56c0-2.19.15-2.32,2.36-2.33h11.05c2.56,0,2.67-.1,2.67-2.62V257.67c0-3.17,0-3.17,3.2-3.17h6.93c2.66,0,2.67,0,2.67,2.75q0,18.09,0,36.16c0,.5,0,1,0,1.5.05,1.72.21,1.87,2,1.91.94,0,1.87,0,2.81,0h8.62c2.21,0,2.35.14,2.35,2.33q0,11.23,0,22.48,0,8.61-.05,17.24Z" transform="translate(-27.71 -0.37)"/><path d="M4310.25,1.38V40.89c0,.31,0,.62,0,.93-.06,1.71-.23,1.91-2,1.92-2.94,0-5.87,0-8.81,0-1.8,0-2-.21-2-2.11,0-7.24,0-14.48,0-21.72q0-9.27.05-18.53Z" transform="translate(-27.71 -0.37)"/><path d="M4241.25,338.88q0-10.12-.05-20.24,0-9.37,0-18.75c0-.56,0-1.12,0-1.68a1.24,1.24,0,0,1,1.41-1.36l4.87,0c1.62,0,3.25,0,4.87,0,1.3,0,1.51.28,1.61,1.54,0,.44,0,.88,0,1.32v39.17Z" transform="translate(-27.71 -0.37)"/><path d="M4725.75,1.38V40.93c0,.32,0,.63,0,.94-.06,1.62-.25,1.85-1.86,1.87-3.12,0-6.25,0-9.37,0-.5,0-1,0-1.5,0-1.17.09-1.37.3-1.46,1.49,0,.56,0,1.13,0,1.69V83c0,2.84,0,2.84-2.77,2.85h-7.69c-2.21,0-2.33.12-2.33,2.34v36.94c0,.62,0,1.25,0,1.87s-.32,1.07-1,1.1a1,1,0,0,1-1.19-1.13c0-.62,0-1.24,0-1.87q0-17.72,0-35.43c0-4,.25-3.83-3.73-3.82-2.62,0-5.25,0-7.87,0-2.07,0-2.22-.15-2.23-2.27q0-18.18,0-36.37c0-3.55.2-3.4-3.35-3.4H4672c-2.37,0-2.45.08-2.46,2.39q0,5.15,0,10.31V82c0,.43,0,.87,0,1.31,0,2.45-.08,2.52-2.53,2.53-2.94,0-5.87,0-8.81,0s-2.86,0-2.87,2.8v30c0,2.44,0,4.87,0,7.31,0,2.07-.16,2.2-2.28,2.21-2.69,0-5.38,0-8.06,0-2.37,0-2.45.08-2.45,2.41q0,18.28,0,36.56c0,.69,0,1.38-.08,2.06a.93.93,0,0,1-1,.93,1,1,0,0,1-1.16-.93c-.06-.62-.07-1.25-.07-1.87q0-18.19,0-36.37c0-2.78,0-2.79-2.82-2.79h-8.24c-2.75,0-2.76,0-2.76-2.68V100.14c0-4.06,0-8.12,0-12.19,0-2-.16-2.13-2.14-2.14q-4.21,0-8.43,0c-2.49,0-2.54.06-2.54,2.5q0,17.34,0,34.68c0,1.13,0,2.26,0,3.38-.05,1.51-.25,1.74-1.78,1.75-3.06,0-6.12,0-9.18,0-.56,0-1.13,0-1.69,0-1.27.08-1.45.27-1.53,1.6,0,.56,0,1.13,0,1.69v35.81c0,2.92,0,2.92-2.89,2.92-2.56,0-5.12,0-7.69,0-2.07,0-2.21.14-2.21,2.26q0,18.57,0,37.12c0,.63,0,1.26-.06,1.88a1,1,0,0,1-1.12,1,1,1,0,0,1-1.07-1.06c0-.62,0-1.25,0-1.87q0-18.18,0-36.37c0-2.93,0-2.95-2.9-2.95h-7.87c-3.05,0-3.05,0-3.05-3.14V131.22c0-3.09,0-3.09-3.08-3.09h-7.69c-2.23,0-2.35.12-2.35,2.32q0,16.22,0,32.43c0,1.75,0,3.5,0,5.25s-.22,2-2.08,2c-3.19,0-6.38,0-9.56,0-2.42,0-2.56.14-2.56,2.54q0,18.18,0,36.37c0,3.49.25,3.43-3.33,3.42-2.38,0-4.75,0-7.13,0-2.2,0-2.33.12-2.33,2.34q0,17.34,0,34.68c0,1.06,0,2.12,0,3.19a5,5,0,0,1-.14,1.1.91.91,0,0,1-1,.65c-.48,0-.91-.19-1-.69a12.64,12.64,0,0,1-.14-2q0-18.19,0-36.38c0-2.85,0-2.85-2.93-2.86h-8.44c-2.35,0-2.45-.09-2.45-2.41V173.71c0-3.76.28-3.53-3.57-3.54-3.31,0-6.62,0-9.93,0V1.38Z" transform="translate(-27.71 -0.37)"/><path d="M4725.75,338.88q0-10-.05-20.07V300.25c0-.5,0-1,0-1.5.06-1.69.24-1.88,2-1.92,1.37,0,2.75,0,4.12,0,2,0,4,0,6,0,1.53,0,1.74-.24,1.77-1.75,0-2,0-4,0-6V258.13c0-.5,0-1,0-1.5,0-1.95.19-2.11,2.18-2.13,2.75,0,5.5,0,8.25,0s2.64,0,2.64-2.58q0-18.28,0-36.56c0-.62,0-1.25.06-1.87a1,1,0,0,1,1.16-.95.93.93,0,0,1,1,.92c.06.62.08,1.25.08,1.87v36.19c0,3,0,3,3,3h7.69c2.85,0,2.85,0,2.85,2.95v36c0,.56,0,1.13,0,1.69.09,1.34.34,1.63,1.72,1.66,2.31.05,4.62,0,6.93,0,1.07,0,2.13,0,3.19,0s1.42-.34,1.52-1.47c.06-.62,0-1.25,0-1.87v-36c0-3,0-3,3-3h8.44c2.36,0,2.44-.08,2.45-2.41V215.9c0-.57,0-1.13,0-1.69.08-1.48.28-1.72,1.8-1.74,2.75,0,5.5,0,8.25,0,3,0,3,0,3-3q0-18.09,0-36.18c0-.56,0-1.13,0-1.69,0-.77.25-1.37,1.18-1.35s1.06.71,1.08,1.44c0,.56,0,1.12,0,1.68v36.19c0,2.93,0,2.94,2.85,2.94s5.63,0,8.44,0c2.09,0,2.25.15,2.25,2.24q0,18.2,0,36.38c0,.56,0,1.12,0,1.69.07,1.48.27,1.7,1.81,1.71,3.19,0,6.37,0,9.56,0,1.85,0,2-.18,2-2.07,0-7.13,0-14.25,0-21.37,0-5.44,0-10.88,0-16.32,0-2.1.16-2.26,2.22-2.27,3.12,0,6.24,0,9.37,0,2.21,0,2.32-.12,2.33-2.34V173.36c0-3.42-.07-3.24,3.32-3.24,2.57,0,5.13,0,7.69,0,1.88,0,2-.17,2.06-2,0-5.56,0-11.13,0-16.69q0-10.3,0-20.62a11.67,11.67,0,0,1,.11-1.87c.1-.58.57-.77,1.13-.74a.87.87,0,0,1,.93.75,15.71,15.71,0,0,1,.11,2.06q0,18.09,0,36.18c0,3,0,3,3,3h7.87c2.6,0,2.65,0,2.65,2.6q0,18,0,36c0,.56,0,1.13,0,1.69.06,1.78.27,2,2.12,2,2.5,0,5,0,7.5,0,.75,0,1.5,0,2.25,0,1.15-.09,1.4-.34,1.5-1.48.06-.62,0-1.25,0-1.88v-36c0-2.93,0-2.93,2.87-2.94h8.81c2.11,0,2.24-.13,2.24-2.25q0-18.18,0-36.37c0-.56,0-1.12,0-1.69.08-1.46.29-1.7,1.82-1.72,2.94,0,5.87,0,8.81,0,2.28,0,2.43-.16,2.43-2.48q0-18.47,0-36.93c0-.63,0-1.25.06-1.88a1,1,0,0,1,1.15-1,.93.93,0,0,1,1,.9c.06.62.08,1.25.08,1.87v36.56c0,2.92,0,2.92,2.87,2.92s5.63,0,8.44,0c2.07,0,2.23.17,2.23,2.27q0,18.18,0,36.37c0,3.59-.18,3.4,3.34,3.4h9.75V338.88Z" transform="translate(-27.71 -0.37)"/><path d="M4767.75,1.38q0,13.77,0,27.55c0,4.25,0,8.5,0,12.75,0,1.86-.2,2-2,2.06-2.81,0-5.63,0-8.44,0-2.18,0-2.3.12-2.3,2.37q0,18.18,0,36.37c0,.62,0,1.25,0,1.87s-.25,1.38-1.18,1.35-1-.57-1.07-1.26,0-1.25,0-1.88q0-18,0-36c0-2.83,0-2.83-2.77-2.83-2.94,0-5.88,0-8.81,0-2.1,0-2.23-.14-2.24-2.25V1.38Z" transform="translate(-27.71 -0.37)"/><path d="M4683.38,338.88V300.66c0-.5,0-1,0-1.5,0-2.19.15-2.32,2.35-2.33h8.06c2.56,0,2.66-.1,2.66-2.62q0-14.7,0-29.41c0-2.69,0-5.37,0-8.06,0-1.72.25-2.14,1.13-2.16s1.15.43,1.15,2.13q0,18.36,0,36.72c0,3.51-.26,3.42,3.32,3.41,2.62,0,5.25,0,7.87,0,2.21,0,2.34.14,2.35,2.33q0,11.8,0,23.61c0,5.37,0,10.73,0,16.11Z" transform="translate(-27.71 -0.37)"/><path d="M4811.25,1.38v39.5c0,.62,0,1.25-.07,1.87a1,1,0,0,1-1,.93,1,1,0,0,1-1.18-.93,7.26,7.26,0,0,1-.06-.93q0-20.22,0-40.44Z" transform="translate(-27.71 -0.37)"/><path d="M4640.25,338.88q0-12.75,0-25.49,0-7,0-14.05a9.43,9.43,0,0,1,.11-1.68c.1-.58.57-.78,1.13-.75a.87.87,0,0,1,.93.75,15.46,15.46,0,0,1,.11,2q0,19.57,0,39.17Z" transform="translate(-27.71 -0.37)"/><path d="M5175.75,1.38V40.93c0,.38,0,.75,0,1.13-.08,1.4-.28,1.61-1.66,1.68-.87,0-1.75,0-2.63,0-1.38.06-1.57.27-1.64,1.69,0,.56,0,1.12,0,1.68V83c0,2.84,0,2.84-2.79,2.85h-10.68c-2.21,0-2.32.12-2.32,2.35q0,18.46,0,36.93c0,3,0,3-3.13,3h-7.31c-2.21,0-2.33-.15-2.36-2.33V88.68c0-2.83-.05-2.87-2.79-2.88-3.69,0-7.37,0-11.06,0-2.08,0-2.22-.15-2.22-2.27q0-18.36,0-36.74c0-3,0-3-3-3H5122c-2.37,0-2.44.09-2.46,2.4,0,.5,0,1,0,1.5V82c0,.5,0,1,0,1.5,0,2.19-.14,2.33-2.34,2.33-3.82,0-3.61-.14-3.61,3.76v35.62c0,3,0,3-3,3H5100.2c-2.37,0-2.44.08-2.44,2.42q0,18.18,0,36.37c0,.62,0,1.25,0,1.87a1.24,1.24,0,0,1-1.41,1.37h-9.94a1.24,1.24,0,0,1-1.41-1.37c0-.62,0-1.24,0-1.87v-36c0-2.77,0-2.78-2.82-2.78H5072c-3.14,0-3.14,0-3.14-3V88.9c0-3.12,0-3.12-3.07-3.1h-1.13a1.23,1.23,0,0,0-1.4,1.37c0,.56,0,1.12,0,1.68q0,18.19,0,36.37c0,2.89,0,2.89-2.91,2.9s-3,0-3,3.13v36c0,2.92,0,2.92-2.9,2.92-3.56,0-7.12,0-10.68,0-2.08,0-2.21.14-2.21,2.27q0,18.47,0,36.93c0,3.12,0,3.12-3.06,3.12-2.56,0-5.12,0-7.68,0-1.85,0-2-.21-2.05-2.07,0-.56,0-1.12,0-1.68V172.94c0-2.68-.08-2.76-2.72-2.76h-10.5c-2.85,0-2.86,0-2.86-2.95v-36c0-3.12,0-3.12-3.07-3.1h-1.13a1.24,1.24,0,0,0-1.4,1.37c0,.56,0,1.13,0,1.69q0,18,0,36c0,3,0,3-3,3h-.19c-2.66,0-2.74.09-2.74,2.74v36.56c0,3,0,3-3,3h-10.5c-2.2,0-2.32.12-2.32,2.34q0,18.28,0,36.56c0,3.13,0,3.14-3,3.14-2.57,0-5.13,0-7.69,0-1.85,0-2-.21-2.06-2.06,0-.49,0-1,0-1.49V215.55c0-.56,0-1.12,0-1.69a1.21,1.21,0,0,0-1.41-1.34l-1.5,0h-10.88c-2.11,0-2.23-.15-2.27-2.22V173.35c0-.57,0-1.13,0-1.69-.08-1.17-.29-1.41-1.48-1.46-1.5-.07-3,0-4.49-.07V1.38Z" transform="translate(-27.71 -0.37)"/><path d="M5175.75,338.88q0-10-.05-20.07V300.25c0-.5,0-1,0-1.5.06-1.69.24-1.87,2-1.92.75,0,1.5,0,2.25,0a1.23,1.23,0,0,0,1.39-1.38c0-.56,0-1.12,0-1.68V257.37c0-2.87,0-2.87,2.93-2.87h10.31c2.83,0,2.84,0,2.84-2.77v-36c0-.63,0-1.25,0-1.88a1.25,1.25,0,0,1,1.4-1.38l4.12,0c1.82,0,3.63,0,5.44,0,1.53,0,1.74.26,1.81,1.73,0,.56,0,1.13,0,1.69q0,17.91,0,35.81c0,2.8,0,2.8,2.8,2.8h10.13c2.85,0,2.86,0,2.86,2.95v36.18c0,3.21,0,3.21,3.22,3.2h.57c1.84-.05,2.06-.25,2.1-2.05,0-1.37,0-2.75,0-4.12V257.46c0-2.95,0-2.95,2.85-3s2.82,0,2.82-2.79V215.33c0-2.87,0-2.88,2.93-2.88,3.57,0,7.13,0,10.69,0,2.31,0,2.46-.15,2.46-2.46q0-18.37,0-36.75c0-3.11,0-3.12,3.07-3.12,2.56,0,5.12,0,7.69,0,1.84,0,2,.2,2,2.06,0,5.75,0,11.5,0,17.25v19.69c0,.37,0,.75,0,1.12,0,2.07.13,2.19,2.28,2.2,3.5,0,7,0,10.5,0,3,0,3,0,3,3v36.18c0,2.87,0,2.87,2.93,2.87s3,0,3-3V215.3c0-2.83,0-2.83,2.79-2.85s2.88,0,2.88-2.91V173.73c0-3.9-.25-3.6,3.7-3.61h9.94c2.36,0,2.44-.08,2.44-2.41V131.33c0-.62,0-1.25,0-1.87a1.24,1.24,0,0,1,1.41-1.36h9.93a1.24,1.24,0,0,1,1.41,1.37c0,.63,0,1.25,0,1.88q0,18,0,36c0,2.77,0,2.78,2.82,2.78h10.31c2.61,0,2.66,0,2.66,2.6v36.37c0,.56,0,1.13,0,1.69.08,1.29.32,1.61,1.54,1.64,5,.13,4.33.19,4.33-3.92q0-17.81,0-35.62c0-2.74,0-2.74,2.68-2.76,3,0,3,0,3-3V131.69c0-3.92-.21-3.61,3.7-3.61,3.32,0,6.63,0,9.94,0,2.29,0,2.44-.15,2.44-2.47q0-18.37,0-36.75c0-3.1,0-3.1,3.09-3.1,2.56,0,5.12,0,7.68,0,1.83,0,2,.21,2,2.09q0,9.93,0,19.87v17.06c0,.44,0,.88,0,1.32.05,1.76.2,2,1.93,2,2.74,0,5.49,0,8.24,0,1.32,0,2.63,0,3.94,0s1.59.28,1.67,1.68c0,.56,0,1.13,0,1.69v35.81c0,2.83,0,2.83,2.76,2.84h2.82V338.88Z" transform="translate(-27.71 -0.37)"/><path d="M5226,1.38q0,10,.05,20.05V40.75c0,.5,0,1,0,1.5-.09,1.17-.31,1.42-1.48,1.48s-2.62,0-3.93,0c-2.69,0-5.38,0-8.06,0-2.19,0-2.3.12-2.3,2.37q0,18.18,0,36.37c0,.62,0,1.25,0,1.87a1.23,1.23,0,0,1-1.37,1.41c-3.31,0-6.62,0-9.93,0-1.15,0-1.37-.32-1.46-1.5,0-.56,0-1.13,0-1.69v-36c0-2.82,0-2.82-2.78-2.82-3.69,0-7.37,0-11.06,0-2.09,0-2.23-.14-2.23-2.25q0-20.07,0-40.12Z" transform="translate(-27.71 -0.37)"/><path d="M5125.13,338.88q0-19.59,0-39.16v-.56c0-2.19.15-2.32,2.36-2.33h11.05c2.56,0,2.67-.1,2.67-2.62V257.67c0-3.17,0-3.17,3.2-3.17h6.93c2.66,0,2.67,0,2.67,2.75q0,18.09,0,36.16c0,.5,0,1,0,1.5.05,1.72.21,1.87,2,1.91.94,0,1.87,0,2.81,0h8.62c2.21,0,2.35.14,2.35,2.33q0,11.23,0,22.48,0,8.61-.05,17.24Z" transform="translate(-27.71 -0.37)"/><path d="M5266.5,1.38V40.89c0,.31,0,.62,0,.93-.06,1.71-.23,1.91-2,1.92-2.94,0-5.87,0-8.81,0-1.8,0-2-.21-2-2.11,0-7.24,0-14.48,0-21.72q0-9.27.05-18.53Z" transform="translate(-27.71 -0.37)"/><path d="M5085,338.88q0-10.12-.05-20.24,0-9.37,0-18.75c0-.56,0-1.12,0-1.68a1.24,1.24,0,0,1,1.41-1.36l4.87,0c1.62,0,3.25,0,4.87,0,1.3,0,1.51.28,1.61,1.54,0,.44,0,.88,0,1.32v39.17Z" transform="translate(-27.71 -0.37)"/><path d="M5682,1.38V40.93c0,.32,0,.63,0,.94-.06,1.62-.25,1.85-1.86,1.87-3.12,0-6.25,0-9.37,0-.5,0-1,0-1.5,0-1.17.09-1.37.3-1.46,1.49,0,.56,0,1.13,0,1.69V83c0,2.84,0,2.84-2.77,2.85h-7.69c-2.21,0-2.33.12-2.33,2.34q0,18.19,0,36.37c0,.82,0,1.63,0,2.44a1,1,0,0,1-1,1.1,1,1,0,0,1-1.19-1.12c0-.63,0-1.25,0-1.88q0-17.72,0-35.43c0-4.1.22-3.82-3.92-3.82-2.56,0-5.12,0-7.68,0-2.07,0-2.22-.15-2.23-2.27q0-18.18,0-36.37c0-3.55.2-3.4-3.35-3.4h-7.31c-2.37,0-2.46.08-2.46,2.39q0,6.27,0,12.56V82.14c0,.38,0,.75,0,1.13,0,2.45-.08,2.52-2.53,2.53-3,0-6,0-9,0-2.57,0-2.67.1-2.67,2.62q0,14,0,27.93c0,3.19,0,6.37,0,9.56,0,2.07-.16,2.2-2.28,2.21-2.69,0-5.37,0-8.06,0-2.36,0-2.45.08-2.45,2.41V167.1c0,.69,0,1.38-.08,2.06a.92.92,0,0,1-1,.93,1,1,0,0,1-1.16-.93c-.06-.62-.07-1.25-.07-1.87q0-18.19,0-36.37c0-2.78,0-2.79-2.82-2.79h-8.24c-2.75,0-2.76,0-2.76-2.68V102.39c0-4.81,0-9.62,0-14.44,0-2-.16-2.13-2.13-2.14q-4.23,0-8.44,0c-2.49,0-2.54.06-2.54,2.5q0,16,0,32.06c0,2,0,4,0,6,0,1.51-.25,1.74-1.77,1.75-3.13,0-6.25,0-9.38,0-.5,0-1,0-1.5,0-1.27.09-1.45.28-1.53,1.61,0,.56,0,1.13,0,1.69v35.81c0,2.92,0,2.92-2.89,2.92-2.56,0-5.12,0-7.68,0-2.08,0-2.22.14-2.22,2.26q0,18.57,0,37.12c0,.63,0,1.25-.06,1.88a1,1,0,0,1-1.12,1,1,1,0,0,1-1.07-1.06c0-.62,0-1.24,0-1.87q0-18.18,0-36.37c0-2.93,0-2.95-2.9-2.95h-8.06c-2.85,0-2.86,0-2.86-2.95v-36c0-3.09,0-3.09-3.08-3.09h-7.69c-2.23,0-2.35.12-2.35,2.32q0,15.09,0,30.18c0,2.5,0,5,0,7.5,0,1.84-.21,2-2.07,2-3.19,0-6.38,0-9.56,0-2.42,0-2.56.14-2.56,2.54q0,18.18,0,36.37c0,3.48.25,3.43-3.33,3.42-2.38,0-4.75,0-7.13,0-2.2,0-2.33.12-2.33,2.33q0,16.23,0,32.44c0,1.75,0,3.5,0,5.25a5.11,5.11,0,0,1-.15,1.29.89.89,0,0,1-1,.65c-.48,0-.91-.18-1-.68a12.84,12.84,0,0,1-.14-2q0-18.19,0-36.37c0-2.86,0-2.86-2.93-2.87h-8.43c-2.36,0-2.46-.09-2.46-2.41V173.72c0-3.77.28-3.55-3.57-3.55-2.5,0-5,0-7.5,0-1.87,0-2,.18-2.05,2q0,9.75,0,19.49v17.81c0,.57,0,1.13,0,1.69a1.17,1.17,0,0,1-1.31,1.26l-1.31,0h-8.81c-2.74,0-2.74,0-2.75,2.67v27.56c0,3.25,0,6.5,0,9.74,0,1.86-.2,2-2.05,2.06-2.63,0-5.25,0-7.88,0-2.85,0-2.85,0-2.85,2.94v36.19c0,.56,0,1.12,0,1.68,0,.73-.14,1.42-1.08,1.44s-1.16-.58-1.18-1.35c0-.56,0-1.12,0-1.69q0-18.09,0-36.18c0-3,0-3-3-3h-8.25c-2.48,0-2.55-.08-2.56-2.5q0-10.87,0-21.75c0-5.19,0-10.38,0-15.56,0-2.1-.13-2.22-2.25-2.23-3.75,0-7.5,0-11.24,0V1.38Z" transform="translate(-27.71 -0.37)"/><path d="M5569.5,338.88q0-10-.05-20.07,0-9.27,0-18.56c0-.44,0-.87,0-1.31.05-1.92.21-2.08,2.21-2.11,1.56,0,3.12,0,4.69,0,1.75,0,3.5,0,5.24,0,1.53,0,1.75-.24,1.77-1.75,0-2.12,0-4.25,0-6.37V258.12c0-.5,0-1,0-1.5,0-1.94.19-2.1,2.18-2.12,2.75,0,5.5,0,8.25,0s2.64,0,2.64-2.58q0-18.28,0-36.57c0-.62,0-1.25.07-1.87s.5-1,1.16-.94a.94.94,0,0,1,1,.93c.06.62.08,1.25.08,1.87v36.19c0,3,0,3,3,3h8.06c2.37,0,2.46.1,2.47,2.4,0,3.63,0,7.25,0,10.88q0,13.13,0,26.25c0,2.75.05,2.79,2.86,2.79s5.38,0,8.07,0c2.31,0,2.46-.15,2.47-2.44q0-14.81,0-29.62v-7.69c0-2.5.07-2.56,2.49-2.57,3.06,0,6.13,0,9.19,0,2.11,0,2.24-.13,2.24-2.24q0-18.27,0-36.56c0-3.24,0-3.24,3.33-3.24,2.43,0,4.87,0,7.31,0,2.28,0,2.43-.16,2.43-2.48q0-18.09,0-36.19c0-.81,0-1.62,0-2.44a1,1,0,0,1,1.18-1.14,1,1,0,0,1,1,1.08c0,.62,0,1.25,0,1.88v36.37c0,2.91,0,2.92,2.88,2.92s5.62,0,8.43,0c2.07,0,2.23.16,2.23,2.27q0,18.18,0,36.37c0,3.59-.17,3.4,3.34,3.4H5679c2.94,0,2.94,0,2.94-3V215.64c0-3.19,0-3.19,3.19-3.19,2.81,0,5.63,0,8.44,0,2.19,0,2.29-.11,2.3-2.37V173.7c0-3.82-.23-3.58,3.54-3.58,2.5,0,5,0,7.5,0,1.86,0,2-.17,2-2.06,0-7,0-14,0-21,0-5.38,0-10.75,0-16.13,0-.56,0-1.12,0-1.68a1,1,0,0,1,1.05-1.08c.79,0,1.12.43,1.16,1.15s0,1.25,0,1.88v36c0,2.92,0,2.93,2.87,2.93s5.62,0,8.44,0c2.07,0,2.23.16,2.23,2.25q0,18.28,0,36.57c0,3.5,0,3.5,3.48,3.5,2.5,0,5,0,7.5,0,2.27,0,2.43-.16,2.43-2.49q0-18.28,0-36.56c0-.63,0-1.25,0-1.87a1.24,1.24,0,0,1,1.39-1.39l3,0h7.13c2.3,0,2.38-.1,2.39-2.47V144.4c0-4.69,0-9.38,0-14.07,0-2.09.16-2.24,2.24-2.25,2.68,0,5.37,0,8.06,0s2.76-.07,2.76-2.71q0-18.28,0-36.56c0-.63,0-1.25,0-1.88a1,1,0,0,1,1-1.1c.79,0,1.15.4,1.19,1.13s0,1.25,0,1.88V125.2c0,2.87,0,2.87,2.92,2.88,2.69,0,5.38,0,8.06,0,2.48,0,2.56.08,2.56,2.51q0,11.63,0,23.25c0,4.68,0,9.37,0,14.06,0,2.09.13,2.21,2.25,2.22h8.82c2.21,0,2.33-.12,2.33-2.33q0-17,0-33.94c0-1.13,0-2.25,0-3.38,0-2.28.13-2.38,2.49-2.39h8.81l1.31,0a1.16,1.16,0,0,0,1.29-1.27c0-.62,0-1.25,0-1.87V88.72c0-3,0-3,3-3h7.5c2.5,0,2.55,0,2.55-2.49q0-14.43,0-28.87c0-2.88,0-5.75,0-8.63,0-1.54.28-2,1.13-2s1.15.43,1.15,1.95q0,18.37,0,36.75c0,.63,0,1.25,0,1.88a1.22,1.22,0,0,0,1.39,1.37l4.13,0c2.06,0,4.12,0,6.19,0,1.53,0,1.73.25,1.8,1.73,0,.56,0,1.13,0,1.69v35.25c0,.5,0,1,0,1.5.05,1.91.25,2.12,2.2,2.14l10.88.06V338.88Z" transform="translate(-27.71 -0.37)"/><path d="M5724,1.38q0,13.77,0,27.55c0,4.25,0,8.5,0,12.75,0,1.86-.2,2-2,2.06-2.81,0-5.63,0-8.44,0-2.18,0-2.3.12-2.3,2.37q0,18.18,0,36.37c0,.62,0,1.25,0,1.87s-.25,1.38-1.18,1.35-1-.57-1.07-1.26,0-1.25,0-1.88q0-18,0-36c0-2.83,0-2.83-2.77-2.83-2.94,0-5.88,0-8.81,0-2.1,0-2.23-.14-2.24-2.25V1.38Z" transform="translate(-27.71 -0.37)"/><path d="M5527.13,338.88V300.66c0-.5,0-1,0-1.5,0-2.19.15-2.32,2.35-2.33h8.06c2.56,0,2.66-.1,2.66-2.62q0-14.7,0-29.41c0-2.69,0-5.37,0-8.06,0-1.72.25-2.14,1.13-2.16s1.15.43,1.15,2.13q0,18.36,0,36.72c0,3.51-.26,3.42,3.32,3.41,2.62,0,5.25,0,7.87,0,2.21,0,2.34.14,2.35,2.33q0,11.8,0,23.6c0,5.37,0,10.74,0,16.12Z" transform="translate(-27.71 -0.37)"/><path d="M5767.5,1.38v39.5c0,.62,0,1.25-.07,1.87a1,1,0,0,1-1,.93,1,1,0,0,1-1.18-.93,7.26,7.26,0,0,1-.06-.93q0-20.22,0-40.44Z" transform="translate(-27.71 -0.37)"/><path d="M5484,338.88q0-12.75,0-25.49,0-7,0-14.05a9.43,9.43,0,0,1,.11-1.68c.1-.58.57-.78,1.13-.75a.87.87,0,0,1,.93.75,15.46,15.46,0,0,1,.11,2q0,19.57,0,39.17Z" transform="translate(-27.71 -0.37)"/><path d="M6132,1.38V40.93c0,.38,0,.75,0,1.13-.08,1.4-.28,1.61-1.66,1.68-.94,0-1.88,0-2.81,0-1.17.07-1.37.29-1.45,1.49,0,.56,0,1.12,0,1.69V83c0,2.84,0,2.84-2.79,2.85h-10.68c-2.21,0-2.32.12-2.32,2.35q0,18.46,0,36.93c0,3,0,3-3.13,3h-7.31c-2.21,0-2.33-.15-2.36-2.33V88.68c0-2.83-.05-2.87-2.79-2.88h-10.5c-.5,0-1,0-1.5,0a1.18,1.18,0,0,1-1.26-1.31c0-.62,0-1.25,0-1.87v-36c0-2.83,0-2.83-2.77-2.84s-2.84,0-2.84,2.77q0,17.71,0,35.44c0,.5,0,1,0,1.5,0,2.2-.14,2.33-2.34,2.33-3.82,0-3.61-.14-3.61,3.76v35.62c0,3,0,3-3,3h-10.31c-2.37,0-2.44.08-2.44,2.42q0,18.18,0,36.37c0,.62,0,1.25,0,1.87a1.24,1.24,0,0,1-1.41,1.37h-9.94a1.24,1.24,0,0,1-1.41-1.36c0-.63,0-1.25,0-1.88v-36c0-2.78,0-2.79-2.82-2.79h-9.94c-3.42,0-3.32.15-3.32-3.24v-36c0-3.12,0-3.12-3.07-3.1h-1.12c-.91,0-1.41.42-1.41,1.36,0,.57,0,1.13,0,1.69q0,18.18,0,36.37c0,2.89,0,2.89-2.91,2.9s-3,0-3,3.12v36c0,2.92,0,2.92-2.9,2.92-3.56,0-7.12,0-10.68,0-2.08,0-2.21.14-2.21,2.26q0,18.47,0,36.94c0,3.12,0,3.12-3.05,3.12-2.56,0-5.13,0-7.69,0-1.85,0-2-.21-2.05-2.06,0-.57,0-1.13,0-1.69V172.94c0-2.68-.08-2.76-2.71-2.76h-10.69c-2.66,0-2.68,0-2.68-2.76V131.23c0-3.12,0-3.12-3.07-3.1h-1.13a1.24,1.24,0,0,0-1.4,1.37c0,.56,0,1.12,0,1.69q0,18,0,36c0,3,0,3-3,3s-2.93,0-2.93,2.92v36.56c0,2.84,0,2.85-2.78,2.85h-10.68c-2.21,0-2.33.12-2.33,2.34q0,18.18,0,36.37c0,3.57.06,3.33-3.43,3.33-2.43,0-4.87,0-7.31,0-1.85,0-2-.21-2.06-2,0-.5,0-1,0-1.5V215.56c0-.57,0-1.13,0-1.69,0-.94-.5-1.36-1.41-1.35l-1.31,0h-10.69c-2.61,0-2.65,0-2.65-2.59q0-18.09,0-36.19c0-3.69.39-3.57-3.56-3.54-1.91,0-2.05.17-2.05,2.23q0,18.38,0,36.75c0,3.55.11,3.35-3.4,3.34-.31,0-.63,0-.94,0-1.31.08-1.52.27-1.6,1.53,0,.56,0,1.13,0,1.69v36c0,2.8,0,2.8-2.82,2.81h-9.94c-3,0-3,0-3,3.13v36.18c0,3,0,3-3,3-2.5,0-5,0-7.49,0-2.19,0-2.32-.14-2.32-2.36q0-18.09,0-36.18c0-.56,0-1.13,0-1.69-.06-1.83-.26-2.06-2.07-2.08-3.63,0-7.25,0-10.88,0-.5,0-1,0-1.5,0-1.3-.08-1.52-.28-1.61-1.54,0-.56,0-1.12,0-1.69v-36c0-2.8,0-2.8-2.81-2.81h-3.18V1.38Z" transform="translate(-27.71 -0.37)"/><path d="M6019.5,338.88q0-10-.05-20.07,0-9.27,0-18.56c0-.44,0-.87,0-1.31.05-1.93.21-2.07,2.21-2.11l2.06,0a1.22,1.22,0,0,0,1.39-1.38c0-.56,0-1.12,0-1.69V257.37c0-2.87,0-2.87,2.94-2.87h10.5c2.61,0,2.64,0,2.64-2.58V215.72c0-.56,0-1.13,0-1.69.09-1.28.29-1.51,1.59-1.56s2.88,0,4.32,0c1.75,0,3.5,0,5.25,0,1.3,0,1.51.28,1.61,1.54,0,.56,0,1.13,0,1.69q0,18,0,36c0,2.79,0,2.79,2.81,2.79H6067c2.84,0,2.85,0,2.85,3v36c0,.62,0,1.25,0,1.87.1,1.13.36,1.43,1.52,1.46,5,.13,4.34.2,4.34-3.91q0-17.81,0-35.62c0-2.75,0-2.75,2.68-2.76,3,0,3,0,3-3V215.69c0-3.24,0-3.24,3.33-3.24s6.87,0,10.31,0c2.29,0,2.44-.16,2.44-2.48q0-18.37,0-36.75c0-3.09,0-3.1,3.09-3.1,2.5,0,5,0,7.5,0,2.06,0,2.21.15,2.21,2.27q0,10,0,20.06v16.69c0,.44,0,.88,0,1.31.05,1.77.2,2,1.93,2,2.75,0,5.5,0,8.25,0,1.31,0,2.63,0,3.94,0s1.58.29,1.66,1.69c0,.56,0,1.13,0,1.69v35.81c0,2.83,0,2.83,2.77,2.84,3.13,0,3.13,0,3.13-3V215.27c0-2.8,0-2.8,2.81-2.82s2.86,0,2.86-2.94V173c0-2.82,0-2.82,2.79-2.83h11.07c2.1,0,2.21-.12,2.22-2.26q0-18.29,0-36.56c0-3.22,0-3.22,3.16-3.22,2.5,0,5,0,7.5,0,2,0,2.13.19,2.14,2.17q0,14.25,0,28.5,0,4.4,0,8.81c0,2.5.05,2.55,2.48,2.56h10.5q.75,0,1.5,0a1.18,1.18,0,0,1,1.28,1.29c0,.63,0,1.25,0,1.88V209.5c0,2.92,0,2.95,2.91,2.95s3,0,3-3V172.46c0-2.19.14-2.33,2.35-2.33,3.51,0,3.32.16,3.32-3.42V130.89c0-2.81,0-2.81,2.81-2.81h10.5c2.69,0,2.77-.07,2.77-2.7V89.18c0-.56,0-1.13,0-1.69.08-1.48.27-1.71,1.81-1.73,3.06,0,6.13,0,9.19,0,1.52,0,1.73.25,1.78,1.75,0,1.25,0,2.5,0,3.75v33.19c0,.5,0,1,0,1.5,0,2,.17,2.11,2.16,2.12,3.63,0,7.25,0,10.88,0,2.72,0,2.75,0,2.75,2.69V167c0,3.17,0,3.17,3.19,3.16h.19c2.46,0,2.52-.05,2.52-2.52V131.22c0-3.13,0-3.12,3.05-3.14h.94c1.4-.08,1.6-.27,1.67-1.67,0-.56,0-1.12,0-1.68V88.53c0-2.78,0-2.78,2.84-2.78h10.5c2.73,0,2.74,0,2.74-2.67V46.88c0-3.18,0-3.18,3.2-3.18,2.38,0,4.75,0,7.13,0s2.46.11,2.47,2.4c0,2.94,0,5.88,0,8.82V82.1c0,.44,0,.88,0,1.32,0,2.2.12,2.31,2.34,2.32h10.5c2.94,0,2.95,0,2.95,3v36c0,3.27,0,3.27,3.33,3.28.75,0,1.5,0,2.25,0V338.88Z" transform="translate(-27.71 -0.37)"/><path d="M6182.25,1.38q0,10,.05,20.05V40.75c0,.5,0,1,0,1.5-.09,1.17-.31,1.42-1.48,1.48s-2.62,0-3.93,0c-2.69,0-5.38,0-8.06,0-2.19,0-2.3.12-2.3,2.37q0,18.18,0,36.37c0,.62,0,1.25,0,1.87a1.23,1.23,0,0,1-1.37,1.41c-3.31,0-6.62,0-9.93,0-1.15,0-1.37-.32-1.46-1.5,0-.56,0-1.13,0-1.69v-36c0-2.82,0-2.82-2.78-2.82-3.69,0-7.37,0-11.06,0-2.09,0-2.23-.14-2.23-2.25q0-20.07,0-40.12Z" transform="translate(-27.71 -0.37)"/><path d="M5968.88,338.88q0-19.59,0-39.16v-.56c0-2.19.15-2.32,2.36-2.33h11.05c2.56,0,2.67-.1,2.67-2.62V257.67c0-3.17,0-3.17,3.2-3.17h6.93c2.66,0,2.67,0,2.67,2.75q0,18.09,0,36.16c0,.5,0,1,0,1.5.05,1.72.21,1.87,2,1.91.94,0,1.87,0,2.81,0h8.62c2.21,0,2.35.14,2.35,2.33q0,11.23,0,22.48,0,8.61-.05,17.24Z" transform="translate(-27.71 -0.37)"/><path d="M6222.75,1.38V40.89c0,.31,0,.62,0,.93-.06,1.71-.23,1.91-2,1.92-2.94,0-5.87,0-8.81,0-1.8,0-2-.21-2-2.11,0-7.24,0-14.48,0-21.72q0-9.27.05-18.53Z" transform="translate(-27.71 -0.37)"/><path d="M5928.75,338.88q0-10.12-.05-20.24V299.89c0-.56,0-1.12,0-1.68a1.24,1.24,0,0,1,1.41-1.36l4.87,0c1.62,0,3.25,0,4.87,0,1.3,0,1.51.28,1.61,1.54,0,.44,0,.88,0,1.32v39.17Z" transform="translate(-27.71 -0.37)"/><path d="M6399.75,337.88h-28.87V311.26c0-4.31,0-8.62,0-12.93,0-2.27.24-2.5,2.45-2.52,2.5,0,5,0,7.5,0,3,0,3.09-.1,3.09-3q0-13.5,0-27c0-3.31,0-6.62,0-9.93,0-2-.3-2.26-2.32-2.28-2.75,0-5.5,0-8.25,0-3.19,0-3.22,0-3.22-3.27V215.07c0-.62,0-1.25,0-1.87-.1-1.25-.38-1.63-1.57-1.65q-5-.08-9.93,0c-1.19,0-1.47.4-1.57,1.65-.05.68,0,1.37,0,2.06q0,17.9,0,35.79c0,2.27-.23,2.49-2.46,2.51-2.75,0-5.5,0-8.24,0-3.48,0-3.49,0-3.49,3.39v32.23c0,1.56,0,3.13,0,4.69s-.35,1.95-2,2c-2.5.05-5,0-7.5,0-3.26,0-3.26,0-3.26,3.2q0,19.4,0,38.8h-2.25c0-.94-.06-1.88-.06-2.81q0-15.75,0-31.49c0-1.75,0-3.5,0-5.25,0-2.23-.23-2.43-2.51-2.44-2.68,0-5.37,0-8.06,0-3.21,0-3.23,0-3.23-3.25V257c0-.68,0-1.37,0-2.06a1.28,1.28,0,0,0-1.29-1.33c-.56,0-1.12,0-1.68-.06l-10.5-.07V.38h337.87V39.74c0,.44,0,.88,0,1.32-.11,1.29-.41,1.58-1.76,1.67-.56,0-1.12,0-1.68,0-2.88,0-5.75,0-8.63,0-1.78,0-2,.3-2.09,2.1,0,.56,0,1.12,0,1.69V73.74c0,2.81,0,5.62,0,8.44,0,2.44-.2,2.62-2.71,2.63-2.31,0-4.62,0-6.94,0-3.12,0-3.14,0-3.14,3.13q0,18,0,36c0,.44,0,.88,0,1.32.1,1.42.37,1.69,1.84,1.78.62,0,1.25,0,1.87,0,2.63,0,5.25,0,7.88,0,1.56,0,1.84.36,1.93,1.89,0,.56,0,1.12,0,1.68v18.94c0,5.75,0,11.5,0,17.25,0,2,.27,2.25,2.3,2.27,2.87,0,5.75,0,8.62,0,2.24,0,2.43-.2,2.43-2.52,0-4.06,0-8.12,0-12.18q0-12.47,0-24.94c0-2.13.27-2.38,2.38-2.4,2.81,0,5.62,0,8.43,0,3.1,0,3.13,0,3.13-3.15V88.28c0-.69,0-1.37,0-2.06a1.35,1.35,0,0,1,1.41-1.43c.56,0,1.12,0,1.68,0,2.69,0,5.38,0,8.07,0,1.45,0,1.74-.36,1.83-1.77,0-.5,0-1,0-1.5V66.82c0-7.24,0-14.49,0-21.74,0-2.07-.24-2.29-2.26-2.31-2.62,0-5.25,0-7.87,0-3.66,0-3.66,0-3.66-3.58V.38h28.87c0,.93.06,1.87.06,2.8V40.29c-.05,2.23-.24,2.44-2.52,2.46s-4.75,0-7.12,0c-3.13,0-3.16,0-3.16,3.11q0,17.91,0,35.8c0,.56,0,1.12,0,1.68a1.29,1.29,0,0,0,1.29,1.34c.56,0,1.12,0,1.69,0,2.81,0,5.62,0,8.43,0,1.76,0,2,.34,2.09,2.12,0,.62,0,1.24,0,1.87v34.3c0,.62,0,1.25,0,1.87.07,1.78.34,2.09,2.1,2.12,2.5,0,5,0,7.5,0,3.76,0,3.76,0,3.76-3.67v-35c0-.63,0-1.26,0-1.88.1-1.3.4-1.59,1.74-1.69.56,0,1.12,0,1.69,0,2.81,0,5.62,0,8.43,0,1.69,0,2-.33,2.05-2,0-.56,0-1.13,0-1.69V55.59c0-3.5,0-7,0-10.49,0-2.14.27-2.39,2.37-2.41,2.5,0,5,0,7.5,0,3.09,0,3.17-.08,3.17-3.14V3.37c0-1,0-2,.07-3h2.25q0,19.47,0,38.95c0,.69,0,1.38.05,2.06a1.21,1.21,0,0,0,1.19,1.22,15.62,15.62,0,0,0,1.68.07c2.87,0,5.74,0,8.61,0,1.66,0,1.95.35,2,2s0,3.5,0,5.25q0,16.2,0,32.4c0,2.13.24,2.36,2.38,2.38,3.56,0,7.12,0,10.68,0V337.88H6413.25q0-20-.05-39.94c0-1.78.32-2.09,2.08-2.11,2.94-.05,5.88,0,8.81,0s3-.06,3-3.05V257.13c0-.63,0-1.26,0-1.88.09-1.33.39-1.65,1.7-1.72,1.06-.07,2.12,0,3.18,0,2.13,0,4.25,0,6.38,0,1.35,0,1.62-.36,1.74-1.68,0-.24,0-.5,0-.75q0-18.56,0-37.12c0-2.15-.24-2.39-2.35-2.41-3.06,0-6.12,0-9.18,0-1.93,0-2.18-.29-2.25-2.15,0-.56,0-1.12,0-1.69V188c0-5.44,0-10.87,0-16.31,0-2.25-.21-2.44-2.5-2.46s-4.74,0-7.12,0c-3.49,0-3.49,0-3.49,3.53q0,18.09,0,36.18c0,2.38-.21,2.57-2.57,2.59-2.81,0-5.62,0-8.43,0-3.18,0-3.19,0-3.19,3.27v10.69q0,12.84,0,25.68c0,2.13-.27,2.39-2.38,2.41-2.68,0-5.37,0-8.06,0-2.13,0-2.34.23-2.35,2.41,0,4.44,0,8.87,0,13.31q0,12.09,0,24.18c0,2,.27,2.29,2.26,2.31,2.75,0,5.5,0,8.25,0,2.95,0,3,.09,3,3.07q0,13.5,0,27C6399.8,329.88,6399.77,333.88,6399.75,337.88Zm99-147.53h0q0,9.38,0,18.75c0,2,.27,2.3,2.26,2.32,2.68,0,5.37,0,8.06,0,3.19,0,3.23,0,3.23,3.26v35.25c0,.68,0,1.37,0,2.06a1.31,1.31,0,0,0,1.37,1.45q5.25,0,10.5,0a1.32,1.32,0,0,0,1.42-1.41c0-.56,0-1.12,0-1.68V232.93c0-6.25,0-12.5,0-18.75,0-2.58.17-2.73,2.8-2.75s5.25,0,7.87,0c3.26,0,3.27,0,3.27-3.2v-36c0-3.06.05-3.1,3.19-3.11,2.56,0,5.12,0,7.68,0,1.88,0,2.12-.3,2.18-2.21,0-.5,0-1,0-1.5v-21c0-4.88,0-9.75,0-14.63,0-2.47-.17-2.62-2.7-2.64-2.69,0-5.37,0-8.06,0-3,0-3-.08-3-3.07V88.44c0-.63,0-1.26,0-1.88-.09-1.32-.38-1.68-1.71-1.71-3.19,0-6.37,0-9.56,0-1.45,0-1.75.36-1.81,1.79-.05,1.25,0,2.5,0,3.75q0,17.06,0,34.12c0,2.36-.22,2.59-2.36,2.61-2.93,0-5.87,0-8.81,0s-3,.05-3,3.07v35.25c0,.69,0,1.38,0,2.06-.11,1.26-.37,1.53-1.59,1.65-.62.05-1.25,0-1.88,0-2.43,0-4.87,0-7.31,0-1.66,0-1.92.34-2,2,0,.5,0,1,0,1.5Zm83.18-.06v-6.18c0-4.32,0-8.63,0-12.94,0-1.68.33-2,2-2s3.12,0,4.69,0c1.81,0,3.62,0,5.43,0,1.44,0,1.72-.37,1.81-1.81,0-.56,0-1.13,0-1.69V145.72c0-5.25,0-10.5,0-15.75,0-2.76.15-2.9,2.82-2.91h6.94c3.24,0,3.29,0,3.29-3.2V95.72c0-2.81,0-5.62,0-8.43,0-2.21-.26-2.44-2.52-2.46-2.75,0-5.5,0-8.25,0-2.93,0-3-.09-3-3.1V46.48c0-.63,0-1.26,0-1.88-.09-1.44-.37-1.79-1.8-1.82-3.12,0-6.25,0-9.37,0-1.56,0-1.83.35-1.92,1.89,0,.56,0,1.13,0,1.69V72.8c0,3.18,0,6.37,0,9.56,0,2.21-.25,2.44-2.52,2.45-2.87,0-5.75,0-8.62,0s-3,.11-3,3.08v35.62c0,3.61,0,3.61-3.62,3.61-2.44,0-4.88,0-7.31,0-1.46,0-1.76.35-1.85,1.76,0,.56,0,1.13,0,1.69q0,7.68,0,15.37c0,6.94,0,13.88,0,20.81,0,2.05.25,2.3,2.26,2.32,2.75,0,5.5,0,8.25,0,2.95,0,3,.08,3,3.07v35.63c0,.68,0,1.37,0,2.06a1.41,1.41,0,0,0,1.54,1.51c.81,0,1.62,0,2.43,0,2.5,0,5,0,7.5,0,1.44,0,1.74-.38,1.84-1.8,0-.56,0-1.12,0-1.68Zm-125.87,84.33v7.87c0,3.69,0,7.38,0,11.07,0,1.9.31,2.19,2.17,2.23s3.5,0,5.25,0c1.25,0,2.5,0,3.75,0,1.8-.05,2.09-.33,2.17-2.05,0-.5,0-1,0-1.5V278.55q0-11.16,0-22.31c0-2.58.16-2.73,2.79-2.74h8.06c3,0,3.09-.06,3.09-3V215c0-3.61,0-3.61,3.63-3.61,2.44,0,4.87,0,7.31,0,1.76,0,2-.34,2.1-2.12,0-.5,0-1,0-1.5V194.86c0-7.75,0-15.5,0-23.25,0-2.11-.29-2.38-2.39-2.4-2.87,0-5.75,0-8.62,0-2.6,0-2.75-.17-2.78-2.77V132.3c0-1,0-2,0-3-.05-1.86-.32-2.13-2.24-2.16-2.62,0-5.25,0-7.87,0-2.94,0-3,.07-3,3.1q0,17.72,0,35.43c0,.69,0,1.38,0,2.06a1.34,1.34,0,0,1-1.41,1.43c-.56,0-1.12,0-1.68,0-3,0-6,0-9,0-1.67,0-2,.35-2,2-.05,1.25,0,2.5,0,3.75q0,17,0,33.94c0,2.35-.21,2.58-2.35,2.61-2.5,0-5,0-7.5,0-2.85,0-2.94.09-2.94,3q0,18,0,36,0,.75,0,1.5a1.38,1.38,0,0,0,1.54,1.49l2.62,0c2.5,0,5,0,7.5,0,1.46,0,1.74.37,1.84,1.79,0,.56,0,1.12,0,1.69Z" transform="translate(-27.71 -0.37)"/><path d="M6785.25,337.88H6772.5c0-1-.07-2-.07-3v-36c0-3-.05-3-3.07-3h-9.94c-3,0-3.05-.07-3.05-3.05V256.66c0-3-.05-3.07-3-3.09-1,0-2,0-3-.07q0-126.55,0-253.12h337.87c0,2.31,0,4.62,0,6.93q0,16.32,0,32.62c0,2.67-.14,2.79-2.71,2.82h-.19c-3,0-3,0-3,3.06V80.88c0,.62,0,1.25,0,1.87-.07,1.69-.33,2-2,2-.62,0-1.25,0-1.87,0-3.31,0-6.63,0-9.94,0-1.67,0-2,.33-2,2,0,2.25,0,4.5,0,6.75q0,15.28,0,30.56c0,2.83.08,2.91,3,2.91h9.56c3.23,0,3.27,0,3.27,3.22v35.06c0,3.8.79,4.43,4.56,3.74a1.36,1.36,0,0,0,1.26-1.38c0-.56,0-1.12,0-1.68V152.14c0-7.56,0-15.12,0-22.68,0-2.12.27-2.34,2.39-2.4,3.28-.09,3.29-.09,3.29-3.37q0-18.18,0-36.37c0-2.36.21-2.56,2.58-2.57,3.69,0,7.37,0,11.06,0,2.17,0,2.4-.23,2.4-2.36q0-18.66,0-37.31c0-2-.25-2.29-2.27-2.3-3.56,0-7.12,0-10.68,0-3,0-3.1-.07-3.1-3q0-19.69,0-39.37h44.62c0,.37.06.74.06,1.12V40.29c0,.31,0,.63,0,.94a1.4,1.4,0,0,1-1.55,1.49q-.84,0-1.68,0c-3.38,0-6.75,0-10.12,0-2.16,0-2.41.25-2.41,2.36q0,18.65,0,37.29c0,2.1.25,2.31,2.44,2.33,3.37,0,6.75,0,10.12,0s3.24,0,3.24,3.24V123.6c0,.69,0,1.37.06,2.06a1.3,1.3,0,0,0,1.3,1.33c.43,0,.87.06,1.3.06,3.05,0,3.2-.1,3.2-3.11V88.52c0-.69,0-1.38,0-2.06.1-1.3.4-1.59,1.74-1.69.75,0,1.5,0,2.25-.06,1.24-.09,1.53-.37,1.63-1.58.06-.68,0-1.37,0-2.06q0-17.89,0-35.8c0-2.36.22-2.57,2.57-2.58,3.44,0,6.87,0,10.31,0,3.09,0,3.17-.08,3.17-3.14V6.37c0-2,0-4,.07-6H7179q0,19.85,0,39.7c0,2.41.18,2.58,2.54,2.59,3.37,0,6.74,0,10.12,0,3.08,0,3.15.07,3.15,3.14V81c0,.63,0,1.25,0,1.88.08,1.45.36,1.75,1.79,1.81,1.25,0,2.5,0,3.75,0V337.88H6863.25c0-.38-.06-.75-.06-1.13V298.32c0-.38,0-.75.05-1.13a1.28,1.28,0,0,1,1.3-1.32c.43,0,.87-.05,1.31-.06,3-.06,3-.06,3-3.07V256.55c0-3,.07-3.05,3-3.05,3.69,0,7.38,0,11.07,0,1.57,0,1.85-.33,1.94-1.86,0-.56,0-1.13,0-1.69V225c0-3.75,0-7.5,0-11.25,0-1.92-.29-2.19-2.16-2.22-2.25,0-4.5,0-6.75,0-1.62,0-3.25,0-4.87,0-1.94,0-2.19-.29-2.26-2.15,0-.43,0-.87,0-1.31V191.73c0-6.75,0-13.5,0-20.25,0-2-.26-2.23-2.29-2.28-3.18-.08-3.31,0-3.31,3.15q0,18.27,0,36.56c0,2.38-.21,2.56-2.56,2.59h-.38c-3,0-3,.05-3,3.09v35.62c0,.69,0,1.38-.08,2.06a1.2,1.2,0,0,1-1.19,1.21c-.56.06-1.13.07-1.69.08-3.5,0-7,0-10.5,0-2.13,0-2.34.23-2.35,2.41q0,18.75,0,37.5c0,2,.26,2.29,2.26,2.3,3.5,0,7,0,10.5,0,2.94,0,3,.09,3,3.07v32.81c0,2.06,0,4.12-.07,6.19h-44.62q0-19.68,0-39.36c0-2.52.19-2.7,2.65-2.71,3.31,0,6.62,0,9.93,0,3.47,0,3.48,0,3.48-3.39V257c0-.5,0-1,0-1.5-.09-1.52-.38-1.84-1.93-1.9s-3.25,0-4.87,0c-2.44,0-4.87,0-7.31,0-1.54,0-1.82-.35-1.91-1.9,0-.62,0-1.25,0-1.87q0-17.81,0-35.61c0-2.48-.18-2.64-2.68-2.65-2.79,0-2.92.11-2.92,3q0,17.53,0,35c0,.63,0,1.25,0,1.87-.07,1.82-.32,2.07-2.07,2.15-.57,0-1.13,0-1.69,0-1.8.07-2.08.34-2.16,2.07,0,.62,0,1.25,0,1.87q0,17.81,0,35.61c0,2.58-.16,2.74-2.79,2.75h-9.74c-3.26,0-3.27,0-3.27,3.2Q6785.25,318.48,6785.25,337.88ZM6981.37,106h0c0-6.31,0-12.62,0-18.93,0-2-.26-2.2-2.11-2.27-3.36-.13-3.49,0-3.49,3.33q0,18.18,0,36.36c0,2.39-.2,2.57-2.55,2.61h-.38c-3,0-3,.05-3,3.08v35.24c0,.69,0,1.38,0,2.06-.1,1.25-.37,1.53-1.58,1.65-.62.05-1.25,0-1.87,0-3.44,0-6.88,0-10.31,0-1.67,0-2,.33-2,2s0,3.5,0,5.25q0,16.11,0,32.23c0,2.6.14,2.73,2.78,2.74h9.75c3.24,0,3.28,0,3.28,3.21v35.42c0,.69,0,1.38.05,2.06a1.28,1.28,0,0,0,1.29,1.33c.38,0,.75,0,1.13,0,3.33,0,3.39,0,3.39-3.25V215.38c0-.63,0-1.25,0-1.88.07-1.69.33-2,2-2.06h.37c3.58.07,3.34-.29,3.34-3.51V172.88c0-.62,0-1.25,0-1.87.08-1.52.38-1.8,1.95-1.88.62,0,1.24,0,1.87,0,3.37,0,6.75,0,10.12,0,1.78,0,2-.3,2.09-2.09,0-.57,0-1.13,0-1.69V137.58c0-2.81,0-5.62,0-8.43,0-1.68-.32-2-2-2-2.81,0-5.62,0-8.43,0-1.31,0-2.63,0-3.94,0s-1.53-.37-1.65-1.57c0-.56,0-1.12,0-1.69Zm44.7,84.18V208c0,3.37.12,3.49,3.46,3.41,2.1-.05,2.37-.3,2.39-2.42,0-3.12,0-6.24,0-9.37q0-14.05,0-28.12c0-2.08.27-2.4,2.2-2.38,3.65,0,3.48-.21,3.48-3.58q0-18,0-36c0-2.26.24-2.48,2.47-2.5,3.69,0,7.37,0,11.06,0,2.26,0,2.51-.25,2.51-2.48q0-18.64,0-37.31c0-2.18-.27-2.42-2.54-2.43-3.19,0-6.38,0-9.57,0-4,0-4,.24-3.94-3.86q0-17.43,0-34.87c0-.69,0-1.37-.07-2.06a1.07,1.07,0,0,0-.83-1.12c-1.36-.22-2.81-.49-4,.16S7032.13,45,7032,46a10.65,10.65,0,0,0,0,1.13q0,17.52,0,35.06c0,2.4-.21,2.59-2.53,2.63-.38,0-.76,0-1.13,0-2,.06-2.21.31-2.26,2.34,0,.5,0,1,0,1.5v24.94c0,3.62,0,7.25,0,10.87,0,2.46-.19,2.63-2.71,2.65s-5,0-7.5,0c-1.31,0-2.62,0-3.93,0s-1.52.37-1.63,1.59c-.05.55,0,1.12,0,1.68v18c0,6.13,0,12.25,0,18.38,0,2,.25,2.26,2.28,2.29,2.5,0,5,0,7.5,0,1.31,0,2.63,0,3.94,0,1.74.05,2,.34,2.07,2.13,0,.5,0,1,0,1.5Zm-112.5,84.43v18c0,.62,0,1.25.07,1.87a1.26,1.26,0,0,0,1.2,1.22c.44,0,.87.06,1.31.07,3.15.05,3.28-.08,3.28-3.21V257c0-.68,0-1.37,0-2.06a1.28,1.28,0,0,1,1.28-1.34c.44,0,.88-.05,1.31-.06,3-.06,3.05-.07,3.05-3.06V215c0-.69,0-1.38,0-2.06a1.4,1.4,0,0,1,1.56-1.49l1.68,0c3.44,0,6.88,0,10.31,0,2.17,0,2.46-.26,2.46-2.33q0-18.75,0-37.5c0-2.1-.29-2.37-2.41-2.38-3.37,0-6.75,0-10.12,0-3.52,0-3.52,0-3.52-3.53q0-18,0-36c0-2.29-.22-2.49-2.43-2.53-3,0-3.17.08-3.17,3.12q0,17.81,0,35.62c0,3.26,0,3.26-3.34,3.33-2.35,0-2.55.24-2.59,2.59,0,.44,0,.88,0,1.31v35.06c0,.69,0,1.38-.07,2.06a1.22,1.22,0,0,1-1.2,1.21,15.92,15.92,0,0,1-1.69.07c-3.5,0-7,0-10.5,0-2,0-2.34.26-2.34,2.23q0,18.75,0,37.49c0,2,.28,2.23,2.33,2.24,2.82,0,5.63,0,8.44,0,1.13,0,2.25,0,3.38,0s1.5.39,1.61,1.61a15.89,15.89,0,0,1,0,1.69Z" transform="translate(-27.71 -0.37)"/><path d="M7200.38,295.88V.38H7594.5V42.76H7588c-1.75,0-3.5,0-5.24,0-1.23.05-1.51.37-1.62,1.6-.05.56,0,1.12,0,1.68V60.13c0,7.43,0,14.86,0,22.29,0,2.07.24,2.29,2.25,2.31,2.69,0,5.38,0,8.06,0,3,0,3.05,0,3.05-3V53.42c0-3.56,0-7.12.06-10.68l10.1-.06c3,0,3-.06,3-3V.38h29.62c0,1,.06,2,.06,3v36c0,.68,0,1.37.08,2.05a1.23,1.23,0,0,0,1.19,1.22c.56.06,1.12.07,1.68.08l10.12.07V337.88H7257c0-.94-.07-1.87-.07-2.8V302c0-2,0-4.11.06-6.16,3.62,0,7.25,0,10.87-.07,2,0,2.22-.29,2.27-2.31,0-.5,0-1,0-1.5V270.82c0-4.87,0-9.74,0-14.61,0-2.48-.16-2.62-2.7-2.64h-7.31c-3.09,0-3.11,0-3.11,3.16q0,19.57,0,39.15c-3.68,0-7.36,0-11,0-2.16,0-2.36.23-2.4,2.34,0,.57,0,1.13,0,1.69v30.66c0,2.43,0,4.86-.06,7.3h-29.62q0-19.75,0-39.49c0-2.27-.22-2.49-2.45-2.5C7207.74,295.87,7204.06,295.88,7200.38,295.88Zm169.13-84.37H7363c-1.75,0-3.5,0-5.25,0-1.22.05-1.5.37-1.61,1.6-.05.56,0,1.12,0,1.68v14.06c0,7.43,0,14.86,0,22.29,0,2.07.23,2.29,2.25,2.31,2.69,0,5.37,0,8.06,0,3,0,3.05-.05,3.05-3V222.55c0-3.69,0-7.37.06-11.06,3.62,0,7.25,0,10.87-.07,2,0,2.22-.28,2.27-2.31,0-.5,0-1,0-1.5V186.44c0-4.87,0-9.74,0-14.61,0-2.48-.16-2.62-2.7-2.63h-7.31c-3.09,0-3.11,0-3.11,3.15Q7369.5,191.93,7369.51,211.51ZM7482,127.13h-6.56c-1.75,0-3.5,0-5.25,0-1.22,0-1.5.37-1.61,1.59-.05.56,0,1.13,0,1.69V144.5c0,7.43,0,14.86,0,22.3,0,2.07.23,2.29,2.25,2.31,2.69,0,5.37,0,8.06,0,3,0,3.05-.05,3.05-3V138.17c0-3.68,0-7.37.06-11,3.62,0,7.24,0,10.87-.07,2,0,2.22-.29,2.27-2.31,0-.5,0-1,0-1.5V102.07c0-4.87,0-9.74,0-14.61,0-2.48-.17-2.62-2.7-2.64h-7.31c-3.09,0-3.11,0-3.11,3.16Q7482,107.56,7482,127.13Zm56.17-21.06h0c0-6.31,0-12.61,0-18.92,0-2-.29-2.29-2.28-2.32-2.68,0-5.37,0-8.05,0-2.92,0-3,.11-3,3.09v36.16c0,.37,0,.75,0,1.12.1,1.44.39,1.81,1.8,1.83q4.88.08,9.74,0c1.4,0,1.69-.4,1.79-1.84,0-.5,0-1,0-1.5Zm-112.5,84.24c0-6.18,0-12.36,0-18.55,0-2.32-.24-2.54-2.6-2.56-2.56,0-5.12,0-7.68,0-3,0-3.08.1-3.08,3v36.15c0,.5,0,1,0,1.5a1.41,1.41,0,0,0,1.55,1.5c.93,0,1.87,0,2.8,0,2.38,0,4.75,0,7.12,0,1.44,0,1.74-.38,1.84-1.8,0-.56,0-1.12,0-1.68Zm-112.5,84.39h0c0-6.24,0-12.49,0-18.73,0-2.1-.29-2.37-2.4-2.39-2.62,0-5.24,0-7.87,0-3,0-3.09.11-3.09,3v36.15c0,.5,0,1,0,1.5a1.42,1.42,0,0,0,1.53,1.52q1.21,0,2.43,0c2.5,0,5,0,7.49,0,1.44,0,1.75-.38,1.86-1.78,0-.56,0-1.12,0-1.68Zm238.2-210.86q0-9.18,0-18.37c0-2.53-.18-2.69-2.63-2.71h-7.31c-3.15,0-3.18,0-3.18,3.1q0,17.89,0,35.79c0,.5,0,1,0,1.5,0,1,.48,1.55,1.48,1.56,3.37,0,6.75,0,10.12,0,1,0,1.45-.6,1.47-1.56q0-.84,0-1.68Zm-125.62,84.29q0,9,0,18c0,2.91.08,3,2.91,3h6.74c3.46,0,3.47,0,3.47-3.38V130.5c0-.5,0-1,0-1.5-.09-1.45-.37-1.82-1.77-1.84-3.19,0-6.37,0-9.56,0-1.35,0-1.64.37-1.75,1.67,0,.56,0,1.12,0,1.68Zm-112.5,84.34q0,9.27,0,18.55c0,2.26.22,2.45,2.5,2.47,2.56,0,5.12,0,7.68,0,2.84,0,2.94-.1,2.94-3v-36q0-.75,0-1.5a1.4,1.4,0,0,0-1.54-1.5l-2.25,0c-2.43,0-4.87,0-7.31,0-1.65,0-1.91.34-2,2,0,.5,0,1,0,1.5Z" transform="translate(-27.71 -0.37)"/><path d="M7701,338.88h-44.62q0-18.81,0-37.61c0-.62,0-1.24,0-1.87,0-2.28-.22-2.48-2.44-2.51-1.19,0-2.37,0-3.56,0V1.38H8044.5V43.76h-3c-2.86,0-2.94.08-2.94,3V82.86c0,.37,0,.75,0,1.12.1,1.35.38,1.65,1.68,1.74a21.11,21.11,0,0,0,2.25,0c1.54-.07,1.81-.35,1.9-1.91,0-.5,0-1,0-1.5V54.42c0-3.56,0-7.12.06-10.68l2.62-.06c3,0,3,0,3-3.06q0-19.62,0-39.24h44.62c0,.94.07,1.88.07,2.81V39.75c0,.63,0,1.25,0,1.87.08,1.67.36,2,2,2,1.18.06,2.37.06,3.56.09V338.88H7707c0-.94-.07-1.87-.07-2.8V303c0-2,0-4.11.06-6.16l3.37-.07c2-.05,2.25-.29,2.25-2.32q0-18.83,0-37.65c0-2-.25-2.21-2.31-2.26-3.17-.07-3.29.05-3.29,3.17q0,19.58,0,39.14h-3.18c-2.62,0-2.74.14-2.76,2.75v36.44C7701.07,337,7701,337.94,7701,338.88Zm118.51-126.37h-3c-2.86,0-2.94.08-2.94,3v36.15c0,.37,0,.75,0,1.12.1,1.35.38,1.65,1.68,1.74a21.11,21.11,0,0,0,2.25,0c1.54-.07,1.81-.35,1.9-1.91,0-.5,0-1,0-1.5V223.54c0-3.68,0-7.36.06-11l3.37-.07c2,0,2.25-.28,2.25-2.32q0-18.82,0-37.64c0-2-.25-2.21-2.31-2.26-3.17-.07-3.29,0-3.29,3.16Q7819.5,192.94,7819.51,212.51ZM7932,128.13h-3c-2.86,0-2.94.08-2.94,3v36.14c0,.38,0,.75,0,1.13.1,1.34.38,1.65,1.68,1.73a18.77,18.77,0,0,0,2.25,0c1.54-.07,1.81-.35,1.9-1.9,0-.5,0-1,0-1.5V139.17c0-3.69,0-7.37.06-11l3.37-.07c2-.05,2.25-.29,2.25-2.32q0-18.83,0-37.65c0-2-.25-2.21-2.31-2.26-3.17-.07-3.29.05-3.29,3.17Q7932,108.57,7932,128.13Zm56.17-21.21V89.13a15.64,15.64,0,0,0,0-1.68c-.12-1.2-.41-1.48-1.64-1.6a10.47,10.47,0,0,0-1.12,0c-2.91,0-3.06.12-3.06,3.06q0,17.7,0,35.4c0,3.63-.51,3.94,4.21,3.73,1.21,0,1.5-.39,1.62-1.61.05-.56,0-1.13,0-1.69Zm-118.36,84.19v18.17c0,.62,0,1.25.08,1.87a1.24,1.24,0,0,0,1.2,1.21c.44,0,.88.06,1.31.07,3.14,0,3.27-.08,3.27-3.22V174c0-3.83-.6-4.33-4.37-3.77-.87.12-1.39.52-1.44,1.41,0,.62-.05,1.25-.05,1.87Zm-112.5,84.58v17.79a15.64,15.64,0,0,0,0,1.68c.11,1.21.41,1.49,1.63,1.61a10.47,10.47,0,0,0,1.12,0c2.92,0,3.07-.12,3.07-3q0-17.7,0-35.4c0-3.65.51-3.93-4.19-3.76h-.19a1.37,1.37,0,0,0-1.43,1.42c0,.62-.05,1.24-.05,1.87ZM7993.87,64.74V47.13c0-.56,0-1.13,0-1.69-.1-1.25-.38-1.53-1.57-1.65a7.32,7.32,0,0,0-.94,0c-2.93,0-3.07.1-3.07,3q0,18,0,36c0,.37,0,.75,0,1.12.09,1.46.37,1.77,1.77,1.85a17.7,17.7,0,0,0,2.06,0c1.34-.08,1.64-.38,1.74-1.68.05-.56,0-1.13,0-1.69Zm-112.5,84.58v-18q0-.84,0-1.68a1.4,1.4,0,0,0-1.55-1.49l-.94,0c-3,0-3.09.09-3.09,3q0,17.7,0,35.41c0,3.42-.47,3.74,4,3.54,1.2-.05,1.47-.4,1.57-1.65.05-.56,0-1.12,0-1.68Zm-118.11,84v18c0,.57,0,1.13,0,1.69a1.4,1.4,0,0,0,1.55,1.49l.93,0c2.95,0,3.1-.09,3.1-3V216.08c0-3.42.47-3.74-4-3.54-1.19.06-1.47.41-1.57,1.65,0,.56,0,1.13,0,1.69Z" transform="translate(-27.71 -0.37)"/><path d="M8100.39,338.88V1.4h450V336.89c0,2,0,2-2.07,2Z" transform="translate(-27.71 -0.37)"/><path d="M9000.63,1.63v337.5h-450c0-1.19-.05-2.38-.05-3.56V5.64c0-.87,0-1.75.06-2.62a1.37,1.37,0,0,1,1.42-1.43c.75,0,1.5-.05,2.25-.05h443.52C8998.75,1.55,8999.69,1.6,9000.63,1.63Z" transform="translate(-27.71 -0.37)"/><path d="M9450.62,1.63v337.5h-450c0-1.19-.05-2.38-.05-3.56V5.64c0-.87,0-1.75.06-2.62a1.37,1.37,0,0,1,1.42-1.43c.75,0,1.5-.05,2.25-.05h443.52C9448.75,1.55,9449.69,1.6,9450.62,1.63Z" transform="translate(-27.71 -0.37)"/><path d="M9900.62,1.63v337.5h-450c0-1.19-.05-2.38-.05-3.56V5.64c0-.87,0-1.75.06-2.62a1.37,1.37,0,0,1,1.42-1.43c.75,0,1.5-.05,2.25-.05h443.52C9898.75,1.55,9899.69,1.6,9900.62,1.63Z" transform="translate(-27.71 -0.37)"/><path d="M10350.62,1.63v337.5h-450c0-1.19-.05-2.38-.05-3.56V5.64c0-.87,0-1.75.06-2.62a1.37,1.37,0,0,1,1.42-1.43c.75,0,1.5-.05,2.25-.05h443.52C10348.75,1.55,10349.69,1.6,10350.62,1.63Z" transform="translate(-27.71 -0.37)"/><path d="M10800.62,1.63v337.5h-450c0-1.19-.05-2.38-.05-3.56V5.64c0-.87,0-1.75.06-2.62a1.37,1.37,0,0,1,1.42-1.43c.75,0,1.5-.05,2.25-.05h443.52C10798.75,1.55,10799.69,1.6,10800.62,1.63Z" transform="translate(-27.71 -0.37)"/><path d="M11250.62,1.63v337.5h-450c0-1.19-.05-2.38-.05-3.56V5.64c0-.87,0-1.75.06-2.62a1.37,1.37,0,0,1,1.42-1.43c.75,0,1.5-.05,2.25-.05h443.52C11248.75,1.55,11249.69,1.6,11250.62,1.63Z" transform="translate(-27.71 -0.37)"/></svg>