<?xml version="1.0" encoding="UTF-8"?>
<svg width="100%" height="100%" version="1.1" xmlns="http://www.w3.org/2000/svg" xmlns:xlink="http://www.w3.org/1999/xlink" viewBox="0 0 16000 361" preserveAspectRatio="none">
    <!-- Generator: Sketch 48.2 (47327) - http://www.bohemiancoding.com/sketch -->
    <title>clones-transition</title>
    <desc>Created with Sketch.</desc>
    <defs></defs>
    <g id="Page-1" stroke="none" stroke-width="1" fill="none" fill-rule="evenodd">
        <g id="clones-transition" fill-rule="nonzero">
            <path d="M14136.6,360.6 C14088.6,360.6 14040.6,360.6 13992.6,360.6 C13990.9,343.2 13989.5,325.7 13987.6,308.3 C13985.3,287.5 13982.4,266.7 13980.1,245.9 C13978.2,229.6 13976.9,213.2 13975,196.8 C13973.2,180.7 13970.9,164.7 13968.9,148.7 C13967.3,135.3 13965.7,121.9 13964.2,108.5 C13963.6,103.2 13963,98 13962.5,92.7 C13961.8,85.6 13961.4,78.4 13960.6,71.3 C13959.2,59 13957.6,46.6 13956.1,34.3 C13955.5,29 13955.1,23.8 13954.2,18.5 C13953.8,15.9 13952.6,12.5 13949.3,13.4 C13942.5,15.2 13935.3,14.9 13929.1,19.6 C13910.2,33.9 13891,47.7 13871.9,61.6 C13854.5,74.3 13836.9,86.7 13819.6,99.5 C13802.2,112.3 13785,125.3 13767.7,138.2 C13762.2,142.3 13762,142.3 13757.2,138.9 C13732.2,120.7 13707.2,102.6 13682.3,84.2 C13653.4,62.9 13624.6,41.4 13595.9,19.8 C13587.4,13.4 13577.5,13.2 13567.6,10.7 C13566.8,20.8 13566.2,29.7 13565.3,38.7 C13563.9,51.6 13562.3,64.4 13560.8,77.3 C13560,83.9 13559.5,90.5 13558.8,97.1 C13557.4,109.5 13555.9,121.8 13554.5,134.2 C13553.2,145.8 13552.1,157.4 13550.9,169 C13549.5,181.6 13547.9,194.3 13546.6,206.9 C13545.3,218.8 13544.2,230.7 13542.9,242.5 C13541.5,255.2 13539.9,267.8 13538.6,280.4 C13537.3,292.3 13536.1,304.2 13534.9,316 C13533.4,330.8 13531.9,345.6 13530.4,360.4 C13463.7,360.4 13397.1,360.4 13330.4,360.4 C13328.1,351.1 13326,341.8 13323.4,332.6 C13313.6,297.8 13303.5,263.1 13293.6,228.3 C13284.9,197.9 13276.4,167.5 13267.8,137 C13259.7,108.4 13251.8,79.7 13243.7,51.1 C13242,45 13240.1,39.1 13238.3,33 C13228.2,35.5 13220.1,40 13213.6,47.6 C13206.7,55.7 13199.1,63.2 13191.7,70.9 C13170.5,92.7 13149.3,114.4 13128,136.1 C13126.2,138 13124.2,139.7 13122,141.7 C13120,140 13118.3,138.8 13116.8,137.3 C13111.3,131.6 13105.9,125.6 13100.3,119.9 C13075.4,94.4 13050.3,69 13025.5,43.4 C13022.1,39.9 13018.3,37.3 13013.6,35.8 C13005.6,33.3 13005.2,33.4 13003,41.2 C12986.9,97.9 12970.8,154.6 12954.8,211.4 C12942.7,254.1 12930.5,296.8 12918.6,339.6 C12916.7,346.4 12915.7,353.5 12914.3,360.5 C8609.8,360.5 4305.2,360.5 0.7,360.5 C0.7,240.5 0.7,120.5 0.7,0.5 C4700.4,0.5 9400.2,0.5 14099.9,0.5 C14100.5,5.2 14101.2,9.9 14101.6,14.7 C14102.3,22.1 14102.7,29.5 14103.5,36.9 C14104.9,49.2 14106.7,61.5 14107.9,73.9 C14109.2,86.8 14110.1,99.7 14111.3,112.6 C14111.8,118.7 14112.6,124.7 14113.3,130.7 C14114.2,138.3 14115.2,145.9 14116,153.5 C14116.7,160.6 14117.1,167.7 14117.9,174.9 C14119.3,187.5 14121,200.1 14122.3,212.7 C14123.6,225.3 14124.5,238 14125.8,250.7 C14127.8,270.7 14130,290.7 14132,310.7 C14132.7,317.3 14133.4,323.9 14134,330.5 C14134.8,340.6 14135.7,350.6 14136.6,360.6 Z M5918.2,174.7 C5909.2,171.6 5900.1,168.4 5891.1,165.4 C5887.7,164.2 5884.2,162.5 5880.1,165.2 C5883.5,182.5 5886.9,199.8 5890.6,218.2 C5893.9,216 5896.2,214.7 5898.2,213.1 C5904.8,207.7 5911.3,202.2 5917.9,196.8 C5919.8,195.3 5922,194.1 5925,192.1 C5927.8,203 5930.2,212.6 5932.9,223.3 C5937.9,218.6 5941.8,214.6 5946,211.1 C5950.1,207.7 5953,202.7 5959.6,200.7 C5959.6,208 5959.6,214.4 5959.6,222 C5971,215.7 5981.3,210 5992.9,203.5 C5992.3,210.9 5991.9,216.5 5991.5,222.8 C6013.9,214.3 6035.5,206.2 6058.4,197.6 C6039.3,181.9 6021.5,167.3 6002.8,151.9 C6001,161.3 5999.4,169.4 5997.7,178.4 C5984.2,171.7 5972.9,163.4 5959.2,157 C5959.2,163 5959.2,167.4 5959.2,172.6 C5945,169.7 5932.3,164.2 5918.6,161.5 C5919.2,165.9 5919.6,169.3 5920.1,172.7 C5919.4,173.3 5918.8,174 5918.2,174.7 Z M12303.4,324.2 C12318.1,322.6 12331.5,321.2 12345,319.6 C12360.8,317.7 12376.6,315.7 12392.4,313.7 C12408,311.8 12423.5,309.8 12439.1,308.2 C12453.4,306.7 12467.7,304.4 12482,304.8 C12500.6,305.2 12519.1,307.7 12537.6,309.7 C12553.4,311.4 12569.2,313.5 12585.1,315.4 C12595.9,316.7 12606.7,317.9 12617.5,319.2 C12628.6,320.5 12639.6,322 12650.7,323.3 C12653.4,323.6 12656.2,323.3 12659.9,323.3 C12620.9,233.6 12582.4,145.1 12543.7,56.3 C12537.4,58.3 12532.6,60.8 12528.9,65.9 C12515.5,84.4 12501.8,102.8 12488.2,121.2 C12486.4,123.6 12484.1,125.6 12481.6,128.2 C12479.5,125.7 12478.1,124.2 12476.9,122.5 C12463.4,104.3 12449.9,86.2 12436.7,67.9 C12432.6,62.3 12428,58 12420,56.9 C12381.1,145.6 12342.4,234.5 12303.4,324.2 Z M11704.5,282.5 C11720,283.8 11733.9,286 11747.8,286.1 C11811.3,286.5 11874.7,286.3 11938.2,286.2 C11940.3,286.2 11942.8,286.8 11944.5,285.9 C11950.6,282.6 11957,284 11963.3,283.7 C11966.5,283.5 11969.7,283.8 11972.9,283.5 C11974.6,283.4 11976.2,282.5 11978.8,281.7 C11977.2,278.3 11976.2,275.3 11974.6,272.7 C11958,244.2 11941.2,215.7 11924.6,187.2 C11907,157.1 11889.6,126.9 11872.1,96.8 C11869.7,92.7 11867.1,88.6 11864.5,84.6 C11861.4,79.8 11858.8,79.9 11855.6,84.8 C11854.1,87 11853.2,89.6 11851.6,91.7 C11848.4,96.1 11846.7,101.7 11840.9,105.4 C11838.9,102.4 11836.9,99.6 11835.1,96.8 C11832.4,92.5 11830.1,88 11827.2,83.9 C11824.4,80 11822,80.3 11819.3,84.4 C11818.9,85.1 11818.6,85.8 11818.2,86.5 C11801.5,115 11784.9,143.5 11768.2,172 C11748,206.5 11727.8,240.9 11707.6,275.4 C11706.4,277.2 11705.8,279.5 11704.5,282.5 Z M11313.4,262.9 C11311.7,260.1 11310.7,258.3 11309.6,256.5 C11296.7,237.2 11284.1,217.8 11270.9,198.8 C11251.9,171.4 11234.4,143.2 11221.3,112.3 C11219.5,108.1 11217.5,104.1 11215.7,99.9 C11212.5,92.6 11206.6,90.1 11199.2,90.8 C11193.9,91.3 11190.3,94.8 11188,99.6 C11187.2,101.3 11186.5,103 11185.8,104.7 C11173.5,131.6 11160.6,158.1 11143.6,182.5 C11126.4,207.2 11110.1,232.5 11093.4,257.5 C11092.3,259.1 11091.5,260.9 11090.4,262.8 C11096.8,263.6 11102.4,264.4 11108.7,265.2 C11107.4,269.2 11106.4,272.4 11105.3,275.7 C11137.6,274 11169.4,271 11201.3,270.9 C11233.4,270.9 11265.5,273.9 11298.1,275.6 C11297,272 11295.9,268.7 11294.8,264.9 C11301.3,264.3 11306.7,263.7 11313.4,262.9 Z M10654,267 C10652.7,263.1 10651.9,260.6 10651,258.2 C10648,250.5 10644.9,242.9 10641.9,235.2 C10626.2,195.6 10610.6,155.9 10594.9,116.3 C10593.4,112.6 10592.1,108.8 10587.1,107.2 C10585.5,109 10583.7,110.9 10582.1,112.9 C10577.3,119 10572.8,125.2 10567.9,131.1 C10562.5,137.6 10560.9,137.5 10555.8,131 C10549.3,123 10542.9,114.9 10536.4,106.9 C10531.9,108.3 10530.5,111.6 10529.1,115.2 C10512.1,158 10495.1,200.9 10478.2,243.7 C10475.3,251.1 10472.6,258.5 10469.8,265.9 C10471,266.3 10471.5,266.7 10471.9,266.7 C10488,264.5 10504,262.2 10520.1,260 C10534.9,258 10549.5,254.5 10564.5,255.6 C10577.7,256.6 10590.9,258.4 10604.1,260.1 C10620.2,262.1 10636.2,264.5 10654,267 Z M9964.4,121.5 C9961.7,124 9959.2,125.9 9957.2,128.2 C9946.9,139.7 9936.7,151.3 9926.4,162.8 C9923.1,166.5 9921.4,166.5 9917.8,163 C9914.7,160 9912,156.8 9909.1,153.6 C9900.9,144.5 9892.8,135.3 9884.5,126.3 C9882.9,124.5 9880.7,123.3 9877.6,120.9 C9862.2,166.7 9847.2,211 9831.9,256.4 C9835.5,256.1 9837.9,256.1 9840.1,255.6 C9862.3,251.2 9884.5,246.7 9906.6,242.1 C9915.8,240.2 9924.9,239.6 9934.3,241.6 C9957.2,246.5 9980.2,251 10003.2,255.6 C10005.7,256.1 10008.2,256.3 10011,256.7 C10008.9,245.4 9968.7,127.7 9964.4,121.5 Z M9227.8,127.2 C9222.1,141.8 9219.3,155.3 9215.4,168.4 C9211.5,181.4 9207.9,194.5 9204.2,207.6 C9200.5,220.8 9196.8,234 9192.8,248.1 C9196,247.5 9197.8,247.3 9199.5,246.9 C9222.8,241.1 9246.1,235.5 9269.3,229.4 C9277.5,227.3 9285.4,227.2 9293.7,229.3 C9316.9,235.3 9340.2,240.9 9363.5,246.7 C9365.5,247.2 9367.5,247.4 9369.8,247.8 C9369.8,246.1 9370,245 9369.8,244.1 C9359.4,207.4 9349,170.8 9338.6,134.1 C9338.1,132.3 9336.7,130.7 9335.9,129.5 C9326.3,138.7 9317.3,147.3 9308.2,155.9 C9299.2,164.4 9291.9,174.7 9282.7,181.7 C9273.1,172.7 9264,164.5 9255.4,155.9 C9246.4,147.1 9238,137.9 9227.8,127.2 Z M8642.1,195.5 C8639.4,193 8637.5,191.3 8635.6,189.5 C8618.9,173.4 8602.2,157.3 8585.5,141.3 C8583.7,139.6 8581.7,138.1 8579.6,136.4 C8575.4,144.9 8553.8,234.3 8554.4,240.1 C8556,239.7 8557.5,239.5 8559,239 C8582.8,232.1 8606.6,225.4 8630.4,218.3 C8637.8,216.1 8644.7,215.8 8652.3,218 C8676.3,225.3 8700.4,232 8724.5,238.9 C8726.1,239.4 8727.9,239.5 8730.7,240 C8726.3,222 8722.4,204.9 8718,188 C8713.6,170.9 8710.4,153.5 8704.4,135.7 C8693.3,146.2 8683.3,155.7 8673.3,165.2 C8663.1,175 8653.1,184.9 8642.1,195.5 Z M7912.4,232.6 C7915.7,234.3 7918.1,232.6 7920.4,231.9 C7944.5,224.2 7968.7,216.6 7992.7,208.7 C7998.8,206.7 8004.4,206.6 8010.6,208.6 C8034.6,216.6 8058.8,224.1 8082.9,231.8 C8085.3,232.6 8087.8,233.1 8090.4,233.8 C8089.7,221.4 8073.4,148.4 8070,142.6 C8047.4,163 8025,183.3 8001.9,204.1 C7978.8,183.2 7956.2,162.8 7932.4,141.3 C7925.5,172.6 7918.9,202.5 7912.4,232.6 Z M6164.9,178.1 C6163.6,168.7 6162.5,160.9 6161.1,151.6 C6141.9,167.4 6124.1,182.1 6105.2,197.6 C6128.4,206.3 6149.9,214.4 6172.4,222.8 C6171.6,216 6170.8,210.1 6169.9,202.9 C6182,209.7 6192.8,215.7 6204.7,222.5 C6204.7,214.6 6204.7,207.9 6204.7,199.3 C6214,207.8 6221.9,215.1 6230.3,222.9 C6234.1,212.5 6234.8,202.3 6239.1,192.1 C6242.8,194.8 6245.6,196.7 6248.2,198.8 C6254.4,203.8 6260.5,209.1 6266.7,214 C6268.4,215.3 6270.5,216.2 6273.1,217.6 C6276.3,199 6280.9,181.9 6283,163.1 C6278.7,164.1 6275.6,164.5 6272.7,165.5 C6264.6,168.3 6256.7,171.4 6248.7,174.2 C6247.1,174.8 6245.3,174.8 6243,175.3 C6243.7,170.5 6244.3,166.4 6245,161.3 C6231.2,165.3 6218.4,169 6204.7,173 C6204.4,167 6204.2,162.4 6204,157.1 C6190.4,163.4 6179,172.6 6164.9,178.1 Z M5587.1,221.1 C5590.5,200.3 5593.5,181.1 5596.9,160.3 C5584.5,164.9 5573.7,168.9 5562.3,173.1 C5561.9,167 5561.5,162.2 5561.1,156.6 C5549,163.2 5538.6,171 5526.3,177.2 C5524.7,168.8 5523.3,161.6 5521.9,153.9 C5508.2,163.1 5473.2,192.3 5469.7,197.4 C5490.5,205.3 5511.3,213.2 5532.2,221.2 C5533.8,215.4 5527.1,210.6 5532.4,205.2 C5542.4,210.5 5552.4,215.7 5563.4,221.6 C5563.4,215.1 5563.4,209.7 5563.4,202.7 C5571.7,209 5578.7,214.5 5587.1,221.1 Z M5352.9,204.2 C5352.1,210.9 5351.5,215.6 5350.8,221.4 C5372.7,213 5393.2,205.2 5414,197.2 C5408.9,190.5 5366.7,156.6 5361.3,154.8 C5360,162.1 5358.7,169.3 5357.2,177.7 C5345.4,170.5 5334.4,163.8 5322.8,156.7 C5322.2,162.6 5321.6,167.3 5321.1,172.6 C5309.3,170 5299.3,163.8 5287.9,161.3 C5287.8,172.1 5295.2,215.2 5297.9,220 C5305.5,215 5311.8,208.1 5320.7,202.9 C5320.7,209.9 5320.7,215.3 5320.7,221.4 C5331.4,215.6 5341.4,210.3 5352.9,204.2 Z M4921.4,219.9 C4921.4,214.8 4921.4,210.7 4921.4,205.6 C4928.2,209.6 4934.1,213.1 4940.4,216.8 C4943,203.2 4944.4,168.9 4942.7,161.4 C4934.2,162.5 4927.9,169.4 4918.9,171.3 C4918.1,166.5 4917.3,162 4916.5,156.6 C4905.8,162.7 4897,170.3 4886.3,175.9 C4884.9,167.9 4883.7,161.2 4882.3,153.2 C4864.4,167.7 4847.4,181.5 4829.1,196.3 C4851,204.7 4871.4,212.5 4892.3,220.5 C4893.3,215.3 4890.4,210.9 4892.5,206 C4902.2,210.8 4911.5,215.2 4921.4,219.9 Z M4774.6,196.5 C4756.4,181.7 4739.3,167.9 4721.4,153.4 C4719.9,161.5 4718.6,168.4 4717.2,176.1 C4706.4,170.1 4697.6,162.4 4686.7,156.6 C4686,162.5 4685.5,167.1 4685,171.9 C4675.7,169 4669.1,162.2 4659.2,161.3 C4660.3,180 4661.3,197.9 4662.5,217.5 C4669.5,213.1 4675.3,209.4 4682.2,205.2 C4682.2,210.4 4682.2,214.6 4682.2,219.8 C4692.7,214.9 4702.1,210.5 4712.5,205.6 C4711.8,211.3 4711.3,215.5 4710.7,220.9 C4732.2,212.7 4752.6,204.9 4774.6,196.5 Z M4250.3,206.5 C4260.4,209.5 4268.6,214.6 4278,216.8 C4278,213 4278,210.2 4278,206.9 C4282.4,208.5 4286.2,209.8 4291.4,211.6 C4288.8,194.6 4288.6,178.8 4285.6,162.4 C4280.8,163.8 4276.9,165 4272.9,166.1 C4271.9,163 4271,160.3 4269.8,156.6 C4261.2,163.1 4253.3,169.1 4244.6,175.7 C4243,167.9 4241.6,161.3 4240,153.5 C4222.7,168.2 4206.3,182.3 4188.8,197.1 C4210.4,204.8 4230.8,212 4252,219.5 C4251.4,214.7 4250.9,211.1 4250.3,206.5 Z M4079.1,175.5 C4069.8,169.8 4062.7,162.1 4053.5,157.2 C4052.4,161 4051.6,163.6 4050.7,166.5 C4045.9,165.5 4042.4,161 4037.3,164 C4035.8,179.4 4034.2,194.9 4032.6,211.2 C4037.2,209.7 4041.2,208.4 4045.6,207 C4045.6,210.4 4045.6,213.2 4045.6,217 C4054.9,213.4 4063.6,210 4073.2,206.3 C4072.6,211.3 4072.2,214.9 4071.7,219.5 C4092.9,212 4113.3,204.7 4134.8,197.1 C4117.3,182.2 4101.1,167.9 4083.6,153.7 C4081.9,161.7 4080.6,168.2 4079.1,175.5 Z M7190.9,177.2 C7191.6,177.3 7192.4,177.4 7193.1,177.5 C7198.3,192.9 7203.6,208.2 7209.2,224.8 C7223.4,207 7239.2,192.8 7253.4,175.6 C7250.2,174.5 7248.3,173.7 7246.3,173.3 C7233.8,170.9 7221.3,168.6 7208.7,166.3 C7202.3,165.1 7195.9,163.8 7189.1,162.5 C7189.5,165.9 7189.9,168.4 7190.3,171.9 C7170.1,171 7151,165.2 7130.4,164.8 C7138.6,184.5 7146.3,203.1 7154.7,223.1 C7167.4,207.1 7179.1,192.2 7190.9,177.2 Z M7530.4,177.6 C7531.1,177.4 7531.8,177.1 7532.6,176.9 C7544.4,192 7556.3,207 7568.9,223.2 C7577.2,203.2 7585,184.4 7593.4,164.2 C7572.6,166.9 7553.1,169.5 7532.9,172.1 C7533.6,168.5 7534,166 7534.6,162.7 C7512.9,166.9 7492,170.9 7469.4,175.3 C7485.1,192.4 7499.5,208.1 7514.7,224.5 C7520.1,208.2 7525.2,192.9 7530.4,177.6 Z M6828.6,175.8 C6828.6,177.8 6828.5,178.2 6828.6,178.3 C6831.1,182 6868.9,219.8 6873.5,222.9 C6877.4,209.9 6881.2,197.1 6885.6,182.5 C6898.4,196.1 6909.9,208.4 6922.5,221.8 C6928.9,201.8 6934.7,183.5 6941,163.9 C6936.8,164.4 6933.9,164.5 6931.2,165.1 C6919.8,167.6 6908.4,170.2 6896.9,172.7 C6894.4,173.2 6891.9,173.5 6888.7,173.9 C6889.5,169.5 6890,166.3 6890.7,162 C6869.6,166.7 6849,171.3 6828.6,175.8 Z M6520.9,221 C6534.6,208.8 6544.4,195.2 6558.1,183.4 C6562.4,197.7 6566.3,210.4 6570.6,224.7 C6585.1,207 6602.1,194.1 6616.6,177.4 C6613.8,176.1 6612.3,175 6610.6,174.6 C6602.3,172.9 6594,171.5 6585.7,169.7 C6576.9,167.8 6568.1,165.4 6559.3,163.3 C6557.3,162.8 6555.3,162.7 6552.7,162.4 C6553.4,166.6 6553.9,170 6554.6,174.2 C6550.8,173.5 6548.2,173 6545.7,172.5 C6534.3,170 6522.9,167.3 6511.4,164.9 C6508.7,164.3 6505.9,164.4 6502.3,164.2 C6508.7,183.4 6514.6,201.6 6520.9,221 Z M7287.9,146.1 C7282.2,174.4 7276.1,201 7272.3,229.1 C7299.1,219.8 7324.8,210.9 7351.9,201.6 C7330.3,182.8 7309.7,165 7287.9,146.1 Z M7371.6,201.7 C7399.1,211.2 7424.9,220 7451.6,229.2 C7447,200.8 7441.7,174.2 7435.6,146.2 C7413.9,165 7393.5,182.7 7371.6,201.7 Z M3495.3,199 C3479.6,183.8 3465.1,169.6 3449.6,154.6 C3447.3,162.2 3445.4,168.3 3443.3,175 C3435.2,169.9 3430.6,162.2 3422.8,158.6 C3419.1,166.9 3410.7,207.6 3411.4,213 C3419.4,211.6 3426.7,207.5 3435.1,206.8 C3434.8,210.3 3434.6,212.9 3434.3,216.4 C3454.6,210.5 3474.2,205 3495.3,199 Z M3609.6,216.4 C3609.1,212.4 3608.7,209.8 3608.3,206.2 C3617.1,208.8 3625,211.1 3633.9,213.7 C3629.7,194.4 3625.8,176.6 3621.5,157.1 C3613.9,163.7 3607.5,169.2 3600.3,175.5 C3598.1,168.1 3596.3,162 3594.1,154.6 C3578.4,169.9 3563.9,184.1 3548.4,199.2 C3569.5,205 3589.1,210.6 3609.6,216.4 Z M6630.8,225.7 C6656,216.5 6679.3,208.1 6703.8,199.1 C6683.6,182.1 6664.5,166.2 6644.5,149.4 C6639.9,175.1 6635.6,199.3 6630.8,225.7 Z M6811.4,225.1 C6809.2,199.3 6804.1,175.1 6798.7,150.5 C6785.6,159.3 6744.2,194.9 6741.4,199.8 C6764.6,208.2 6787.8,216.5 6811.4,225.1 Z M2794.3,161.1 C2788.8,176.7 2783.6,191.7 2777.9,207.9 C2785.7,206.7 2792.1,205.7 2799,204.6 C2799,207 2799,208.7 2799,211 C2817.9,207.7 2836.3,204.5 2855.1,201.3 C2848,189.5 2823,160.5 2817.4,157.8 C2815.4,163.1 2813.3,168.4 2811.2,174 C2804.1,171 2803.2,161.5 2794.3,161.1 Z M2908.6,201.3 C2927.3,204.5 2945.7,207.7 2964.4,210.9 C2964.5,209.4 2964.5,208.7 2964.6,207.9 C2964.7,207 2964.8,206 2965,204.6 C2971.9,205.6 2978.3,206.6 2985.6,207.7 C2982.8,199.6 2980.3,192.6 2977.9,185.6 C2975.6,178.8 2973.3,172 2970.9,165.2 C2969.1,160.2 2966.7,159.7 2962.8,163.5 C2961.5,164.8 2960.5,166.4 2959.2,167.8 C2957.5,169.7 2955.7,171.5 2953,174.2 C2950.2,167.9 2947.9,162.8 2945.6,157.6 C2940.3,161 2913.4,192.8 2908.6,201.3 Z M8396.9,166 C8407.5,186 8417.4,204.6 8427.4,223.5 C8436.3,212.4 8459.6,173.8 8461,168.3 C8440.3,167.5 8419.6,166.8 8396.9,166 Z M8821,168.3 C8832.9,187.4 8844.2,205.3 8855.9,224.1 C8866.4,204.2 8876.3,185.5 8886.7,165.9 C8864.2,166.8 8843.3,167.5 8821,168.3 Z M8176.5,170.2 C8189.2,188.7 8200.5,205.8 8213.2,223.8 C8222.9,204 8232,185.4 8241.1,165.1 C8219.1,166.8 8198.8,168.4 8176.5,170.2 Z M7790.6,224.1 C7803.1,205.5 7814.6,188.4 7826.9,170.1 C7804.7,168.4 7784.2,166.8 7762.2,165.1 C7771.9,185.2 7780.8,203.8 7790.6,224.1 Z M2217.2,202.7 C2208.9,188.9 2201.7,176.6 2194.2,164.4 C2193.1,162.7 2191.1,161.5 2189,159.6 C2181,174.9 2173.5,189.1 2165.7,204.1 C2183.2,203.6 2199.5,203.2 2217.2,202.7 Z M2318,204.1 C2310.9,190.6 2304.4,177.9 2297.6,165.3 C2294.5,159.5 2292.4,159.5 2288.8,165.3 C2282.3,176 2275.9,186.7 2269.5,197.5 C2268.6,198.9 2268,200.5 2267,202.8 C2284.3,203.2 2300.7,203.6 2318,204.1 Z M1562.2,164.2 C1553.6,175 1545.2,184.9 1537.3,196.1 C1551.6,198.3 1564.6,200.2 1579.1,202.4 C1574.5,189.7 1570.4,178.3 1566.1,167 C1565.7,166 1564.1,165.5 1562.2,164.2 Z M1624.5,202.4 C1638.8,200.2 1652,198.2 1666.5,196 C1658.3,185.5 1650.9,175.9 1643.4,166.4 C1641.4,163.9 1638.4,164.4 1637.2,167.6 C1632.9,178.8 1629,190 1624.5,202.4 Z M980.5,199.5 C991.2,195.6 1000.2,192.3 1010.8,188.4 C1003,182 996.2,176.2 989.2,170.8 C986.7,168.9 984.3,170.3 983.9,173.1 C982.6,181.4 981.7,189.7 980.5,199.5 Z M942.9,199.5 C941.8,189.4 941.1,181.3 939.9,173.2 C939.5,170.2 936.2,169 933.8,170.9 C927,176.3 920.4,182 912.9,188.2 C923.1,192.1 932.1,195.5 942.9,199.5 Z M333.4,192.4 C340.9,190.5 345.2,186.1 351.2,182.8 C344.4,180.3 339.4,174.8 331.1,176 C331.9,181.6 332.6,186.5 333.4,192.4 Z M292.5,182.7 C298.5,186.6 303.3,189.6 308.2,192.8 C313,187.8 310.6,181.9 312.5,176.4 C304.6,174.6 299.8,180.1 292.5,182.7 Z" fill="none"></path>
            <path d="M15362.2,0.6 C15575,0.6 15787.8,0.6 16000.6,0.6 C16000.6,120.6 16000.6,240.6 16000.6,360.6 C15683.8,360.6 15367,360.6 15050.2,360.6 C15047.4,357.6 15044.7,354.5 15041.4,350.9 C15038.6,354.7 15036.4,357.7 15034.2,360.6 C14930.2,360.6 14826.2,360.6 14722.2,360.6 C14722.3,358.7 14722.5,356.9 14722.5,355 C14722.3,243.6 14722,132.2 14721.8,20.7 C14721.8,18.1 14722,15.6 14722.2,12.4 C14725.2,12.5 14727.5,12.5 14729.8,12.8 C14748.8,15.2 14767.8,17.6 14786.8,20.1 C14797.9,21.5 14808.9,23.3 14820,24.3 C14830.6,25.3 14841.4,26.8 14851.8,25.5 C14860.5,24.4 14868.7,26.3 14877.1,26.4 C14887.7,26.5 14898.2,28.6 14908.7,29 C14923.6,29.5 14938.5,29.2 14953.5,29.3 C14955.9,29.3 14958.3,29.4 14960.7,29.6 C14971.3,30.5 14981.8,32.2 14992.3,32.2 C15012.2,32.3 15032.2,31.3 15052.1,30.9 C15056.9,30.8 15061.7,31.1 15066.5,31.2 C15077.4,31.5 15088.3,32.4 15099.1,32 C15111.3,31.6 15123.4,29.8 15135.5,29.3 C15149.3,28.8 15163.2,29.5 15177.1,28.9 C15187.1,28.5 15197.1,26.5 15207.1,26.3 C15215.5,26.1 15223.6,23.3 15232.4,25.5 C15238.4,27 15245.1,26 15251.5,25.6 C15260.2,24.9 15268.9,23.6 15277.6,22.8 C15286.9,21.9 15296.2,21.6 15305.4,20.3 C15320.5,18.2 15335.5,15.4 15350.5,13 C15361.6,11.5 15361.6,11.6 15362.2,0.6 Z" class="svg-fill" fill="#FFFFFF"></path>
            <path d="M14136.6,360.6 C14135.7,350.6 14134.8,340.6 14133.9,330.5 C14133.3,323.9 14132.6,317.3 14131.9,310.7 C14129.8,290.7 14127.7,270.7 14125.7,250.7 C14124.4,238.1 14123.6,225.4 14122.2,212.7 C14120.9,200.1 14119.2,187.5 14117.8,174.9 C14117,167.8 14116.6,160.7 14115.9,153.5 C14115.1,145.9 14114.1,138.3 14113.2,130.7 C14112.5,124.7 14111.8,118.6 14111.2,112.6 C14110,99.7 14109.1,86.8 14107.8,73.9 C14106.5,61.5 14104.7,49.3 14103.4,36.9 C14102.6,29.5 14102.2,22.1 14101.5,14.7 C14101.1,10 14100.4,5.2 14099.8,0.5 C14116.9,0.5 14133.9,0.5 14151,0.5 C14148.6,3.8 14151.7,4.6 14153.6,5.5 C14169.4,13.2 14185.2,20.9 14201,28.5 C14245,49.4 14289.2,70.1 14333.2,91 C14350.5,99.2 14367.6,107.9 14384.8,116.4 C14394.8,121.4 14404.8,123 14415.3,117.8 C14429.9,110.6 14444.5,103.6 14459.2,96.6 C14520.4,67.2 14581.6,37.7 14642.8,8.3 C14645.4,7 14648.2,6.1 14650.8,4.7 C14652.5,3.8 14654.1,2.5 14651.8,0.4 C14668.9,0.4 14685.9,0.4 14703,0.4 C14701.9,13.1 14700.8,25.7 14699.7,38.4 C14698.6,51.3 14697.5,64.3 14696.3,77.2 C14695.7,83.3 14695,89.3 14694.3,95.4 C14692.9,108.3 14691.4,121.2 14690.1,134.1 C14689.3,141.5 14689,148.9 14688.2,156.3 C14686.3,173.9 14684,191.5 14682.1,209.2 C14680.7,222.4 14679.8,235.6 14678.7,248.8 C14678.1,255.1 14677.5,261.5 14676.8,267.8 C14675.4,280.7 14673.9,293.6 14672.4,306.5 C14671.5,314.7 14670.4,322.8 14669.7,331 C14668.9,340.8 14668.4,350.6 14667.7,360.4 C14587.7,360.4 14507.7,360.4 14427.7,360.4 C14426.1,359.6 14424.3,359 14422.8,358.1 C14417.3,354.4 14411.7,350.8 14406.4,346.9 C14403.1,344.5 14400.4,344.5 14397,346.9 C14390.3,351.6 14383.3,356 14376.5,360.5 C14296.6,360.6 14216.6,360.6 14136.6,360.6 Z" class="svg-fill" fill="#FFFFFF"></path>
            <path d="M13530.2,360.6 C13531.7,345.8 13533.2,331 13534.7,316.2 C13535.9,304.3 13537.1,292.4 13538.4,280.6 C13539.8,267.9 13541.4,255.3 13542.7,242.7 C13544,230.8 13545.1,218.9 13546.4,207.1 C13547.8,194.5 13549.3,181.8 13550.7,169.2 C13552,157.6 13553.1,146 13554.3,134.4 C13555.7,122 13557.2,109.7 13558.6,97.3 C13559.3,90.7 13559.9,84.1 13560.6,77.5 C13562.1,64.6 13563.7,51.8 13565.1,38.9 C13566,30 13566.6,21 13567.4,10.9 C13577.3,13.3 13587.2,13.6 13595.7,20 C13624.4,41.6 13653.2,63.1 13682.1,84.4 C13707,102.8 13732,120.9 13757,139.1 C13761.7,142.5 13762,142.5 13767.5,138.4 C13784.8,125.5 13802,112.5 13819.4,99.7 C13836.8,86.9 13854.3,74.5 13871.7,61.8 C13890.8,47.9 13910.1,34.1 13928.9,19.8 C13935.1,15.1 13942.4,15.4 13949.1,13.6 C13952.4,12.7 13953.6,16.1 13954,18.7 C13954.8,23.9 13955.2,29.2 13955.9,34.5 C13957.4,46.8 13959,59.2 13960.4,71.5 C13961.2,78.6 13961.6,85.8 13962.3,92.9 C13962.8,98.2 13963.4,103.4 13964,108.7 C13965.6,122.1 13967.1,135.5 13968.7,148.9 C13970.7,164.9 13972.9,180.9 13974.8,197 C13976.7,213.3 13978.1,229.7 13979.9,246.1 C13982.3,266.9 13985.1,287.7 13987.4,308.5 C13989.3,325.9 13990.8,343.4 13992.4,360.8 C13938.5,360.8 13884.7,360.8 13830.8,360.8 C13829,360.4 13827.1,360.2 13825.4,359.5 C13807.4,352.1 13789.4,344.9 13771.6,337.2 C13764.7,334.2 13758.4,334.3 13751.6,337.2 C13739.1,342.5 13726.6,347.7 13714,352.7 C13706.6,355.6 13699.1,358.2 13691.6,360.9 C13637.9,360.6 13584.1,360.6 13530.2,360.6 Z" class="svg-fill" fill="#FFFFFF"></path>
            <path d="M12914.2,360.6 C12915.6,353.6 12916.5,346.5 12918.5,339.7 C12930.4,296.9 12942.6,254.2 12954.7,211.5 C12970.8,154.8 12986.8,98.1 13002.9,41.3 C13005.1,33.5 13005.5,33.5 13013.5,35.9 C13018.3,37.4 13022,39.9 13025.4,43.5 C13050.3,69.1 13075.3,94.5 13100.2,120 C13105.8,125.7 13111.1,131.6 13116.7,137.4 C13118.1,138.9 13119.8,140.1 13121.9,141.8 C13124.1,139.8 13126.1,138.1 13127.9,136.2 C13149.1,114.5 13170.4,92.8 13191.6,71 C13199,63.4 13206.6,55.8 13213.5,47.7 C13220,40.1 13228.1,35.6 13238.2,33.1 C13240,39.1 13241.9,45.1 13243.6,51.2 C13251.7,79.8 13259.6,108.5 13267.7,137.1 C13276.3,167.5 13284.8,198 13293.5,228.4 C13303.4,263.2 13313.4,297.9 13323.3,332.7 C13325.9,341.9 13327.9,351.2 13330.3,360.5 C13317,360.5 13303.6,360.5 13290.3,360.5 C13270.3,355.4 13250.2,350.3 13230.1,345.4 C13198.4,337.6 13166.6,329.9 13134.9,322.1 C13126.2,320 13117.6,320 13108.9,322.2 C13090.8,326.6 13072.7,331 13054.7,335.4 C13020.7,343.8 12986.7,352.2 12952.7,360.6 C12939.8,360.6 12927,360.6 12914.2,360.6 Z" class="svg-fill" fill="#FFFFFF"></path>
            <path d="M14651.8,0.6 C14654,2.6 14652.4,4 14650.8,4.9 C14648.2,6.3 14645.4,7.2 14642.8,8.5 C14581.6,37.9 14520.4,67.3 14459.2,96.8 C14444.6,103.8 14429.9,110.8 14415.3,118 C14404.8,123.2 14394.8,121.5 14384.8,116.6 C14367.6,108.1 14350.5,99.4 14333.2,91.2 C14289.2,70.3 14245.1,49.6 14201,28.7 C14185.1,21.2 14169.3,13.5 14153.6,5.7 C14151.7,4.8 14148.6,4 14151,0.7 C14317.9,0.6 14484.9,0.6 14651.8,0.6 Z" fill="none"></path>
            <path d="M14667.8,360.6 C14668.4,350.8 14668.9,341 14669.8,331.2 C14670.5,323 14671.6,314.9 14672.5,306.7 C14674,293.8 14675.4,280.9 14676.9,268 C14677.6,261.7 14678.3,255.3 14678.8,249 C14680,235.8 14680.8,222.6 14682.2,209.4 C14684,191.8 14686.3,174.2 14688.3,156.5 C14689.1,149.1 14689.4,141.7 14690.2,134.3 C14691.5,121.4 14693,108.5 14694.4,95.6 C14695.1,89.5 14695.8,83.5 14696.4,77.4 C14697.6,64.5 14698.6,51.5 14699.8,38.6 C14700.9,25.9 14702,13.3 14703.1,0.6 C14922.8,0.6 15142.6,0.6 15362.3,0.6 C15361.7,11.6 15361.7,11.5 15350.7,13.2 C15335.6,15.5 15320.7,18.3 15305.6,20.5 C15296.4,21.8 15287,22.1 15277.8,23 C15269.1,23.9 15260.4,25.2 15251.7,25.8 C15245.3,26.3 15238.6,27.2 15232.6,25.7 C15223.9,23.5 15215.7,26.3 15207.3,26.5 C15197.3,26.7 15187.3,28.7 15177.3,29.1 C15163.5,29.6 15149.6,28.9 15135.7,29.5 C15123.5,29.9 15111.4,31.8 15099.3,32.2 C15088.4,32.5 15077.6,31.7 15066.7,31.4 C15061.9,31.3 15057.1,31 15052.3,31.1 C15032.4,31.5 15012.4,32.5 14992.5,32.4 C14981.9,32.4 14971.4,30.7 14960.9,29.8 C14958.5,29.6 14956.1,29.5 14953.7,29.5 C14938.8,29.4 14923.8,29.7 14908.9,29.2 C14898.3,28.8 14887.8,26.7 14877.3,26.6 C14868.9,26.5 14860.7,24.6 14852,25.7 C14841.6,27 14830.8,25.4 14820.2,24.5 C14809.1,23.5 14798.1,21.7 14787,20.3 C14768,17.9 14749,15.4 14730,13 C14727.7,12.7 14725.3,12.8 14722.4,12.6 C14722.2,15.8 14722,18.3 14722,20.9 C14722.2,132.3 14722.5,243.7 14722.7,355.2 C14722.7,357.1 14722.5,358.9 14722.4,360.8 C14704.1,360.6 14685.9,360.6 14667.8,360.6 Z" fill="none"></path>
            <path d="M12952.6,360.6 C12986.6,352.2 13020.6,343.8 13054.6,335.4 C13072.7,331 13090.8,326.6 13108.8,322.2 C13117.5,320.1 13126.1,320 13134.8,322.1 C13166.5,329.9 13198.3,337.6 13230,345.4 C13250.1,350.4 13270.1,355.5 13290.2,360.5 C13177.7,360.6 13065.1,360.6 12952.6,360.6 Z" fill="none"></path>
            <path d="M13691.8,360.6 C13699.3,357.9 13706.8,355.4 13714.2,352.4 C13726.8,347.4 13739.4,342.2 13751.8,336.9 C13758.6,334 13764.9,333.9 13771.8,336.9 C13789.6,344.7 13807.7,351.9 13825.6,359.2 C13827.3,359.9 13829.2,360.1 13831,360.5 C13784.6,360.6 13738.2,360.6 13691.8,360.6 Z" fill="none"></path>
            <path d="M14376.6,360.6 C14383.4,356.1 14390.4,351.7 14397.1,347 C14400.5,344.6 14403.2,344.6 14406.5,347 C14411.9,350.9 14417.4,354.6 14422.9,358.2 C14424.4,359.2 14426.2,359.8 14427.8,360.5 C14410.7,360.6 14393.7,360.6 14376.6,360.6 Z" fill="none"></path>
            <path d="M15034.2,360.6 C15036.4,357.7 15038.5,354.7 15041.4,350.9 C15044.7,354.6 15047.5,357.6 15050.2,360.6 C15044.9,360.6 15039.5,360.6 15034.2,360.6 Z" fill="none"></path>
            <path d="M12303.4,324.2 C12342.4,234.5 12381.1,145.6 12419.7,56.9 C12427.8,58 12432.4,62.3 12436.4,67.9 C12449.7,86.2 12463.2,104.4 12476.6,122.5 C12477.8,124.2 12479.3,125.7 12481.3,128.2 C12483.8,125.6 12486.2,123.6 12487.9,121.2 C12501.6,102.8 12515.2,84.4 12528.6,65.9 C12532.3,60.8 12537.1,58.3 12543.4,56.3 C12582.1,145.2 12620.6,233.6 12659.6,323.3 C12655.9,323.3 12653.1,323.6 12650.4,323.3 C12639.3,322 12628.3,320.5 12617.2,319.2 C12606.4,317.9 12595.6,316.7 12584.8,315.4 C12569,313.5 12553.2,311.4 12537.3,309.7 C12518.8,307.8 12500.3,305.3 12481.7,304.8 C12467.4,304.5 12453.1,306.8 12438.8,308.2 C12423.2,309.8 12407.7,311.8 12392.1,313.7 C12376.3,315.6 12360.5,317.7 12344.7,319.6 C12331.6,321.2 12318.1,322.6 12303.4,324.2 Z" class="svg-fill" fill="#FFFFFF"></path>
            <path d="M11704.5,282.5 C11705.8,279.5 11706.4,277.2 11707.6,275.3 C11727.8,240.8 11748,206.4 11768.2,171.9 C11784.9,143.4 11801.5,114.9 11818.2,86.4 C11818.6,85.7 11818.9,84.9 11819.3,84.3 C11822,80.2 11824.4,79.9 11827.2,83.8 C11830.1,87.9 11832.5,92.4 11835.1,96.7 C11836.9,99.6 11838.8,102.3 11840.9,105.3 C11846.7,101.6 11848.4,96 11851.6,91.6 C11853.2,89.5 11854.1,86.9 11855.6,84.7 C11858.8,79.8 11861.4,79.8 11864.5,84.5 C11867.1,88.5 11869.7,92.6 11872.1,96.7 C11889.6,126.8 11907.1,157 11924.6,187.1 C11941.2,215.6 11958,244.1 11974.6,272.6 C11976.1,275.2 11977.2,278.2 11978.8,281.6 C11976.2,282.4 11974.6,283.3 11972.9,283.4 C11969.7,283.7 11966.5,283.4 11963.3,283.6 C11957,283.9 11950.6,282.5 11944.5,285.8 C11942.8,286.7 11940.3,286.1 11938.2,286.1 C11874.7,286.1 11811.3,286.3 11747.8,286 C11733.9,286.1 11720,283.9 11704.5,282.5 Z" class="svg-fill" fill="#FFFFFF"></path>
            <path d="M11313.4,262.9 C11306.8,263.7 11301.3,264.4 11294.8,265.2 C11296,269 11297,272.3 11298.1,275.9 C11265.5,274.2 11233.4,271.2 11201.3,271.2 C11169.5,271.2 11137.6,274.2 11105.3,276 C11106.4,272.7 11107.4,269.5 11108.7,265.5 C11102.5,264.7 11096.8,263.9 11090.4,263.1 C11091.5,261.2 11092.3,259.4 11093.4,257.8 C11110.1,232.8 11126.4,207.5 11143.6,182.8 C11160.6,158.4 11173.5,131.9 11185.8,105 C11186.6,103.3 11187.3,101.6 11188,99.9 C11190.2,95.1 11193.9,91.6 11199.2,91.1 C11206.5,90.4 11212.5,92.9 11215.7,100.2 C11217.5,104.4 11219.5,108.4 11221.3,112.6 C11234.3,143.4 11251.9,171.6 11270.9,199.1 C11284.1,218.2 11296.7,237.6 11309.6,256.8 C11310.7,258.3 11311.7,260.1 11313.4,262.9 Z" class="svg-fill" fill="#FFFFFF"></path>
            <path d="M10654,267 C10636.2,264.5 10620.2,262.1 10604.1,260 C10590.9,258.3 10577.7,256.5 10564.5,255.5 C10549.5,254.4 10534.8,257.9 10520.1,259.9 C10504,262.1 10487.9,264.4 10471.9,266.6 C10471.5,266.7 10470.9,266.3 10469.8,265.8 C10472.6,258.4 10475.3,251 10478.2,243.6 C10495.2,200.8 10512.2,157.9 10529.1,115.1 C10530.5,111.6 10531.9,108.2 10536.4,106.8 C10542.9,114.8 10549.3,122.9 10555.8,130.9 C10561,137.4 10562.5,137.5 10567.9,131 C10572.8,125.1 10577.4,118.8 10582.1,112.8 C10583.7,110.8 10585.5,108.9 10587.1,107.1 C10592,108.7 10593.4,112.5 10594.9,116.2 C10610.5,155.8 10626.2,195.5 10641.9,235.1 C10644.9,242.8 10648,250.4 10651,258.1 C10652,260.6 10652.7,263.1 10654,267 Z" class="svg-fill" fill="#FFFFFF"></path>
            <path d="M9964.4,121.5 C9968.7,127.7 10009,245.4 10011,256.8 C10008.3,256.4 10005.7,256.2 10003.2,255.7 C9980.2,251.1 9957.2,246.5 9934.3,241.7 C9924.9,239.7 9915.8,240.3 9906.6,242.2 C9884.4,246.8 9862.2,251.2 9840.1,255.7 C9837.8,256.2 9835.5,256.1 9831.9,256.5 C9847.2,211.1 9862.1,166.8 9877.6,121 C9880.7,123.4 9882.9,124.6 9884.5,126.4 C9892.8,135.4 9900.9,144.6 9909.1,153.7 C9912,156.9 9914.7,160.1 9917.8,163.1 C9921.4,166.6 9923.1,166.6 9926.4,162.9 C9936.7,151.4 9946.9,139.8 9957.2,128.3 C9959.2,126 9961.6,124 9964.4,121.5 Z" class="svg-fill" fill="#FFFFFF"></path>
            <path d="M9227.8,127.2 C9238,138 9246.5,147.2 9255.3,156 C9264,164.6 9273.1,172.8 9282.6,181.8 C9291.9,174.8 9299.1,164.4 9308.1,156 C9317.2,147.4 9326.2,138.8 9335.8,129.6 C9336.5,130.8 9337.9,132.4 9338.5,134.2 C9349,170.8 9359.4,207.5 9369.7,244.2 C9370,245.1 9369.7,246.2 9369.7,247.9 C9367.4,247.5 9365.4,247.3 9363.4,246.8 C9340.1,241.1 9316.8,235.5 9293.6,229.4 C9285.3,227.2 9277.5,227.3 9269.2,229.5 C9246,235.5 9222.7,241.2 9199.4,247 C9197.7,247.4 9195.9,247.7 9192.7,248.2 C9196.7,234 9200.3,220.8 9204.1,207.7 C9207.8,194.6 9211.4,181.5 9215.3,168.5 C9219.3,155.3 9222,141.8 9227.8,127.2 Z" class="svg-fill" fill="#FFFFFF"></path>
            <path d="M8642.1,195.5 C8653.1,184.8 8663.2,175 8673.3,165.2 C8683.3,155.6 8693.3,146.2 8704.4,135.7 C8710.4,153.6 8713.6,171 8718,188 C8722.4,204.9 8726.3,222 8730.7,240 C8727.9,239.5 8726.1,239.4 8724.5,238.9 C8700.4,232 8676.3,225.3 8652.3,218 C8644.8,215.7 8637.8,216.1 8630.4,218.3 C8606.7,225.4 8582.8,232.1 8559,239 C8557.5,239.4 8555.9,239.7 8554.4,240.1 C8553.8,234.2 8575.3,144.9 8579.6,136.4 C8581.7,138.1 8583.7,139.6 8585.5,141.3 C8602.2,157.4 8618.9,173.5 8635.6,189.5 C8637.4,191.4 8639.4,193.1 8642.1,195.5 Z" class="svg-fill" fill="#FFFFFF"></path>
            <path d="M7912.4,232.6 C7919,202.5 7925.5,172.6 7932.4,141.2 C7956.2,162.7 7978.8,183.2 8001.9,204 C8024.9,183.2 8047.4,162.9 8070,142.5 C8073.5,148.3 8089.7,221.3 8090.4,233.7 C8087.8,233 8085.3,232.5 8082.9,231.7 C8058.8,224 8034.6,216.4 8010.6,208.5 C8004.4,206.5 7998.9,206.6 7992.7,208.6 C7968.7,216.5 7944.5,224.2 7920.4,231.8 C7918,232.6 7915.6,234.3 7912.4,232.6 Z" class="svg-fill" fill="#FFFFFF"></path>
            <path d="M5920,172.6 C5919.6,169.2 5919.1,165.8 5918.5,161.4 C5932.2,164.2 5944.9,169.6 5959.1,172.5 C5959.1,167.3 5959.1,162.9 5959.1,156.9 C5972.9,163.3 5984.2,171.6 5997.6,178.3 C5999.3,169.3 6000.9,161.2 6002.7,151.8 C6021.4,167.2 6039.2,181.8 6058.3,197.5 C6035.4,206.1 6013.9,214.2 5991.4,222.7 C5991.9,216.4 5992.3,210.8 5992.8,203.4 C5981.2,209.8 5970.9,215.6 5959.5,221.9 C5959.5,214.3 5959.5,207.8 5959.5,200.6 C5952.9,202.5 5950,207.6 5945.9,211 C5941.7,214.6 5937.8,218.5 5932.8,223.2 C5930.1,212.5 5927.6,202.9 5924.9,192 C5921.9,193.9 5919.7,195.1 5917.8,196.7 C5911.2,202.1 5904.7,207.6 5898.1,213 C5896.1,214.6 5893.8,215.9 5890.5,218.1 C5886.9,199.8 5883.5,182.5 5880,165.1 C5884.1,162.5 5887.6,164.2 5891,165.3 C5900.1,168.4 5909.1,171.5 5918.1,174.6 C5918.7,174.7 5919.4,174.8 5920,174.9 C5920.1,174.2 5920,173.4 5920,172.6 Z" class="svg-fill" fill="#FFFFFF"></path>
            <path d="M6164.9,178.1 C6179,172.7 6190.4,163.4 6203.9,156.9 C6204.1,162.2 6204.3,166.8 6204.6,172.8 C6218.3,168.8 6231.1,165.1 6244.9,161.1 C6244.2,166.2 6243.6,170.2 6242.9,175.1 C6245.3,174.7 6247,174.6 6248.6,174 C6256.6,171.2 6264.6,168.1 6272.6,165.3 C6275.5,164.3 6278.6,163.9 6282.9,162.9 C6280.8,181.7 6276.2,198.8 6273,217.4 C6270.4,216 6268.3,215.2 6266.6,213.8 C6260.4,208.8 6254.3,203.6 6248.1,198.6 C6245.5,196.5 6242.7,194.6 6239,191.9 C6234.7,202.1 6234,212.3 6230.2,222.7 C6221.7,214.9 6213.8,207.7 6204.6,199.1 C6204.6,207.7 6204.6,214.4 6204.6,222.3 C6192.6,215.6 6181.9,209.5 6169.8,202.7 C6170.7,209.9 6171.4,215.8 6172.3,222.6 C6149.8,214.2 6128.2,206.1 6105.1,197.4 C6124,181.9 6141.9,167.2 6161,151.4 C6162.5,160.8 6163.6,168.6 6164.9,178.1 Z" class="svg-fill" fill="#FFFFFF"></path>
            <path d="M5587.1,221.1 C5578.7,214.5 5571.7,209.1 5563.4,202.7 C5563.4,209.7 5563.4,215.1 5563.4,221.6 C5552.4,215.8 5542.3,210.5 5532.4,205.2 C5527.1,210.6 5533.8,215.4 5532.2,221.2 C5511.3,213.2 5490.5,205.3 5469.7,197.4 C5473.2,192.3 5508.3,163.1 5521.9,153.9 C5523.4,161.6 5524.7,168.9 5526.3,177.2 C5538.6,171 5548.9,163.2 5561.1,156.6 C5561.5,162.2 5561.9,167 5562.3,173.1 C5573.6,168.9 5584.4,164.9 5596.9,160.3 C5593.6,181 5590.5,200.2 5587.1,221.1 Z" class="svg-fill" fill="#FFFFFF"></path>
            <path d="M5352.9,204.2 C5341.4,210.3 5331.4,215.6 5320.7,221.2 C5320.7,215.1 5320.7,209.7 5320.7,202.7 C5311.7,208 5305.5,214.9 5297.9,219.8 C5295.2,215 5287.7,171.9 5287.9,161.1 C5299.3,163.5 5309.4,169.8 5321.1,172.4 C5321.7,167.1 5322.2,162.5 5322.8,156.5 C5334.4,163.6 5345.4,170.3 5357.2,177.5 C5358.7,169.1 5360,161.9 5361.3,154.6 C5366.7,156.5 5409,190.3 5414,197 C5393.3,204.9 5372.7,212.8 5350.8,221.2 C5351.5,215.6 5352.1,210.9 5352.9,204.2 Z" class="svg-fill" fill="#FFFFFF"></path>
            <path d="M4921.4,219.9 C4911.5,215.2 4902.2,210.8 4892.5,206.2 C4890.3,211.1 4893.3,215.4 4892.3,220.7 C4871.4,212.7 4851,204.9 4829.1,196.5 C4847.3,181.7 4864.3,167.9 4882.3,153.4 C4883.7,161.4 4884.9,168.1 4886.3,176.1 C4896.9,170.5 4905.7,162.8 4916.5,156.8 C4917.4,162.2 4918.1,166.7 4918.9,171.5 C4927.9,169.6 4934.2,162.8 4942.7,161.6 C4944.4,169 4943,203.3 4940.4,217 C4934.1,213.3 4928.2,209.8 4921.4,205.8 C4921.4,210.7 4921.4,214.8 4921.4,219.9 Z" class="svg-fill" fill="#FFFFFF"></path>
            <path d="M4774.6,196.5 C4752.6,204.9 4732.3,212.7 4710.8,220.9 C4711.5,215.5 4711.9,211.4 4712.6,205.6 C4702.1,210.5 4692.7,214.9 4682.3,219.8 C4682.3,214.7 4682.3,210.4 4682.3,205.2 C4675.5,209.5 4669.6,213.1 4662.6,217.5 C4661.5,197.9 4660.4,180 4659.3,161.3 C4669.2,162.3 4675.8,169 4685.1,171.9 C4685.6,167 4686.1,162.5 4686.8,156.6 C4697.7,162.4 4706.4,170.1 4717.3,176.1 C4718.7,168.4 4720,161.5 4721.5,153.4 C4739.3,167.9 4756.3,181.7 4774.6,196.5 Z" class="svg-fill" fill="#FFFFFF"></path>
            <path d="M4250.3,206.5 C4250.9,211.1 4251.4,214.7 4252,219.7 C4230.8,212.2 4210.4,205 4188.8,197.3 C4206.2,182.4 4222.7,168.4 4240,153.7 C4241.6,161.5 4243,168.1 4244.6,175.9 C4253.3,169.3 4261.2,163.3 4269.8,156.8 C4271,160.5 4271.9,163.1 4272.9,166.3 C4276.9,165.1 4280.8,164 4285.6,162.6 C4288.6,179 4288.9,194.8 4291.4,211.8 C4286.3,210 4282.4,208.6 4278,207.1 C4278,210.4 4278,213.1 4278,217 C4268.6,214.5 4260.5,209.5 4250.3,206.5 Z" class="svg-fill" fill="#FFFFFF"></path>
            <path d="M4079.1,175.5 C4080.6,168.1 4081.9,161.7 4083.5,153.8 C4101,168 4117.2,182.3 4134.7,197.2 C4113.2,204.8 4092.8,212.1 4071.6,219.6 C4072.1,214.9 4072.6,211.3 4073.1,206.4 C4063.5,210.1 4054.9,213.5 4045.5,217.1 C4045.5,213.3 4045.5,210.5 4045.5,207.1 C4041,208.6 4037.1,209.8 4032.5,211.3 C4034.1,195 4035.7,179.4 4037.2,164.1 C4042.3,161.1 4045.8,165.6 4050.6,166.6 C4051.5,163.7 4052.3,161 4053.4,157.3 C4062.7,162.1 4069.8,169.8 4079.1,175.5 Z" class="svg-fill" fill="#FFFFFF"></path>
            <path d="M7190.9,177.2 C7179.2,192.1 7167.4,207.1 7154.8,223.2 C7146.5,203.1 7138.7,184.5 7130.5,164.9 C7151.1,165.3 7170.2,171.1 7190.4,172 C7189.9,168.5 7189.6,165.9 7189.2,162.6 C7196,163.9 7202.4,165.2 7208.8,166.4 C7221.3,168.7 7233.9,171 7246.4,173.4 C7248.4,173.8 7250.3,174.6 7253.5,175.7 C7239.3,192.9 7223.4,207.1 7209.3,224.9 C7203.6,208.3 7198.4,193 7193.2,177.6 C7192.4,177.5 7191.6,177.4 7190.9,177.2 Z" class="svg-fill" fill="#FFFFFF"></path>
            <path d="M7530.4,177.6 C7525.3,192.9 7520.1,208.2 7514.7,224.4 C7499.6,207.9 7485.1,192.2 7469.4,175.2 C7492,170.8 7512.9,166.8 7534.6,162.6 C7534,165.9 7533.5,168.4 7532.9,172 C7553.1,169.4 7572.6,166.8 7593.4,164.1 C7585,184.3 7577.2,203.1 7568.9,223.1 C7556.2,207 7544.4,191.9 7532.6,176.8 C7531.8,177.2 7531.1,177.4 7530.4,177.6 Z" class="svg-fill" fill="#FFFFFF"></path>
            <path d="M6828.6,175.8 C6849,171.3 6869.5,166.8 6890.8,162.1 C6890.1,166.3 6889.5,169.6 6888.8,174 C6891.9,173.5 6894.5,173.3 6897,172.8 C6908.4,170.3 6919.8,167.6 6931.3,165.2 C6934,164.6 6936.9,164.5 6941.1,164 C6934.8,183.6 6929,201.9 6922.6,221.9 C6910,208.5 6898.5,196.2 6885.7,182.6 C6881.3,197.2 6877.5,210 6873.6,223 C6869.1,219.9 6831.2,182.1 6828.7,178.4 C6828.5,178.1 6828.6,177.8 6828.6,175.8 Z" class="svg-fill" fill="#FFFFFF"></path>
            <path d="M6520.9,221 C6514.6,201.6 6508.7,183.4 6502.4,164.2 C6506,164.5 6508.8,164.4 6511.5,164.9 C6523,167.3 6534.4,170 6545.8,172.5 C6548.4,173.1 6550.9,173.5 6554.7,174.2 C6554,169.9 6553.5,166.5 6552.8,162.4 C6555.4,162.8 6557.4,162.9 6559.4,163.3 C6568.2,165.4 6576.9,167.7 6585.8,169.7 C6594,171.5 6602.4,172.9 6610.7,174.6 C6612.4,174.9 6613.9,176.1 6616.7,177.4 C6602.1,194 6585.2,207 6570.7,224.7 C6566.4,210.4 6562.5,197.7 6558.2,183.4 C6544.4,195.2 6534.6,208.8 6520.9,221 Z" class="svg-fill" fill="#FFFFFF"></path>
            <path d="M7287.9,146.1 C7309.6,165 7330.2,182.8 7351.9,201.6 C7324.9,210.9 7299.1,219.8 7272.3,229.1 C7276.1,201 7282.2,174.5 7287.9,146.1 Z" class="svg-fill" fill="#FFFFFF"></path>
            <path d="M7371.6,201.7 C7393.5,182.7 7413.9,165 7435.5,146.3 C7441.6,174.3 7446.9,200.9 7451.5,229.3 C7424.9,220 7399.1,211.1 7371.6,201.7 Z" class="svg-fill" fill="#FFFFFF"></path>
            <path d="M3495.3,199 C3474.2,205 3454.6,210.5 3434.3,216.3 C3434.6,212.9 3434.8,210.3 3435.1,206.7 C3426.7,207.5 3419.4,211.6 3411.4,212.9 C3410.6,207.5 3419.1,166.8 3422.8,158.5 C3430.6,162.1 3435.2,169.8 3443.3,174.9 C3445.4,168.1 3447.3,162 3449.6,154.5 C3465.1,169.6 3479.7,183.7 3495.3,199 Z" class="svg-fill" fill="#FFFFFF"></path>
            <path d="M3609.6,216.4 C3589.1,210.6 3569.5,205.1 3548.3,199.1 C3563.8,184 3578.3,169.8 3594,154.5 C3596.2,161.9 3598,168.1 3600.2,175.4 C3607.4,169.2 3613.8,163.6 3621.4,157 C3625.7,176.5 3629.6,194.3 3633.8,213.6 C3624.9,211 3617,208.7 3608.2,206.1 C3608.7,209.8 3609,212.3 3609.6,216.4 Z" class="svg-fill" fill="#FFFFFF"></path>
            <path d="M6630.8,225.7 C6635.5,199.3 6639.9,175.1 6644.5,149.4 C6664.5,166.2 6683.5,182.2 6703.8,199.1 C6679.3,208 6656,216.5 6630.8,225.7 Z" class="svg-fill" fill="#FFFFFF"></path>
            <path d="M6811.4,225.1 C6787.7,216.5 6764.6,208.2 6741.4,199.8 C6744.3,194.9 6785.6,159.3 6798.7,150.5 C6804.1,175.1 6809.2,199.3 6811.4,225.1 Z" class="svg-fill" fill="#FFFFFF"></path>
            <path d="M2794.3,161.1 C2803.2,161.5 2804.2,171 2811.3,174.1 C2813.5,168.5 2815.5,163.2 2817.5,157.9 C2823,160.6 2848,189.6 2855.2,201.4 C2836.4,204.7 2818,207.8 2799.1,211.1 C2799.1,208.8 2799.1,207.1 2799.1,204.7 C2792.2,205.8 2785.8,206.8 2778,208 C2783.5,191.7 2788.8,176.7 2794.3,161.1 Z" class="svg-fill" fill="#FFFFFF"></path>
            <path d="M2908.6,201.3 C2913.4,192.7 2940.3,160.9 2945.6,157.6 C2947.9,162.8 2950.2,167.9 2953,174.2 C2955.6,171.5 2957.5,169.7 2959.2,167.8 C2960.5,166.4 2961.4,164.8 2962.8,163.5 C2966.7,159.7 2969,160.2 2970.9,165.2 C2973.4,171.9 2975.6,178.8 2977.9,185.6 C2980.3,192.6 2982.8,199.6 2985.6,207.7 C2978.4,206.6 2972,205.6 2965,204.6 C2964.8,206 2964.7,206.9 2964.6,207.9 C2964.5,208.6 2964.5,209.4 2964.4,210.9 C2945.7,207.7 2927.3,204.6 2908.6,201.3 Z" class="svg-fill" fill="#FFFFFF"></path>
            <path d="M8396.9,166 C8419.5,166.8 8440.2,167.5 8461,168.3 C8459.6,173.9 8436.3,212.4 8427.4,223.5 C8417.4,204.6 8407.6,186 8396.9,166 Z" class="svg-fill" fill="#FFFFFF"></path>
            <path d="M8821,168.3 C8843.4,167.5 8864.3,166.7 8886.7,165.9 C8876.3,185.5 8866.4,204.2 8855.9,224.1 C8844.1,205.4 8832.9,187.4 8821,168.3 Z" class="svg-fill" fill="#FFFFFF"></path>
            <path d="M8176.5,170.2 C8198.8,168.4 8219.2,166.8 8241.1,165.1 C8232,185.4 8222.8,204 8213.2,223.8 C8200.5,205.9 8189.1,188.7 8176.5,170.2 Z" class="svg-fill" fill="#FFFFFF"></path>
            <path d="M7790.6,224.1 C7780.8,203.8 7771.9,185.2 7762.2,165.1 C7784.2,166.8 7804.7,168.4 7826.9,170.1 C7814.6,188.5 7803.1,205.5 7790.6,224.1 Z" class="svg-fill" fill="#FFFFFF"></path>
            <path d="M2217.2,202.7 C2199.5,203.2 2183.2,203.6 2165.6,204.1 C2173.5,189.1 2180.9,174.9 2188.9,159.6 C2191,161.5 2193,162.6 2194.1,164.4 C2201.7,176.6 2208.9,188.9 2217.2,202.7 Z" class="svg-fill" fill="#FFFFFF"></path>
            <path d="M2318,204.1 C2300.7,203.7 2284.4,203.2 2267,202.8 C2268.1,200.5 2268.7,198.9 2269.5,197.5 C2275.9,186.8 2282.3,176 2288.8,165.3 C2292.3,159.5 2294.5,159.5 2297.6,165.3 C2304.3,177.9 2310.9,190.6 2318,204.1 Z" class="svg-fill" fill="#FFFFFF"></path>
            <path d="M1562.2,164.2 C1564.1,165.5 1565.7,166 1566.1,167 C1570.4,178.3 1574.5,189.7 1579.1,202.4 C1564.6,200.2 1551.6,198.3 1537.3,196.1 C1545.2,184.9 1553.6,175 1562.2,164.2 Z" class="svg-fill" fill="#FFFFFF"></path>
            <path d="M1624.5,202.4 C1629,190 1632.9,178.7 1637.1,167.6 C1638.3,164.4 1641.3,163.9 1643.3,166.4 C1650.9,175.8 1658.2,185.4 1666.4,196 C1652,198.2 1638.8,200.2 1624.5,202.4 Z" class="svg-fill" fill="#FFFFFF"></path>
            <path d="M980.5,199.5 C981.7,189.7 982.6,181.4 983.9,173.2 C984.3,170.4 986.7,169 989.2,170.9 C996.2,176.3 1003,182.1 1010.8,188.5 C1000.2,192.3 991.1,195.6 980.5,199.5 Z" class="svg-fill" fill="#FFFFFF"></path>
            <path d="M942.9,199.5 C932,195.4 923,192 913,188.3 C920.5,182 927.1,176.4 933.9,171 C936.3,169.1 939.6,170.3 940,173.3 C941.1,181.3 941.8,189.5 942.9,199.5 Z" class="svg-fill" fill="#FFFFFF"></path>
            <path d="M333.4,192.4 C332.6,186.5 331.9,181.6 331.1,176 C339.4,174.8 344.4,180.3 351.2,182.8 C345.3,186.1 340.9,190.5 333.4,192.4 Z" class="svg-fill" fill="#FFFFFF"></path>
            <path d="M292.5,182.7 C299.8,180.1 304.6,174.5 312.5,176.4 C310.5,181.9 313,187.8 308.2,192.8 C303.3,189.7 298.5,186.6 292.5,182.7 Z" class="svg-fill" fill="#FFFFFF"></path>
            <path d="M5920,172.6 C5920,173.4 5920.1,174.2 5920.1,175 C5919.5,174.9 5918.8,174.8 5918.2,174.7 C5918.8,174 5919.4,173.3 5920,172.6 Z" fill="none"></path>
        </g>
    </g>
</svg>
