<?xml version="1.0" encoding="UTF-8"?>
<svg width="100%" height="100%" version="1.1" xmlns="http://www.w3.org/2000/svg" xmlns:xlink="http://www.w3.org/1999/xlink" viewBox="0 0 16000 362" preserveAspectRatio="none">
    <!-- Generator: Sketch 48.2 (47327) - http://www.bohemiancoding.com/sketch -->
    <title>gooey-transition</title>
    <desc>Created with Sketch.</desc>
    <defs></defs>
    <g id="Page-1" stroke="none" stroke-width="1" fill="none" fill-rule="evenodd">
        <g id="gooey-transition" fill-rule="nonzero">
            <path d="M11802,361 C7868,361 3934,361 0,361 C0,241 0,121 0,1 C3711.3,1 7422.7,1 11134,1 C11130.7,2.6 11127.5,4.3 11124.2,5.6 C11095,17.3 11073.4,37 11060.5,65.8 C11048.5,92.4 11047.2,119.8 11055.9,147.7 C11058.2,155.1 11060.3,162.5 11058.1,170.2 C11056.7,175 11054.3,179.4 11052.5,184.1 C11040,215.2 11047.5,249.4 11071.7,272.2 C11082.9,282.8 11096.4,289.1 11111.3,292.3 C11120.6,294.3 11127.8,298.9 11133,306.9 C11135.7,311.1 11138.7,315.2 11141.9,318.9 C11171.3,352.2 11208.3,364.5 11250.9,353.1 C11293.7,341.7 11319.2,312.4 11327.8,268.8 C11329.1,262.3 11329.2,255.5 11330.7,249.1 C11334.6,233.1 11341.1,218.6 11352.7,206.1 C11374.5,182.7 11381.7,154.9 11373.9,123.8 C11364,84.7 11329.3,57.4 11288.9,58.1 C11273.8,58.4 11263,54.2 11254,41.8 C11241.4,24.4 11224,12.7 11203.8,5.3 C11201.1,4.3 11198.6,2.5 11196.1,1.1 C11368.8,1.1 11541.4,1.1 11714.1,1.1 C11712.6,3.1 11711.3,5.5 11709.5,7.1 C11666.6,42.6 11652.7,100.7 11672.5,151 C11677,162.5 11676.5,172.7 11670.6,183.4 C11664.1,195.3 11661.2,208.3 11661,221.8 C11660.3,264.7 11690.9,301 11734.5,308.3 C11746.2,310.3 11754.9,315.2 11761.6,324.8 C11771.1,338.3 11783.2,349.2 11797.6,357.5 C11799.1,358.3 11800.5,359.8 11802,361 Z M10543.6,15.5 C10470.8,15.4 10421.1,76.4 10435.6,141.3 C10438.6,154.7 10438,166.3 10432.5,178.9 C10421.2,204.7 10424.7,229.6 10441.2,252.5 C10447.1,260.6 10453.2,268.5 10459.2,276.5 C10469.4,290 10482,301.1 10497.5,307.7 C10512.3,314 10525.9,321.9 10539.6,330.2 C10598.5,366.1 10675,331.8 10687.7,264 C10689.6,253.7 10689.4,242.8 10689,232.2 C10688.6,222.1 10690.2,213.1 10697,205.2 C10699.2,202.7 10700.9,199.8 10702.6,196.9 C10719.1,169 10716.1,134 10695.1,109.3 C10683.2,95.3 10667.9,87 10650,83.7 C10640.1,81.9 10632.8,77 10627.8,68.4 C10625.8,65 10623.6,61.6 10621.2,58.4 C10600.2,30.4 10572,16.5 10543.6,15.5 Z M9795.7,216.2 C9795.6,271.9 9833,314.7 9884.3,320.8 C9900.2,322.7 9915.8,324.7 9931.1,330.1 C9943,334.4 9955.7,334.6 9968.6,333 C10020.1,326.5 10057.8,276.9 10048.5,226.1 C10046.1,212.9 10047,200.8 10050.8,188 C10058.6,161.8 10052.5,138.5 10032.2,119.8 C10027.1,115.1 10021,111.3 10014.7,108.4 C10005.1,103.9 9998.3,97.3 9994.4,87.5 C9993.2,84.4 9991.6,81.4 9989.9,78.6 C9971.7,47.7 9944.4,31.1 9908.8,30.2 C9850.1,28.7 9804.4,80.7 9813.1,138.9 C9815,151.5 9813.4,162.4 9807.2,173.4 C9799.1,187.7 9795.5,203.5 9795.7,216.2 Z M9318.2,325.1 C9351.7,324.1 9376.2,311.8 9393.4,286.7 C9410.1,262.4 9413.6,235.8 9404.2,207.7 C9401.4,199.5 9398.7,191.4 9399,182.5 C9399.8,160 9391.7,141.6 9373.3,128.1 C9366.6,123.2 9362.5,116.5 9360.1,108.6 C9359.3,105.7 9358.4,102.9 9357.4,100 C9335.6,39.8 9258.7,22.5 9213.5,67.8 C9196.2,85.1 9187.4,106.3 9188.3,130.8 C9188.7,142.8 9185.6,153.1 9177.4,161.9 C9175.1,164.3 9173.2,167.1 9171.4,169.9 C9155.2,194.6 9150.4,221.3 9157.6,250 C9169.2,296.2 9215.7,332.4 9272.8,321.9 C9281.1,320.4 9289.2,320.3 9297.5,322.1 C9305.4,323.7 9313.4,324.4 9318.2,325.1 Z M8767.8,232.1 C8768.4,221.7 8765.6,210.1 8760.6,199 C8754.5,185.7 8748.2,172.5 8741.6,159.4 C8739.4,155 8736.6,150.7 8733.3,147 C8726.6,139.5 8723.2,130.8 8721.6,121 C8715.2,81.8 8685.2,54.9 8645.8,52.5 C8604.1,50 8566.8,80.8 8562.5,122.3 C8560.9,137.4 8556.8,150.2 8544,159.2 C8543.5,159.6 8543,160.1 8542.6,160.6 C8494.5,209.4 8511.6,291.5 8575.2,316.8 C8596.1,325.1 8617.4,326.2 8638.8,319.4 C8649.5,316 8660,314.7 8671.2,316.3 C8678.7,317.3 8686.5,317.4 8694,316.6 C8736.7,312.1 8767.8,277 8767.8,232.1 Z M8007.2,60.8 C8002.3,61.4 7997.2,61.5 7992.4,62.6 C7959.9,69.5 7937.8,93.3 7932.9,127.1 C7931.4,137.7 7927.2,146 7918.1,151.8 C7915.3,153.6 7912.6,155.7 7910.2,157.9 C7881.3,183.7 7870.2,215.6 7879.8,253.3 C7893.7,307.6 7951.4,336.4 8004.4,315.7 C8016,311.1 8027.3,309.7 8039.5,311.2 C8045,311.9 8050.8,311.7 8056.3,310.9 C8087.8,306.8 8110,289.8 8121.4,260.3 C8132.8,230.8 8127.1,203.4 8107.1,179 C8103.3,174.4 8099.1,170.1 8095,165.7 C8086.2,156.2 8082.4,145 8081.8,132.1 C8079.8,91.6 8047.6,61.3 8007.2,60.8 Z M7407.4,306.8 C7447.7,308.2 7486.4,275 7485.1,227.9 C7484.5,203.5 7473.8,183.5 7454.3,168.8 C7445,161.8 7439.9,153.3 7441.2,141.5 C7441.4,139.9 7441.3,138.2 7441.2,136.5 C7440.1,99.6 7412.1,72.1 7378.7,68.4 C7349.7,65.2 7315.7,81.8 7304.5,116.8 C7303.3,120.6 7302.5,124.5 7301.6,128.4 C7299.7,137 7295.1,143.6 7287.3,147.9 C7284.7,149.4 7282.2,151 7279.7,152.7 C7231,185.1 7224.8,254.1 7267.8,293.7 C7295.6,319.3 7328.2,324.8 7363.4,311.3 C7374.8,306.9 7385.8,303 7398.2,306.2 C7401.2,307.1 7404.4,306.7 7407.4,306.8 Z M6769.1,303.2 C6774.1,302.8 6779.2,302.9 6784,301.8 C6812.7,295.1 6832.3,278 6840.3,249.5 C6848.4,220.7 6840.5,195.6 6819,174.8 C6816.4,172.3 6813.4,170 6810.5,167.8 C6803,162.2 6799.5,154.8 6799.7,145.4 C6799.8,139.4 6800,133.3 6798.9,127.5 C6793.6,98.2 6768.7,75.8 6738.4,74 C6709.6,72.2 6681.8,88.6 6673,116.8 C6664.9,142.7 6659.8,142.2 6644,152.1 C6613.6,171.2 6599.3,199.8 6603.2,235.2 C6607.4,272.3 6628.6,297.4 6664.5,309 C6685,315.6 6705.3,313.8 6724.9,305.2 C6734.4,301 6743.8,299.3 6754,301.8 C6759,302.9 6764.1,302.8 6769.1,303.2 Z M6199.9,228.6 C6200,204.6 6190.1,185.4 6171.1,171.1 C6161.6,164 6157.8,155.3 6158.2,143.7 C6158.4,137.1 6157.7,130.3 6156,124 C6149.2,98.8 6127,81.1 6102,79.1 C6069.7,76.6 6046.3,95.7 6039.2,117.2 C6033.9,133.1 6024.8,142.5 6010,149.9 C5983.7,163.1 5969.2,186.1 5966.8,215.2 C5961.7,276.8 6020.6,321.3 6078.7,300.1 C6090.7,295.7 6101.9,294.8 6114.6,297.5 C6158.9,307.1 6199.8,273.7 6199.9,228.6 Z M5517.4,145.4 C5516.8,140.7 5516.5,135 5515.4,129.5 C5510.7,105.7 5490.1,81.7 5456.6,82.4 C5430.7,82.9 5411.6,96.2 5402.3,120.8 C5397.7,133 5390.6,141.4 5378.3,145.4 C5376.1,146.1 5374,147.3 5372,148.4 C5346.3,163.1 5331.9,185.4 5331,214.9 C5329.2,270.3 5381.5,309.3 5434.3,292.2 C5446.6,288.2 5457.8,287.8 5470.3,291.4 C5507.8,302 5545.8,280.3 5554.5,242.8 C5561.1,214.3 5552.5,190.1 5529.3,171.8 C5520.7,165.1 5515.1,157.6 5517.4,145.4 Z M4912.1,224.1 C4912.2,203.2 4904.6,186.1 4887.6,173 C4877.5,165.2 4872.8,156.5 4873,143.4 C4873.5,116.4 4855.2,93.6 4830.1,87.8 C4803.4,81.7 4777.2,93.8 4765.6,119.2 C4760.2,130.9 4752.6,138.2 4740.9,143.5 C4710.9,156.9 4695.6,180.6 4696.1,213.7 C4696.8,258.9 4739.8,293.5 4783.7,283.1 C4799.9,279.2 4814.1,279.6 4830.1,284.8 C4871.1,298 4911.9,266.9 4912.1,224.1 Z M4061.7,204.1 C4062.3,208.1 4062.5,213.5 4063.8,218.6 C4072.7,254.1 4106.2,276 4142,268.6 C4156.1,265.7 4168.6,266 4181.2,273.7 C4189.2,278.6 4198.7,280.1 4208.1,280 C4233,279.5 4254.9,264 4263.6,241.1 C4272.4,217.8 4266.5,192.5 4248,175.2 C4245.3,172.7 4242.5,170.4 4239.5,168.2 C4232.6,163.1 4229,156.5 4229,147.7 C4229,143.1 4228.3,138.4 4227.4,133.8 C4221.9,104.9 4192.1,85.8 4163.4,92.7 C4147.5,96.5 4135.7,105.5 4128,119.7 C4123,128.9 4116,135.5 4105.9,138.8 C4104.3,139.3 4102.8,140.1 4101.3,140.8 C4075.7,153.4 4062.7,174.2 4061.7,204.1 Z M3621.8,215.2 C3621.4,195.3 3613.8,180.2 3598.9,169.3 C3589.4,162.4 3584.3,154.1 3582.7,142.2 C3580,121.2 3568,106.5 3547.6,100.3 C3526.7,93.9 3508.6,99.8 3494.4,116.1 C3486.9,124.7 3478.3,130.4 3467.7,134.5 C3438.4,145.9 3423.2,175.2 3430.4,205.6 C3437.5,235.7 3467.6,256.4 3497.4,250.8 C3511.2,248.2 3523.1,249.5 3533.4,259.5 C3534.3,260.4 3535.6,261 3536.7,261.7 C3555.5,272.6 3574.8,273.4 3593.7,262.5 C3612.3,251.8 3621.4,235.2 3621.8,215.2 Z M2890.7,105.3 C2883.4,107.3 2875.4,108.1 2869,111.7 C2857,118.5 2844.6,123.3 2831.6,127.5 C2810.5,134.4 2797.3,154.4 2797.5,176.5 C2797.7,198.8 2811.4,218 2832.2,225.2 C2841.2,228.3 2850.3,229.2 2859.7,227.3 C2868.7,225.4 2876.1,228.1 2881.9,235.2 C2883.6,237.2 2885.3,239.3 2887.2,241.2 C2896.5,251 2907.9,256.5 2921.5,257.4 C2954.2,259.6 2980.2,229.8 2973.9,197.7 C2971.2,184.3 2964.5,173.4 2953.3,165.9 C2943.7,159.4 2936.7,151.7 2934.6,140.1 C2934.4,139.1 2933.9,138.2 2933.6,137.3 C2926.7,118.7 2910.7,107.2 2890.7,105.3 Z M2210.7,115.9 C2188.8,115 2170.5,130.5 2168.4,151.1 C2166,174.3 2180,193.7 2202.4,197.8 C2206.3,198.5 2210.4,198.6 2214.3,198.4 C2227.1,197.8 2236,203.2 2241.5,214.8 C2243.2,218.4 2245.4,221.8 2247.9,224.9 C2257.3,236.7 2269.8,242.4 2284.6,241.7 C2304.3,240.7 2320.9,226.7 2325.2,208.7 C2329.9,189.1 2322.6,170.1 2304.9,159.7 C2294.8,153.8 2287,146.5 2280.9,136.5 C2274.1,125.4 2263.6,118.8 2250.6,117.7 C2237.3,116.5 2224,116.5 2210.7,115.9 Z M1675.8,185.3 C1675.9,167.9 1665.4,153.9 1648.1,149.7 C1637.6,147.2 1627.8,143.6 1619,137.2 C1617.4,136 1615.6,135.1 1613.8,134.3 C1606.4,130.9 1600.3,126 1595.5,119.3 C1593.4,116.4 1590.8,113.6 1588,111.3 C1573.8,99.7 1551.7,104.1 1543.4,120.4 C1537.8,131.3 1537.9,142.9 1546,152.3 C1554.5,162.1 1560.3,172.8 1564.7,184.8 C1568.7,195.7 1577.4,203.3 1588.7,205.5 C1601.6,208 1613.2,212.9 1625.1,218.3 C1649.3,229.3 1675.7,211.5 1675.8,185.3 Z M1013.9,183.8 C1014,171 1007.4,161.1 994.8,156.2 C978,149.6 963.9,139.8 954,124.4 C949.8,117.9 943.7,114.1 935.9,113.6 C926.4,113 919.1,116.9 914.1,124.9 C908.7,133.8 909.4,142.9 915.3,151.1 C920.3,158 923.5,165.2 925.2,173.6 C927.1,183.2 932.7,191 942.1,194.4 C952.8,198.2 962.5,203.6 972.4,209.1 C991.4,219.6 1013.8,205.4 1013.9,183.8 Z M299,155.9 C297,167.3 299.7,174.9 306.8,181.3 C311.2,185.2 315.2,189.7 319.1,194.2 C322.7,198.3 326.5,201.8 332.1,202.7 C342.1,204.3 350.7,200.4 354.8,192.2 C359.4,183 357.9,174.4 349.8,167 C340,158.1 333.2,147.4 329.7,134.6 C326.8,124.1 318,119.1 308.4,121.9 C299.5,124.4 295.1,133 297.2,143.4 C298,148.2 298.6,153.1 299,155.9 Z" fill="none"></path>
            <path d="M14016,361 C13844.7,361 13673.3,361 13502,361 C13500.5,359.3 13499,357.5 13497.3,356 C13445.6,309.3 13441.9,235.9 13488.6,184.1 C13490.4,182.1 13492.2,180.2 13493.9,178.1 C13499.1,171.9 13500.1,165.1 13496.6,157.7 C13494.6,153.5 13492.5,149.4 13490.5,145.1 C13479.9,122.5 13474.4,98.9 13473.9,73.8 C13473.4,48.4 13478.5,24.3 13487.9,0.9 C14325.2,0.9 15162.6,0.9 15999.9,0.9 C15999.9,120.9 15999.9,240.9 15999.9,360.9 C15573.9,360.9 15147.9,360.9 14721.9,360.9 C14721.9,358.3 14721.9,355.7 14721.9,353.1 C14721.2,353 14720.4,352.8 14719.7,352.7 C14718.4,355.4 14717.2,358.2 14715.9,360.9 C14504.6,360.9 14293.2,360.9 14081.9,360.9 C14082.1,356.9 14082.4,352.9 14082.4,348.9 C14082.4,299.9 14082.7,251 14082.2,202.1 C14082.1,191.7 14083.9,184 14093.3,177.7 C14104.2,170.4 14104.6,164 14098.7,151.9 C14093.8,141.7 14089.3,131.4 14084.5,121.1 C14084,120.1 14083.3,119.2 14081.5,116.6 C14079.7,134.8 14069.7,146.9 14060.7,159.5 C14059,161.9 14057,164.2 14055,166.5 C14039.4,184.7 14039.4,184.6 14046.1,207.5 C14058,248.2 14055.1,287.9 14037,326.1 C14031.4,338.4 14023.1,349.4 14016,361 Z M14721.6,190.3 C14721.6,186.7 14721.6,183.1 14721.6,177.7 C14717.4,183.2 14718.1,186.9 14721.6,190.3 Z" class="svg-fill" fill="#000000"></path>
            <path d="M12896,1 C13056.7,1 13217.3,1 13378,1 C13379.9,4.1 13381.9,7.2 13383.8,10.3 C13397.5,32.3 13404.7,56.3 13405.2,82.1 C13405.9,117.4 13395.1,149 13372.5,176.2 C13364.7,185.7 13362.6,195.4 13364.7,207.6 C13375.2,268.2 13356.4,317.8 13307.4,355.5 C13305.4,357.1 13303.7,359.1 13301.9,360.9 C13201.9,360.9 13101.9,360.9 13001.9,360.9 C12998.7,355.8 12993.7,354.3 12988.3,354.1 C12983.3,353.9 12978.3,354.2 12973.3,354 C12951.1,353.4 12930.6,347.5 12912.4,334.7 C12865,301.3 12853,236.9 12885.2,188.5 C12886.5,186.6 12887.8,184.6 12889.2,182.8 C12896.2,174.1 12897.2,164.9 12891.9,155 C12891.3,153.8 12890.7,152.6 12890.2,151.4 C12868.2,103.5 12869.3,56.1 12893.2,9.1 C12894.6,6.7 12895.1,3.7 12896,1 Z" class="svg-fill" fill="#000000"></path>
            <path d="M12544,1 C12582,1 12620,1 12658,1 C12660.3,3.1 12662.4,5.6 12665,7.3 C12725.1,45.8 12740.1,124.3 12697.7,182 C12690,192.5 12685.4,203.1 12687.1,216.2 C12687.3,217.8 12687.2,219.5 12687.2,221.2 C12687.3,276.9 12651.5,325.7 12598.4,342.3 C12593.6,343.8 12588.7,344.8 12584.1,346.7 C12576.9,349.8 12569.5,353 12566,361 C12511.3,361 12456.7,361 12402,361 C12396.4,354.9 12390.4,349.1 12385.4,342.5 C12378.4,333.2 12369.2,329.3 12357.9,328.7 C12352.3,328.4 12346.6,327.6 12341.2,326.3 C12293.1,315.2 12261.3,266.6 12269.9,218.1 C12272.2,205.1 12276.8,193.1 12283.6,182 C12288.6,173.8 12290,165.4 12285.8,156.4 C12284.7,154 12283.6,151.5 12282.7,149.1 C12263.9,99.3 12269.4,52.6 12300.8,9.3 C12302.7,6.6 12304.4,3.8 12306.2,1 C12376.9,1 12447.5,1 12518.2,1 C12526.7,10.1 12535.8,10.1 12544,1 Z" class="svg-fill" fill="#000000"></path>
            <path d="M11802,361 C11800.5,359.8 11799.1,358.3 11797.4,357.3 C11783,349 11770.9,338.2 11761.4,324.6 C11754.7,315 11746,310 11734.3,308.1 C11690.7,300.8 11660.1,264.5 11660.8,221.6 C11661,208.1 11663.9,195.1 11670.4,183.2 C11676.3,172.5 11676.8,162.3 11672.3,150.8 C11652.5,100.5 11666.4,42.4 11709.3,6.9 C11711.2,5.3 11712.4,3 11713.9,0.9 C11763.9,0.9 11813.9,0.9 11863.9,0.9 C11871.3,8.1 11879.1,14.9 11885.9,22.6 C11893.9,31.6 11902.8,34.8 11914.4,31 C11925.3,27.4 11936.6,26.9 11947.9,27.2 C12003.7,28.8 12054.8,79.7 12044.5,146.6 C12041.7,164.8 12034.1,180.9 12022.5,195.2 C12016.5,202.6 12012.5,210.7 12011.3,220.3 C12007.8,249.7 11994.6,274 11971.9,293.1 C11964.2,299.6 11957.7,307 11952.6,315.8 C11942.5,333.1 11928.7,346.9 11911.4,357 C11909.4,358.2 11907.6,359.7 11905.8,361 C11871.3,361 11836.7,361 11802,361 Z" class="svg-fill" fill="#000000"></path>
            <path d="M11906,361 C11907.9,359.6 11909.6,358.1 11911.6,357 C11929,346.9 11942.7,333.1 11952.8,315.8 C11957.9,307.1 11964.3,299.6 11972.1,293.1 C11994.8,274 12007.9,249.7 12011.5,220.3 C12012.6,210.7 12016.7,202.6 12022.7,195.2 C12034.2,180.9 12041.9,164.8 12044.7,146.6 C12054.9,79.7 12003.8,28.8 11948.1,27.2 C11936.7,26.9 11925.4,27.4 11914.6,31 C11903.1,34.8 11894.1,31.7 11886.1,22.6 C11879.3,14.9 11871.5,8.1 11864.1,0.9 C12011.4,0.9 12158.8,0.9 12306.1,0.9 C12304.3,3.7 12302.7,6.5 12300.7,9.2 C12269.3,52.5 12263.7,99.2 12282.6,149 C12283.5,151.5 12284.6,153.9 12285.7,156.3 C12290,165.3 12288.6,173.6 12283.5,181.9 C12276.7,193.1 12272.1,205 12269.8,218 C12261.3,266.5 12293.1,315 12341.1,326.2 C12346.6,327.5 12352.2,328.3 12357.8,328.6 C12369.1,329.2 12378.2,333.1 12385.3,342.4 C12390.3,349 12396.4,354.8 12401.9,360.9 C12236.7,361 12071.3,361 11906,361 Z" class="svg-fill" fill="#000000"></path>
            <path d="M11196,1 C11198.6,2.4 11201,4.2 11203.7,5.2 C11223.9,12.6 11241.3,24.3 11253.9,41.7 C11262.9,54.1 11273.7,58.3 11288.8,58 C11329.1,57.3 11363.9,84.5 11373.8,123.7 C11381.7,154.8 11374.4,182.6 11352.6,206 C11341,218.5 11334.5,233 11330.6,249 C11329,255.4 11329,262.2 11327.7,268.7 C11319.1,312.3 11293.6,341.6 11250.8,353 C11208.1,364.4 11171.2,352.2 11141.8,318.8 C11138.5,315.1 11135.5,311 11132.9,306.8 C11127.7,298.7 11120.5,294.1 11111.2,292.2 C11096.3,289 11082.8,282.7 11071.6,272.1 C11047.4,249.3 11040,215.1 11052.4,184 C11054.3,179.4 11056.6,174.9 11058,170.1 C11060.3,162.4 11058.2,155 11055.8,147.6 C11047.1,119.8 11048.4,92.3 11060.4,65.7 C11073.3,37 11094.9,17.2 11124.1,5.5 C11127.5,4.2 11130.7,2.4 11133.9,0.9 C11154.7,1 11175.3,1 11196,1 Z" class="svg-fill" fill="#000000"></path>
            <path d="M12566,361 C12569.5,353 12576.9,349.9 12584.1,346.7 C12588.6,344.7 12593.6,343.8 12598.4,342.3 C12651.5,325.6 12687.3,276.9 12687.2,221.2 C12687.2,219.5 12687.4,217.8 12687.1,216.2 C12685.4,203.2 12690,192.5 12697.7,182 C12740,124.3 12725.1,45.7 12665,7.3 C12662.4,5.6 12660.3,3.1 12658,1 C12737.3,1 12816.7,1 12896,1 C12895.1,3.7 12894.6,6.7 12893.3,9.2 C12869.4,56.2 12868.3,103.6 12890.3,151.5 C12890.9,152.7 12891.4,153.9 12892,155.1 C12897.4,165 12896.4,174.2 12889.3,182.9 C12887.8,184.7 12886.5,186.7 12885.3,188.6 C12853.1,237 12865,301.3 12912.5,334.8 C12930.7,347.7 12951.3,353.6 12973.4,354.1 C12978.4,354.2 12983.4,353.9 12988.4,354.2 C12993.9,354.4 12998.9,356 13002,361 C12856.7,361 12711.3,361 12566,361 Z" class="svg-fill" fill="#000000"></path>
            <path d="M13302,361 C13303.8,359.2 13305.5,357.1 13307.5,355.6 C13356.5,317.9 13375.3,268.3 13364.8,207.7 C13362.7,195.4 13364.8,185.8 13372.6,176.3 C13395.1,149 13406,117.5 13405.3,82.2 C13404.8,56.4 13397.6,32.3 13383.9,10.4 C13382,7.3 13380,4.2 13378.1,1.1 C13414.8,1.1 13451.4,1.1 13488.1,1.1 C13478.7,24.5 13473.6,48.6 13474.1,74 C13474.6,99 13480.1,122.7 13490.7,145.3 C13492.7,149.5 13494.8,153.7 13496.8,157.9 C13500.3,165.3 13499.3,172.1 13494.1,178.3 C13492.4,180.3 13490.6,182.3 13488.8,184.3 C13442,236.1 13445.7,309.5 13497.5,356.2 C13499.2,357.7 13500.6,359.5 13502.2,361.2 C13435.3,361 13368.7,361 13302,361 Z" class="svg-fill" fill="#000000"></path>
            <path d="M14016,361 C14023.1,349.4 14031.4,338.4 14037.2,326.1 C14055.3,287.9 14058.2,248.2 14046.3,207.5 C14039.6,184.6 14039.6,184.6 14055.2,166.5 C14057.2,164.2 14059.1,162 14060.9,159.5 C14069.9,146.9 14080,134.8 14081.7,116.6 C14083.5,119.3 14084.2,120.1 14084.7,121.1 C14089.4,131.4 14094,141.7 14098.9,151.9 C14104.8,164.1 14104.4,170.4 14093.5,177.7 C14084.1,184 14082.3,191.7 14082.4,202.1 C14082.8,251 14082.6,300 14082.6,348.9 C14082.6,352.9 14082.3,356.9 14082.1,360.9 C14060,361 14038,361 14016,361 Z" class="svg-fill" fill="#000000"></path>
            <path d="M12544,1 C12535.8,10.1 12526.7,10.1 12518,1 C12526.7,1 12535.3,1 12544,1 Z" class="svg-fill" fill="#000000"></path>
            <path d="M14716,361 C14717.3,358.3 14718.5,355.5 14719.8,352.8 C14720.5,352.9 14721.3,353.1 14722,353.2 C14722,355.8 14722,358.4 14722,361 C14720,361 14718,361 14716,361 Z" class="svg-fill" fill="#000000"></path>
            <path d="M10543.6,15.5 C10572,16.5 10600.2,30.4 10621.1,58.4 C10623.5,61.6 10625.7,64.9 10627.7,68.4 C10632.8,77 10640.1,81.9 10649.9,83.7 C10667.8,87 10683.1,95.3 10695,109.3 C10716,134 10719,169 10702.5,196.9 C10700.8,199.8 10699.1,202.7 10696.9,205.2 C10690.1,213 10688.6,222 10688.9,232.2 C10689.3,242.8 10689.5,253.6 10687.6,264 C10674.9,331.8 10598.4,366.1 10539.5,330.2 C10525.8,321.9 10512.2,314 10497.4,307.7 C10481.8,301.1 10469.3,290.1 10459.1,276.5 C10453.1,268.5 10447,260.6 10441.1,252.5 C10424.5,229.6 10421.1,204.7 10432.4,178.9 C10437.9,166.3 10438.5,154.6 10435.5,141.3 C10421.1,76.4 10470.8,15.4 10543.6,15.5 Z" class="svg-fill" fill="#000000"></path>
            <path d="M9795.7,216.2 C9795.4,203.5 9799.1,187.7 9807.2,173.2 C9813.4,162.2 9815,151.4 9813.1,138.7 C9804.4,80.5 9850,28.5 9908.8,30 C9944.4,30.9 9971.7,47.5 9989.9,78.4 C9991.6,81.3 9993.2,84.2 9994.4,87.3 C9998.3,97.1 10005.1,103.7 10014.7,108.2 C10020.9,111.1 10027.1,114.9 10032.2,119.6 C10052.5,138.3 10058.7,161.7 10050.8,187.8 C10046.9,200.6 10046.1,212.7 10048.5,225.9 C10057.8,276.7 10020.1,326.3 9968.6,332.8 C9955.7,334.4 9943,334.2 9931.1,329.9 C9915.8,324.4 9900.2,322.5 9884.3,320.6 C9833,314.7 9795.7,271.9 9795.7,216.2 Z" class="svg-fill" fill="#000000"></path>
            <path d="M9318.2,325.1 C9313.4,324.4 9305.4,323.7 9297.6,322.1 C9289.3,320.3 9281.2,320.4 9272.9,321.9 C9215.8,332.4 9169.3,296.3 9157.7,250 C9150.5,221.3 9155.3,194.6 9171.5,169.9 C9173.3,167.1 9175.2,164.4 9177.5,161.9 C9185.7,153.1 9188.8,142.9 9188.4,130.8 C9187.6,106.2 9196.3,85.1 9213.6,67.8 C9258.8,22.5 9335.7,39.7 9357.5,100 C9358.5,102.8 9359.4,105.7 9360.2,108.6 C9362.5,116.5 9366.6,123.2 9373.4,128.1 C9391.8,141.6 9399.9,160 9399.1,182.5 C9398.8,191.4 9401.5,199.5 9404.3,207.7 C9413.7,235.8 9410.2,262.4 9393.5,286.7 C9376.2,311.8 9351.7,324 9318.2,325.1 Z" class="svg-fill" fill="#000000"></path>
            <path d="M8767.8,232.1 C8767.8,277 8736.7,312.1 8693.9,316.8 C8686.4,317.6 8678.6,317.5 8671.1,316.5 C8659.9,315 8649.4,316.2 8638.7,319.6 C8617.3,326.4 8596,325.3 8575.1,317 C8511.4,291.6 8494.3,209.6 8542.5,160.8 C8543,160.3 8543.4,159.8 8543.9,159.4 C8556.7,150.4 8560.8,137.6 8562.4,122.5 C8566.8,80.9 8604.1,50.2 8645.7,52.7 C8685.2,55 8715.1,82 8721.5,121.2 C8723.1,131 8726.5,139.7 8733.2,147.2 C8736.5,150.9 8739.3,155.2 8741.5,159.6 C8748.1,172.7 8754.4,185.9 8760.5,199.2 C8765.6,210.1 8768.4,221.7 8767.8,232.1 Z" class="svg-fill" fill="#000000"></path>
            <path d="M8007.2,60.8 C8047.6,61.2 8079.8,91.6 8081.7,132.1 C8082.3,145 8086.1,156.2 8094.9,165.7 C8099,170.1 8103.2,174.4 8107,179 C8127,203.4 8132.7,230.8 8121.3,260.3 C8110,289.8 8087.8,306.8 8056.2,310.9 C8050.7,311.6 8044.9,311.9 8039.4,311.2 C8027.2,309.7 8015.9,311.2 8004.3,315.7 C7951.4,336.4 7893.6,307.6 7879.7,253.3 C7870.1,215.6 7881.1,183.7 7910.1,157.9 C7912.6,155.7 7915.2,153.6 7918,151.8 C7927.1,146 7931.3,137.7 7932.8,127.1 C7937.7,93.3 7959.9,69.5 7992.3,62.6 C7997.2,61.5 8002.2,61.4 8007.2,60.8 Z" class="svg-fill" fill="#000000"></path>
            <path d="M7407.4,306.8 C7404.4,306.7 7401.3,307 7398.4,306.3 C7386,303.1 7375,307.1 7363.6,311.4 C7328.4,324.9 7295.8,319.4 7268,293.8 C7225,254.2 7231.2,185.2 7279.9,152.8 C7282.4,151.1 7284.9,149.5 7287.5,148 C7295.3,143.7 7299.9,137.1 7301.8,128.5 C7302.7,124.6 7303.5,120.7 7304.7,116.9 C7315.8,81.8 7349.9,65.3 7378.9,68.5 C7412.4,72.2 7440.3,99.7 7441.4,136.6 C7441.5,138.3 7441.6,140 7441.4,141.6 C7440.1,153.4 7445.1,161.8 7454.5,168.9 C7474,183.6 7484.6,203.6 7485.3,228 C7486.3,275 7447.6,308.3 7407.4,306.8 Z" class="svg-fill" fill="#000000"></path>
            <path d="M6769.1,303.2 C6764.1,302.7 6759,302.8 6754.2,301.7 C6743.9,299.2 6734.5,300.9 6725.1,305.1 C6705.5,313.8 6685.1,315.5 6664.7,308.9 C6628.8,297.3 6607.6,272.2 6603.4,235.1 C6599.4,199.7 6613.8,171.1 6644.2,152 C6660,142.1 6665.1,142.7 6673.2,116.7 C6682,88.5 6709.8,72.2 6738.6,73.9 C6768.9,75.8 6793.8,98.1 6799.1,127.4 C6800.2,133.2 6800,139.4 6799.9,145.3 C6799.7,154.7 6803.2,162.1 6810.7,167.7 C6813.6,169.9 6816.6,172.1 6819.2,174.7 C6840.6,195.5 6848.6,220.5 6840.5,249.4 C6832.5,277.8 6812.9,295 6784.2,301.7 C6779.2,302.9 6774.1,302.8 6769.1,303.2 Z" class="svg-fill" fill="#000000"></path>
            <path d="M6199.9,228.6 C6199.8,273.7 6158.9,307.1 6114.6,297.5 C6102,294.7 6090.8,295.7 6078.7,300.1 C6020.6,321.3 5961.7,276.8 5966.8,215.2 C5969.2,186 5983.7,163 6010,149.9 C6024.8,142.5 6033.9,133.1 6039.2,117.2 C6046.3,95.8 6069.7,76.6 6102,79.1 C6127.1,81 6149.2,98.8 6156,124 C6157.7,130.3 6158.4,137.2 6158.2,143.7 C6157.8,155.3 6161.7,164 6171.1,171.1 C6190.1,185.4 6200,204.6 6199.9,228.6 Z" class="svg-fill" fill="#000000"></path>
            <path d="M5517.4,145.4 C5515.1,157.7 5520.6,165.1 5529.1,171.8 C5552.3,190.1 5560.9,214.2 5554.3,242.8 C5545.6,280.2 5507.7,302 5470.1,291.4 C5457.6,287.9 5446.4,288.3 5434.1,292.2 C5381.3,309.3 5329,270.2 5330.8,214.9 C5331.8,185.4 5346.1,163.1 5371.8,148.4 C5373.8,147.2 5375.9,146.1 5378.1,145.4 C5390.4,141.4 5397.5,133 5402.1,120.8 C5411.4,96.1 5430.5,82.9 5456.4,82.4 C5489.9,81.8 5510.6,105.7 5515.2,129.5 C5516.5,135 5516.8,140.6 5517.4,145.4 Z" class="svg-fill" fill="#000000"></path>
            <path d="M4912.1,224.1 C4911.9,267 4871.1,298 4830.2,284.7 C4814.2,279.5 4800,279.1 4783.8,283 C4739.9,293.5 4696.9,258.8 4696.2,213.6 C4695.7,180.5 4710.9,156.8 4741,143.4 C4752.7,138.2 4760.3,130.8 4765.7,119.1 C4777.3,93.7 4803.4,81.6 4830.2,87.7 C4855.3,93.4 4873.6,116.3 4873.1,143.3 C4872.9,156.4 4877.6,165.2 4887.7,172.9 C4904.6,186.1 4912.2,203.1 4912.1,224.1 Z" class="svg-fill" fill="#000000"></path>
            <path d="M4061.7,204.1 C4062.6,174.2 4075.6,153.4 4101.4,140.8 C4102.9,140.1 4104.4,139.3 4106,138.8 C4116,135.5 4123,129 4128.1,119.7 C4135.8,105.5 4147.7,96.5 4163.5,92.7 C4192.2,85.9 4222.1,104.9 4227.5,133.8 C4228.4,138.4 4229.1,143 4229.1,147.7 C4229.1,156.4 4232.7,163 4239.6,168.2 C4242.5,170.4 4245.4,172.7 4248.1,175.2 C4266.5,192.4 4272.5,217.8 4263.7,241.1 C4255,264.1 4233.1,279.6 4208.2,280 C4198.8,280.2 4189.3,278.7 4181.3,273.7 C4168.8,266 4156.3,265.7 4142.1,268.6 C4106.3,276 4072.8,254.1 4063.9,218.6 C4062.6,213.5 4062.3,208.1 4061.7,204.1 Z" class="svg-fill" fill="#000000"></path>
            <path d="M3621.8,215.2 C3621.4,235.2 3612.3,251.9 3593.8,262.5 C3574.9,273.4 3555.7,272.6 3536.8,261.7 C3535.6,261 3534.4,260.4 3533.5,259.5 C3523.2,249.5 3511.4,248.2 3497.5,250.8 C3467.7,256.3 3437.6,235.7 3430.5,205.6 C3423.4,175.2 3438.5,145.9 3467.8,134.5 C3478.4,130.4 3487,124.7 3494.5,116.1 C3508.6,99.8 3526.8,93.9 3547.7,100.3 C3568.1,106.6 3580.1,121.3 3582.8,142.2 C3584.3,154.2 3589.4,162.4 3599,169.3 C3613.9,180.1 3621.4,195.3 3621.8,215.2 Z" class="svg-fill" fill="#000000"></path>
            <path d="M2890.7,105.3 C2910.7,107.2 2926.7,118.7 2933.6,137.2 C2934,138.1 2934.4,139 2934.6,140 C2936.7,151.6 2943.8,159.3 2953.3,165.8 C2964.5,173.3 2971.2,184.2 2973.9,197.6 C2980.2,229.7 2954.2,259.5 2921.5,257.3 C2907.9,256.4 2896.5,251 2887.2,241.1 C2885.4,239.2 2883.6,237.2 2881.9,235.1 C2876,228 2868.7,225.4 2859.7,227.2 C2850.3,229.1 2841.2,228.2 2832.2,225.1 C2811.3,217.8 2797.7,198.6 2797.5,176.4 C2797.3,154.2 2810.4,134.3 2831.6,127.4 C2844.6,123.1 2857.1,118.3 2869,111.6 C2875.4,108.1 2883.5,107.3 2890.7,105.3 Z" class="svg-fill" fill="#000000"></path>
            <path d="M2210.7,115.9 C2224,116.5 2237.3,116.5 2250.5,117.7 C2263.5,118.9 2274.1,125.5 2280.8,136.5 C2286.9,146.5 2294.7,153.8 2304.8,159.7 C2322.5,170.1 2329.8,189.1 2325.1,208.7 C2320.8,226.7 2304.2,240.8 2284.5,241.7 C2269.7,242.4 2257.2,236.6 2247.8,224.9 C2245.3,221.8 2243.1,218.4 2241.4,214.8 C2235.9,203.3 2227,197.8 2214.2,198.4 C2210.2,198.6 2206.1,198.5 2202.3,197.8 C2179.9,193.7 2165.9,174.2 2168.3,151.1 C2170.5,130.6 2188.9,115.1 2210.7,115.9 Z" class="svg-fill" fill="#000000"></path>
            <path d="M1675.8,185.3 C1675.7,211.6 1649.3,229.3 1625.2,218.3 C1613.3,212.9 1601.7,208 1588.8,205.5 C1577.4,203.3 1568.8,195.7 1564.8,184.8 C1560.4,172.8 1554.6,162.1 1546.1,152.3 C1538,142.9 1537.9,131.3 1543.5,120.4 C1551.8,104.1 1573.8,99.8 1588.1,111.3 C1590.9,113.6 1593.5,116.3 1595.6,119.3 C1600.4,126 1606.5,130.9 1613.9,134.3 C1615.7,135.1 1617.5,136.1 1619.1,137.2 C1627.8,143.6 1637.6,147.2 1648.2,149.7 C1665.5,153.8 1675.9,167.9 1675.8,185.3 Z" class="svg-fill" fill="#000000"></path>
            <path d="M1013.9,183.8 C1013.8,205.5 991.4,219.6 972.3,209.1 C962.4,203.7 952.7,198.3 942,194.4 C932.6,191 927,183.3 925.1,173.6 C923.5,165.2 920.2,158 915.2,151.1 C909.3,142.9 908.6,133.8 914,124.9 C918.9,116.8 926.3,113 935.8,113.6 C943.6,114.1 949.7,118 953.9,124.4 C963.9,139.7 977.9,149.6 994.7,156.2 C1007.4,161.1 1014,170.9 1013.9,183.8 Z" class="svg-fill" fill="#000000"></path>
            <path d="M299,155.9 C298.6,153 298,148.1 297.1,143.3 C295.1,132.9 299.5,124.3 308.3,121.8 C317.9,119.1 326.7,124 329.6,134.5 C333.2,147.3 339.9,157.9 349.7,166.9 C357.8,174.3 359.3,182.9 354.7,192.1 C350.6,200.3 342,204.2 332,202.6 C326.4,201.7 322.6,198.2 319,194.1 C315.1,189.6 311.1,185.2 306.7,181.2 C299.7,174.9 297,167.3 299,155.9 Z" class="svg-fill" fill="#000000"></path>
            <path d="M14721.6,190.3 C14718.1,186.9 14717.3,183.2 14721.6,177.7 C14721.6,183.1 14721.6,186.7 14721.6,190.3 Z" class="svg-fill" fill="#000000"></path>
        </g>
    </g>
</svg>
