<?xml version="1.0" encoding="UTF-8"?>
<svg width="100%" height="100%" version="1.1" xmlns="http://www.w3.org/2000/svg" xmlns:xlink="http://www.w3.org/1999/xlink" viewBox="0 0 16000 361" preserveAspectRatio="none">
    <!-- Generator: Sketch 48.2 (47327) - http://www.bohemiancoding.com/sketch -->
    <title>scrub-transition</title>
    <desc>Created with Sketch.</desc>
    <defs></defs>
    <g id="Page-1" stroke="none" stroke-width="1" fill="none" fill-rule="evenodd">
        <g id="scrub-transition" fill-rule="nonzero">
            <path d="M13760,1 C14506.6,1 15253.2,1 15999.9,1 C15999.9,121.9 15999.9,242.9 15999.9,364 C12870,364 9740,364 6610,364 C6608.8,347.7 6600.8,336.3 6585.2,330.3 C6577.6,327.4 6572.8,322.2 6569.7,314.7 C6566.6,307.2 6562.3,300.1 6558.1,293 C6547.9,276 6538.4,258.7 6533.1,239.6 C6531.3,233 6530.4,226.1 6529.8,219.3 C6529.4,214.6 6531.8,211 6536.6,209.7 C6541.5,208.4 6545.2,210.6 6547.6,214.6 C6549.4,217.7 6551.1,221 6551.9,224.5 C6557.1,246.9 6567.5,267 6580.3,285.9 C6585.9,294.1 6592.1,301.9 6601.5,306.3 C6607.8,309.2 6613.9,308.5 6619.2,304.1 C6624.1,300 6626.7,294.4 6624.6,288.3 C6622.6,282.5 6619.9,276.7 6616.1,272 C6604.2,257.3 6597.6,240.2 6592.3,222.5 C6591.2,219 6590.1,214.9 6594.4,210.2 C6596.6,213.2 6598.8,215.3 6600.2,217.9 C6602.5,222.2 6604.2,226.9 6606.4,231.3 C6611.7,242.1 6621.4,245.4 6632.7,245.8 C6637.5,246 6640.5,244 6641.1,239.4 C6642,232.6 6642.5,225.7 6643.1,218.9 C6643.4,215.4 6643.8,212 6644.1,208.6 C6658.6,207.9 6667.6,214.3 6670.2,226.3 C6670.6,228.2 6671.4,230.1 6671.9,232 C6673.2,236.6 6676.4,239.3 6681.2,239.7 C6685.5,240.1 6689.3,238.5 6691.3,234.7 C6693.5,230.4 6694.1,225.7 6690.7,221.7 C6688.4,219 6685.4,216.7 6682.4,214.7 C6678.3,212 6676.9,208.6 6677.5,203.8 C6678.6,195.5 6682.9,189.8 6691,187.2 C6694.1,186.2 6697.5,185.7 6700.7,185 C6714.8,182.2 6719.9,176.7 6721.4,162.6 C6721.7,159.7 6721.6,156.7 6721.6,153.7 C6721.6,130.4 6721.6,107.1 6721.6,83.7 C6721.7,56.1 6721.8,28.5 6721.9,0.9 C6828.6,0.9 6935.2,0.9 7041.9,0.9 C7041.8,44.6 7041.7,88.3 7041.7,132 C7041.7,132.9 7042.1,133.9 7042.4,135.2 C7044.6,135.6 7046.9,136.1 7049.2,136.4 C7065.3,138.7 7081.5,140.7 7097.6,143.2 C7112.7,145.5 7118.7,152.5 7117.3,167.5 C7115.5,186.3 7117.5,204.9 7120.3,223.4 C7122.6,238.7 7126.5,253.5 7135.7,266.6 C7139.1,271.5 7139.7,278.2 7141.9,284 C7144.2,290 7145.9,296.7 7149.7,301.8 C7156.4,311 7167.8,313.2 7177.3,308.4 C7187,303.5 7192,292.4 7188.7,281.7 C7187.2,276.8 7184.1,272.3 7181.7,267.7 C7179.2,262.7 7175.3,258 7174.4,252.8 C7170.6,232.2 7167.2,211.4 7164.8,190.6 C7163.9,182.6 7165.3,174.2 7166.8,166.2 C7167.8,160.9 7172.5,158.2 7177.1,158.7 C7182.2,159.2 7184.8,162.7 7185.7,167.1 C7186.5,170.9 7186.5,174.9 7186.6,178.9 C7186.8,197.7 7189,216.3 7194.8,234.2 C7196.8,240.3 7200.1,246.3 7204.1,251.4 C7208.2,256.6 7214.4,258.6 7221.2,256.2 C7228.2,253.8 7232.3,248.8 7232.5,241.5 C7232.6,236.3 7232,231 7230.8,226 C7227.6,212.8 7226,199.5 7226.4,186 C7226.5,181.9 7226.4,177.4 7232.7,174.7 C7233.9,179.1 7235.4,183 7235.8,187 C7236.6,194.1 7239.1,200.4 7243.8,205.7 C7249.5,212.1 7252.6,219.3 7253.8,227.8 C7254.4,231.9 7255.9,236.1 7258.2,239.6 C7261.1,244 7265.8,246 7271.2,244.9 C7276.5,243.9 7279.8,239.9 7281,233.8 C7282.2,227.8 7279.7,222.8 7276.7,218.1 C7270.7,208.6 7273,199.1 7277.2,189.9 C7279.3,185.3 7283.6,184.6 7286.7,188.6 C7289.8,192.7 7291.8,197.7 7293.9,202.4 C7295.2,205.4 7295.2,208.9 7296.5,211.9 C7298.9,217.8 7304.6,220.9 7309.9,219.6 C7315.4,218.2 7318.8,213.4 7318.2,206.7 C7317.9,202.8 7316.5,199 7316.2,195.1 C7315.3,185 7320.9,178.6 7331,178.2 C7335,178 7339,178.7 7343,178.8 C7354.3,179.2 7358.9,175.6 7360.8,164.8 C7361.5,160.9 7361.8,157 7361.8,153.1 C7361.9,131.4 7361.8,109.7 7361.9,88 C7362,59.1 7362.1,30.2 7362.2,1.3 C7468.9,1.3 7575.5,1.3 7682.2,1.3 C7682.2,18.7 7682.2,36 7682.2,52.8 C7694.3,57.4 7705.8,61.5 7717.2,66.1 C7728.9,70.8 7740.6,75.4 7752,80.9 C7772.5,90.8 7773,93.1 7767,115.5 C7761.8,134.9 7757.6,154.5 7758.5,174.7 C7759,186.5 7759.8,198.3 7760.4,210 C7761,221.2 7766.3,229.2 7776.7,233.9 C7780.9,235.8 7784.8,235.9 7789.1,233.9 C7801,228.2 7806.4,220.2 7804.1,206.9 C7801.7,193 7802.7,179.4 7804.7,165.8 C7806.5,153.8 7808.6,141.8 7811.3,130 C7812.4,125.4 7814.8,120.6 7818.1,117.2 C7824.1,111 7833.3,114.2 7834.4,122.7 C7835,127.5 7834.3,132.5 7833.5,137.3 C7832.3,144.4 7829.9,151.4 7829.3,158.5 C7828.4,168.6 7827.9,178.9 7828.8,188.9 C7829.7,198.5 7836.9,204.5 7845.1,204.6 C7853.4,204.8 7859.9,199.2 7862.1,189.5 C7863.1,185 7863.2,180.4 7864,175.9 C7865.6,167.2 7867.3,158.5 7869.4,149.9 C7870.2,146.6 7871.9,142.3 7876.5,143.1 C7881.5,144 7880,148.6 7880.3,152 C7881.6,166.7 7882.7,181.4 7884.1,196.1 C7884.3,198.3 7885.3,200.6 7886.5,202.5 C7891.8,210.8 7902.9,210.8 7907.8,202.3 C7909.4,199.6 7909.9,196.2 7910.4,193 C7911.2,188.1 7911,183.1 7912.1,178.3 C7913.6,172 7915.4,165.5 7922.7,163.5 C7927.7,165.5 7928.3,169.4 7928.7,173.4 C7929.2,178.3 7929.4,183.3 7930.1,188.1 C7931,194.2 7935.1,198.2 7940.2,198.8 C7945.7,199.5 7949.8,196.9 7952.3,190.7 C7953.4,188 7953.9,185 7954.8,182.2 C7957.8,172.3 7963.3,168.9 7973.6,171 C7977.5,171.8 7981.2,173.5 7985.1,174.3 C7993.6,176.1 7998.7,173 8000.4,164.6 C8001.3,160.1 8001.7,155.5 8001.8,150.9 C8001.9,130.5 8001.8,110.1 8001.9,89.8 C8002,60.2 8002.1,30.7 8002.2,1.1 C8129.5,1.1 8256.9,1.1 8384.2,1.1 C8384.9,7.4 8390.3,10.1 8394.5,13.4 C8402.3,19.5 8410.5,25.2 8418.6,30.9 C8436.8,43.8 8438.1,48.2 8427.6,67.5 C8415.4,89.8 8409.4,113.9 8404.3,138.3 C8403.9,140.2 8403.8,142.2 8403.9,144.2 C8404.3,154.1 8411,162.2 8420.2,164.1 C8428.9,165.8 8437.9,161.1 8442.1,152.1 C8443.9,148.3 8445,144.1 8445.9,139.9 C8449.6,122.4 8456.9,106.2 8465,90.4 C8466.5,87.5 8468.5,84.8 8470.7,82.4 C8475.5,77.1 8480.1,75.8 8484.7,78.2 C8489.7,80.8 8492.9,87.6 8491.1,93.4 C8489.6,98.4 8486.9,103 8485.2,108 C8481.7,117.9 8477.9,127.7 8475.4,137.8 C8473.2,146.7 8477.8,154.4 8485.2,157.1 C8492.3,159.7 8499.6,156.9 8504.4,148.8 C8507.6,143.5 8509.5,137.4 8512.3,131.8 C8514.8,126.8 8517.2,121.7 8520.5,117.3 C8521.9,115.4 8525.8,114 8528.2,114.4 C8532.2,115 8532.7,118.9 8532.2,122.3 C8531.5,127.5 8530.3,132.6 8529.3,137.8 C8527.9,145.5 8526.1,153.3 8525.4,161.1 C8524.8,167.6 8528.6,172.8 8533.5,174.6 C8539.2,176.6 8544.9,174.7 8549,168.7 C8551.6,164.9 8553.1,160.4 8555.5,156.5 C8557.7,152.9 8560.1,149.1 8563.3,146.5 C8567.5,143.1 8571.8,145.1 8572.6,150.5 C8573,153.4 8572.5,156.4 8572.4,159.3 C8572.3,162.9 8571.7,166.6 8572.3,170.1 C8573.9,178.9 8582.6,182 8589.7,176.4 C8592.3,174.4 8594.2,171.6 8596.5,169.2 C8602.9,162.4 8607.6,161.5 8616.1,165.3 C8619.7,166.9 8623.1,169.2 8626.9,170.4 C8634,172.7 8638.7,170.1 8640.2,162.8 C8641.3,157.4 8641.7,151.7 8641.7,146.2 C8641.8,101.5 8641.8,56.8 8641.8,12.1 C8641.8,8.5 8642,4.9 8642.1,1.3 C8796.1,1.3 8950.1,1.3 9104.1,1.3 C9105.5,13.2 9100.2,22.6 9093.6,32 C9084.8,44.7 9076.7,57.9 9068.8,71.2 C9066.2,75.6 9064.8,80.9 9063.9,86 C9062.8,92.2 9065,97.7 9070,101.8 C9077.8,108.3 9088.6,107.4 9095.7,98.8 C9100.5,93 9103.6,85.9 9107.9,79.7 C9114.4,70.6 9120.8,61.4 9128.2,53 C9133.4,47.2 9140,47 9145.3,50.5 C9151.6,54.6 9153.7,61.5 9149.9,68.7 C9146.7,74.8 9142.4,80.3 9139,86.3 C9136.3,91.1 9133.4,96.1 9131.9,101.3 C9129.8,108.7 9132.3,114.5 9137.7,117.7 C9143.1,121 9149.3,120.4 9155.1,115.2 C9159.2,111.5 9162.3,106.6 9166.1,102.5 C9169,99.4 9171.9,96.1 9175.5,93.9 C9177.6,92.7 9181.9,92.5 9183.6,93.9 C9185.7,95.6 9187.5,99.6 9187,102.2 C9186.3,106.6 9183.8,110.7 9182,115 C9179.8,120.1 9177.1,125.1 9175.5,130.4 C9173.2,137.9 9175.3,144 9180.3,147 C9185.5,150.1 9191.4,149 9197.4,143.4 C9201,140 9204.3,136.3 9207.8,132.8 C9210.4,130.1 9213.4,127.5 9217.4,129.8 C9221.3,132 9222,136 9221,140.2 C9220.2,143.4 9219.1,146.5 9218.6,149.7 C9216.9,160.5 9224.1,166.2 9234.3,162.2 C9236.1,161.5 9237.9,160.4 9239.6,159.5 C9246.4,155.6 9252.9,156.3 9259.2,160.8 C9261.3,162.4 9263.5,164 9265.8,165.3 C9273.7,169.7 9278.6,167.8 9280.3,159.1 C9281.3,154 9281.7,148.7 9281.8,143.4 C9282,128 9281.8,112.5 9281.9,97.1 C9282,65.2 9282.1,33.4 9282.2,1.5 C9440.9,1.5 9599.5,1.5 9758.2,1.5 C9754.1,7.8 9750.1,14.1 9746,20.3 C9742.2,26 9737.7,31.4 9734.4,37.4 C9730.5,44.7 9732.4,52.2 9738.3,57 C9743.9,61.6 9750.9,62 9757.7,57.5 C9761.8,54.8 9765.2,51 9768.9,47.7 C9775.8,41.5 9782.3,34.9 9789.6,29.3 C9797.7,23.1 9802.7,24 9809.1,31.7 C9814,37.6 9814.6,44.2 9810.2,50.8 C9808,54.1 9804.9,56.7 9802.5,59.8 C9799.4,63.7 9796.1,67.4 9793.8,71.7 C9790.6,77.8 9792,84.2 9796.3,88 C9800.1,91.3 9806.6,91.9 9812.2,88.8 C9815.6,86.9 9818.7,84.3 9821.9,81.9 C9823.5,80.7 9824.7,79 9826.3,78 C9830.1,75.7 9834.1,74.2 9838.5,76.7 C9842,78.7 9844,83.9 9842.3,89 C9841.1,92.6 9838.6,95.8 9836.5,99.2 C9834.1,103.1 9831.3,106.8 9829.3,110.9 C9827.1,115.4 9827.9,120 9831.4,123.7 C9835,127.4 9839.5,128.1 9844.3,126.2 C9847.3,125 9850.2,123.2 9853.1,121.7 C9855.4,120.5 9857.7,118.9 9860.2,118.2 C9866.7,116.5 9870.7,119.6 9870.5,126.1 C9870.4,129.3 9869.3,132.5 9868.5,135.7 C9865.6,147.9 9869.5,153 9881.8,151.5 C9890.8,150.4 9897.8,152.5 9904.6,158.5 C9914.1,166.8 9918.7,164.9 9920.5,152.4 C9921.3,146.9 9921.7,141.3 9921.7,135.7 C9921.8,110.7 9921.7,85.8 9921.8,60.8 C9921.8,41.1 9922,21.4 9922.1,1.7 C10082.8,1.7 10243.4,1.7 10404.1,1.7 C10404,5 10403.6,8.3 10403.9,11.5 C10404.8,23.8 10415.1,30.1 10426.6,24.9 C10431.4,22.7 10435.6,19.4 10440.1,16.5 C10444.3,13.8 10448.2,10.7 10452.5,8.2 C10456,6.1 10459.8,5.5 10463.8,7.9 C10475.1,14.7 10477.3,30.8 10468.2,40.3 C10465.2,43.4 10461.8,46.1 10459,49.3 C10454.5,54.7 10454.1,60.3 10457.4,64.7 C10460.4,68.7 10465.6,70.1 10471.9,68.2 C10475.7,67.1 10479.4,65.5 10483.1,64 C10487.6,62.2 10491.7,63.1 10495.1,66.4 C10498.9,70 10499.3,74.6 10497.2,79.1 C10495.8,82 10493.8,84.7 10491.9,87.3 C10490,90 10487.7,92.4 10486,95.2 C10483.6,99.1 10483.3,103.3 10486.1,107.2 C10488.9,111.1 10492.9,112.4 10497.5,111.6 C10501.1,111 10504.6,109.7 10508.2,109 C10516.7,107.4 10521.7,112.4 10520.2,120.8 C10519.6,124 10518.3,127.1 10517.6,130.3 C10516.1,137.6 10518.4,142.2 10525.6,143.6 C10534.7,145.4 10542.4,149.1 10549.3,155.2 C10554.3,159.6 10558.3,157.8 10560.1,151.2 C10560.5,149.6 10560.7,148 10560.8,146.3 C10561.3,136.8 10562,127.3 10562.1,117.8 C10562.3,79.1 10562.4,40.3 10562.5,1.6 C10752.5,1.6 10942.5,1.6 11132.5,1.6 C11132.6,4.5 11132.3,7.5 11132.9,10.4 C11134.8,19.3 11131.9,26.5 11125.3,32.6 C11123.4,34.4 11121.5,36.3 11120.1,38.5 C11115.3,46 11118.6,53.1 11127.6,54.3 C11129.9,54.6 11132.2,54.4 11134.6,54.3 C11141.1,54 11147.4,54 11150.9,60.9 C11154.1,67.2 11151.3,72.3 11147.5,77.1 C11145.7,79.4 11143.9,81.9 11142.4,84.4 C11137.7,92.4 11140.4,98.6 11149.4,100.6 C11152.6,101.3 11156,101.2 11159.3,101.8 C11166.6,103 11169.8,106.7 11169.1,114.1 C11168.8,117.3 11167.6,120.5 11166.9,123.7 C11165.8,129.2 11166.5,134.3 11171.8,137.6 C11178.2,141.6 11184.7,145.6 11191.4,149.4 C11195,151.4 11197.9,150.2 11199.2,146.3 C11200,144.2 11200.6,141.9 11200.8,139.6 C11201.4,130.1 11202.2,120.6 11202.2,111.1 C11202.5,74.7 11202.5,38.2 11202.6,1.8 C11398.6,1.8 11594.6,1.8 11790.6,1.8 C11791.9,10.4 11790.5,18.2 11784.1,24.6 C11783.2,25.5 11782.6,26.7 11781.9,27.9 C11776,37.3 11777.7,42.1 11788.1,45.7 C11790.3,46.5 11792.6,46.9 11794.8,47.8 C11803.9,51.7 11807,60.3 11802.6,68.9 C11801.7,70.6 11800.4,72.2 11799.4,73.9 C11792.2,85 11793.7,90 11805.6,95.3 C11816.8,100.3 11819,104.5 11816.5,116.2 C11813.7,129.1 11815.9,133.8 11827.6,140.1 C11835.4,144.3 11839.1,142.6 11840.8,133.9 C11841.1,132.6 11841.1,131.3 11841.2,130 C11841.7,117.5 11842.4,105.1 11842.5,92.6 C11842.8,62.4 11842.8,32.1 11842.9,1.9 C12043.6,1.9 12244.2,1.9 12444.9,1.9 C12446.7,7.7 12444.7,12.8 12441.9,17.7 C12433.7,32 12433.8,32.8 12447.2,43.2 C12455.3,49.5 12457.3,57.4 12453.2,66.8 C12452.4,68.6 12451.4,70.3 12450.6,72.1 C12446.8,80.2 12447.3,85.2 12454.3,90.3 C12463.8,97.2 12467.8,105.2 12463.1,116.6 C12462.4,118.3 12461.9,120.7 12462.5,122.4 C12463.9,126.3 12465.4,130.6 12468.1,133.5 C12472.4,138 12477.4,136.6 12479.5,130.6 C12480.6,127.6 12481.1,124.2 12481.2,121 C12481.8,94.5 12482.2,67.9 12482.6,41.4 C12482.8,28.3 12482.8,15.2 12482.9,2.1 C12687.6,2.1 12892.2,2.1 13096.9,2.1 C13098.4,8.4 13095.4,13.6 13092.8,18.9 C13089.4,25.9 13090,32.2 13095.3,38 C13096.9,39.7 13098.4,41.5 13099.7,43.3 C13104.5,49.9 13106,56.9 13102.7,64.6 C13101.7,67 13100.5,69.4 13099.7,71.9 C13098,76.8 13097.9,81.9 13101.5,85.9 C13105.6,90.5 13110.3,94.5 13116,100 C13118.1,94.7 13120.1,91.3 13120.7,87.7 C13121.6,81.9 13121.7,75.9 13121.8,70 C13122.2,47.4 13122.5,24.7 13122.9,2.1 C13331.6,2.1 13540.2,2.1 13748.9,2.1 C13747.4,6.7 13746.1,11.5 13744.3,16 C13739.2,28.9 13742.9,38.2 13755.9,44.7 C13760.5,38.6 13761,37.5 13761.1,29.6 C13760.4,19.3 13760.1,10.1 13760,1 Z M6639.6,258.9 C6639.1,265.7 6641.6,272 6649,275.8 C6654.8,278.7 6661.8,277.9 6665.6,273.9 C6669.5,269.7 6669.7,261.8 6665.9,256.5 C6662.4,251.5 6657.2,249.7 6651.5,248.6 C6642.4,246.9 6640,248.7 6639.6,258.9 Z M13755.2,64.2 C13747.8,68.5 13745.1,75.3 13748.7,80.8 C13749.6,82.2 13751.8,83.7 13753.3,83.7 C13754.8,83.7 13757.1,81.9 13757.5,80.5 C13759.1,74.9 13759.9,69.1 13755.2,64.2 Z M13114.6,110.3 C13109.5,113.5 13107.9,117.7 13109.8,122.9 C13110.2,124.1 13112.1,125.5 13113.4,125.6 C13114.7,125.6 13116.6,124.3 13117.1,123.1 C13118.8,118.6 13118.6,114.3 13114.6,110.3 Z" class="svg-fill" fill="#FFFFFF"></path>
            <path d="M3694,364 C2462.7,364 1231.3,364 0,364 C0,243 0,122 0,1 C323.3,1 646.7,1 970,1 C982.3,7.8 996,9.7 1009.6,10.9 C1016.3,11.5 1020.8,7.8 1022,1 C1218,1 1414,1 1610,1 C1614.5,2.8 1618.9,5.5 1623.6,6.4 C1658.8,12.7 1689.8,27.4 1717,50.1 C1719.5,52.2 1722.5,53.7 1725.5,55.1 C1729.5,57 1733.3,56.4 1736.5,53.3 C1740.1,49.7 1739.9,45.4 1737.4,41.6 C1735.3,38.3 1732.7,35.2 1729.7,32.7 C1721.6,26 1713,19.7 1704.9,13 C1700.4,9.3 1696.3,5 1692,1 C1719.3,1 1746.7,1 1774,1 C1780.9,9.7 1785.4,9.7 1792,1 C1942,1 2092,1 2242,1 C2241.9,14.8 2241.8,28.6 2241.7,42.4 C2241.7,51.6 2246,58 2254.5,61.7 C2256.9,62.8 2259.4,63.9 2261.5,65.4 C2270.5,71.7 2270.6,81.9 2261.8,88.4 C2258.9,90.5 2255.4,91.9 2252.5,94 C2247.7,97.5 2247.2,100.9 2250.5,105.8 C2251.4,107.2 2252.6,108.3 2253.7,109.6 C2262.5,119.8 2262.7,126.6 2252.3,134.6 C2240.6,143.6 2240.6,155.2 2242.5,167.6 C2243.5,174.2 2248.3,177.8 2254.9,178.6 C2269.7,180.4 2279.2,174.2 2283.2,160.2 C2283.5,159.3 2283.7,158.3 2284,157.3 C2287.2,147.5 2293.8,143.8 2303.9,146 C2307.3,146.7 2310.6,147.4 2315.9,148.4 C2314.2,142 2313.3,137.6 2311.8,133.4 C2309.8,127.8 2306.8,122.6 2305.2,117 C2301.9,105.7 2309.9,95.2 2321.7,95.9 C2326.7,96.2 2332,98.4 2336.3,101.1 C2340.1,103.5 2343.3,107.3 2345.6,111.2 C2350.8,120.3 2355.3,129.8 2360,139.2 C2362,143.1 2362.9,147.9 2368.7,148.8 C2371.6,143.8 2370.2,139.4 2368.5,135.1 C2353.4,97.8 2330.4,67.6 2290.9,52.5 C2287.5,51.2 2284,50 2280.9,48.1 C2277.8,46.3 2274.8,44 2272.5,41.3 C2268,36.1 2267.2,30 2270.2,23.8 C2272.9,18 2277.8,14.4 2284.2,14.3 C2289.1,14.2 2294.4,14.5 2298.9,16.3 C2309,20.4 2318.9,24.9 2328.4,30.2 C2369.1,53.1 2395.2,87.5 2408.9,131.4 C2410.3,135.7 2412.2,140 2414.7,143.9 C2416.9,147.3 2420.6,149.5 2425,148.2 C2429.6,146.8 2432.3,143.3 2432.1,138.6 C2431.9,133.7 2431.4,128.7 2429.9,124.1 C2418.7,88.9 2400.1,58.3 2371.6,34 C2363.1,26.7 2353.8,20.2 2345.2,13.1 C2340.6,9.4 2336.5,5.1 2332.2,1 C2359.5,1 2386.9,1 2414.2,1 C2417.3,6.3 2420,11.8 2423.5,16.7 C2432.1,28.8 2441.5,40.3 2449.7,52.6 C2463.3,73.1 2471.7,95.8 2478.4,119.3 C2483.9,138.5 2489.5,141.8 2509.6,138.3 C2521.1,136.3 2532.5,134.6 2544,132.7 C2549.8,131.7 2555.6,130.7 2562,129.5 C2562,125.1 2562,121.6 2562,118 C2562.1,78.9 2562.2,39.9 2562.3,0.8 C2669,0.8 2775.6,0.8 2882.3,0.8 C2882.2,55.7 2882,110.6 2882,165.5 C2882,179.2 2890.4,186.7 2902.3,191.9 C2913.3,196.8 2922.3,195.2 2929.9,186.1 C2930.3,185.6 2930.9,185.2 2931.4,184.8 C2939.5,178.5 2943.6,178.5 2951.6,185.1 C2954.8,187.8 2957.7,190.8 2960.8,193.6 C2967,188.5 2966.7,182 2968,176 C2968.9,171.5 2969.2,166.8 2970.9,162.6 C2975.1,152 2986.9,148.6 2996.4,155 C3001.6,158.4 3005.3,163.3 3006.2,169.3 C3007.2,176.1 3007.8,183 3007.4,189.8 C3006.9,198 3004.9,206 3003.8,214.2 C3003.4,217.5 3003.8,220.9 3003.9,225 C3010.9,221.1 3012.3,219.8 3013.7,212.3 C3018.8,186.5 3018.6,160.7 3011.2,135.2 C3007.2,121.4 2999.5,109.5 2991.5,97.8 C2987.3,91.6 2984.3,85.2 2985.6,77.5 C2987.4,67.1 2997.6,60.8 3007.2,65.5 C3012.9,68.3 3017.6,73.3 3022.2,77.9 C3025,80.6 3026.7,84.4 3028.8,87.7 C3045.4,113.1 3053.9,141.1 3056,171.1 C3057.4,190.9 3055.1,210.4 3049.8,229.6 C3048.7,233.7 3047.4,237.8 3046.6,242 C3045.3,249.2 3047.6,254.2 3052.6,256.2 C3057.4,258.1 3062.4,255.6 3066.1,248.9 C3067.5,246.3 3069,243.6 3069.6,240.8 C3072.5,226.7 3076.3,212.6 3077.7,198.3 C3081.1,162.6 3074.4,128.4 3059,95.8 C3055.8,89.1 3053.3,81.7 3052.3,74.4 C3050.9,64.5 3056.7,56 3065.5,52.2 C3075,48.1 3083.4,50.5 3090.2,57.3 C3094.4,61.4 3097.8,66.5 3100.4,71.7 C3115.1,101.2 3123.7,132.4 3125.9,165.2 C3128.2,199 3123.5,232 3112.4,264.1 C3107.1,279.6 3110.1,286.7 3124.8,293.6 C3145.3,303.1 3165.9,312.2 3186.6,321.3 C3191,323.3 3195.9,324.3 3201.8,326.2 C3201.8,321.4 3201.8,317.9 3201.8,314.4 C3201.8,213.8 3201.8,113.2 3201.8,12.6 C3201.8,8.7 3202,4.7 3202.1,0.8 C3308.8,0.8 3415.4,0.8 3522.1,0.8 C3522,3.8 3521.8,6.7 3521.8,9.7 C3521.8,61 3522,112.2 3521.6,163.5 C3521.5,177.6 3525.8,189.7 3533.8,201.2 C3540.3,210.5 3548.1,214 3559.4,211.3 C3571,208.5 3577.7,213.4 3580.2,225 C3580.9,228.1 3581.7,231.1 3582.9,236.2 C3588.3,231.6 3592.3,228.4 3596,224.9 C3599.3,221.7 3602,217.8 3605.5,214.8 C3616.7,205.1 3631.3,210.1 3634.4,224.6 C3635.9,231.7 3635,238.6 3630.9,244.5 C3624.3,253.9 3617,262.9 3610,272 C3608,274.6 3605.6,276.9 3603.8,279.7 C3602.1,282.3 3602.7,284.7 3607,286.5 C3611.1,283.1 3616.1,279.7 3620,275.4 C3646.8,245.9 3662.3,212.1 3659.6,171.5 C3659.3,167 3659.4,162.2 3660.4,157.8 C3661.9,151 3666.1,145.9 3673.5,144.6 C3680.8,143.3 3687.6,146.1 3691.1,153 C3693.5,157.9 3695.2,163.5 3695.7,168.9 C3698,194.5 3694.5,219.4 3685.4,243.4 C3675,270.9 3659.3,295 3636.7,314.5 C3633.2,317.5 3629.9,320.9 3627.4,324.7 C3624.4,329.1 3625.4,335.1 3628.9,338.3 C3632.1,341.3 3637,341.4 3641.8,338.2 C3645.4,335.8 3648.7,333.1 3651.9,330.2 C3688.3,298.4 3708.8,258.2 3716.5,211.1 C3718.1,201.4 3719.7,191.6 3723,182.5 C3726,174.1 3733.4,169.9 3742.7,170.1 C3751.9,170.2 3759.1,174.2 3762.1,182.9 C3764.2,189 3766.1,195.7 3765.6,202 C3762.8,236.7 3753.8,270 3736.2,300.3 C3726.3,317.3 3713.7,332.8 3702.4,349 C3698.8,353.6 3693.5,357.3 3694,364 Z M1608.9,86.5 C1602.7,92.4 1602,98.3 1601.9,104.2 C1601.7,120.9 1601.7,137.7 1601.9,154.4 C1601.9,157.6 1602.8,160.9 1604,163.9 C1605.8,168.2 1609.4,169.4 1613.9,168 C1623.5,165 1629,154.9 1626.1,145.4 C1625.4,143.2 1624.5,141.1 1623.8,138.9 C1620.4,128.7 1623.5,121.8 1633.5,117.4 C1636.7,116 1640.1,114.8 1644.4,113.1 C1634.9,99.6 1620.1,95.8 1608.9,86.5 Z M1607.8,72 C1609.4,71.8 1610.2,71.9 1610.7,71.7 C1612.2,71 1613.7,70.2 1615,69.2 C1626.8,60 1639.4,59.4 1652.3,66.3 C1660.7,70.8 1668.6,76.3 1676.8,81.2 C1680.7,83.5 1684.3,87.9 1690,84.8 C1690,78.3 1685.8,75.1 1681.5,71.9 C1664.5,59.2 1644.8,52.2 1624.6,46.6 C1621.5,45.7 1618,45.7 1614.7,46 C1608.8,46.5 1605,49.9 1603.6,55.6 C1601.9,61.6 1602.9,67.1 1607.8,72 Z M993.6,54 C985.5,46.6 979.9,46.1 974.3,51.8 C981.3,58.2 985.5,58.8 993.6,54 Z" fill="none"></path>
            <path d="M6082,1 C6188.7,1 6295.3,1 6402,1 C6401.9,2.6 6401.7,4.3 6401.7,5.9 C6401.7,75.5 6401.7,145.2 6401.7,214.8 C6401.7,217 6402.1,219.2 6402.4,222 C6412.2,220.9 6421.4,220 6430.6,218.9 C6440.8,217.7 6451,216.1 6461.3,215.4 C6472,214.7 6477.3,218.6 6480.7,228.6 C6481.4,230.8 6481.8,233 6482.4,235.3 C6489.7,265.2 6500.8,293.5 6518.3,319.1 C6525.3,329.3 6533.2,338.3 6545.3,343.1 C6551.5,345.6 6555.4,350.4 6556.4,357.2 C6556.7,359.5 6557.5,361.7 6558,363.9 C6368.7,363.9 6179.3,363.9 5990,363.9 C5987.2,357.1 5981,353.6 5975.6,349.3 C5965.2,341.1 5954.4,333.3 5945,324.1 C5935.2,314.4 5926.6,303.3 5918.1,292.4 C5914.7,288.1 5912.4,282.7 5910.4,277.6 C5908.2,271.8 5910.1,266.8 5914.2,264.6 C5919.1,262 5923.4,263.9 5926.8,267.4 C5929.6,270.2 5931.8,273.5 5934.2,276.7 C5939.5,283.8 5944.3,291.4 5950,298.2 C5964.9,315.9 5983.9,328.7 6003.9,340 C6008.5,342.6 6013.7,344.3 6018.8,345.6 C6028.3,348.1 6036.6,344.7 6040.2,337.4 C6044.5,328.9 6042.2,320.3 6033.7,314 C6030.3,311.5 6026.4,309.4 6022.5,307.7 C5999.6,297.7 5985.1,278.8 5970.4,260 C5969.2,258.5 5968.2,256.6 5967.9,254.7 C5967.6,252.8 5968.3,250.7 5968.8,246.4 C5973.4,250.7 5976.5,253.4 5979.4,256.4 C5983.3,260.5 5986.7,265 5990.7,268.9 C5995.1,273.2 6000.5,275.7 6006.7,276 C6020.4,276.7 6028.6,266.3 6024.4,253.4 C6023,249 6020.5,245 6019.1,240.7 C6018.1,237.6 6017.9,234.1 6017.3,230.2 C6022.7,230 6026.7,230 6030.6,229.6 C6040.1,228.6 6045.1,224.7 6045.2,215.3 C6045.4,202.8 6051.8,195.9 6062.4,191.3 C6064.2,190.5 6065.9,189.5 6067.7,188.5 C6074.9,184.6 6079.2,178.6 6080.3,170.6 C6080.9,166.1 6081.5,161.5 6081.6,156.9 C6081.7,132.2 6081.6,107.6 6081.7,82.9 C6081.7,55.6 6081.9,28.3 6082,1 Z M6058.6,299.2 C6067.3,299.4 6073.4,294.4 6073.7,286.9 C6074.1,278.8 6066.6,271.5 6057.8,271.2 C6049,270.9 6042.2,276.6 6042.1,284.2 C6042,292.7 6049.1,299.1 6058.6,299.2 Z M6055.4,239.9 C6055.2,246.6 6060.4,252.2 6066.8,252.2 C6072.7,252.2 6077.7,247.6 6077.9,241.9 C6078.1,235.4 6072.9,230 6066.3,229.9 C6059.7,229.8 6055.6,233.6 6055.4,239.9 Z" class="svg-fill" fill="#FFFFFF"></path>
            <path d="M3842,1 C3948.7,1 4055.3,1 4162,1 C4161.9,2.6 4161.7,4.3 4161.7,5.9 C4161.7,64.4 4161.6,122.9 4161.8,181.5 C4161.8,189.7 4163.1,197.9 4163.4,206 C4163.9,216.7 4169.3,223.2 4179.7,225.5 C4191.1,228 4195.4,238.1 4191.7,249.4 C4190.8,252.1 4190.1,254.8 4188.9,259 C4193.3,258.6 4196.2,258.8 4198.9,258.1 C4204.3,256.6 4209.6,254.7 4215,253 C4224.6,250 4232,251.6 4236.8,257.6 C4241.7,263.7 4241.9,272.8 4236.1,280.5 C4232.6,285.1 4228.3,289.8 4223.2,292.4 C4213.5,297.4 4203,300.8 4192.9,305 C4189.2,306.5 4184.3,306.8 4183.7,313.8 C4188,313.8 4191.9,314.6 4195.4,313.7 C4225.4,305.6 4251.3,290.8 4270.5,266.2 C4277.8,256.9 4283.1,246.1 4289.3,236.1 C4290.7,233.9 4291.7,231.4 4293.4,229.4 C4298.6,223.2 4305.7,220.9 4312,223 C4319.2,225.4 4323.8,231.3 4323.6,239.6 C4323.5,244.4 4322.6,249.6 4320.4,253.8 C4313.8,266.3 4307.6,279.2 4299,290.4 C4278,317.7 4250.5,337 4217.7,348.6 C4209.3,351.6 4200.4,353.5 4192,356.5 C4188.1,357.9 4182.4,357.9 4181.8,364.1 C4068.5,364.1 3955.1,364.1 3841.8,364.1 C3841.7,361.5 3841.5,358.9 3841.5,356.2 C3841.5,240.4 3841.5,124.7 3841.5,8.9 C3841.7,6.2 3841.9,3.6 3842,1 Z" fill="none"></path>
            <path d="M5442,1 C5548.7,1 5655.3,1 5762,1 C5761.9,2 5761.7,3 5761.7,3.9 C5761.7,110.3 5761.7,216.7 5761.7,323.1 C5761.7,324.9 5762.2,326.6 5762.7,329.6 C5769.5,327 5775.4,325.1 5781.1,322.6 C5800.5,313.9 5819.7,304.9 5839,296.2 C5853.9,289.5 5860.1,291.7 5869.2,304.8 C5879.9,320.2 5891.2,335.2 5902.1,350.5 C5905.1,354.7 5907.4,359.5 5910,364 C5723.3,364 5536.7,364 5350,364 C5347.8,361 5346.1,357.4 5343.3,355.1 C5338.2,350.9 5332.3,347.6 5327.2,343.5 C5322.4,339.6 5317.7,335.2 5313.6,330.5 C5309.9,326.2 5310,321.1 5312.7,317.8 C5315.3,314.6 5320.5,313.4 5325.5,315.8 C5329.7,317.8 5333.5,320.5 5337.3,323.1 C5351,332.3 5364.7,341.8 5380.6,347.2 C5401.7,354.4 5423,360.9 5445.8,360.2 C5453.9,360 5461.7,358.5 5468.7,354.3 C5476.3,349.6 5479.7,342 5477.9,334.1 C5476.3,327.3 5469.5,321.7 5461,320.9 C5456.7,320.5 5452.3,320.5 5448,320.8 C5417.6,322.6 5391.4,311.1 5366.4,295.9 C5363.6,294.2 5361.1,291.8 5359.2,289.2 C5358.1,287.8 5358.5,285.3 5358,281.1 C5362.7,283.2 5365.6,284.3 5368.2,285.7 C5375.4,289.7 5382.4,294.3 5389.9,297.8 C5394.3,299.8 5399.5,301 5404.3,300.8 C5412.3,300.5 5419.1,296.9 5422.4,289.1 C5425.4,282.1 5423.4,275.1 5416.5,268.8 C5413.3,265.9 5409.6,263.6 5406.5,260.6 C5404,258.3 5402.1,255.4 5400.2,253 C5401.4,251.4 5401.6,250.7 5402.2,250.4 C5403.6,249.6 5405.1,248.7 5406.6,248.2 C5420.1,243.9 5422.6,235.1 5418.7,223.6 C5415.3,213.6 5417.7,205.3 5425.4,198.7 C5438.3,187.5 5441.7,173.2 5441.6,157 C5441.3,123.8 5441.5,90.6 5441.5,57.4 C5441.7,38.5 5441.9,19.7 5442,1 Z M5469.4,298.2 C5479,298.5 5487.8,291.4 5488.2,283.1 C5488.6,275.1 5482.8,269.5 5473.8,269.2 C5463.9,268.9 5455.9,275.7 5455.8,284.7 C5455.6,292.4 5461.1,297.9 5469.4,298.2 Z M5457.6,229.6 C5451.2,229.8 5446,235.5 5446.3,241.9 C5446.6,247.5 5451.6,251.9 5457.7,251.9 C5464.1,251.9 5469,247 5468.8,240.7 C5468.6,234 5464.1,229.5 5457.6,229.6 Z" class="svg-fill" fill="#FFFFFF"></path>
            <path d="M4482,1 C4588.7,1 4695.3,1 4802,1 C4801.9,4.6 4801.7,8.2 4801.7,11.8 C4801.7,61.1 4801.7,110.4 4801.7,159.6 C4801.7,173.5 4800.1,187.1 4794.3,200 C4793,203 4792.3,206.2 4791.2,209.3 C4789.1,215.5 4790.8,220.9 4795,225.7 C4796.3,227.2 4797.8,228.5 4799.1,230 C4806.2,238.4 4806.1,246.4 4798.8,254.7 C4796.7,257.1 4794.6,259.4 4791.4,263.1 C4796.5,265 4800,266.6 4803.7,267.5 C4808.5,268.7 4813.5,269.2 4818.3,270.5 C4825.2,272.4 4830.3,276.4 4831.7,283.6 C4833.2,291.4 4830.5,298.4 4823.7,302.4 C4818.5,305.5 4812.1,308.1 4806.2,308.3 C4795.6,308.7 4785,307.1 4774.4,306.2 C4770.8,305.9 4767.2,305.1 4764.8,309.1 C4767.9,314.9 4773.6,315.3 4778.6,316.2 C4797.5,319.7 4816.4,318.5 4835.2,315.6 C4850.6,313.2 4864.1,306.2 4877.3,298.3 C4882.1,295.4 4887.2,292.7 4892.5,291.1 C4900.1,288.9 4907.1,291.8 4911,297.5 C4914.9,303.2 4915,310.7 4910,316.8 C4906.5,321.1 4902.1,324.8 4897.6,328.1 C4874.9,344.7 4848.8,352.9 4821.4,358.2 C4808.2,360.8 4794.9,361 4781.7,358.2 C4772,356.1 4762.3,353.6 4752.5,351.6 C4740.4,349.1 4736,351.9 4731.7,363.9 C4648.4,363.9 4565,363.9 4481.7,363.9 C4481.6,361.3 4481.4,358.7 4481.4,356 C4481.4,240.2 4481.4,124.5 4481.4,8.7 C4481.7,6.2 4481.9,3.6 4482,1 Z" fill="none"></path>
            <path d="M5442,1 C5441.9,19.7 5441.7,38.5 5441.7,57.2 C5441.6,90.4 5441.5,123.6 5441.8,156.8 C5441.9,172.9 5438.5,187.3 5425.6,198.5 C5417.9,205.2 5415.5,213.5 5418.9,223.4 C5422.8,234.9 5420.3,243.8 5406.8,248 C5405.2,248.5 5403.8,249.4 5402.4,250.2 C5401.9,250.5 5401.6,251.2 5400.4,252.8 C5402.3,255.2 5404.3,258 5406.7,260.4 C5409.8,263.3 5413.5,265.6 5416.7,268.6 C5423.6,274.9 5425.6,281.9 5422.6,288.9 C5419.3,296.7 5412.5,300.3 5404.5,300.6 C5399.7,300.8 5394.4,299.6 5390.1,297.6 C5382.6,294.2 5375.7,289.5 5368.4,285.5 C5365.7,284 5362.8,283 5358.2,280.9 C5358.7,285.1 5358.3,287.6 5359.4,289 C5361.3,291.6 5363.8,294 5366.6,295.7 C5391.6,311 5417.8,322.4 5448.2,320.6 C5452.5,320.3 5456.9,320.3 5461.2,320.7 C5469.6,321.5 5476.5,327.1 5478.1,333.9 C5479.9,341.7 5476.6,349.4 5468.9,354.1 C5461.9,358.4 5454.1,359.8 5446,360 C5423.3,360.7 5402,354.2 5380.8,347 C5364.9,341.6 5351.2,332.2 5337.5,322.9 C5333.7,320.3 5329.9,317.6 5325.7,315.6 C5320.7,313.2 5315.5,314.4 5312.9,317.6 C5310.2,321 5310.1,326 5313.8,330.3 C5317.9,335 5322.5,339.3 5327.4,343.3 C5332.5,347.5 5338.4,350.7 5343.5,354.9 C5346.3,357.2 5348,360.8 5350.2,363.8 C5274.2,363.8 5198.2,363.8 5122.2,363.8 C5122.1,361.2 5121.9,358.6 5121.9,355.9 C5121.9,240.1 5121.9,124.4 5121.9,8.6 C5121.9,6 5122.1,3.4 5122.2,0.7 C5228.7,1 5335.3,1 5442,1 Z" fill="none"></path>
            <path d="M5122,1 C5121.9,3.6 5121.7,6.2 5121.7,8.9 C5121.7,124.7 5121.7,240.4 5121.7,356.2 C5121.7,358.8 5121.9,361.4 5122,364.1 C5053.3,364.1 4984.7,364.1 4916,364.1 C4915.3,362.8 4914.8,361 4913.7,360.2 C4906.6,355.4 4899.4,356.8 4892,364.1 C4838.7,364.1 4785.3,364.1 4732,364.1 C4736.3,352.1 4740.7,349.3 4752.8,351.8 C4762.6,353.8 4772.2,356.3 4782,358.4 C4795.2,361.2 4808.4,360.9 4821.7,358.4 C4849,353.1 4875.2,344.9 4897.9,328.3 C4902.4,325 4906.8,321.3 4910.3,317 C4915.3,310.9 4915.2,303.5 4911.3,297.7 C4907.4,292 4900.4,289.1 4892.8,291.3 C4887.5,292.8 4882.4,295.6 4877.6,298.5 C4864.4,306.4 4850.9,313.4 4835.5,315.8 C4816.7,318.7 4797.7,319.9 4778.9,316.4 C4774,315.5 4768.2,315.1 4765.1,309.3 C4767.6,305.4 4771.2,306.1 4774.7,306.4 C4785.3,307.3 4795.9,308.8 4806.5,308.5 C4812.4,308.3 4818.8,305.7 4824,302.6 C4830.8,298.6 4833.4,291.6 4832,283.8 C4830.6,276.6 4825.5,272.5 4818.6,270.7 C4813.8,269.4 4808.8,269 4804,267.7 C4800.3,266.7 4796.8,265.1 4791.7,263.3 C4794.9,259.7 4797,257.3 4799.1,254.9 C4806.4,246.6 4806.5,238.6 4799.4,230.2 C4798.1,228.7 4796.6,227.4 4795.3,225.9 C4791.1,221.1 4789.4,215.7 4791.5,209.5 C4792.6,206.4 4793.3,203.1 4794.6,200.2 C4800.4,187.3 4802,173.7 4802,159.8 C4802,110.5 4802,61.2 4802,12 C4802,8.4 4802.2,4.8 4802.3,1.2 C4908.7,1 5015.3,1 5122,1 Z M4973.1,299.4 C4960,299.8 4944.6,315.1 4943.8,328.8 C4943.2,338.5 4946.6,346.2 4955.3,351.2 C4964.2,356.3 4972.6,354.3 4980.4,348.6 C4988,343.1 4992.7,335.7 4995.1,326.9 C4998.8,312.9 4987.5,299 4973.1,299.4 Z M4877,268.8 C4886.9,268.9 4897.4,256.8 4895.7,247.2 C4894.6,241.2 4889.4,236.9 4883,236.9 C4873.1,236.9 4863.9,246.4 4864.3,256.2 C4864.6,263.4 4870.1,268.8 4877,268.8 Z M4857,223.6 C4857.1,217.8 4852.4,212.6 4846.8,212.3 C4840.6,211.9 4834.5,217.5 4834.3,223.8 C4834.1,229.7 4839.5,235.7 4845,235.8 C4850.8,235.9 4856.9,229.6 4857,223.6 Z" class="svg-fill" fill="#FFFFFF"></path>
            <path d="M5910,364 C5907.4,359.5 5905.1,354.7 5902.1,350.5 C5891.3,335.2 5879.9,320.2 5869.2,304.8 C5860.1,291.7 5853.8,289.6 5839,296.2 C5819.6,304.9 5800.4,313.9 5781.1,322.6 C5775.4,325.1 5769.5,327.1 5762.7,329.6 C5762.2,326.6 5761.7,324.9 5761.7,323.1 C5761.7,216.7 5761.7,110.3 5761.7,3.9 C5761.7,2.9 5761.9,1.9 5762,1 C5868.7,1 5975.3,1 6082,1 C6081.9,28.3 6081.7,55.6 6081.7,82.8 C6081.6,107.5 6081.8,132.1 6081.6,156.8 C6081.6,161.4 6081,166 6080.3,170.5 C6079.2,178.5 6074.9,184.5 6067.7,188.4 C6066,189.3 6064.2,190.4 6062.4,191.2 C6051.8,195.8 6045.4,202.7 6045.2,215.2 C6045.1,224.6 6040.2,228.5 6030.6,229.5 C6026.7,229.9 6022.7,229.9 6017.3,230.1 C6017.9,234.1 6018.1,237.5 6019.1,240.6 C6020.5,245 6023,249 6024.4,253.3 C6028.6,266.2 6020.4,276.5 6006.7,275.9 C6000.4,275.6 5995,273 5990.7,268.8 C5986.7,264.9 5983.3,260.4 5979.4,256.3 C5976.6,253.3 5973.4,250.6 5968.8,246.3 C5968.3,250.7 5967.6,252.7 5967.9,254.6 C5968.2,256.5 5969.2,258.4 5970.4,259.9 C5985,278.7 5999.6,297.6 6022.5,307.6 C6026.4,309.3 6030.3,311.4 6033.7,313.9 C6042.3,320.2 6044.5,328.8 6040.2,337.3 C6036.5,344.6 6028.3,347.9 6018.8,345.5 C6013.7,344.2 6008.5,342.4 6003.9,339.9 C5983.9,328.6 5964.9,315.8 5950,298.1 C5944.3,291.3 5939.5,283.8 5934.2,276.6 C5931.8,273.4 5929.6,270.1 5926.8,267.3 C5923.3,263.9 5919.1,261.9 5914.2,264.5 C5910,266.7 5908.2,271.8 5910.4,277.5 C5912.4,282.7 5914.7,288 5918.1,292.3 C5926.6,303.2 5935.2,314.2 5945,324 C5954.3,333.2 5965.2,341 5975.6,349.2 C5981,353.5 5987.2,357 5990,363.8 C5963.3,364 5936.7,364 5910,364 Z" fill="none"></path>
            <path d="M4482,1 C4481.9,3.6 4481.7,6.2 4481.7,8.9 C4481.7,124.7 4481.7,240.4 4481.7,356.2 C4481.7,358.8 4481.9,361.4 4482,364.1 C4432.7,364.1 4383.3,364.1 4334,364.1 C4333.4,358.2 4337.8,354.5 4340.8,350.4 C4347.5,341.4 4354.9,332.9 4361.2,323.7 C4365.2,317.8 4368.6,311.2 4370.8,304.4 C4373.7,295.4 4367.8,283.5 4359.6,279.2 C4350.8,274.6 4339.1,276.6 4332.2,284.2 C4329.3,287.4 4326.6,290.7 4324.1,294.2 C4307.6,316.9 4287.6,335.9 4264.4,351.7 C4259.7,354.9 4256.1,359.9 4252,364 C4228.7,364 4205.3,364 4182,364 C4182.5,357.8 4188.2,357.8 4192.2,356.4 C4200.6,353.4 4209.5,351.5 4217.9,348.5 C4250.7,336.9 4278.2,317.6 4299.2,290.3 C4307.8,279.2 4314,266.2 4320.6,253.7 C4322.8,249.5 4323.7,244.3 4323.8,239.5 C4324,231.2 4319.4,225.3 4312.2,222.9 C4305.9,220.8 4298.8,223.2 4293.6,229.3 C4291.9,231.3 4290.9,233.8 4289.5,236 C4283.3,246.1 4278,256.8 4270.7,266.1 C4251.5,290.7 4225.6,305.4 4195.6,313.6 C4192.1,314.5 4188.2,313.7 4183.9,313.7 C4184.4,306.7 4189.4,306.4 4193.1,304.9 C4203.2,300.7 4213.7,297.3 4223.4,292.3 C4228.5,289.7 4232.8,285 4236.3,280.4 C4242.1,272.7 4241.9,263.7 4237,257.5 C4232.2,251.4 4224.8,249.9 4215.2,252.9 C4209.8,254.6 4204.5,256.6 4199.1,258 C4196.4,258.7 4193.5,258.5 4189.1,258.9 C4190.3,254.6 4191,251.9 4191.9,249.3 C4195.7,238 4191.4,228 4179.9,225.4 C4169.5,223.1 4164.1,216.6 4163.6,205.9 C4163.3,197.7 4162,189.5 4162,181.4 C4161.9,122.9 4161.9,64.4 4161.9,5.8 C4161.9,4.2 4162.1,2.5 4162.2,0.9 C4268.7,1 4375.3,1 4482,1 Z M4405,212.7 C4404.5,212.5 4404.1,212.4 4403.6,212.2 C4403.6,210.9 4403.7,209.6 4403.6,208.3 C4402.4,197 4394.1,187.9 4383.9,186.6 C4373.8,185.3 4364.1,191.2 4359.7,201.7 C4355.7,211.4 4354.7,221.2 4359.3,231.2 C4363,239.2 4369,243.5 4377.7,244 C4386.8,244.5 4394.2,241.1 4398,232.7 C4400.8,226.3 4402.7,219.4 4405,212.7 Z M4279.6,200.6 C4279.7,191.4 4275.4,185 4268.8,183.4 C4262.9,181.9 4256.3,185.6 4252.9,192.5 C4251.7,194.8 4250.8,197.4 4250.4,199.9 C4249.2,207.6 4254.6,216.2 4261.3,217.8 C4268.1,219.5 4275,215 4277.9,206.9 C4278.9,204.4 4279.3,201.8 4279.6,200.6 Z M4232.1,194.5 C4232.1,188.4 4226.8,182.8 4220.9,182.9 C4215,183 4209.9,188.4 4209.8,194.7 C4209.7,201.2 4214.8,206.4 4220.9,206.2 C4227,205.9 4232.1,200.5 4232.1,194.5 Z" class="svg-fill" fill="#FFFFFF"></path>
            <path d="M6558,364 C6557.4,361.8 6556.7,359.6 6556.4,357.3 C6555.4,350.5 6551.6,345.7 6545.3,343.2 C6533.3,338.4 6525.3,329.3 6518.3,319.2 C6500.7,293.6 6489.6,265.3 6482.4,235.4 C6481.9,233.2 6481.5,230.9 6480.7,228.7 C6477.2,218.7 6472,214.8 6461.3,215.5 C6451,216.2 6440.8,217.8 6430.6,219 C6421.4,220 6412.2,221 6402.4,222.1 C6402.1,219.3 6401.7,217.1 6401.7,214.9 C6401.7,145.3 6401.7,75.6 6401.7,6 C6401.7,4.4 6401.9,2.7 6402,1.1 C6508.7,1.1 6615.3,1.1 6722,1.1 C6721.9,28.7 6721.8,56.3 6721.7,83.9 C6721.6,107.2 6721.7,130.5 6721.7,153.9 C6721.7,156.9 6721.8,159.8 6721.5,162.8 C6720,176.9 6714.9,182.3 6700.8,185.2 C6697.5,185.9 6694.2,186.4 6691.1,187.4 C6683,190 6678.7,195.7 6677.6,204 C6677,208.8 6678.4,212.2 6682.5,214.9 C6685.5,216.9 6688.4,219.2 6690.8,221.9 C6694.2,225.9 6693.6,230.6 6691.4,234.9 C6689.5,238.7 6685.7,240.4 6681.3,239.9 C6676.6,239.4 6673.4,236.8 6672,232.2 C6671.5,230.3 6670.7,228.5 6670.3,226.5 C6667.7,214.5 6658.7,208.1 6644.2,208.8 C6643.9,212.1 6643.5,215.6 6643.2,219.1 C6642.5,225.9 6642.1,232.8 6641.2,239.6 C6640.6,244.2 6637.6,246.2 6632.8,246 C6621.5,245.6 6611.8,242.3 6606.5,231.5 C6604.3,227.1 6602.6,222.4 6600.3,218.1 C6598.9,215.5 6596.8,213.4 6594.5,210.4 C6590.2,215.1 6591.3,219.1 6592.4,222.7 C6597.7,240.4 6604.4,257.4 6616.2,272.2 C6620,276.9 6622.7,282.8 6624.7,288.5 C6626.8,294.6 6624.2,300.2 6619.3,304.3 C6614,308.7 6607.8,309.4 6601.6,306.5 C6592.2,302.1 6586,294.4 6580.4,286.1 C6567.5,267.2 6557.2,247.1 6552,224.7 C6551.2,221.3 6549.6,217.9 6547.7,214.8 C6545.3,210.8 6541.6,208.6 6536.7,209.9 C6531.9,211.2 6529.4,214.9 6529.9,219.5 C6530.6,226.3 6531.4,233.2 6533.2,239.8 C6538.5,258.9 6548,276.2 6558.2,293.2 C6562.4,300.2 6566.7,307.4 6569.8,314.9 C6572.9,322.4 6577.7,327.6 6585.3,330.5 C6600.8,336.5 6608.9,347.9 6610.1,364.2 C6592.7,364 6575.3,364 6558,364 Z" fill="none"></path>
            <path d="M3842,1 C3841.9,3.6 3841.7,6.2 3841.7,8.9 C3841.7,124.7 3841.7,240.4 3841.7,356.2 C3841.7,358.8 3841.9,361.4 3842,364.1 C3792.7,364.1 3743.3,364.1 3694,364.1 C3693.5,357.4 3698.8,353.7 3702.2,348.9 C3713.5,332.7 3726.1,317.2 3736,300.2 C3753.6,269.9 3762.6,236.6 3765.4,201.9 C3765.9,195.6 3764,188.9 3761.9,182.8 C3758.9,174.1 3751.7,170.2 3742.5,170 C3733.2,169.9 3725.8,174 3722.8,182.4 C3719.6,191.6 3717.9,201.4 3716.3,211 C3708.6,258 3688.2,298.2 3651.7,330.1 C3648.5,332.9 3645.1,335.7 3641.6,338.1 C3636.9,341.3 3631.9,341.2 3628.7,338.2 C3625.2,335 3624.2,329 3627.2,324.6 C3629.8,320.8 3633.1,317.4 3636.5,314.4 C3659.1,294.9 3674.8,270.8 3685.2,243.3 C3694.2,219.3 3697.8,194.3 3695.5,168.8 C3695,163.4 3693.3,157.8 3690.9,152.9 C3687.5,146 3680.6,143.2 3673.3,144.5 C3665.8,145.8 3661.7,150.9 3660.2,157.7 C3659.2,162.1 3659.1,166.9 3659.4,171.4 C3662.1,212 3646.6,245.8 3619.8,275.3 C3615.9,279.6 3610.9,282.9 3606.8,286.4 C3602.5,284.6 3601.9,282.2 3603.6,279.6 C3605.4,276.9 3607.8,274.5 3609.8,271.9 C3616.8,262.8 3624.1,253.8 3630.7,244.4 C3634.8,238.5 3635.7,231.6 3634.2,224.5 C3631.2,210.1 3616.5,205 3605.3,214.7 C3601.8,217.7 3599.2,221.6 3595.8,224.8 C3592.1,228.3 3588,231.5 3582.7,236.1 C3581.5,231 3580.6,228 3580,224.9 C3577.5,213.3 3570.8,208.4 3559.2,211.2 C3547.9,213.9 3540.1,210.4 3533.6,201.1 C3525.6,189.6 3521.3,177.6 3521.4,163.4 C3521.8,112.1 3521.5,60.9 3521.6,9.6 C3521.6,6.6 3521.8,3.7 3521.9,0.7 C3628.7,1 3735.3,1 3842,1 Z M3752.7,108.7 C3752.7,97.3 3746.5,84.4 3736.9,78.3 C3733.3,76 3728.2,74.9 3723.8,75.1 C3713.6,75.5 3704.3,85.5 3703.9,96.3 C3703.4,111.2 3709.5,123 3722.6,130.9 C3727.2,133.6 3732.2,133.6 3737,131.7 C3746.6,128.1 3752.7,119 3752.7,108.7 Z M3635.7,150.1 C3635.1,142.1 3631.6,135.4 3624.2,130.9 C3620.4,128.5 3616.9,128.8 3613.2,131.4 C3603.7,138.1 3603.4,152.1 3612.7,160.4 C3616.9,164.1 3621.7,166.3 3627.2,163.8 C3633.1,161.3 3635.5,156.4 3635.7,150.1 Z M3579.6,174.8 C3586,174.7 3590.4,169.9 3590.3,163.2 C3590.1,156.8 3585.3,152.1 3578.8,152.1 C3572.5,152.1 3567.7,157.3 3568,163.7 C3568.4,170.1 3573.4,174.9 3579.6,174.8 Z" class="svg-fill" fill="#FFFFFF"></path>
            <path d="M7362,1 C7361.9,29.9 7361.8,58.8 7361.7,87.7 C7361.6,109.4 7361.7,131.1 7361.6,152.8 C7361.6,156.7 7361.3,160.7 7360.6,164.5 C7358.7,175.3 7354.1,178.9 7342.8,178.5 C7338.8,178.4 7334.8,177.7 7330.8,177.9 C7320.6,178.3 7315,184.7 7316,194.8 C7316.4,198.7 7317.7,202.5 7318,206.4 C7318.6,213.1 7315.2,217.9 7309.7,219.3 C7304.4,220.6 7298.7,217.5 7296.3,211.6 C7295.1,208.6 7295,205.1 7293.7,202.1 C7291.7,197.3 7289.6,192.4 7286.5,188.3 C7283.5,184.3 7279.2,185 7277,189.6 C7272.8,198.8 7270.5,208.3 7276.5,217.8 C7279.5,222.6 7282,227.6 7280.8,233.5 C7279.6,239.7 7276.3,243.6 7271,244.6 C7265.5,245.6 7260.8,243.7 7258,239.3 C7255.7,235.9 7254.2,231.6 7253.6,227.5 C7252.4,219.1 7249.3,211.8 7243.6,205.4 C7238.9,200.1 7236.3,193.8 7235.6,186.7 C7235.2,182.7 7233.6,178.9 7232.5,174.4 C7226.1,177.1 7226.3,181.5 7226.2,185.7 C7225.8,199.2 7227.4,212.5 7230.6,225.7 C7231.8,230.7 7232.4,236.1 7232.3,241.2 C7232.1,248.5 7228,253.5 7221,255.9 C7214.2,258.2 7208,256.2 7203.9,251.1 C7199.9,246 7196.6,240 7194.6,233.9 C7188.8,216 7186.6,197.4 7186.4,178.6 C7186.4,174.7 7186.4,170.6 7185.5,166.8 C7184.5,162.5 7181.9,159 7176.9,158.4 C7172.4,157.9 7167.6,160.6 7166.6,165.9 C7165.2,173.9 7163.7,182.3 7164.6,190.3 C7167,211.1 7170.4,231.9 7174.2,252.5 C7175.2,257.7 7179,262.5 7181.5,267.4 C7183.9,272.1 7186.9,276.5 7188.5,281.4 C7191.9,292.1 7186.8,303.3 7177.1,308.1 C7167.6,312.9 7156.2,310.8 7149.5,301.5 C7145.8,296.4 7144,289.8 7141.7,283.7 C7139.5,277.9 7138.9,271.2 7135.5,266.3 C7126.3,253.2 7122.3,238.4 7120.1,223.1 C7117.4,204.6 7115.4,186 7117.1,167.2 C7118.5,152.2 7112.5,145.1 7097.4,142.9 C7081.3,140.5 7065.1,138.4 7049,136.1 C7046.7,135.8 7044.5,135.3 7042.2,134.9 C7041.9,133.6 7041.5,132.7 7041.5,131.7 C7041.6,88 7041.6,44.3 7041.7,0.6 C7148.7,1 7255.3,1 7362,1 Z" fill="none"></path>
            <path d="M3202,1 C3201.9,4.9 3201.7,8.9 3201.7,12.8 C3201.7,113.4 3201.7,214 3201.7,314.6 C3201.7,318.1 3201.7,321.6 3201.7,326.4 C3195.8,324.5 3190.9,323.4 3186.5,321.5 C3165.8,312.4 3145.2,303.3 3124.7,293.8 C3110,287 3106.9,279.8 3112.3,264.3 C3123.4,232.2 3128.1,199.2 3125.8,165.4 C3123.6,132.6 3115,101.4 3100.3,71.9 C3097.7,66.7 3094.2,61.6 3090.1,57.5 C3083.3,50.8 3074.9,48.3 3065.4,52.4 C3056.7,56.2 3050.8,64.7 3052.2,74.6 C3053.2,81.9 3055.7,89.3 3058.9,96 C3074.3,128.6 3081,162.8 3077.6,198.5 C3076.3,212.8 3072.5,226.9 3069.5,241 C3068.9,243.8 3067.5,246.6 3066,249.1 C3062.3,255.7 3057.3,258.3 3052.5,256.4 C3047.5,254.4 3045.2,249.4 3046.5,242.2 C3047.2,238 3048.5,233.9 3049.7,229.8 C3055,210.6 3057.3,191.1 3055.9,171.3 C3053.8,141.3 3045.3,113.3 3028.7,87.9 C3026.5,84.6 3024.8,80.8 3022.1,78.1 C3017.5,73.5 3012.8,68.5 3007.1,65.7 C2997.5,61 2987.3,67.3 2985.5,77.7 C2984.2,85.4 2987.2,91.8 2991.4,98 C2999.4,109.8 3007.1,121.6 3011.1,135.4 C3018.5,160.9 3018.7,186.6 3013.6,212.5 C3012.1,220 3010.8,221.3 3003.8,225.2 C3003.7,221.1 3003.3,217.7 3003.7,214.4 C3004.7,206.3 3006.7,198.2 3007.3,190 C3007.7,183.2 3007.1,176.2 3006.1,169.5 C3005.2,163.4 3001.6,158.6 2996.3,155.2 C2986.7,148.9 2974.9,152.2 2970.8,162.8 C2969.2,167 2968.8,171.7 2967.9,176.2 C2966.7,182.2 2966.9,188.7 2960.7,193.8 C2957.6,190.9 2954.7,187.9 2951.5,185.3 C2943.5,178.7 2939.4,178.7 2931.3,185 C2930.8,185.4 2930.2,185.8 2929.8,186.3 C2922.1,195.4 2913.1,197 2902.2,192.1 C2890.3,186.8 2881.9,179.4 2881.9,165.7 C2881.9,110.8 2882.1,55.9 2882.2,1 C2917.5,1 2952.9,1 2988.2,1 C2988.5,3.2 2988.2,5.7 2989,7.7 C2993.4,18.7 3001.8,26 3012.4,30.5 C3022.4,34.8 3031,31.7 3037.9,23.2 C3043.2,16.7 3044.3,9 3044.2,1 C3096.7,1 3149.3,1 3202,1 Z M2943.4,83.9 C2935.8,84 2929.9,90.1 2930.5,97.2 C2931.3,106.4 2940.6,115 2950,115.3 C2959.4,115.6 2965.8,107.9 2963.5,99.1 C2961.5,91.4 2951.5,83.8 2943.4,83.9 Z M2932.1,136.3 C2932.1,129.4 2927.1,123.8 2920.8,123.6 C2914.2,123.4 2909.1,128.8 2909.3,135.8 C2909.5,142.5 2914.9,147.4 2921.7,147.2 C2927.9,146.9 2932.1,142.5 2932.1,136.3 Z" class="svg-fill" fill="#FFFFFF"></path>
            <path d="M8002,1 C8001.9,30.6 8001.8,60.1 8001.7,89.7 C8001.7,110.1 8001.8,130.5 8001.6,150.8 C8001.6,155.4 8001.2,160 8000.2,164.5 C7998.4,172.9 7993.4,176 7984.9,174.2 C7981,173.4 7977.3,171.7 7973.4,170.9 C7963.1,168.8 7957.6,172.2 7954.6,182.1 C7953.7,184.9 7953.2,187.9 7952.1,190.6 C7949.6,196.8 7945.5,199.4 7940,198.7 C7934.9,198.1 7930.9,194.1 7929.9,188 C7929.1,183.1 7929,178.2 7928.5,173.3 C7928.1,169.3 7927.4,165.4 7922.5,163.4 C7915.3,165.4 7913.4,171.9 7911.9,178.2 C7910.8,183 7911,188 7910.2,192.9 C7909.7,196.1 7909.1,199.5 7907.6,202.2 C7902.7,210.7 7891.6,210.7 7886.3,202.4 C7885.1,200.5 7884.1,198.2 7883.9,196 C7882.5,181.3 7881.3,166.6 7880.1,151.9 C7879.8,148.5 7881.4,143.8 7876.3,143 C7871.7,142.2 7870,146.5 7869.2,149.8 C7867,158.4 7865.4,167.1 7863.8,175.8 C7862.9,180.3 7862.9,185 7861.9,189.4 C7859.7,199.1 7853.2,204.6 7844.9,204.5 C7836.7,204.3 7829.5,198.4 7828.6,188.8 C7827.7,178.7 7828.2,168.5 7829.1,158.4 C7829.7,151.3 7832.2,144.3 7833.3,137.2 C7834.1,132.4 7834.8,127.3 7834.2,122.6 C7833.1,114 7823.9,110.9 7817.9,117.1 C7814.6,120.5 7812.2,125.3 7811.1,129.9 C7808.3,141.7 7806.2,153.7 7804.5,165.7 C7802.5,179.3 7801.5,192.9 7803.9,206.8 C7806.2,220.2 7800.8,228.1 7788.9,233.8 C7784.6,235.9 7780.7,235.7 7776.5,233.8 C7766.1,229.1 7760.8,221.1 7760.2,209.9 C7759.6,198.1 7758.8,186.3 7758.3,174.6 C7757.4,154.4 7761.6,134.7 7766.8,115.4 C7772.8,93 7772.3,90.7 7751.8,80.8 C7740.5,75.3 7728.7,70.7 7717,66 C7705.7,61.5 7694.2,57.3 7682,52.7 C7682,35.9 7682,18.5 7682,1.2 C7788.7,1 7895.3,1 8002,1 Z" fill="none"></path>
            <path d="M8642,1 C8641.9,4.6 8641.7,8.2 8641.7,11.8 C8641.7,56.5 8641.7,101.2 8641.6,145.9 C8641.6,151.5 8641.1,157.1 8640.1,162.5 C8638.7,169.8 8633.9,172.4 8626.8,170.1 C8623,168.9 8619.7,166.6 8616,165 C8607.5,161.2 8602.9,162.1 8596.4,168.9 C8594.1,171.3 8592.2,174.1 8589.6,176.1 C8582.5,181.7 8573.8,178.6 8572.2,169.8 C8571.6,166.3 8572.2,162.6 8572.3,159 C8572.4,156.1 8572.9,153.1 8572.5,150.2 C8571.7,144.8 8567.4,142.8 8563.2,146.2 C8560,148.8 8557.7,152.7 8555.4,156.2 C8553,160.1 8551.5,164.6 8548.9,168.4 C8544.8,174.5 8539.1,176.3 8533.4,174.3 C8528.5,172.6 8524.7,167.4 8525.3,160.8 C8526,153 8527.8,145.3 8529.2,137.5 C8530.1,132.3 8531.4,127.2 8532.1,122 C8532.6,118.6 8532.1,114.7 8528.1,114.1 C8525.6,113.8 8521.8,115.1 8520.4,117 C8517.1,121.4 8514.6,126.5 8512.2,131.5 C8509.4,137.1 8507.5,143.1 8504.3,148.5 C8499.5,156.6 8492.1,159.4 8485.1,156.8 C8477.7,154.1 8473.1,146.3 8475.3,137.5 C8477.8,127.4 8481.6,117.5 8485.1,107.7 C8486.8,102.8 8489.5,98.1 8491,93.1 C8492.8,87.3 8489.6,80.5 8484.6,77.9 C8480.1,75.5 8475.4,76.8 8470.6,82.1 C8468.4,84.5 8466.4,87.2 8464.9,90.1 C8456.8,106 8449.5,122.1 8445.8,139.6 C8444.9,143.7 8443.8,147.9 8442,151.8 C8437.8,160.8 8428.8,165.5 8420.1,163.8 C8410.9,162 8404.2,153.8 8403.8,143.9 C8403.7,141.9 8403.8,139.9 8404.2,138 C8409.3,113.5 8415.3,89.4 8427.5,67.2 C8438,47.9 8436.7,43.5 8418.5,30.6 C8410.4,24.9 8402.2,19.2 8394.4,13.1 C8390.2,9.8 8384.8,7.1 8384.1,0.8 C8470,1 8556,1 8642,1 Z" fill="none"></path>
            <path d="M9282,1 C9281.9,32.9 9281.8,64.7 9281.7,96.6 C9281.7,112 9281.8,127.5 9281.6,142.9 C9281.5,148.1 9281.1,153.4 9280.1,158.6 C9278.4,167.3 9273.5,169.2 9265.6,164.8 C9263.3,163.5 9261.2,161.9 9259,160.3 C9252.8,155.7 9246.3,155 9239.4,159 C9237.7,160 9235.9,161 9234.1,161.7 C9223.9,165.7 9216.7,160 9218.4,149.2 C9218.9,146 9220.1,142.8 9220.8,139.7 C9221.8,135.5 9221,131.6 9217.2,129.3 C9213.3,127 9210.3,129.6 9207.6,132.3 C9204.1,135.8 9200.8,139.6 9197.2,142.9 C9191.2,148.5 9185.2,149.6 9180.1,146.5 C9175.1,143.5 9173,137.3 9175.3,129.9 C9176.9,124.6 9179.6,119.7 9181.8,114.5 C9183.6,110.3 9186.1,106.1 9186.8,101.7 C9187.2,99.1 9185.5,95.1 9183.4,93.4 C9181.7,92 9177.4,92.2 9175.3,93.4 C9171.7,95.5 9168.8,98.9 9165.9,102 C9162.1,106.1 9159,110.9 9154.9,114.7 C9149.1,119.9 9142.9,120.5 9137.5,117.2 C9132.1,114 9129.6,108.2 9131.7,100.8 C9133.2,95.5 9136.1,90.6 9138.8,85.8 C9142.2,79.8 9146.5,74.3 9149.7,68.2 C9153.4,61.1 9151.4,54.2 9145.1,50 C9139.8,46.5 9133.2,46.7 9128,52.5 C9120.6,60.9 9114.2,70.1 9107.7,79.2 C9103.3,85.4 9100.2,92.5 9095.5,98.3 C9088.5,106.9 9077.6,107.8 9069.8,101.3 C9064.8,97.1 9062.6,91.6 9063.7,85.5 C9064.6,80.4 9066,75.1 9068.6,70.7 C9076.4,57.4 9084.5,44.2 9093.4,31.5 C9100,22.1 9105.3,12.6 9103.9,0.8 C9163.3,1 9222.7,1 9282,1 Z" fill="none"></path>
            <path d="M9922,1 C9921.9,20.7 9921.7,40.4 9921.7,60.1 C9921.6,85.1 9921.8,110 9921.6,135 C9921.6,140.6 9921.2,146.2 9920.4,151.7 C9918.6,164.2 9913.9,166.2 9904.5,157.8 C9897.7,151.9 9890.7,149.8 9881.7,150.8 C9869.3,152.3 9865.4,147.1 9868.4,135 C9869.2,131.8 9870.2,128.6 9870.4,125.4 C9870.7,118.8 9866.7,115.7 9860.1,117.5 C9857.6,118.2 9855.4,119.8 9853,121 C9850.1,122.5 9847.2,124.3 9844.2,125.5 C9839.5,127.4 9834.9,126.7 9831.3,123 C9827.8,119.3 9827,114.7 9829.2,110.2 C9831.2,106.1 9834,102.4 9836.4,98.5 C9838.4,95.2 9840.9,91.9 9842.2,88.3 C9843.9,83.2 9841.9,78.1 9838.4,76 C9834,73.5 9830,75 9826.2,77.3 C9824.5,78.3 9823.3,80 9821.8,81.2 C9818.6,83.6 9815.6,86.2 9812.1,88.1 C9806.5,91.2 9800,90.7 9796.2,87.3 C9791.9,83.6 9790.5,77.1 9793.7,71 C9795.9,66.7 9799.3,62.9 9802.4,59.1 C9804.9,56 9808,53.4 9810.1,50.1 C9814.5,43.5 9813.9,36.9 9809,31 C9802.6,23.4 9797.5,22.4 9789.5,28.6 C9782.2,34.3 9775.7,40.9 9768.8,47 C9765.1,50.3 9761.7,54 9757.6,56.8 C9750.7,61.4 9743.8,60.9 9738.2,56.3 C9732.3,51.5 9730.4,44.1 9734.3,36.7 C9737.5,30.7 9742,25.3 9745.9,19.6 C9750,13.4 9754.1,7.1 9758.1,0.8 C9812.7,1 9867.3,1 9922,1 Z" fill="none"></path>
            <path d="M2562,1 C2561.9,40.1 2561.8,79.1 2561.7,118.2 C2561.7,121.8 2561.7,125.3 2561.7,129.7 C2555.4,130.8 2549.6,131.9 2543.7,132.9 C2532.2,134.8 2520.7,136.5 2509.3,138.5 C2489.3,141.9 2483.6,138.6 2478.1,119.5 C2471.4,96 2462.9,73.3 2449.4,52.8 C2441.2,40.5 2431.8,29 2423.2,16.9 C2419.7,11.9 2417,6.4 2413.9,1.2 C2463.3,1 2512.7,1 2562,1 Z" class="svg-fill" fill="#FFFFFF"></path>
            <path d="M2332,1 C2336.3,5 2340.4,9.3 2345,13.1 C2353.7,20.2 2362.9,26.7 2371.4,34 C2399.9,58.3 2418.5,88.9 2429.7,124.1 C2431.2,128.7 2431.6,133.7 2431.9,138.6 C2432.1,143.3 2429.4,146.8 2424.8,148.2 C2420.4,149.5 2416.7,147.4 2414.5,143.9 C2412,140.1 2410.1,135.8 2408.7,131.4 C2395,87.5 2368.9,53.1 2328.2,30.2 C2318.7,24.9 2308.8,20.3 2298.7,16.3 C2294.3,14.5 2288.9,14.3 2284,14.3 C2277.5,14.4 2272.7,18 2270,23.8 C2267.1,30 2267.9,36.1 2272.3,41.3 C2274.6,44 2277.7,46.2 2280.7,48.1 C2283.8,49.9 2287.3,51.2 2290.7,52.5 C2330.2,67.6 2353.1,97.8 2368.3,135.1 C2370,139.3 2371.4,143.7 2368.5,148.8 C2362.7,147.9 2361.7,143.1 2359.8,139.2 C2355.1,129.8 2350.6,120.3 2345.4,111.2 C2343.2,107.3 2339.9,103.4 2336.1,101.1 C2331.8,98.4 2326.5,96.2 2321.5,95.9 C2309.6,95.2 2301.7,105.7 2305,117 C2306.7,122.6 2309.6,127.9 2311.6,133.4 C2313.1,137.6 2314,142 2315.7,148.4 C2310.4,147.3 2307.1,146.7 2303.7,146 C2293.5,143.8 2287,147.5 2283.8,157.3 C2283.5,158.2 2283.3,159.2 2283,160.2 C2279,174.2 2269.5,180.4 2254.7,178.6 C2248.1,177.8 2243.3,174.2 2242.3,167.6 C2240.4,155.3 2240.4,143.7 2252.1,134.6 C2262.5,126.6 2262.3,119.8 2253.5,109.6 C2252.4,108.4 2251.2,107.2 2250.3,105.8 C2247,100.9 2247.4,97.5 2252.3,94 C2255.2,91.9 2258.7,90.5 2261.6,88.4 C2270.5,82 2270.4,71.8 2261.3,65.4 C2259.2,63.9 2256.7,62.7 2254.3,61.7 C2245.8,57.9 2241.5,51.6 2241.5,42.4 C2241.6,28.6 2241.7,14.8 2241.8,1 C2272,1 2302,1 2332,1 Z" class="svg-fill" fill="#FFFFFF"></path>
            <path d="M10562,1 C10561.9,39.7 10561.9,78.5 10561.6,117.2 C10561.5,126.7 10560.8,136.2 10560.3,145.7 C10560.2,147.3 10560.1,149 10559.6,150.6 C10557.8,157.2 10553.8,159 10548.8,154.6 C10541.9,148.5 10534.2,144.8 10525.1,143 C10517.9,141.6 10515.6,137 10517.1,129.7 C10517.8,126.5 10519.1,123.4 10519.7,120.2 C10521.2,111.7 10516.2,106.8 10507.7,108.4 C10504.1,109.1 10500.6,110.4 10497,111 C10492.4,111.8 10488.3,110.5 10485.6,106.6 C10482.8,102.7 10483.1,98.5 10485.5,94.6 C10487.2,91.8 10489.5,89.4 10491.4,86.7 C10493.3,84 10495.3,81.4 10496.7,78.5 C10498.8,74 10498.3,69.4 10494.6,65.8 C10491.2,62.6 10487.2,61.7 10482.6,63.4 C10478.9,64.9 10475.2,66.4 10471.4,67.6 C10465.1,69.5 10459.9,68.1 10456.9,64.1 C10453.7,59.8 10454,54.1 10458.5,48.7 C10461.2,45.4 10464.7,42.7 10467.7,39.7 C10476.9,30.3 10474.6,14.2 10463.3,7.3 C10459.3,4.9 10455.6,5.5 10452,7.6 C10447.7,10.1 10443.8,13.2 10439.6,15.9 C10435.2,18.8 10430.9,22.1 10426.1,24.3 C10414.6,29.5 10404.3,23.3 10403.4,10.9 C10403.2,7.6 10403.5,4.3 10403.6,1.1 C10456.7,1 10509.3,1 10562,1 Z" fill="none"></path>
            <path d="M11202,1 C11201.9,37.4 11201.9,73.9 11201.6,110.3 C11201.5,119.8 11200.8,129.3 11200.2,138.8 C11200.1,141 11199.4,143.3 11198.6,145.5 C11197.2,149.4 11194.4,150.6 11190.8,148.6 C11184.2,144.9 11177.7,140.9 11171.2,136.8 C11165.9,133.5 11165.2,128.5 11166.3,122.9 C11167,119.7 11168.2,116.6 11168.5,113.3 C11169.2,106 11166.1,102.2 11158.7,101 C11155.4,100.5 11152,100.6 11148.8,99.8 C11139.7,97.8 11137.1,91.6 11141.8,83.6 C11143.3,81.1 11145,78.6 11146.9,76.3 C11150.7,71.4 11153.5,66.4 11150.3,60.1 C11146.8,53.2 11140.5,53.2 11134,53.5 C11131.7,53.6 11129.3,53.9 11127,53.5 C11118.1,52.3 11114.7,45.2 11119.5,37.7 C11120.9,35.5 11122.8,33.6 11124.7,31.8 C11131.3,25.7 11134.2,18.6 11132.3,9.6 C11131.7,6.8 11132,3.8 11131.9,0.8 C11155.3,1 11178.7,1 11202,1 Z" fill="none"></path>
            <path d="M11842,1 C11841.9,31.2 11841.9,61.5 11841.6,91.7 C11841.5,104.2 11840.8,116.6 11840.3,129.1 C11840.3,130.4 11840.2,131.7 11839.9,133 C11838.2,141.7 11834.5,143.4 11826.7,139.2 C11815,132.9 11812.8,128.2 11815.6,115.3 C11818.1,103.6 11815.9,99.4 11804.7,94.4 C11792.8,89.1 11791.4,84.1 11798.5,73 C11799.6,71.3 11800.8,69.8 11801.7,68 C11806.2,59.4 11803,50.7 11793.9,46.9 C11791.8,46 11789.4,45.5 11787.2,44.8 C11776.8,41.2 11775.1,36.5 11781,27 C11781.7,25.9 11782.3,24.7 11783.2,23.7 C11789.6,17.3 11791,9.5 11789.7,0.9 C11807.3,1 11824.7,1 11842,1 Z" fill="none"></path>
            <path d="M4252,364 C4256.1,359.8 4259.6,354.9 4264.4,351.7 C4287.7,335.9 4307.7,316.9 4324.1,294.2 C4326.6,290.7 4329.3,287.3 4332.2,284.2 C4339.1,276.7 4350.8,274.6 4359.6,279.2 C4367.8,283.5 4373.7,295.4 4370.8,304.4 C4368.6,311.2 4365.2,317.8 4361.2,323.7 C4354.9,332.9 4347.5,341.5 4340.8,350.4 C4337.7,354.5 4333.4,358.1 4334,364.1 C4306.7,364 4279.3,364 4252,364 Z" fill="none"></path>
            <path d="M12482,1 C12481.9,14.1 12481.9,27.2 12481.7,40.3 C12481.3,66.8 12480.9,93.4 12480.3,119.9 C12480.2,123.1 12479.7,126.5 12478.6,129.5 C12476.5,135.5 12471.5,136.9 12467.2,132.4 C12464.4,129.5 12463,125.2 12461.6,121.3 C12461,119.7 12461.5,117.3 12462.2,115.5 C12466.9,104.2 12462.9,96.2 12453.4,89.2 C12446.4,84.1 12445.9,79.2 12449.7,71 C12450.5,69.2 12451.5,67.5 12452.3,65.7 C12456.4,56.3 12454.4,48.5 12446.3,42.1 C12433,31.7 12432.8,30.8 12441,16.6 C12443.9,11.7 12445.8,6.5 12444,0.8 C12456.7,1 12469.3,1 12482,1 Z" fill="none"></path>
            <path d="M1692,1 C1696.3,5 1700.4,9.2 1704.9,13 C1713.1,19.7 1721.6,25.9 1729.7,32.7 C1732.7,35.2 1735.3,38.3 1737.4,41.6 C1739.9,45.5 1740.1,49.8 1736.5,53.3 C1733.3,56.4 1729.5,57.1 1725.5,55.1 C1722.5,53.7 1719.5,52.1 1717,50.1 C1689.8,27.3 1658.8,12.6 1623.6,6.4 C1618.9,5.6 1614.5,2.9 1610,1 C1637.3,1 1664.7,1 1692,1 Z" class="svg-fill" fill="#FFFFFF"></path>
            <path d="M13122,1 C13121.6,23.6 13121.3,46.3 13120.9,68.9 C13120.8,74.8 13120.7,80.8 13119.8,86.6 C13119.2,90.2 13117.2,93.6 13115.1,98.9 C13109.4,93.4 13104.7,89.4 13100.6,84.8 C13097,80.8 13097.2,75.7 13098.8,70.8 C13099.6,68.3 13100.8,65.9 13101.8,63.5 C13105.1,55.8 13103.6,48.7 13098.8,42.2 C13097.4,40.3 13095.9,38.6 13094.4,36.9 C13089,31.1 13088.5,24.8 13091.9,17.8 C13094.5,12.5 13097.6,7.3 13096,1 C13104.7,1 13113.3,1 13122,1 Z" fill="none"></path>
            <path d="M3044,1 C3044.1,9 3043,16.6 3037.7,23.2 C3030.8,31.7 3022.2,34.7 3012.2,30.5 C3001.6,26 2993.2,18.7 2988.8,7.7 C2988,5.7 2988.2,3.3 2988,1 C3006.7,1 3025.3,1 3044,1 Z" fill="none"></path>
            <path d="M13760,1 C13760.1,10.1 13760.4,19.3 13760.3,28.4 C13760.2,36.4 13759.6,37.5 13755.1,43.5 C13742,37 13738.3,27.7 13743.5,14.8 C13745.3,10.3 13746.6,5.5 13748.1,0.9 C13752,1 13756,1 13760,1 Z" fill="none"></path>
            <path d="M1022,1 C1020.8,7.8 1016.3,11.5 1009.6,10.9 C996,9.7 982.3,7.8 970,1 C987.3,1 1004.7,1 1022,1 Z" class="svg-fill" fill="#FFFFFF"></path>
            <path d="M4892,364 C4899.5,356.7 4906.6,355.3 4913.7,360.1 C4914.8,360.9 4915.2,362.7 4916,364 C4908,364 4900,364 4892,364 Z" fill="none"></path>
            <path d="M1792,1 C1785.4,9.7 1780.9,9.7 1774,1 C1780,1 1786,1 1792,1 Z" class="svg-fill" fill="#FFFFFF"></path>
            <path d="M6639.6,258.9 C6640.1,248.8 6642.4,247 6651.5,248.7 C6657.2,249.8 6662.4,251.6 6665.9,256.6 C6669.6,261.9 6669.5,269.8 6665.6,274 C6661.9,278 6654.8,278.8 6649,275.9 C6641.5,272 6639.1,265.6 6639.6,258.9 Z" fill="none"></path>
            <path d="M13755.2,64.2 C13759.9,69.1 13759.1,74.8 13757.6,80.5 C13757.2,81.9 13754.9,83.7 13753.4,83.7 C13751.8,83.7 13749.7,82.3 13748.8,80.8 C13745.1,75.3 13747.8,68.5 13755.2,64.2 Z" fill="none"></path>
            <path d="M13114.6,110.3 C13118.6,114.3 13118.7,118.6 13117,123.1 C13116.5,124.3 13114.6,125.6 13113.3,125.6 C13112.1,125.6 13110.1,124.2 13109.7,122.9 C13108,117.7 13109.5,113.5 13114.6,110.3 Z" fill="none"></path>
            <path d="M1608.9,86.5 C1620.1,95.8 1634.9,99.6 1644.3,113.1 C1640,114.8 1636.6,116 1633.4,117.4 C1623.4,121.8 1620.3,128.8 1623.7,138.9 C1624.4,141.1 1625.4,143.2 1626,145.4 C1628.8,154.9 1623.3,165 1613.8,168 C1609.3,169.4 1605.7,168.2 1603.9,163.9 C1602.7,160.9 1601.8,157.6 1601.8,154.4 C1601.6,137.7 1601.6,120.9 1601.8,104.2 C1601.9,98.3 1602.6,92.4 1608.9,86.5 Z" class="svg-fill" fill="#FFFFFF"></path>
            <path d="M1607.8,72 C1602.9,67.2 1602,61.7 1603.5,55.6 C1604.9,49.8 1608.7,46.5 1614.6,46 C1617.9,45.7 1621.4,45.8 1624.5,46.6 C1644.7,52.2 1664.4,59.3 1681.4,71.9 C1685.7,75.1 1689.9,78.3 1689.9,84.8 C1684.2,87.9 1680.7,83.5 1676.7,81.2 C1668.5,76.3 1660.6,70.8 1652.2,66.3 C1639.3,59.4 1626.7,60 1614.9,69.2 C1613.6,70.2 1612.1,71 1610.6,71.7 C1610.1,71.9 1609.4,71.8 1607.8,72 Z" class="svg-fill" fill="#FFFFFF"></path>
            <path d="M993.6,54 C985.5,58.7 981.3,58.2 974.3,51.8 C979.9,46.1 985.6,46.6 993.6,54 Z" class="svg-fill" fill="#FFFFFF"></path>
            <path d="M6058.6,299.2 C6049.1,299 6042.1,292.6 6042.1,284.3 C6042.1,276.6 6048.9,271 6057.8,271.3 C6066.7,271.6 6074.1,278.9 6073.7,287 C6073.3,294.5 6067.3,299.4 6058.6,299.2 Z" fill="none"></path>
            <path d="M6055.4,239.9 C6055.6,233.5 6059.6,229.8 6066.2,229.9 C6072.8,230 6078,235.4 6077.8,241.9 C6077.6,247.6 6072.7,252.2 6066.7,252.2 C6060.4,252.2 6055.3,246.7 6055.4,239.9 Z" fill="none"></path>
            <path d="M5469.4,298.2 C5461.1,297.9 5455.6,292.5 5455.7,284.7 C5455.9,275.8 5463.8,268.9 5473.7,269.2 C5482.7,269.5 5488.5,275.1 5488.1,283.1 C5487.7,291.4 5478.9,298.5 5469.4,298.2 Z" fill="none"></path>
            <path d="M5457.6,229.6 C5464.1,229.4 5468.6,233.9 5468.8,240.7 C5468.9,247 5464.1,251.9 5457.7,251.9 C5451.6,251.9 5446.6,247.5 5446.3,241.9 C5445.9,235.5 5451.2,229.8 5457.6,229.6 Z" fill="none"></path>
            <path d="M4973.1,299.4 C4987.5,299 4998.8,312.9 4995.1,326.9 C4992.8,335.7 4988,343.1 4980.4,348.6 C4972.5,354.3 4964.2,356.3 4955.3,351.2 C4946.6,346.2 4943.1,338.5 4943.8,328.8 C4944.6,315.1 4960,299.7 4973.1,299.4 Z" fill="none"></path>
            <path d="M4877,268.8 C4870,268.7 4864.6,263.4 4864.3,256.2 C4863.9,246.4 4873,236.9 4883,236.9 C4889.4,236.9 4894.7,241.1 4895.7,247.2 C4897.4,256.8 4886.9,268.9 4877,268.8 Z" fill="none"></path>
            <path d="M4857,223.6 C4856.9,229.7 4850.8,235.9 4845,235.8 C4839.4,235.7 4834.1,229.7 4834.3,223.8 C4834.5,217.5 4840.6,211.9 4846.8,212.3 C4852.5,212.6 4857.1,217.7 4857,223.6 Z" fill="none"></path>
            <path d="M4405,212.7 C4402.7,219.4 4400.8,226.3 4397.9,232.8 C4394.1,241.2 4386.7,244.6 4377.6,244.1 C4368.9,243.6 4362.9,239.3 4359.2,231.3 C4354.6,221.3 4355.7,211.5 4359.6,201.8 C4363.9,191.2 4373.7,185.3 4383.8,186.7 C4394.1,188.1 4402.4,197.1 4403.5,208.4 C4403.6,209.7 4403.5,211 4403.5,212.3 C4404.1,212.4 4404.6,212.6 4405,212.7 Z" fill="none"></path>
            <path d="M4279.6,200.6 C4279.3,201.8 4278.8,204.4 4278,206.9 C4275.1,215 4268.3,219.5 4261.4,217.8 C4254.7,216.2 4249.3,207.6 4250.5,199.9 C4250.9,197.3 4251.8,194.8 4253,192.5 C4256.4,185.5 4263,181.9 4268.9,183.4 C4275.5,185 4279.8,191.4 4279.6,200.6 Z" fill="none"></path>
            <path d="M4232.1,194.5 C4232.1,200.6 4226.9,205.9 4220.8,206.1 C4214.7,206.3 4209.6,201.1 4209.7,194.6 C4209.8,188.3 4214.9,182.9 4220.8,182.8 C4226.8,182.8 4232.2,188.3 4232.1,194.5 Z" fill="none"></path>
            <path d="M3752.7,108.7 C3752.7,119 3746.6,128.1 3737,131.7 C3732.1,133.6 3727.1,133.6 3722.6,130.9 C3709.5,123.1 3703.4,111.2 3703.9,96.3 C3704.3,85.5 3713.7,75.5 3723.8,75.1 C3728.2,74.9 3733.3,76 3736.9,78.3 C3746.5,84.4 3752.7,97.3 3752.7,108.7 Z" fill="none"></path>
            <path d="M3635.7,150.1 C3635.4,156.4 3633.1,161.3 3627.3,163.8 C3621.7,166.3 3616.9,164.1 3612.8,160.4 C3603.5,152.1 3603.8,138.1 3613.3,131.4 C3617,128.8 3620.4,128.5 3624.3,130.9 C3631.6,135.4 3635.1,142.1 3635.7,150.1 Z" fill="none"></path>
            <path d="M3579.6,174.8 C3573.4,174.9 3568.3,170 3568,163.7 C3567.7,157.3 3572.5,152.1 3578.8,152.1 C3585.2,152.1 3590.1,156.8 3590.3,163.2 C3590.5,169.9 3586.1,174.7 3579.6,174.8 Z" fill="none"></path>
            <path d="M2943.4,83.9 C2951.4,83.8 2961.5,91.3 2963.5,99.1 C2965.8,107.9 2959.4,115.6 2950,115.3 C2940.6,115 2931.3,106.4 2930.5,97.2 C2929.9,90.2 2935.8,84.1 2943.4,83.9 Z" fill="none"></path>
            <path d="M2932.1,136.3 C2932.1,142.5 2927.9,146.9 2921.7,147.2 C2914.9,147.4 2909.5,142.5 2909.3,135.8 C2909.1,128.9 2914.2,123.4 2920.8,123.6 C2927.1,123.8 2932.1,129.4 2932.1,136.3 Z" fill="none"></path>
        </g>
    </g>
</svg>
