<svg xmlns="http://www.w3.org/2000/svg" viewBox="0 0 14705.5 450"><title>BBGAsset 26</title><path d="M14400.52,450.5V.54h600V447.85c0,2.65,0,2.65-2.75,2.65Z" transform="translate(-295 -0.5)"/><path d="M13800.52,450.5V.54h600V447.85c0,2.65,0,2.65-2.75,2.65Z" transform="translate(-295 -0.5)"/><path d="M13200.52,450.5V.54h600V447.85c0,2.65,0,2.65-2.75,2.65Z" transform="translate(-295 -0.5)"/><path d="M13004.5,450.5H12796a8.44,8.44,0,0,0-1.69-.39c-3.83-.16-7.63-.65-11.44-1-10.43-1.06-20.89-1.94-31.3-3.19-23.56-2.84-47.06-6.13-70.45-10.14s-46.83-8.62-70.08-13.81c-3.48-.78-6.92-1.86-10.54-1.94V.5h600V420c-1.39.23-2.8.41-4.18.7-10.67,2.29-21.29,4.77-32,6.85-18.06,3.51-36.13,6.93-54.3,9.86-19.4,3.13-38.86,5.81-58.37,8.17-13.13,1.59-26.31,2.84-39.48,4.09C13009.61,449.91,13007,449.7,13004.5,450.5Z" transform="translate(-295 -0.5)"/><path d="M12308.5,450.5h-15q0-10.25,0-20.48c0-3.67,0-7.33,0-11,0-1.93-.48-2.3-2.4-2.41-1.08-.06-2.17,0-3.25,0h-282.55c-1.58,0-3.16-.06-4.74-.09V.5h600v416c-1.58,0-3.16.09-4.74.09H12313c-4.43,0-4.46.06-4.46,4.43Q12308.52,435.77,12308.5,450.5Z" transform="translate(-295 -0.5)"/><path d="M11708.5,450.5h-15q0-3.87,0-7.74c0-3.58,0-7.17,0-10.74,0-1.93-.49-2.29-2.41-2.4-1.08-.06-2.17,0-3.25,0h-282.54c-1.58,0-3.16-.06-4.74-.09V.5h600v429c-1.58,0-3.16.09-4.74.09H11714c-1.17,0-2.33,0-3.5.05a1.78,1.78,0,0,0-1.9,1.88c0,.91-.06,1.83-.06,2.74Q11708.5,442.39,11708.5,450.5Z" transform="translate(-295 -0.5)"/><path d="M10800.52,450.5V.54h600V447.85c0,2.65,0,2.65-2.75,2.65Z" transform="translate(-295 -0.5)"/><path d="M10542,450.5h-84.5a20.7,20.7,0,0,0-2.19-.44c-14.58-1.43-29.15-2.77-43.65-5-21.1-3.22-41.93-7.64-62.65-12.64-13.27-3.2-26.36-7.12-39.42-11.09-23.84-7.24-47.19-15.85-70.39-24.89-11.71-4.56-23.26-9.53-34.89-14.31a11.34,11.34,0,0,0-3.81-1.14V.5h600V381a86.66,86.66,0,0,0-9.82,3.69c-11.36,4.56-22.59,9.43-34.11,13.6-5,1.82-10,3.67-15.06,5.39-7.41,2.53-14.51,5.89-22.05,8.07q-12.6,3.66-25,8.06c-4.4,1.58-8.86,2.9-13.38,4.07-5.64,1.46-11.25,3.06-16.87,4.63-4.57,1.27-9.08,2.87-13.71,3.82-17,3.5-33.72,7.91-50.87,10.6-15.64,2.46-31.25,4.91-47,6.23A66.88,66.88,0,0,0,10542,450.5Z" transform="translate(-295 -0.5)"/><path d="M9908.5,450.5h-15q0-38.24,0-76.46c0-3.66,0-7.32,0-11,0-1.94-.48-2.31-2.36-2.47-.41,0-.83,0-1.25,0-11.48-.34-23-.27-34.42-1.48-9.35-1-18.77-1.51-28.08-2.75-14.2-1.91-28.37-4-42.41-6.9-12-2.46-24-5.05-35.85-8-13.34-3.28-26.53-7.17-39.68-11.17-23.45-7.12-46.42-15.6-69.25-24.45-12-4.67-23.89-9.79-35.83-14.69a11.34,11.34,0,0,0-3.81-1.14V.5h600V290a53.14,53.14,0,0,0-6.81,2.45c-14.84,6-29.5,12.41-44.66,17.54-11.68,3.95-23,9-34.84,12.4-13.45,3.84-26.44,9.15-40.1,12.38-8.19,1.93-16.13,4.9-24.33,6.72-18.62,4.12-37.13,8.8-56.07,11.38-7.51,1-14.92,2.67-22.48,3.42q-7.57.75-15.16,1.53c-10.61,1.08-21.2,2.28-31.89,2.26-4.32,0-8.64.49-13,.49-2.2,0-2.57.45-2.64,2.7s0,4.33,0,6.5Q9908.51,410.14,9908.5,450.5Z" transform="translate(-295 -0.5)"/><path d="M9325,450.5h-48.5c-.74-.53-1.45-1.11-2.23-1.59a59.37,59.37,0,0,1-22.88-25.83,70.63,70.63,0,0,1-3.61-52.84c5.39-17.12,15.71-30.35,32.33-38.06a7.26,7.26,0,0,0,3.83-3.67,7,7,0,0,1,7-4.34c2.32.07,2.5-.15,2.56-2.52,0-.33,0-.66,0-1q0-31.25,0-62.49c0-8.83,0-17.66,0-26.49,0-2.72-.36-3.11-3-3.09-6.08,0-12.15-.38-18.23-.53-3.91-.1-7.82-.09-11.73-.48-11-1.13-22.09-1.82-33.07-3.25-14.21-1.84-28.38-4-42.43-6.87-23.53-4.74-46.84-10.43-69.84-17.34-24.67-7.42-48.89-16.15-72.9-25.45-12.74-4.93-25.3-10.34-37.94-15.52a11.28,11.28,0,0,0-3.81-1.14V.5h600V158a53.14,53.14,0,0,0-6.81,2.45c-14.84,6-29.5,12.41-44.67,17.54-11.68,3.95-23,9-34.84,12.4-13.37,3.81-26.24,9.29-39.88,12.25l-.24.06c-11.88,3.32-23.63,7.09-35.78,9.37-2.54.47-5.05,1.07-7.57,1.63-6.35,1.42-12.63,3.19-19,4.21-18.17,2.87-36.27,6.2-54.64,7.89-14.61,1.35-29.22,2.31-43.88,2.7-4.67.13-4.65.07-4.64,4.8q0,31.37,0,62.74,0,14.63,0,29.25c0,2.36.21,2.47,2.4,1.57,3.87-1.59,7.19-.53,9.39,3.19a7.7,7.7,0,0,0,3.31,3.23c11.87,5.92,20.3,15.26,26.12,27a69.84,69.84,0,0,1,6.13,44.78c-3.47,18.83-12.73,34-29.29,44.25C9326,449.65,9325.53,450.1,9325,450.5Zm-24.18-10.43a41.64,41.64,0,0,0,4.75-.33,40.34,40.34,0,0,0,27.66-17.16c7.16-10.08,10.05-21.39,9.37-33.72a51.15,51.15,0,0,0-9.76-27.88,44.7,44.7,0,0,0-13.29-11.92c-1.56-.95-2.9-1-4.23.4A5.3,5.3,0,0,1,9312,351a6.82,6.82,0,0,1-7.47-4.23c-.88-1.85-2.14-2-3.81-2-1.19,0-1.7.88-2.37,1.61-2.62,2.88-6.15,3.68-9.2,1.76A4.63,4.63,0,0,0,9284,348,44.34,44.34,0,0,0,9263.82,369a52.59,52.59,0,0,0-4.9,26.46c.71,11.34,4.4,21.46,11.8,30.14A39.61,39.61,0,0,0,9300.82,440.07Z" transform="translate(-295 -0.5)"/><path d="M9000.5,66a123.65,123.65,0,0,0-13.22,2.64c-18.2,4.13-36.54,7.57-54.89,10.94-16.06,3-32.18,5.46-48.33,7.81-11.45,1.67-22.94,3.1-34.42,4.49-7.19.87-14.41,1.45-21.61,2.18-6,.6-11.92,1.29-17.88,1.82-5.22.46-10.46.74-15.69,1.13q-8.83.66-17.66,1.36c-.42,0-.83.08-1.25.1-5.57.19-11.15.26-16.72.6-11.31.68-22.62.91-33.94,1.09-4.41.08-8.82.26-13.23.33-3,.05-3.13.14-3.13,3.09q0,18.12,0,36.24,0,29,0,58c0,3,0,3,2.66,1.92,3.54-1.48,6.95-.42,9,3.12a9.28,9.28,0,0,0,4.09,3.78c10.21,5.15,17.76,13.09,23.47,22.86,7.36,12.62,10.18,26.36,9.18,40.83s-5.91,27.85-15.33,39.15c-8.61,10.32-19.47,17.16-32.91,19.3a49.15,49.15,0,0,1-37.42-8.89c-14.45-10.29-22.54-24.69-25.67-41.94a70.55,70.55,0,0,1,4-39.75c4.9-12.12,12.53-22.1,23.6-29.29a64.78,64.78,0,0,1,7.73-4.08,5.22,5.22,0,0,0,2.74-2.71c1.56-3.4,4.07-5.39,8.09-4.86,1.39.18,1.73-.15,1.77-1.71.07-2.74,0-5.49,0-8.24V105.06c0-.75,0-1.5,0-2.24-.09-2-.32-2.21-2.4-2.32h-.25c-8.41.23-16.8-.53-25.22-.5-7.32,0-14.64-.44-22-.89-4.15-.26-8.31-.28-12.47-.48-7.4-.36-14.78-1-22.16-1.51-5.65-.42-11.3-.7-16.94-1.14-4.15-.32-8.28-.78-12.42-1.2-5.55-.57-11.09-1.2-16.64-1.73-6.63-.62-13.24-1.35-19.84-2.24-8.5-1.14-17-2.15-25.51-3.33-6.59-.92-13.16-2.06-19.75-3-19.36-2.88-38.59-6.55-57.79-10.32-11.93-2.35-23.79-5.07-35.68-7.64a13.89,13.89,0,0,0-4-.49V.5h600ZM8700.68,313a35.58,35.58,0,0,0,15.27-3.26c9.65-4.22,16.54-11.36,21.2-20.65a53.22,53.22,0,0,0,4.61-34.49,47.64,47.64,0,0,0-16.87-28.92,42.92,42.92,0,0,0-6-4,2.28,2.28,0,0,0-3.14.39,5.79,5.79,0,0,1-3.93,1.94,6.77,6.77,0,0,1-7.27-4.16,3.2,3.2,0,0,0-3.39-2.16,3.12,3.12,0,0,0-2.65,1.45c-2.81,3.31-6.36,3.9-10,1.58a3.55,3.55,0,0,0-3.75-.11,40.39,40.39,0,0,0-12.31,8.83,47.86,47.86,0,0,0-10.86,18,54.51,54.51,0,0,0-2,27.08c2.1,12,7.48,22.19,17.11,29.86A38.1,38.1,0,0,0,8700.68,313Z" transform="translate(-295 -0.5)"/><path d="M8313.5.5c-3.17,1.09-6.51,1.33-9.78,1.88-13.47,2.25-27,4-40.56,5.74-7.68,1-15.36,2-23,2.77-7.37.79-14.75,1.41-22.12,2.19-8.52.9-17.08,1.4-25.63,2-7.8.56-15.58,1.25-23.41,1.53-7.56.27-15.14.58-22.69,1-5.5.33-11,.32-16.48.38-6.25.08-12.47.65-18.73.5-2.28-.06-2.51.26-2.52,2.66q0,14,0,28,0,33.26,0,66.49c0,.34,0,.67,0,1,.06,2.09.2,2.18,2.1,1.33,4.06-1.84,7.52-.8,9.76,3.15a7.42,7.42,0,0,0,3.33,3.18c10.58,5.22,18.37,13.37,24.2,23.48,7.22,12.51,10,26.09,9,40.38-1,14.6-5.87,27.86-15.26,39.18-8.41,10.12-19,16.92-32.13,19.24a49.1,49.1,0,0,1-38.37-8.81c-14.45-10.31-22.5-24.73-25.6-42a70.53,70.53,0,0,1,4-39.74c4.92-12.11,12.58-22.08,23.66-29.25a70.34,70.34,0,0,1,7.74-4.06,4.94,4.94,0,0,0,2.57-2.54c1.6-3.5,4.13-5.62,8.27-4.93,1.06.17,1.56-.38,1.63-1.38,0-.5,0-1,0-1.5q0-44.62,0-89.24c0-4.9.52-4.68-4.81-4.68-9.82,0-19.65-.41-29.47-.6-7.9-.15-15.8-.58-23.7-1-8.88-.44-17.77-1-26.64-1.78-5.72-.53-11.46-.7-17.19-1.16-5.55-.45-11.1-1.06-16.64-1.63s-11.08-1.28-16.64-1.75c-6.31-.54-12.56-1.46-18.84-2.24-8.43-1-16.85-2.14-25.25-3.35-7.91-1.14-15.8-2.47-23.69-3.74A5.76,5.76,0,0,1,7888,.5ZM8100.69,231a35.59,35.59,0,0,0,15.28-3.26c9.65-4.23,16.53-11.37,21.19-20.67a53.16,53.16,0,0,0,4.54-34.74,47.49,47.49,0,0,0-16.82-28.66,49.15,49.15,0,0,0-5.37-3.64c-1.67-1-2.49-1.42-4.16.37a5.41,5.41,0,0,1-3.81,1.61,6.71,6.71,0,0,1-7-4.19,3.21,3.21,0,0,0-3.41-2.15,3.09,3.09,0,0,0-2.64,1.47c-2.81,3.29-6.35,3.87-10,1.55a3.55,3.55,0,0,0-3.75-.09,40.26,40.26,0,0,0-12.31,8.83,47.75,47.75,0,0,0-10.85,18,54.51,54.51,0,0,0-2,27.08c2.12,12,7.48,22.19,17.12,29.85A38.07,38.07,0,0,0,8100.69,231Z" transform="translate(-295 -0.5)"/><path d="M7508.5.5q0,49.61,0,99.21c0,.42,0,.83,0,1.25.08,1.74.36,2,1.9,1.12,4-2.21,8.18-.53,10.12,3.3a6.09,6.09,0,0,0,3,2.85c10.83,5.32,18.76,13.65,24.65,24,7.09,12.48,9.75,26,8.75,40.18-1,14.41-5.85,27.51-15.09,38.73-8.73,10.59-19.77,17.57-33.5,19.65a49.22,49.22,0,0,1-37.55-9.31c-14.19-10.33-22.1-24.62-25.2-41.68a70.5,70.5,0,0,1,2.16-34.57c4.59-14.33,12.74-26.09,25.49-34.42a66.33,66.33,0,0,1,7.74-4.07,4.94,4.94,0,0,0,2.59-2.52c1.59-3.49,4.08-5.61,8.24-5,1.37.2,1.68-.23,1.7-2.05,0-4.41,0-8.83,0-13.24V.5Zm-7.45,214.56c1.16-.07,2.58,0,4-.24a40.26,40.26,0,0,0,27.73-16.57c8.39-11.41,11.19-24.35,9.55-38.28a49.83,49.83,0,0,0-9.55-24.11,44,44,0,0,0-13.55-12c-1.79-1-2.09-1-3.72.45a6.28,6.28,0,0,1-3.79,1.69,6.79,6.79,0,0,1-7.22-4.26,3.09,3.09,0,0,0-3.2-2,3.19,3.19,0,0,0-2.86,1.51c-2.72,3.2-6.38,3.82-9.8,1.58a3.65,3.65,0,0,0-4-.15,40.35,40.35,0,0,0-12.12,8.69,47.57,47.57,0,0,0-10.75,17.53,54.32,54.32,0,0,0-2.18,27.8c2.12,12,7.52,22.18,17.17,29.82A38.36,38.36,0,0,0,7501.05,215.06Z" transform="translate(-295 -0.5)"/><path d="M6908.5.5q0,43.37,0,86.74v.25c0,2.8,0,2.8,2.5,1.73a7.16,7.16,0,0,1,9.21,2.67A8.62,8.62,0,0,0,6924,95c17.87,8.42,28.76,22.42,32.21,41.79,2.95,16.63-1.14,31.8-11.76,45-10,12.37-23.12,19.19-38.86,20.63a53.94,53.94,0,0,1-33.76-7.8c-15.49-9.47-24.5-23.27-26.89-41.2-2.13-15.93,2.17-30.19,12.14-42.76,6.28-7.91,14.36-13.33,23.64-17.06a5.46,5.46,0,0,0,3.09-2.65,6.91,6.91,0,0,1,7-3.93c2.3.15,2.71.41,2.71-2.74q0-41.86,0-83.74Zm-7.37,187.85c1.56-.35,3.59-.17,5.56-.48a41.65,41.65,0,0,0,27.21-15.79,40.29,40.29,0,0,0,8.43-31.69c-2.07-14.09-9.58-24.58-22.2-31.39a4.37,4.37,0,0,0-5.19.21,7.05,7.05,0,0,1-9.17-.83,21.2,21.2,0,0,1-1.66-2.18,3.71,3.71,0,0,0-5.41-.29c-3,3.13-6.23,3.77-9.91,1.68a4.23,4.23,0,0,0-4.21-.14,43.27,43.27,0,0,0-14.09,9.72c-9.76,10.29-13.25,22.49-11.08,36.31a39.78,39.78,0,0,0,11.84,22.62C6879.47,184.19,6889.39,187.91,6901.13,188.35Z" transform="translate(-295 -0.5)"/><path d="M6309,.5c-1.08,2.41-1,5.05-1.37,7.59-.67,5.2-1.1,10.42-1.7,15.63-.64,5.54-1.37,11.06-2,16.6-.81,6.77-1.58,13.55-2.38,20.32q-1.41,12.15-2.84,24.29c-.16,1.32-.35,2.64-.47,4s.28,1.56,1.44,1.19a9.25,9.25,0,0,1,3.67-.59c2.66.22,4.87,1.28,6,3.77a9.08,9.08,0,0,0,3.74,3.85c15,9.41,24.06,22.84,26.44,40.4,2.19,16.23-1.85,30.92-12.37,43.63a54.14,54.14,0,0,1-36.56,19.93,54.91,54.91,0,0,1-43-12.76c-11.28-9.35-17.72-21.5-19.59-36-2-15.36,1.94-29.28,11.25-41.58A54.29,54.29,0,0,1,6269,90.89a7.61,7.61,0,0,0,4.8-3.13,6.45,6.45,0,0,1,7.33-2.53c2,.53,2.49.26,2.68-1.94.55-6.3,1.43-12.56,2.16-18.85.95-8.18,1.93-16.35,2.87-24.53.91-7.94,1.77-15.88,2.7-23.81.6-5.2,1.29-10.4,1.94-15.6Zm-26.56,186.58c15.2.12,26.22-5.56,34.61-16.11,6.9-8.69,9.65-18.81,8.51-29.95-1.32-13-7.51-23-18.05-30.56a4.34,4.34,0,0,0-5.25-.38c-4.17,2.31-8.67-.32-10.13-3.49-1.24-2.7-3.73-3.2-6-1.43-3.18,2.45-6.42,2.67-9.66.37a4.69,4.69,0,0,0-4.46-.62,43.52,43.52,0,0,0-8.5,3.59,40.83,40.83,0,0,0-16.63,16.77,41.92,41.92,0,0,0-4.91,21.39c.31,12.73,5.63,23,15.24,31C6264.84,184.09,6273.81,187.37,6282.44,187.08Z" transform="translate(-295 -0.5)"/><path d="M5708.5.5q0,43.37,0,86.74v.25c0,2.8,0,2.8,2.5,1.73a7.16,7.16,0,0,1,9.21,2.67A8.62,8.62,0,0,0,5724,95c17.87,8.42,28.76,22.42,32.21,41.79,2.95,16.63-1.14,31.8-11.76,45-10,12.37-23.12,19.19-38.86,20.63a53.94,53.94,0,0,1-33.76-7.8c-15.49-9.47-24.5-23.27-26.89-41.2-2.13-15.93,2.17-30.19,12.14-42.76,6.28-7.91,14.36-13.33,23.64-17.06a5.46,5.46,0,0,0,3.09-2.65,6.91,6.91,0,0,1,7-3.93c2.3.15,2.71.41,2.71-2.74q0-41.86,0-83.74Zm-7.37,187.85c1.56-.35,3.59-.17,5.56-.48a41.65,41.65,0,0,0,27.21-15.79,40.29,40.29,0,0,0,8.43-31.69c-2.07-14.09-9.58-24.58-22.2-31.39a4.37,4.37,0,0,0-5.19.21,7.05,7.05,0,0,1-9.17-.83,21.2,21.2,0,0,1-1.66-2.18,3.71,3.71,0,0,0-5.41-.29c-3,3.13-6.23,3.77-9.91,1.68a4.23,4.23,0,0,0-4.21-.14,43.27,43.27,0,0,0-14.09,9.72c-9.76,10.29-13.25,22.49-11.08,36.31a39.78,39.78,0,0,0,11.84,22.62C5679.47,184.19,5689.39,187.91,5701.13,188.35Z" transform="translate(-295 -0.5)"/><path d="M5108.5.5c1.6,7.07,2.67,14.23,4,21.35q1.56,8.34,3.11,16.69c1.51,8.27,3,16.54,4.51,24.8q2,10.69,4,21.36c.06.33.11.66.19,1,.42,1.61.7,1.77,1.93.76,3.65-3,7.77-2.24,10.72.88a6.18,6.18,0,0,0,3.23,1.73A54.75,54.75,0,0,1,5162,99.65a56.38,56.38,0,0,1,17.55,64.81,56.45,56.45,0,0,1-75.5,30.85,56.06,56.06,0,0,1-24.68-21.52,54.84,54.84,0,0,1-8.49-28.11,55.64,55.64,0,0,1,5-25.25,55.06,55.06,0,0,1,14.42-19.22,64.09,64.09,0,0,1,7.69-5.55,5.25,5.25,0,0,0,2.37-3,7.53,7.53,0,0,1,6.51-5.44c2.21-.35,2.33-.52,1.92-2.7-1.14-6.22-2.35-12.43-3.49-18.65-1.66-9.09-3.27-18.18-4.94-27.27-1.51-8.27-3.07-16.53-4.61-24.79-.52-2.78-1.1-5.56-1.54-8.35A14.94,14.94,0,0,0,5092.5.5ZM5169,143.16a34.5,34.5,0,0,0-2.5-13.8c-4.93-13.15-14.29-21.58-27.55-25.86a3.53,3.53,0,0,0-4.25,1,7.44,7.44,0,0,1-11.39-.48,3.51,3.51,0,0,0-5.49.32c-2.89,4.07-5.39,5-10,3.53a3.41,3.41,0,0,0-3.06.41,39.85,39.85,0,0,0-11.05,10c-6.59,8.88-9.58,18.85-8.3,30a40.78,40.78,0,0,0,11.66,24.84c9.53,9.61,21.19,13.72,34.73,12.34,11.76-1.19,21.2-6.69,28.45-15.81C5166.19,162.29,5169.22,153.67,5169,143.16Z" transform="translate(-295 -0.5)"/><path d="M4512.5.5c.82,6.72.44,13.47.49,20.21,0,3.77-.92,7.42-1.14,11.16-.34,5.81-.78,11.62-1.38,17.41-.82,7.77-1.55,15.58-3.76,23.12a56.58,56.58,0,0,1-6.38,15.13c-1.16,1.79-1.12,1.82.31,3.58a8.54,8.54,0,0,1,1.64,3.61,5.71,5.71,0,0,0,1.48,2.82c8.93,9.18,13.35,20.31,14.32,33,1.32,17.12-3.46,32.44-13.67,46.1a51.89,51.89,0,0,1-23.75,18,39.44,39.44,0,0,1-45.08-12.15,52.06,52.06,0,0,1-11.13-27.38c-1.82-15.78,1.87-30.33,10.2-43.65,6.61-10.59,15.62-18.54,27.55-22.84a32.66,32.66,0,0,1,7.73-2,5.05,5.05,0,0,0,3.95-2.19,5.81,5.81,0,0,1,2.61-1.86,5.32,5.32,0,0,1,5.42.71c1.7,1.17,1.68,1.1,3-.28,4.16-4.4,6-9.91,7.56-15.56,1.95-7.18,2.45-14.57,3.19-21.94.81-8,1.34-16.08,2.11-24.11A68.55,68.55,0,0,0,4497,.5ZM4463.7,183c12.53.08,20.27-3.26,26.65-9.25,12-11.24,17.17-25.25,15.68-41.63a38.34,38.34,0,0,0-8.86-21.61c-1.53-1.84-1.62-1.87-3.93-1a5.29,5.29,0,0,1-7.11-2.77,6.3,6.3,0,0,1-.68-2.39c-.06-1.17-.75-1.7-1.76-2.15a2.67,2.67,0,0,0-3,.55c-2.54,1.87-6.24,1.68-8-1-.83-1.26-1.93-1.33-3.28-1.09-10.21,1.84-17.71,7.86-23.74,15.81a48.25,48.25,0,0,0-9.32,23.67c-1.23,10,.21,19.44,5.53,28.09C4447.73,177.71,4456.11,182.8,4463.7,183Z" transform="translate(-295 -0.5)"/><path d="M3919,.5c-1.92,2.4-4.15,4.54-5.92,7.08-3.71,5.31-5.5,11.34-7.08,17.5a127,127,0,0,0-2.82,16.22,31.94,31.94,0,0,0-.12,6.48c.42,5.06.64,10.15,2.26,15a15.54,15.54,0,0,0,.82,2.35,40.32,40.32,0,0,0,8.41,11.69c1.28,1.17,2.43,1.84,4.16.66a5.06,5.06,0,0,1,4.37-.22,5.23,5.23,0,0,0,3.18,0c9.21-2.95,18.41-2.37,27.56.22a76.28,76.28,0,0,1,29.47,16.35,71.88,71.88,0,0,1,20.3,28.35c2.89,7.37,4,15,2.4,22.8-2.3,11.21-9.24,18.42-20.19,21.62-8.64,2.53-17.3,1.91-25.88-.45-11.8-3.25-22-9.35-31.06-17.49a73.83,73.83,0,0,1-16.14-20.49,50.26,50.26,0,0,1-6.22-23.94,39.46,39.46,0,0,1,.62-5.2,3.59,3.59,0,0,0-.5-2.62c-1.24-1.87-2-3.83-.95-6.1.43-.92-.22-1.55-.87-2.13a51.76,51.76,0,0,1-13.49-19.83c-1.73-4.35-2.27-9-2.78-13.67-.31-2.89-.53-5.79-.57-8.71a83.5,83.5,0,0,1,2.66-21,119.62,119.62,0,0,1,3.24-12,58.85,58.85,0,0,1,5-11.11A12,12,0,0,0,3899.5.5Zm50.81,156a25.46,25.46,0,0,0,8.15-1.13c9.86-2.67,15.88-10.46,16-20.68.11-7.51-2.39-14.29-6.28-20.51a57.39,57.39,0,0,0-33.42-25.44,34.47,34.47,0,0,0-16.79-1.1c-3,.61-3.22.75-3.5,3.75a4,4,0,0,1-3.76,4,6.22,6.22,0,0,1-2.46-.33c-2.75-.7-3.84.32-3.19,3,.78,3.23-.05,4.84-3.23,5.88a2.22,2.22,0,0,0-1.83,2.3c0,3-.31,6,.27,9,1.94,9.94,7.27,18,14.28,25a58.21,58.21,0,0,0,11.85,9.11A50.27,50.27,0,0,0,3969.81,156.51Z" transform="translate(-295 -0.5)"/><path d="M3307.5.5a17.06,17.06,0,0,1-4,8.71c-3.07,3.53-5.12,7.5-5.09,12.4,0,5.67.15,11.31,1.49,16.87a37.68,37.68,0,0,1,.55,15.36c-.41,2.38-.46,4.82-.95,7.17-1.36,6.51-3.71,12.66-7.94,17.84a37.4,37.4,0,0,1-11,8.88,12.74,12.74,0,0,0-1.29.75c-.73.55-1.79.74-2.18,1.6s.55,1.49.71,2.29c.41,2,.46,4-.79,5.76a3.47,3.47,0,0,0-.83,2.53c.68,5.82-.37,11.46-2,17a58,58,0,0,1-11,20,66.05,66.05,0,0,1-21.64,17,60.66,60.66,0,0,1-32.88,6.76c-11.41-.92-21.57-5-29.49-13.55A37.55,37.55,0,0,1,3169,123.25c-.56-13.61,4.22-25.34,12.75-35.61a65.64,65.64,0,0,1,43.85-24c9.89-1.19,19.65,0,28.73,4.56A54.8,54.8,0,0,1,3259,71a4,4,0,0,0,3,.65c3.2-.54,5.8.37,7.22,3.51.46,1,1.1,1.17,2,.66,4.9-2.8,9.35-5.9,11.53-11.57a59.18,59.18,0,0,0,2.77-11.6c.88-5.25-.06-10.25-1.13-15.31a54.94,54.94,0,0,1-1-9.67,67.77,67.77,0,0,1,.3-10.94c.59-4.58,2.51-8.59,4.75-12.5a21.29,21.29,0,0,0,2-3.74ZM3229.89,76a35.9,35.9,0,0,0-12.41,1.47c-11.4,3.36-20.79,9.68-27.65,19.47-5.88,8.38-8.67,17.64-6.75,27.88a27.7,27.7,0,0,0,12.62,18.74,35.55,35.55,0,0,0,24.18,5.31c15.6-1.87,27.94-9.42,36.56-22.62,3.82-5.87,6.26-12.31,6.12-19.52,0-1.87-.41-3-2.39-3.73-3.23-1.19-4.29-4.2-2.93-7.37a16.33,16.33,0,0,1,.84-1.53,2.57,2.57,0,0,0-1.59-4c-.48-.14-1-.17-1.47-.3-3.17-.82-4.47-2.34-4.54-5.65a3.59,3.59,0,0,0-2-3.4A33,33,0,0,0,3229.89,76Z" transform="translate(-295 -0.5)"/><path d="M2704,.5c-1.56,1.94-3.25,3.81-4.67,5.85a53.12,53.12,0,0,0-8.27,20.72c-.25,1.31-.32,2.65-.6,3.95-.86,3.85.16,7.41,1.52,11a52.65,52.65,0,0,1,2.29,6.83c.76,3.18.15,6.1-.39,9.11a7.12,7.12,0,0,1-2.32,4c-7.16,6.57-15.6,7.24-24.51,5.08a24,24,0,0,1-7.34-3.67c-1.46-1-2.73-1.39-4.12.18a4.07,4.07,0,0,1-3,1,5,5,0,0,0-3.16,1.3c-6.43,5.41-14,8.27-22.19,9.62-14.87,2.45-29-.22-42.57-6.38a66.51,66.51,0,0,1-22-15.72c-6.69-7.33-11.27-15.73-12-25.79a28.84,28.84,0,0,1,5.41-18.84,33,33,0,0,1,6.35-6.68A6.09,6.09,0,0,0,2564,.5h65.5c.83.55,1.63,1.16,2.5,1.64a65.16,65.16,0,0,1,17.41,14,42.37,42.37,0,0,1,10.3,19.41c.45,2.11,1.05,3.88,2.84,5.27a4.42,4.42,0,0,1,1.5,5.58,1.56,1.56,0,0,0,.58,2.15,29.77,29.77,0,0,0,6.38,3.89,11.06,11.06,0,0,0,7.1.11,1.39,1.39,0,0,0,1.07-2.08c-.57-1.56-1.15-3.12-1.78-4.66a29.3,29.3,0,0,1-2.24-11.41,58.11,58.11,0,0,1,1.62-12.84A81.86,81.86,0,0,1,2685,.5Zm-90.62,65.06a46.17,46.17,0,0,0,8.47-.58,34.78,34.78,0,0,0,14.72-5.88c1.8-1.32,1.78-1.37,1-3.46a4.21,4.21,0,0,1,2.29-5.79,11.9,11.9,0,0,1,2.87-.81c2.11-.42,2.64-1.75,1.48-3.61-.17-.28-.4-.54-.56-.83a4.45,4.45,0,0,1,1.38-6.31c1.26-.85,1.23-1.76,1-3-1.37-6.32-4.7-11.55-9.09-16.11A51.16,51.16,0,0,0,2619.6,7.54c-11.33-4.74-22.94-6.13-34.92-3a28,28,0,0,0-14.06,8.21c-6.48,7.28-7.61,15.64-4.13,24.69,2.59,6.76,7.25,12,12.82,16.29A55.25,55.25,0,0,0,2613.38,65.56Z" transform="translate(-295 -0.5)"/><path d="M2107.5.5c-3.6,10.21-8.34,20-12.23,30.06-2.48,6.44-4.54,13-6.9,19.53-3.3,9.08-6.23,18.28-9.26,27.44-1.31,4-2.48,8-3.67,11.94-.47,1.56-.37,1.84,1.2,2.45a7.53,7.53,0,0,1,4.82,5.34,5.31,5.31,0,0,0,2,2.8,55.23,55.23,0,0,1,20.35,35.32c2.17,13.7-.71,26.49-7.9,38.32a54.39,54.39,0,0,1-21.69,20.16,56.71,56.71,0,0,1-61.52-6.17,56.27,56.27,0,0,1-14.8-69.27c9.32-17.8,24.15-28,44.14-30.47a6.8,6.8,0,0,0,4.59-2.09,7.16,7.16,0,0,1,10.16-.39c.25.22.47.47.73.68,1.25,1,2.26.88,3.1-.5a12.17,12.17,0,0,0,1.17-2.75c2.16-6.74,4.35-13.47,6.4-20.24,2.11-6.94,4.88-13.64,7.09-20.54,1.61-5,3.27-10,5.2-14.84,3.19-8,6.61-16,9.93-24,.38-.92.75-1.85,1.12-2.78Zm-17.43,145.82c0-10.44-2.07-17.72-6.17-24.42a37.79,37.79,0,0,0-8-9.5,3.2,3.2,0,0,0-3.61-.63c-4.64,1.75-8.7-.4-10.14-5.16a3.57,3.57,0,0,0-5.4-2.14c-3.77,2.27-6.87,2-10-1a4.37,4.37,0,0,0-4-1.3c-13.28,1.92-23.48,8.65-30.57,19.93a39.66,39.66,0,0,0-6,25.34c1.15,11.88,6.25,21.78,15.76,29.3a42.39,42.39,0,0,0,24.14,9.17,38.4,38.4,0,0,0,20.57-4.29C2081.76,173.62,2089.56,160.91,2090.07,146.32Z" transform="translate(-295 -0.5)"/><path d="M1506.5.5a10.27,10.27,0,0,1,1.93,8,25.78,25.78,0,0,0-.14,4.73c.54,8.4-.12,16.82.29,25.22.43,9,.59,18,2,26.86a19.4,19.4,0,0,0,4.21,10c.36.42.6,1,1.4,1a2.1,2.1,0,0,0,.28-.61c1.21-10.67,5.77-19.93,12-28.43a89.14,89.14,0,0,1,35.18-28.8c7.82-3.57,16-5.76,24.66-5.43a26.71,26.71,0,0,1,12.89,3.49c7,4.18,10.3,10.66,10.8,18.62.48,7.7-1.71,14.84-4.92,21.71A78.28,78.28,0,0,1,1594.86,75,88.83,88.83,0,0,1,1566,96.94c-8,3.81-16.32,6.26-25.28,6.08a31.32,31.32,0,0,1-7.4-1.06,5.71,5.71,0,0,0-4.35.26,6.58,6.58,0,0,1-1.9.6c-2.24.4-3.76-.58-4.09-2.86-.19-1.27-.64-1.74-1.9-1.67a2.85,2.85,0,0,1-1.66-.45c-4.42-3.06-9.36-5.33-13.19-9.3a37.41,37.41,0,0,1-10.76-22.23c-.9-7.85-1.49-15.72-1.84-23.62-.33-7.66,0-15.32-.19-23-.06-3.49-.25-7-.22-10.45,0-3.08.12-6.2,2.24-8.77Zm41.35,91c5.8.11,11.18-1.63,16.39-3.91a66.06,66.06,0,0,0,25.56-20.28c5.19-6.63,9.13-14,10-22.55.56-5.78-.59-11-5-15.32-3.44-3.36-7.6-4.67-12.2-4.95-8.09-.49-15.46,2-22.44,5.77a67.6,67.6,0,0,0-18.81,15,59.05,59.05,0,0,0-10.58,16.81,29.85,29.85,0,0,0-2.25,11.2c0,2.25.11,2.34,2.29,2.68,2.5.39,3.55,2,3,4.45a13.83,13.83,0,0,1-1.16,2.75,1.6,1.6,0,0,0,1.3,2.37,11.3,11.3,0,0,0,1.73-.1c2.9-.12,3.83.49,4.3,3.28a2.58,2.58,0,0,0,2.22,2.3A22.31,22.31,0,0,0,1547.85,91.52Z" transform="translate(-295 -0.5)"/><path d="M1052,.5A85,85,0,0,1,1033.18,27,70.71,70.71,0,0,1,1009,42.69c-6.55,2.46-13.3,3.7-20.32,2.61a4,4,0,0,0-3,.77c-1.65,1.1-3.38,1.81-5.39.89a1.67,1.67,0,0,0-1.83.42,49.35,49.35,0,0,1-18.74,9.07,45.78,45.78,0,0,1-16.33,1.3c-3.22-.36-6.46-.31-9.66-1.08A46.89,46.89,0,0,1,918,49.9a45.52,45.52,0,0,1-9.77-8.82,40.08,40.08,0,0,1-7.38-13.14C898,18.9,895.51,9.77,893.5.5H909a20.47,20.47,0,0,0,.33,2.22c1.33,5.06,2.63,10.14,4.08,15.17a62.87,62.87,0,0,0,3,8.47A26,26,0,0,0,923,34.72a28.75,28.75,0,0,0,15.23,7.45,48.61,48.61,0,0,0,14.65.37,39.69,39.69,0,0,0,14.79-5.7,1.4,1.4,0,0,0,.7-1.88,7.61,7.61,0,0,1-.15-4.67,8.11,8.11,0,0,0,0-3.7A46.26,46.26,0,0,1,967,18.21,57.72,57.72,0,0,1,969.5.5H980c-1.33,5.54-2.15,11.1-1,16.78.38,1.83.62,2,2.46,2,3-.09,4.78,2,4.18,5-.14.73-.43,1.43-.59,2.16a1.74,1.74,0,0,0,2.06,2.25c.57-.09,1.11-.36,1.68-.48,2.46-.52,3.92.31,4.79,2.72.69,1.92.83,2,2.84,2.12a33.61,33.61,0,0,0,14.39-2.42,53.2,53.2,0,0,0,17.66-11.92A65.77,65.77,0,0,0,1041.5.5Z" transform="translate(-295 -0.5)"/><path d="M396.5.5a12.83,12.83,0,0,1-4,8.11c-2.91,2.71-5.92,5.45-9.48,7.26-5.94,3-12.08,5.51-18.86,6.18a145.42,145.42,0,0,1-17.46.41A55.31,55.31,0,0,1,336.11,21c-4.06-.9-8.16-1.55-12.17-2.7a113.8,113.8,0,0,1-14.43-5.52,36.15,36.15,0,0,1-10.07-6.34A19.76,19.76,0,0,1,295,.5h24.5a5.58,5.58,0,0,0,1.95,1.08c10.56,3.88,21.4,6.2,32.71,5.94,2.67-.06,5.31-.31,8-.45,4.79-.26,9-2.14,13.26-4.11A8.61,8.61,0,0,0,378.5.5Z" transform="translate(-295 -0.5)"/></svg>