<?xml version="1.0" encoding="UTF-8"?>
<svg version="1.1" viewBox="0 0 62 62" xmlns="http://www.w3.org/2000/svg" xmlns:xlink="http://www.w3.org/1999/xlink">
<title>Artboard 1</title>
<desc>Created with Sketch.</desc>
<defs>
<path id="az" d="m30 0c-16.568 0-30 13.431-30 30 0 16.568 13.432 30 30 30 16.569 0 30-13.432 30-30 0-16.569-13.431-30-30-30z"/>
<path id="an" d="m30 0c-16.568 0-30 13.431-30 30 0 16.568 13.432 30 30 30 16.569 0 30-13.432 30-30 0-16.569-13.431-30-30-30"/>
<path id="ac" d="m30 0c-16.568 0-30 13.431-30 30 0 16.568 13.432 30 30 30 16.569 0 30-13.432 30-30 0-16.569-13.431-30-30-30"/>
<path id="r" d="m30 0c-16.568 0-30 13.431-30 30 0 16.568 13.432 30 30 30 16.569 0 30-13.432 30-30 0-16.569-13.431-30-30-30z"/>
<path id="g" d="m30 0c-16.568 0-30 13.431-30 30 0 16.568 13.432 30 30 30 16.569 0 30-13.432 30-30 0-16.569-13.431-30-30-30"/>
<path id="ax" d="m30 0c-16.568 0-30 13.431-30 30 0 16.568 13.432 30 30 30 16.569 0 30-13.432 30-30 0-16.569-13.431-30-30-30z"/>
<path id="aw" d="m30 0c-16.568 0-30 13.431-30 30 0 16.568 13.432 30 30 30 16.569 0 30-13.432 30-30 0-16.569-13.431-30-30-30z"/>
<path id="av" d="m30 0c-16.568 0-30 13.431-30 30 0 16.568 13.432 30 30 30 16.569 0 30-13.432 30-30 0-16.569-13.431-30-30-30z"/>
<path id="au" d="m30 0c-16.568 0-30 13.431-30 30 0 16.568 13.432 30 30 30 16.569 0 30-13.432 30-30 0-16.569-13.431-30-30-30z"/>
<path id="at" d="m30 0c-16.568 0-30 13.431-30 30 0 16.568 13.432 30 30 30 16.569 0 30-13.432 30-30 0-16.569-13.431-30-30-30z"/>
<path id="as" d="m30 0c-16.568 0-30 13.431-30 30 0 16.568 13.432 30 30 30 16.569 0 30-13.432 30-30 0-16.569-13.431-30-30-30z"/>
<path id="ar" d="m30 0c-16.568 0-30 13.431-30 30 0 16.568 13.432 30 30 30 16.569 0 30-13.432 30-30 0-16.569-13.431-30-30-30z"/>
<path id="aq" d="m30 0c-16.568 0-30 13.431-30 30 0 16.568 13.432 30 30 30 16.569 0 30-13.432 30-30 0-16.569-13.431-30-30-30z"/>
<path id="ap" d="m30 0c-16.568 0-30 13.431-30 30 0 16.568 13.432 30 30 30 16.569 0 30-13.432 30-30 0-16.569-13.431-30-30-30"/>
<path id="ao" d="m30 0c-16.568 0-30 13.431-30 30 0 16.568 13.432 30 30 30 16.569 0 30-13.432 30-30 0-16.569-13.431-30-30-30z"/>
<path id="am" d="m30 0c-16.568 0-30 13.431-30 30 0 16.568 13.432 30 30 30 16.569 0 30-13.432 30-30 0-16.569-13.431-30-30-30z"/>
<path id="al" d="m30 0c-16.568 0-30 13.431-30 30 0 16.568 13.432 30 30 30 16.569 0 30-13.432 30-30 0-16.569-13.431-30-30-30z"/>
<path id="ak" d="m30 0c-16.568 0-30 13.431-30 30 0 16.568 13.432 30 30 30 16.569 0 30-13.432 30-30 0-16.569-13.431-30-30-30z"/>
<path id="aj" d="m30 0c-16.568 0-30 13.431-30 30 0 16.568 13.432 30 30 30 16.569 0 30-13.432 30-30 0-16.569-13.431-30-30-30z"/>
<path id="ai" d="m30 0c-16.568 0-30 13.431-30 30 0 16.568 13.432 30 30 30 16.569 0 30-13.432 30-30 0-16.569-13.431-30-30-30z"/>
<path id="ah" d="m30 0c-16.568 0-30 13.431-30 30 0 16.568 13.432 30 30 30 16.569 0 30-13.432 30-30 0-16.569-13.431-30-30-30z"/>
<path id="ag" d="m30 0c-16.568 0-30 13.431-30 30 0 16.568 13.432 30 30 30 16.569 0 30-13.432 30-30 0-16.569-13.431-30-30-30z"/>
<path id="af" d="m30 0c-16.568 0-30 13.431-30 30 0 16.568 13.432 30 30 30 16.569 0 30-13.432 30-30 0-16.569-13.431-30-30-30z"/>
<path id="ae" d="m30 0c-16.568 0-30 13.431-30 30 0 16.568 13.432 30 30 30 16.569 0 30-13.432 30-30 0-16.569-13.431-30-30-30z"/>
<path id="ad" d="m30 0c-16.568 0-30 13.431-30 30 0 16.568 13.432 30 30 30 16.569 0 30-13.432 30-30 0-16.569-13.431-30-30-30"/>
<path id="ab" d="m30 0c-16.568 0-30 13.431-30 30 0 16.568 13.432 30 30 30 16.569 0 30-13.432 30-30 0-16.569-13.431-30-30-30"/>
<path id="aa" d="m30 0c-16.568 0-30 13.431-30 30 0 16.568 13.432 30 30 30 16.569 0 30-13.432 30-30 0-16.569-13.431-30-30-30"/>
<path id="z" d="m30 0c-16.568 0-30 13.431-30 30 0 16.568 13.432 30 30 30 16.569 0 30-13.432 30-30 0-16.569-13.431-30-30-30z"/>
<path id="y" d="m30 0c-16.568 0-30 13.431-30 30 0 16.568 13.432 30 30 30 16.569 0 30-13.432 30-30 0-16.569-13.431-30-30-30z"/>
<path id="x" d="m30 0c-16.568 0-30 13.431-30 30 0 16.568 13.432 30 30 30 16.569 0 30-13.432 30-30 0-16.569-13.431-30-30-30z"/>
<path id="w" d="m30 0c-16.568 0-30 13.431-30 30 0 16.568 13.432 30 30 30 16.569 0 30-13.432 30-30 0-16.569-13.431-30-30-30z"/>
<path id="v" d="m30 0c-16.568 0-30 13.431-30 30 0 16.568 13.432 30 30 30 16.569 0 30-13.432 30-30 0-16.569-13.431-30-30-30z"/>
<path id="u" d="m30 0c-16.568 0-30 13.431-30 30 0 16.568 13.432 30 30 30 16.569 0 30-13.432 30-30 0-16.569-13.431-30-30-30z"/>
<path id="t" d="m30 0c-16.568 0-30 13.431-30 30 0 16.568 13.432 30 30 30 16.569 0 30-13.432 30-30 0-16.569-13.431-30-30-30z"/>
<path id="s" d="m30 0c-16.568 0-30 13.431-30 30 0 16.568 13.432 30 30 30 16.569 0 30-13.432 30-30 0-16.569-13.431-30-30-30z"/>
<path id="q" d="m30 0c-16.568 0-30 13.431-30 30 0 16.568 13.432 30 30 30 16.569 0 30-13.432 30-30 0-16.569-13.431-30-30-30z"/>
<path id="p" d="m30 0c-16.568 0-30 13.431-30 30 0 16.568 13.432 30 30 30 16.569 0 30-13.432 30-30 0-16.569-13.431-30-30-30z"/>
<path id="o" d="m30 0c-16.568 0-30 13.431-30 30 0 16.568 13.432 30 30 30 16.569 0 30-13.432 30-30 0-16.569-13.431-30-30-30"/>
<path id="n" d="m30 0c-16.568 0-30 13.431-30 30 0 16.568 13.432 30 30 30 16.569 0 30-13.432 30-30 0-16.569-13.431-30-30-30z"/>
<path id="m" d="m30 0c-16.568 0-30 13.431-30 30 0 16.568 13.432 30 30 30 16.569 0 30-13.432 30-30 0-16.569-13.431-30-30-30z"/>
<path id="l" d="m30 0c-16.568 0-30 13.431-30 30 0 16.568 13.432 30 30 30 16.569 0 30-13.432 30-30 0-16.569-13.431-30-30-30z"/>
<path id="k" d="m30 0c-16.568 0-30 13.431-30 30 0 16.568 13.432 30 30 30 16.569 0 30-13.432 30-30 0-16.569-13.431-30-30-30z"/>
<path id="j" d="m30 0c-16.568 0-30 13.431-30 30 0 16.568 13.432 30 30 30 16.569 0 30-13.432 30-30 0-16.569-13.431-30-30-30z"/>
<path id="i" d="m30 0c-16.568 0-30 13.431-30 30 0 16.568 13.432 30 30 30 16.569 0 30-13.432 30-30 0-16.569-13.431-30-30-30z"/>
<path id="h" d="m30 0c-16.568 0-30 13.431-30 30 0 16.568 13.432 30 30 30 16.569 0 30-13.432 30-30 0-16.569-13.431-30-30-30z"/>
<path id="f" d="m30 0c-16.568 0-30 13.431-30 30 0 16.568 13.432 30 30 30 16.569 0 30-13.432 30-30 0-16.569-13.431-30-30-30z"/>
<path id="e" d="m30 0c-16.568 0-30 13.431-30 30 0 16.568 13.432 30 30 30 16.569 0 30-13.432 30-30 0-16.569-13.431-30-30-30z"/>
<path id="d" d="m30 0c-16.568 0-30 13.431-30 30 0 16.568 13.432 30 30 30 16.569 0 30-13.432 30-30 0-16.569-13.431-30-30-30z"/>
<path id="c" d="m30 0c-16.568 0-30 13.431-30 30 0 16.568 13.432 30 30 30 16.569 0 30-13.432 30-30 0-16.569-13.431-30-30-30z"/>
<path id="b" d="m30 0c-16.568 0-30 13.431-30 30 0 16.568 13.432 30 30 30 16.569 0 30-13.432 30-30 0-16.569-13.431-30-30-30z"/>
<path id="ay" d="m30 0c-16.568 0-30 13.431-30 30 0 16.568 13.432 30 30 30 16.569 0 30-13.432 30-30 0-16.569-13.431-30-30-30z"/>
</defs>
<g fill="none" fill-rule="evenodd">
<g transform="translate(1 1)">
<path d="m60 30c0 16.569-13.431 30-30 30s-30-13.431-30-30 13.431-30 30-30 30 13.431 30 30" fill="#7FCCF8"/>
<mask id="cp" fill="white">
<use xlink:href="#az"/>
</mask>
<path d="m13.087 48.636h-6.598c1.876 2.364 4.102 4.439 6.598 6.146v-6.146z" fill="#79C7F7" mask="url(#cp)"/>
<mask id="ce" fill="white">
<use xlink:href="#an"/>
</mask>
<path d="m13.094 48.136h-6.993c0.128 0.168 0.257 0.335 0.388 0.5h6.598v6.146c3e-3 1e-3 5e-3 3e-3 7e-3 4e-3v-6.65" fill="#8BD0F9" mask="url(#ce)"/>
<mask id="bt" fill="white">
<use xlink:href="#ac"/>
</mask>
<path d="m13.087 30.25h-0.184v4e-3h-7.893v0.216 0.472h-0.25v0.969h0.25v0.969h-0.25v0.969h0.25v0.969h-0.25v0.969h0.25v0.969h-0.25v0.969h0.25v0.969h-0.25v0.02l0.213 0.229h0.087v0.093l0.146 0.157h0.901v-0.25h1.047v0.25h1.047v-0.25h1.047v0.25h1.047v-0.25h1.048v0.25h1.047v-0.25h0.5v0.5h-0.5v-0.25h-1.047v0.25h-1.048v-0.25h-1.047v0.25h-1.047v-0.25h-1.047v0.25h-1.047v-0.25h-0.901l7.881 8.454v-17.397m-8.577 4e-3h-4.509c0.01 1.225 0.094 2.434 0.247 3.62l4.262 4.572v-0.721h0.25v-0.969h-0.25v-0.969h0.25v-0.969h-0.25v-0.969h0.25v-0.969h-0.25v-0.969h0.25v-0.969h-0.25v-0.5-0.188m0.25 8.44h-0.019l0.019 0.02v-0.02" fill="#79C7F7" mask="url(#bt)"/>
<mask id="bj" fill="white">
<use xlink:href="#r"/>
</mask>
<path d="m12.682 29.75h-7.922v4e-3h7.925l-3e-3 -4e-3z" fill="#8BD0F9" mask="url(#bj)"/>
<mask id="cv" fill="white">
<use xlink:href="#g"/>
</mask>
<path d="m4.7597 29.75h-4.759v4e-3h4.759v-4e-3m8.143 0.243v0.257h0.184v17.397 0.268h0.25 0.25-0.243-0.25v-17.445h-7e-3v-0.275l-0.184-0.202" fill="#8BD0F9" mask="url(#cv)"/>
<mask id="ct" fill="white">
<use xlink:href="#ax"/>
</mask>
<path d="m4.7597 30.942v0.969-0.969zm0 1.938v0.969-0.969zm0 1.938v0.969-0.969zm0 1.938v0.969-0.969z" fill="#74C4F6" mask="url(#ct)"/>
<mask id="cs" fill="white">
<use xlink:href="#aw"/>
</mask>
<path d="m4.7597 38.714v0.229-0.229zm0 0.729v0.22-0.22z" fill="#79C7F7" mask="url(#cs)"/>
<mask id="cr" fill="white">
<use xlink:href="#av"/>
</mask>
<path d="m4.7597 38.694v0.02-0.02z" fill="#74C4F6" mask="url(#cr)"/>
<mask id="cq" fill="white">
<use xlink:href="#au"/>
</mask>
<path d="m4.7597 40.632v0.969-0.969zm0 1.938v0.969-0.969zm0 1.938v0.969-0.969z" fill="#79C7F7" mask="url(#cq)"/>
<mask id="co" fill="white">
<use xlink:href="#at"/>
</mask>
<path d="m4.5097 30.442v0.5h0.25 0.25v-0.471h-0.25-0.25v-0.029z" fill="#86CDF8" mask="url(#co)"/>
<mask id="cn" fill="white">
<use xlink:href="#as"/>
</mask>
<path d="m5.0097 31.911h-0.25-0.25v0.969h0.25 0.25v-0.969zm0 1.938h-0.25-0.25v0.969h0.25 0.25v-0.969zm0 1.938h-0.25-0.25v0.969h0.25 0.25v-0.969z" fill="#86CDF8" mask="url(#cn)"/>
<mask id="cm" fill="white">
<use xlink:href="#ar"/>
</mask>
<path d="m4.5097 38.446v0.248h0.231l-0.231-0.248z" fill="#8BD0F9" mask="url(#cm)"/>
<mask id="cl" fill="white">
<use xlink:href="#aq"/>
</mask>
<path d="m5.0097 37.725h-0.25-0.25v0.721l0.231 0.248h0.019 0.25v-0.969z" fill="#86CDF8" mask="url(#cl)"/>
<mask id="ck" fill="white">
<use xlink:href="#ap"/>
</mask>
<path d="m5.0097 39.663h-0.25-0.25v0.969h0.25 0.25v-0.969m0 1.938h-0.25-0.25v0.969h0.25 0.25v-0.969m0 1.938h-0.25-0.25v0.969h0.25 0.25v-0.969m0 1.938h-0.25-0.25v0.35c0.13 0.209 0.261 0.414 0.396 0.619h0.104v-0.969" fill="#8BD0F9" mask="url(#ck)"/>
<mask id="cj" fill="white">
<use xlink:href="#ao"/>
</mask>
<path d="m12.39 39.193h-1.047 1.047zm-2.094 0h-1.047 1.047zm-2.095 0h-1.047 1.047z" fill="#74C4F6" mask="url(#cj)"/>
<mask id="ci" fill="white">
<use xlink:href="#am"/>
</mask>
<path d="m5.206 39.193h-0.146 0.146z" fill="#79C7F7" mask="url(#ci)"/>
<mask id="ch" fill="white">
<use xlink:href="#al"/>
</mask>
<path d="m6.1068 39.193h-0.901 0.901z" fill="#74C4F6" mask="url(#ch)"/>
<mask id="cg" fill="white">
<use xlink:href="#ak"/>
</mask>
<path d="m4.0125 39.193h-1.047 1.047zm-2.094 0h-0.484 0.484z" fill="#79C7F7" mask="url(#cg)"/>
<mask id="cf" fill="white">
<use xlink:href="#aj"/>
</mask>
<path d="m12.89 38.943h-0.5v0.25 0.25h0.5v-0.5z" fill="#86CDF8" mask="url(#cf)"/>
<mask id="cd" fill="white">
<use xlink:href="#ai"/>
</mask>
<path d="m11.342 38.943h-1.047v0.25 0.25h1.047v-0.25-0.25zm-2.094 0h-1.047v0.25 0.25h1.047v-0.25-0.25zm-2.095 0h-1.047v0.25 0.25h1.047v-0.25-0.25z" fill="#86CDF8" mask="url(#cd)"/>
<mask id="cc" fill="white">
<use xlink:href="#ah"/>
</mask>
<path d="m4.973 38.943h-0.213v0.5h0.3v-0.25-0.157l-0.087-0.093zm-0.213 0h-0.748v0.25 0.25h0.748v-0.5z" fill="#8BD0F9" mask="url(#cc)"/>
<mask id="cb" fill="white">
<use xlink:href="#ag"/>
</mask>
<path d="m5.0596 38.943h-0.087l0.087 0.093v-0.093z" fill="#86CDF8" mask="url(#cb)"/>
<mask id="ca" fill="white">
<use xlink:href="#af"/>
</mask>
<path d="m4.7597 38.943v0.5-0.5z" fill="#86CDF8" mask="url(#ca)"/>
<mask id="bz" fill="white">
<use xlink:href="#ae"/>
</mask>
<path d="m2.9654 38.943h-1.047v0.25 0.25h1.047v-0.25-0.25z" fill="#8BD0F9" mask="url(#bz)"/>
<mask id="by" fill="white">
<use xlink:href="#ad"/>
</mask>
<path d="m13.087 12.335h-7.337c-0.344 0.471-0.674 0.952-0.99 1.443v0.259h0.25v0.996h-0.25v0.996h0.25v0.996h-0.25v0.995h0.25v0.996h-0.25v0.996h0.25v0.996h-0.25v0.029l0.218 0.241h0.257v-0.25h0.95v0.25h0.95v-0.25h0.951v0.25h0.95v-0.25h0.95v0.25h0.95v-0.25h0.951v0.25h0.95v-0.25h0.25v-8.693" fill="#79C7F7" mask="url(#by)"/>
<mask id="bx" fill="white">
<use xlink:href="#ab"/>
</mask>
<path d="m4.7597 13.778c-0.056 0.086-0.11 0.172-0.165 0.258h0.165v-0.258" fill="#79C7F7" mask="url(#bx)"/>
<mask id="bw" fill="white">
<use xlink:href="#aa"/>
</mask>
<path d="m4.5097 14.173c-0.829 1.333-1.558 2.737-2.173 4.199l2.173 2.39v-0.75h0.25v-0.996h-0.25v-0.996h0.25v-0.996h-0.25v-0.996h0.25v-0.996h-0.25v-0.859m8.327 7.104h-0.95v0.25h-0.95v-0.25h-0.951v0.25h-0.95v-0.25h-0.95v0.25h-0.95v-0.25h-0.951v0.25h-0.95v-0.25h-0.256l7.703 8.473h0.405v-8.223h-0.25v-0.25" fill="#79C7F7" mask="url(#bw)"/>
<mask id="bv" fill="white">
<use xlink:href="#z"/>
</mask>
<path d="m13.087 29.75h-0.405l3e-3 4e-3h0.218v0.239l0.184 0.202v-0.445z" fill="#81CAF7" mask="url(#bv)"/>
<mask id="bu" fill="white">
<use xlink:href="#y"/>
</mask>
<path d="m4.7597 21.008h-0.027l0.027 0.029v-0.029z" fill="#79C7F7" mask="url(#bu)"/>
<mask id="bs" fill="white">
<use xlink:href="#x"/>
</mask>
<path d="m13.094 11.835h-6.971c-0.126 0.165-0.25 0.332-0.373 0.5h7.337v8.693h7e-3v-9.193zm0 9.693h-7e-3v8.222h7e-3v-8.222z" fill="#8BD0F9" mask="url(#bs)"/>
<mask id="br" fill="white">
<use xlink:href="#w"/>
</mask>
<path d="m13.094 29.75h-7e-3v0.445 0.275h7e-3v-0.72z" fill="#93D4F9" mask="url(#br)"/>
<mask id="bq" fill="white">
<use xlink:href="#v"/>
</mask>
<path d="m4.7597 13.778v0.258-0.258zm0 1.254v0.996-0.996zm0 1.992v0.996-0.996zm0 1.992v0.996-0.996z" fill="#74C4F6" mask="url(#bq)"/>
<mask id="bp" fill="white">
<use xlink:href="#u"/>
</mask>
<path d="m4.7597 21.037v0.24-0.24zm0 0.24v0.726-0.726z" fill="#79C7F7" mask="url(#bp)"/>
<mask id="bo" fill="white">
<use xlink:href="#t"/>
</mask>
<path d="m4.7597 21.008v0.029-0.029z" fill="#74C4F6" mask="url(#bo)"/>
<mask id="bn" fill="white">
<use xlink:href="#s"/>
</mask>
<path d="m4.7597 22.999v0.996-0.996zm0 1.992v0.996-0.996zm0 1.991v0.996-0.996zm0 1.992v0.776-0.776z" fill="#79C7F7" mask="url(#bn)"/>
<mask id="bm" fill="white">
<use xlink:href="#q"/>
</mask>
<path d="m4.7597 29.75v4e-3 -4e-3z" fill="#81CAF7" mask="url(#bm)"/>
<mask id="cx" fill="white">
<use xlink:href="#p"/>
</mask>
<mask id="bl" fill="white">
<use xlink:href="#o"/>
</mask>
<path d="m5.0097 14.037h-0.25-0.165c-0.028 0.045-0.057 0.091-0.085 0.136v0.86h0.25 0.25v-0.996m0 1.992h-0.25-0.25v0.996h0.25 0.25v-0.996m0 1.991h-0.25-0.25v0.996h0.25 0.25v-0.996" fill="#86CDF8" mask="url(#bl)"/>
<mask id="bk" fill="white">
<use xlink:href="#n"/>
</mask>
<path d="m4.5097 20.762v0.246h0.223l-0.223-0.246z" fill="#8BD0F9" mask="url(#bk)"/>
<mask id="bi" fill="white">
<use xlink:href="#m"/>
</mask>
<path d="m5.0097 20.012h-0.25-0.25v0.75l0.223 0.246h0.027 0.25v-0.996z" fill="#86CDF8" mask="url(#bi)"/>
<mask id="bh" fill="white">
<use xlink:href="#l"/>
</mask>
<path d="m5.0097 22.004h-0.25-0.25v0.996h0.25 0.25v-0.996zm0 1.992h-0.25-0.25v0.996h0.25 0.25v-0.996zm0 1.992h-0.25-0.25v0.995h0.25 0.25v-0.995zm0 1.991h-0.25-0.25v0.996h0.25 0.25v-0.996z" fill="#8BD0F9" mask="url(#bh)"/>
<mask id="bg" fill="white">
<use xlink:href="#k"/>
</mask>
<path d="m5.0097 30.254h-0.5v0.188h0.5v0.029-0.217z" fill="#86CDF8" mask="url(#bg)"/>
<mask id="bf" fill="white">
<use xlink:href="#j"/>
</mask>
<path d="m5.0097 30.442h-0.5v0.029h0.25 0.25v-0.029z" fill="#90D2F9" mask="url(#bf)"/>
<mask id="be" fill="white">
<use xlink:href="#i"/>
</mask>
<path d="m12.837 21.278h-0.95 0.95zm-1.901 0h-0.95 0.95zm-1.9 0h-0.95 0.95zm-1.901 0h-0.95 0.95z" fill="#74C4F6" mask="url(#be)"/>
<mask id="bd" fill="white">
<use xlink:href="#h"/>
</mask>
<path d="m4.9784 21.278h-0.219 0.219zm-0.219 0h-0.475 0.475z" fill="#79C7F7" mask="url(#bd)"/>
<mask id="bc" fill="white">
<use xlink:href="#f"/>
</mask>
<path d="m5.2349 21.278h-0.256 0.256z" fill="#74C4F6" mask="url(#bc)"/>
<mask id="cw" fill="white">
<use xlink:href="#e"/>
</mask>
<mask id="bb" fill="white">
<use xlink:href="#d"/>
</mask>
<path d="m3.3343 21.278h-0.95 0.95z" fill="#79C7F7" mask="url(#bb)"/>
<mask id="ba" fill="white">
<use xlink:href="#c"/>
</mask>
<path d="m1.4338 21.278h-0.146 0.146z" fill="#79C7F7" mask="url(#ba)"/>
<mask id="cu" fill="white">
<use xlink:href="#b"/>
</mask>
<path d="m13.087 21.028h-0.25v0.25 0.25h0.25v-0.5z" fill="#86CDF8" mask="url(#cu)"/>
<mask id="a" fill="white">
<use xlink:href="#ay"/>
</mask>
<path d="m13.094 21.028h-7e-3v0.5h7e-3v-0.5z" fill="#93D4F9" mask="url(#a)"/>
<path d="m11.887 21.028h-0.95v0.25 0.25h0.95v-0.25-0.25zm-1.901 0h-0.95v0.25 0.25h0.95v-0.25-0.25zm-1.9 0h-0.95v0.25 0.25h0.95v-0.25-0.25zm-1.901 0h-0.95v0.25 0.25h0.95v-0.25-0.25z" fill="#86CDF8" mask="url(#a)"/>
<path d="m4.2846 21.028h-0.95v0.25 0.25h0.95v-0.25-0.25zm-1.901 0h-0.95v0.25 0.25h0.95v-0.25-0.25z" fill="#8BD0F9" mask="url(#a)"/>
<path d="m13.087 5.2185c-1.156 0.791-2.255 1.66-3.287 2.601l3.287 3.527v-6.128" fill="#79C7F7" mask="url(#a)"/>
<path d="m13.094 5.2139c-2e-3 2e-3 -4e-3 3e-3 -7e-3 5e-3v6.127 0.268h0.25 0.25-0.243-0.25v-6.4" fill="#8BD0F9" mask="url(#a)"/>
<path d="m12.903 30.25h-7.893v4e-3h7.893v-4e-3zm-8.393 0h-4.509v4e-3h4.509v-4e-3z" fill="#86CDF8" mask="url(#a)"/>
<path d="m12.685 29.754h-7.925v0.217h0.25v0.279h7.893v-0.256l-0.218-0.24z" fill="#93D4F9" mask="url(#a)"/>
<path d="m4.7597 29.754h-4.759c0 0.082-1e-3 0.164-1e-3 0.246 0 0.083 1e-3 0.168 1e-3 0.25h4.509v-0.279h0.25v-0.217" fill="#93D4F9" mask="url(#a)"/>
<path d="m12.903 29.754h-0.218l0.218 0.24v-0.24z" fill="#8CD0F8" mask="url(#a)"/>
<path d="m4.7597 29.754v0.217-0.217z" fill="#8CD0F8" mask="url(#a)"/>
<path d="m5.01 30.25h-0.5v4e-3h0.5v-4e-3z" fill="#90D2F9" mask="url(#a)"/>
<path d="m5.0097 29.97h-0.25-0.25v0.279h0.5v-0.279z" fill="#99D6F9" mask="url(#a)"/>
<path d="m53.511 48.636h-5.609v5.439c2.098-1.562 3.984-3.392 5.609-5.439" fill="#79C7F7" mask="url(#a)"/>
<path d="m53.9 48.136h-5.997v0.5h5.609c0.131-0.165 0.26-0.332 0.388-0.5" fill="#8BD0F9" mask="url(#a)"/>
<path d="m59.996 30.47h-12.094v8.472h0.25v0.25h0.95v-0.25h0.951v0.25h0.95v-0.25h0.95v0.25h0.95v-0.25h0.951v0.25h0.95v-0.25h0.95v0.25h0.475v-0.468h-0.25v-0.966h0.25v-0.965h-0.25v-0.966h0.25v-0.966h-0.25v-0.965h0.25v-0.966h-0.25v-0.965h0.25v-0.966h-0.25v-0.5h0.5v0.5h-0.25v0.966h0.25v0.965h-0.25v0.966h0.25v0.965h-0.25v0.966h0.25v0.966h-0.25v0.965h0.25v0.966h-0.25v0.468h0.475v-0.25h0.951v0.25h0.91c0.013-0.042 0.027-0.083 0.04-0.125v-0.125h0.039c0.837-2.682 1.307-5.525 1.352-8.472m-1.431 8.722h-0.91v0.25h-0.951v-0.25h-0.475v0.498h0.25v0.965h-0.25v0.966h0.25v0.966h-0.25v0.965h0.25v0.561c0.835-1.563 1.535-3.208 2.086-4.921m-2.336 0h-0.475v0.25h-0.95v-0.25h-0.95v0.25h-0.951v-0.25h-0.95v0.25h-0.95v-0.25h-0.95v0.25h-0.951v-0.25h-0.95v0.25h-0.25v8.473h-0.25 6.413c0.793-1.063 1.516-2.179 2.164-3.344v-0.053h-0.25v-0.966h0.25v-0.965h-0.25v-0.966h0.25v-0.966h-0.25v-0.965h0.25v-0.498m0.03 5.326h-0.03v0.053c0.01-0.017 0.02-0.036 0.03-0.053" fill="#79C7F7" mask="url(#a)"/>
<path d="m56.23 30.999v0.966-0.966zm0 1.931v0.966-0.966zm0 1.932v0.965-0.965zm0 1.931v0.966-0.966zm0 1.931v0.469-0.469zm0 0.469v0.497-0.497zm0 1.462v0.966-0.966zm0 1.932v0.965-0.965zm0 1.931v0.053-0.053z" fill="#74C4F6" mask="url(#a)"/>
<path d="m56.48 30.499h-0.5v0.5h0.25 0.25v-0.5z" fill="#86CDF8" mask="url(#a)"/>
<path d="m56.48 31.965h-0.25-0.25v0.966h0.25 0.25v-0.966m0 1.931h-0.25-0.25v0.966h0.25 0.25v-0.966m0 1.932h-0.25-0.25v0.965h0.25 0.25v-0.965m0 1.931h-0.25-0.25v0.966h0.25 0.25v-0.966m0 1.931h-0.25-0.25v0.966h0.25 0.25v-0.966m0 1.931h-0.25-0.25v0.966h0.25 0.25v-0.966m0 1.932h-0.25-0.25v0.965h0.25 0.03c0.074-0.134 0.147-0.269 0.22-0.405v-0.56" fill="#86CDF8" mask="url(#a)"/>
<path d="m58.565 39.193h-0.91 0.91zm-1.861 0h-0.475 0.475zm-0.475 0h-0.475 0.475z" fill="#74C4F6" mask="url(#a)"/>
<path d="m54.804 39.193h-0.95 0.95zm-1.901 0h-0.95 0.95zm-1.9 0h-0.95 0.95zm-1.901 0h-0.95 0.95z" fill="#74C4F6" mask="url(#a)"/>
<path d="m58.644 38.943h-0.039v0.125c0.013-0.042 0.026-0.084 0.039-0.125m-0.989 0h-0.951v0.25 0.25h0.951v-0.25-0.25m-1.901 0h-0.95v0.25 0.25h0.95v-0.25-0.25m-1.9 0h-0.951v0.25 0.25h0.951v-0.25-0.25m-1.901 0h-0.95v0.25 0.25h0.95v-0.25-0.25m-1.9 0h-0.951v0.25 0.25h0.951v-0.25-0.25" fill="#86CDF8" mask="url(#a)"/>
<path d="m48.152 38.943h-0.25v0.5h0.25v-0.25-0.25z" fill="#86CDF8" mask="url(#a)"/>
<path d="m30.248 48.636h-16.654v6.485c1.274 0.834 2.614 1.573 4.013 2.208h0.038v0.017c0.175 0.079 0.35 0.157 0.528 0.233h0.422v-0.25h0.95v0.25h0.95v-0.25h0.951v0.25h0.475v-0.262h-0.25v-0.995h0.25v-0.995h-0.25v-0.995h0.25v-0.995h-0.25v-0.996h0.25v-0.995h-0.25v-0.995h0.25v-0.995h-0.25v-0.5h0.5v0.5h-0.25v0.995h0.25v0.995h-0.25v0.995h0.25v0.996h-0.25v0.995h0.25v0.995h-0.25v0.995h0.25v0.995h-0.25v0.262h0.475v-0.25h0.95v0.25h0.95v-0.25h0.951v0.25h0.95v-0.25h0.95v0.25h0.951v-0.25h0.95v0.25h0.95v-0.25h0.25v-8.693m-0.25 8.943h-0.95v0.25h-0.95v-0.25h-0.951v0.25h-0.95v-0.25h-0.95v0.25h-0.951v-0.25h-0.95v0.25h-0.95v-0.25h-0.475v0.733h0.25v0.656c2.495 0.673 5.121 1.032 7.829 1.032 0.083 0 0.165 0 0.248-1e-3v-2.17h-0.25v-0.25m-8.077 0h-0.475v0.25h-0.951v-0.25h-0.95v0.25h-0.772c0.943 0.381 1.91 0.715 2.898 1v-0.517h0.25v-0.733m-3.326 0h-0.422c0.14 0.06 0.281 0.119 0.422 0.177v-0.177" fill="#79C7F7" mask="url(#a)"/>
<path d="m30.748 48.136h-17.654 0.493v6.98c2e-3 2e-3 4e-3 3e-3 7e-3 5e-3v-6.485h16.654v8.693h0.25v0.5h-0.25v2.17c0.167-1e-3 0.334-4e-3 0.5-8e-3v-2.162h-0.25v-0.25-0.25h0.25v-9.193" fill="#8BD0F9" mask="url(#a)"/>
<path d="m13.587 48.136h-0.493v6.65c0.163 0.112 0.328 0.222 0.493 0.33v-6.98" fill="#93D4F9" mask="url(#a)"/>
<path d="m21.921 49.356v0.995-0.995zm0 1.99v0.995-0.995zm0 1.99v0.995-0.995zm0 1.99v0.995-0.995zm0 1.99v0.262-0.262zm0 0.262v0.733-0.733z" fill="#74C4F6" mask="url(#a)"/>
<path d="m22.171 48.856h-0.5v0.5h0.25 0.25v-0.5z" fill="#86CDF8" mask="url(#a)"/>
<path d="m22.171 50.351h-0.25-0.25v0.995h0.25 0.25v-0.995m0 1.99h-0.25-0.25v0.995h0.25 0.25v-0.995m0 1.99h-0.25-0.25v0.995h0.25 0.25v-0.995m0 1.99h-0.25-0.25v0.995h0.25 0.25v-0.995m0 1.99h-0.25-0.25v0.517c0.167 0.049 0.332 0.095 0.5 0.14v-0.657" fill="#86CDF8" mask="url(#a)"/>
<path d="m29.998 57.579h-0.95 0.95zm-1.9 0h-0.951 0.951zm-1.901 0h-0.95 0.95zm-1.901 0h-0.95 0.95zm-1.9 0h-0.475 0.475zm-0.475 0h-0.475 0.475z" fill="#74C4F6" mask="url(#a)"/>
<path d="m20.496 57.579h-0.95 0.95zm-1.901 0h-0.422 0.422z" fill="#74C4F6" mask="url(#a)"/>
<path d="m30.248 57.329h-0.25v0.25 0.25h0.25v-0.5z" fill="#86CDF8" mask="url(#a)"/>
<path d="m30.498 57.329h-0.25v0.5h0.25v-0.5z" fill="#93D4F9" mask="url(#a)"/>
<path d="m29.048 57.329h-0.95v0.25 0.25h0.95v-0.25-0.25m-1.9 0h-0.951v0.25 0.25h0.951v-0.25-0.25m-1.901 0h-0.95v0.25 0.25h0.95v-0.25-0.25m-1.901 0h-0.95v0.25 0.25h0.95v-0.25-0.25m-1.9 0h-0.95v0.25 0.25h0.95v-0.25-0.25m-1.901 0h-0.95v0.25 0.177c0.06 0.025 0.118 0.049 0.178 0.073h0.772v-0.25-0.25m-1.9 0h-0.038c0.012 6e-3 0.026 0.012 0.038 0.017v-0.017" fill="#86CDF8" mask="url(#a)"/>
<path d="m30.248 30.47h-16.654v8.472h0.25v0.25h0.95v-0.25h0.95v0.25h0.95v-0.25h0.951v0.25h0.95v-0.25h0.95v0.25h0.95v-0.25h0.951v0.25h0.475v-0.468h-0.25v-0.966h0.25v-0.965h-0.25v-0.966h0.25v-0.966h-0.25v-0.965h0.25v-0.966h-0.25v-0.965h0.25v-0.966h-0.25v-0.5h0.5v0.5h-0.25v0.966h0.25v0.965h-0.25v0.966h0.25v0.965h-0.25v0.966h0.25v0.966h-0.25v0.965h0.25v0.966h-0.25v0.468h0.475v-0.25h0.95v0.25h0.95v-0.25h0.951v0.25h0.95v-0.25h0.95v0.25h0.951v-0.25h0.95v0.25h0.95v-0.25h0.25v-8.472zm-0.25 8.722h-0.95v0.25h-0.95v-0.25h-0.951v0.25h-0.95v-0.25h-0.95v0.25h-0.951v-0.25h-0.95v0.25h-0.95v-0.25h-0.475v0.498h0.25v0.965h-0.25v0.966h0.25v0.966h-0.25v0.965h0.25v0.966h-0.25v0.966h0.25v0.965h-0.25v0.966h0.25v0.5h-0.25-0.25v-0.5h0.25v-0.966h-0.25v-0.965h0.25v-0.966h-0.25v-0.966h0.25v-0.965h-0.25v-0.966h0.25v-0.966h-0.25v-0.965h0.25v-0.498h-0.475v0.25h-0.951v-0.25h-0.95v0.25h-0.95v-0.25h-0.95v0.25h-0.951v-0.25h-0.95v0.25h-0.95v-0.25h-0.95v0.25h-0.25v8.473h-7e-3 16.911-0.25v-8.473h-0.25v-0.25z" fill="#79C7F7" mask="url(#a)"/>
<path d="m30.748 30.47h-0.25-0.25v8.472h0.25v0.5h-0.25v8.473h0.25 0.25v-8.473h-0.25v-0.25-0.25h0.25v-8.472zm-17.154 0h-7e-3v8.472h7e-3v-8.472zm0 8.972h-7e-3v8.472h7e-3v-8.472z" fill="#8BD0F9" mask="url(#a)"/>
<path d="m13.587 30.47h-0.25-0.243v17.445h0.25 0.243v-8.473h-0.243v-0.25-0.25h0.243v-8.472z" fill="#93D4F9" mask="url(#a)"/>
<path d="m21.921 30.999v0.966-0.966zm0 1.931v0.966-0.966zm0 1.932v0.965-0.965zm0 1.931v0.966-0.966zm0 1.931v0.469-0.469zm0 0.469v0.497-0.497zm0 1.462v0.966-0.966zm0 1.932v0.965-0.965zm0 1.931v0.966-0.966zm0 1.931v0.966-0.966z" fill="#74C4F6" mask="url(#a)"/>
<path d="m22.171 30.499h-0.5v0.5h0.25 0.25v-0.5z" fill="#86CDF8" mask="url(#a)"/>
<path d="m22.171 31.965h-0.25-0.25v0.966h0.25 0.25v-0.966zm0 1.931h-0.25-0.25v0.966h0.25 0.25v-0.966zm0 1.932h-0.25-0.25v0.965h0.25 0.25v-0.965zm0 1.931h-0.25-0.25v0.966h0.25 0.25v-0.966zm0 1.931h-0.25-0.25v0.966h0.25 0.25v-0.966zm0 1.931h-0.25-0.25v0.966h0.25 0.25v-0.966zm0 1.932h-0.25-0.25v0.965h0.25 0.25v-0.965zm0 1.931h-0.25-0.25v0.966h0.25 0.25v-0.966z" fill="#86CDF8" mask="url(#a)"/>
<path d="m22.171 47.415h-0.25-0.25v0.5h0.25 0.25v-0.5z" fill="#86CDF8" mask="url(#a)"/>
<path d="m29.998 39.193h-0.95 0.95zm-1.9 0h-0.951 0.951zm-1.901 0h-0.95 0.95zm-1.901 0h-0.95 0.95zm-1.9 0h-0.475 0.475zm-0.475 0h-0.475 0.475z" fill="#74C4F6" mask="url(#a)"/>
<path d="m20.496 39.193h-0.95 0.95zm-1.901 0h-0.95 0.95zm-1.9 0h-0.95 0.95zm-1.901 0h-0.95 0.95z" fill="#74C4F6" mask="url(#a)"/>
<path d="m30.248 38.943h-0.25v0.25 0.25h0.25v-0.5z" fill="#86CDF8" mask="url(#a)"/>
<path d="m30.498 38.943h-0.25v0.5h0.25v-0.5z" fill="#93D4F9" mask="url(#a)"/>
<path d="m29.048 38.943h-0.95v0.25 0.25h0.95v-0.25-0.25zm-1.9 0h-0.951v0.25 0.25h0.951v-0.25-0.25zm-1.901 0h-0.95v0.25 0.25h0.95v-0.25-0.25zm-1.901 0h-0.95v0.25 0.25h0.95v-0.25-0.25zm-1.9 0h-0.95v0.25 0.25h0.95v-0.25-0.25zm-1.901 0h-0.95v0.25 0.25h0.95v-0.25-0.25zm-1.9 0h-0.95v0.25 0.25h0.95v-0.25-0.25zm-1.901 0h-0.95v0.25 0.25h0.95v-0.25-0.25z" fill="#86CDF8" mask="url(#a)"/>
<path d="m13.844 38.943h-0.25v0.5h0.25v-0.25-0.25z" fill="#86CDF8" mask="url(#a)"/>
<path d="m13.594 38.943h-7e-3v0.5h7e-3v-0.5z" fill="#93D4F9" mask="url(#a)"/>
<path d="m13.587 38.943h-0.243v0.25 0.25h0.243v-0.5z" fill="#99D6F9" mask="url(#a)"/>
<path d="m47.402 48.636h-16.24l7.663 8.427v-0.75h0.25v-0.996h-0.25v-0.996h0.25v-0.996h-0.25v-0.995h0.25v-0.996h-0.25v-0.996h0.25v-0.996h-0.25v-0.5h0.5v0.5h-0.25v0.996h0.25v0.996h-0.25v0.996h0.25v0.995h-0.25v0.996h0.25v0.996h-0.25v0.996h0.25v0.996h-0.25v0.029l0.218 0.241h0.257v-0.25h0.95v0.25h0.95v-0.25h0.943c1.768-0.803 3.444-1.773 5.009-2.889v-5.804m-5.952 8.943h-0.95v0.25h-0.95v-0.25h-0.257l0.664 0.729c0.504-0.177 1.002-0.367 1.493-0.571v-0.158" fill="#79C7F7" mask="url(#a)"/>
<path d="m39.075 57.309h-0.027l0.027 0.029v-0.029z" fill="#79C7F7" mask="url(#a)"/>
<path d="m47.902 48.136h-16.967v0.25 0.25h0.227 16.24v-0.5h0.5z" fill="#8BD0F9" mask="url(#a)"/>
<path d="m47.902 48.136h-0.5v0.5 5.804c0.168-0.12 0.335-0.242 0.5-0.365v-5.439-0.5" fill="#93D4F9" mask="url(#a)"/>
<path d="m39.075 49.342v0.996-0.996zm0 1.992v0.996-0.996zm0 1.991v0.996-0.996zm0 1.992v0.996-0.996z" fill="#74C4F6" mask="url(#a)"/>
<path d="m39.075 57.338v0.24-0.24zm0 0.24v0.726-0.726z" fill="#79C7F7" mask="url(#a)"/>
<path d="m39.075 57.309v0.029-0.029z" fill="#74C4F6" mask="url(#a)"/>
<path d="m39.325 48.842h-0.5v0.5h0.25 0.25v-0.5z" fill="#86CDF8" mask="url(#a)"/>
<path d="m39.325 50.338h-0.25-0.25v0.996h0.25 0.25v-0.996zm0 1.992h-0.25-0.25v0.996h0.25 0.25v-0.996zm0 1.991h-0.25-0.25v0.996h0.25 0.25v-0.996zm0 1.992h-0.25-0.25v0.751l0.223 0.245h0.027 0.25v-0.996z" fill="#86CDF8" mask="url(#a)"/>
<path d="m38.825 57.063v0.245h0.223l-0.223-0.245m0.5 1.241h-0.25-0.25v0.377c0.167-0.052 0.334-0.105 0.5-0.159v-0.218" fill="#8BD0F9" mask="url(#a)"/>
<path d="m41.451 57.579h-0.95 0.95z" fill="#74C4F6" mask="url(#a)"/>
<path d="m39.294 57.579h-0.219 0.219zm-0.219 0h-0.475 0.475z" fill="#79C7F7" mask="url(#a)"/>
<path d="m39.55 57.579h-0.257 0.257z" fill="#74C4F6" mask="url(#a)"/>
<path d="m37.65 57.579h-0.95 0.95zm-1.9 0h-0.951 0.951zm-1.901 0h-0.95 0.95zm-1.901 0h-0.95 0.95z" fill="#79C7F7" mask="url(#a)"/>
<path d="m42.393 57.329h-0.942v0.25 0.159c0.316-0.131 0.631-0.268 0.942-0.409m-1.893 0h-0.95v0.25 0.25h0.95v-0.25-0.25" fill="#86CDF8" mask="url(#a)"/>
<path d="m38.6 57.329h-0.95v0.25 0.25h0.95v-0.25-0.25zm-1.901 0h-0.95v0.25 0.25h0.95v-0.25-0.25zm-1.9 0h-0.95v0.25 0.25h0.95v-0.25-0.25zm-1.901 0h-0.95v0.25 0.25h0.95v-0.25-0.25z" fill="#8BD0F9" mask="url(#a)"/>
<path d="m30.998 57.329h-0.25v0.5h0.25v-0.25-0.25z" fill="#8BD0F9" mask="url(#a)"/>
<path d="m30.748 57.329h-0.25v0.25 0.25h0.25v-0.5z" fill="#93D4F9" mask="url(#a)"/>
<path d="m47.402 30.25h-0.184v4e-3h-7.893v0.216 0.472h-0.25v0.969h0.25v0.969h-0.25v0.969h0.25v0.969h-0.25v0.969h0.25v0.969h-0.25v0.969h0.25v0.969h-0.25v0.02l0.213 0.229h0.087v0.093l0.146 0.157h0.901v-0.25h1.047v0.25h1.047v-0.25h1.047v0.25h1.047v-0.25h1.048v0.25h1.047v-0.25h0.5v0.5h-0.5v-0.25h-1.047v0.25h-1.048v-0.25h-1.047v0.25h-1.047v-0.25h-1.047v0.25h-1.047v-0.25h-0.901l7.881 8.454v-17.397z" fill="#79C7F7" mask="url(#a)"/>
<path d="m38.825 30.254h-7.637l7.637 8.192v-0.721h0.25v-0.969h-0.25v-0.969h0.25v-0.969h-0.25v-0.969h0.25v-0.969h-0.25v-0.969h0.25v-0.969h-0.25v-0.5-0.188zm0.25 8.44h-0.019l0.019 0.02v-0.02z" fill="#79C7F7" mask="url(#a)"/>
<path d="m46.997 29.75h-7.922v4e-3h7.925l-3e-3 -4e-3zm-7.922 0h-8.123v4e-3h8.123v-4e-3zm8.143 0.243v0.257h0.184v-0.055l-0.184-0.202z" fill="#8BD0F9" mask="url(#a)"/>
<path d="m47.402 30.196v0.054 17.666h0.5v-8.473h-0.25v-0.25-0.25h0.25v-8.472h-0.25-0.25v-0.275z" fill="#93D4F9" mask="url(#a)"/>
<path d="m47.902 38.943h-0.25v0.25 0.25h0.25v-0.5z" fill="#99D6F9" mask="url(#a)"/>
<path d="m39.075 30.942v0.969-0.969zm0 1.938v0.969-0.969zm0 1.938v0.969-0.969zm0 1.938v0.969-0.969z" fill="#74C4F6" mask="url(#a)"/>
<path d="m39.075 38.714v0.229-0.229zm0 0.729v0.22-0.22z" fill="#79C7F7" mask="url(#a)"/>
<path d="m39.075 38.694v0.02-0.02z" fill="#74C4F6" mask="url(#a)"/>
<path d="m39.075 40.632v0.969-0.969zm0 1.938v0.969-0.969zm0 1.938v0.969-0.969zm0 1.938v0.969-0.969z" fill="#79C7F7" mask="url(#a)"/>
<path d="m38.825 30.442v0.5h0.25 0.25v-0.471h-0.25-0.25v-0.029z" fill="#86CDF8" mask="url(#a)"/>
<path d="m39.325 31.911h-0.25-0.25v0.969h0.25 0.25v-0.969zm0 1.938h-0.25-0.25v0.969h0.25 0.25v-0.969zm0 1.938h-0.25-0.25v0.969h0.25 0.25v-0.969z" fill="#86CDF8" mask="url(#a)"/>
<path d="m38.825 38.446v0.248h0.231l-0.231-0.248z" fill="#8BD0F9" mask="url(#a)"/>
<path d="m39.325 37.725h-0.25-0.25v0.721l0.231 0.248h0.019 0.25v-0.969z" fill="#86CDF8" mask="url(#a)"/>
<path d="m39.325 39.663h-0.25-0.25v0.969h0.25 0.25v-0.969zm0 1.938h-0.25-0.25v0.969h0.25 0.25v-0.969zm0 1.938h-0.25-0.25v0.969h0.25 0.25v-0.969zm0 1.938h-0.25-0.25v0.969h0.25 0.25v-0.969z" fill="#8BD0F9" mask="url(#a)"/>
<path d="m39.325 47.415h-0.25-0.25v0.5h0.25 0.25v-0.5z" fill="#8BD0F9" mask="url(#a)"/>
<path d="m46.705 39.193h-1.047 1.047zm-2.094 0h-1.047 1.047zm-2.095 0h-1.047 1.047z" fill="#74C4F6" mask="url(#a)"/>
<path d="m39.522 39.193h-0.146 0.146z" fill="#79C7F7" mask="url(#a)"/>
<path d="m40.422 39.193h-0.901 0.901z" fill="#74C4F6" mask="url(#a)"/>
<path d="m38.328 39.193h-1.047 1.047zm-2.094 0h-1.047 1.047zm-2.095 0h-1.047 1.047zm-2.094 0h-1.047 1.047z" fill="#79C7F7" mask="url(#a)"/>
<path d="m47.205 38.943h-0.5v0.25 0.25h0.5v-0.5z" fill="#86CDF8" mask="url(#a)"/>
<path d="m45.658 38.943h-1.047v0.25 0.25h1.047v-0.25-0.25zm-2.094 0h-1.047v0.25 0.25h1.047v-0.25-0.25zm-2.095 0h-1.047v0.25 0.25h1.047v-0.25-0.25z" fill="#86CDF8" mask="url(#a)"/>
<path d="m39.289 38.943h-0.213v0.5h0.3v-0.25-0.157l-0.087-0.093zm-0.213 0h-0.748v0.25 0.25h0.748v-0.5z" fill="#8BD0F9" mask="url(#a)"/>
<path d="m39.375 38.943h-0.087l0.087 0.093v-0.093z" fill="#86CDF8" mask="url(#a)"/>
<path d="m39.075 38.943v0.5-0.5z" fill="#86CDF8" mask="url(#a)"/>
<path d="m37.281 38.943h-1.047v0.25 0.25h1.047v-0.25-0.25zm-2.094 0h-1.047v0.25 0.25h1.047v-0.25-0.25zm-2.095 0h-1.047v0.25 0.25h1.047v-0.25-0.25z" fill="#8BD0F9" mask="url(#a)"/>
<path d="m30.998 38.943h-0.25v0.5h0.25v-0.25-0.25z" fill="#8BD0F9" mask="url(#a)"/>
<path d="m30.748 38.943h-0.25v0.25 0.25h0.25v-0.5z" fill="#93D4F9" mask="url(#a)"/>
<path d="m54.25 12.335h-6.348v8.693h0.25v0.25h0.951v-0.25h0.95v0.25h0.95v-0.25h0.95v0.25h0.951v-0.25h0.95v0.25h0.95v-0.25h0.951v0.25h0.475v-0.262h-0.25v-0.995h0.25v-0.995h-0.25v-0.995h0.25v-0.995h-0.25v-0.995h0.25v-0.612c-0.072-0.129-0.144-0.256-0.217-0.383h-0.033v-0.058c-0.531-0.916-1.108-1.801-1.73-2.653" fill="#79C7F7" mask="url(#a)"/>
<path d="m56.23 15.428v0.612h0.25v0.995h-0.25v0.995h0.25v0.995h-0.25v0.995h0.25v0.995h-0.25v0.262h0.475v-0.25h0.95v0.25h0.951v-0.25h0.03c-0.614-1.96-1.424-3.835-2.406-5.599" fill="#79C7F7" mask="url(#a)"/>
<path d="m58.605 21.278h-0.95v0.25h-0.951v-0.25h-0.475v0.733h0.25v0.995h-0.25v0.995h0.25v0.995h-0.25v0.995h0.25v0.995h-0.25v0.995h0.25v0.995h-0.25v0.774h3.77c-0.024-2.854-0.445-5.611-1.212-8.222h-0.182v-0.25" fill="#79C7F7" mask="url(#a)"/>
<path d="m59.999 29.75h-3.769v4e-3h3.769v-4e-3" fill="#81CAF7" mask="url(#a)"/>
<path d="m56.23 21.278h-0.475v0.25h-0.95v-0.25h-0.951v0.25h-0.95v-0.25h-0.95v0.25h-0.95v-0.25h-0.951v0.25h-0.95v-0.25h-0.95v0.25h-0.25v8.222h8.327v-0.774h-0.25v-0.995h0.25v-0.995h-0.25v-0.995h0.25v-0.995h-0.25v-0.995h0.25v-0.995h-0.25v-0.995h0.25v-0.733z" fill="#79C7F7" mask="url(#a)"/>
<path d="m48.107 30.25h-0.204v0.22h12.094c1e-3 -0.071 2e-3 -0.145 2e-3 -0.216h-3.519v0.216h-0.25-0.25v-0.216h-7.873v-4e-3" fill="#74C4F6" mask="url(#a)"/>
<path d="m56.23 29.75h-8.327v0.5h0.204v-0.246-0.25h8.123v-4e-3z" fill="#81CAF7" mask="url(#a)"/>
<path d="m53.877 11.835h-5.975v0.5h6.348c-0.123-0.168-0.247-0.335-0.373-0.5" fill="#8BD0F9" mask="url(#a)"/>
<path d="m56.23 15.428v0.612-0.612zm0 1.607v0.995-0.995zm0 1.99v0.995-0.995zm0 1.99v0.262-0.262zm0 0.262v0.733-0.733zm0 1.728v0.995-0.995zm0 1.99v0.995-0.995zm0 1.99v0.995-0.995zm0 1.99v0.775-0.775z" fill="#74C4F6" mask="url(#a)"/>
<path d="m56.23 29.75v4e-3 -4e-3z" fill="#7AC6F6" mask="url(#a)"/>
<path d="m55.98 14.988v0.057h0.033c-0.011-0.019-0.022-0.038-0.033-0.057m0.5 1.052h-0.25-0.25v0.995h0.25 0.25v-0.995m0 1.99h-0.25-0.25v0.995h0.25 0.25v-0.995m0 1.99h-0.25-0.25v0.995h0.25 0.25v-0.995m0 1.99h-0.25-0.25v0.995h0.25 0.25v-0.995m0 1.99h-0.25-0.25v0.995h0.25 0.25v-0.995m0 1.99h-0.25-0.25v0.995h0.25 0.25v-0.995m0 1.99h-0.25-0.25v0.995h0.25 0.25v-0.995" fill="#86CDF8" mask="url(#a)"/>
<path d="m56.48 30.254h-0.5v0.217h0.25 0.25v-0.217z" fill="#83CBF8" mask="url(#a)"/>
<path d="m58.605 21.278h-0.95 0.95zm-1.901 0h-0.475 0.475zm-0.475 0h-0.475 0.475z" fill="#74C4F6" mask="url(#a)"/>
<path d="m54.804 21.278h-0.95 0.95zm-1.901 0h-0.95 0.95zm-1.9 0h-0.95 0.95zm-1.901 0h-0.95 0.95z" fill="#74C4F6" mask="url(#a)"/>
<path d="m58.635 21.028h-0.03v0.25 0.25h0.182c-0.049-0.167-0.1-0.334-0.152-0.5m-0.98 0h-0.95v0.25 0.25h0.95v-0.25-0.25m-1.901 0h-0.95v0.25 0.25h0.95v-0.25-0.25m-1.9 0h-0.95v0.25 0.25h0.95v-0.25-0.25m-1.901 0h-0.95v0.25 0.25h0.95v-0.25-0.25m-1.9 0h-0.951v0.25 0.25h0.951v-0.25-0.25" fill="#86CDF8" mask="url(#a)"/>
<path d="m48.152 21.028h-0.25v0.5h0.25v-0.25-0.25z" fill="#86CDF8" mask="url(#a)"/>
<path d="m47.902 5.9248v5.689h-0.25 6.055c-1.668-2.148-3.622-4.063-5.805-5.689" fill="#79C7F7" mask="url(#a)"/>
<path d="m59.999 30.25h-3.519v4e-3h3.519v-4e-3" fill="#83CBF8" mask="url(#a)"/>
<path d="m59.999 29.754h-3.769v0.217h0.25v0.279h3.519c1e-3 -0.082 1e-3 -0.167 1e-3 -0.25 0-0.082 0-0.164-1e-3 -0.246" fill="#8CD0F8" mask="url(#a)"/>
<path d="m55.98 30.25h-7.873v4e-3h7.873v-4e-3z" fill="#83CBF8" mask="url(#a)"/>
<path d="m56.23 29.754h-8.123v0.25 0.246h7.873v-0.279h0.25v-0.217z" fill="#8CD0F8" mask="url(#a)"/>
<path d="m56.23 29.754v0.217-0.217z" fill="#87CCF8" mask="url(#a)"/>
<path d="m56.48 30.25h-0.5v4e-3h0.5v-4e-3z" fill="#8ED0F8" mask="url(#a)"/>
<path d="m56.48 29.97h-0.25-0.25v0.279h0.5v-0.279z" fill="#94D3F9" mask="url(#a)"/>
<path d="m30.248 12.335h-16.654v8.693h0.25v0.25h0.95v-0.25h0.95v0.25h0.95v-0.25h0.951v0.25h0.95v-0.25h0.95v0.25h0.95v-0.25h0.951v0.25h0.475v-0.262h-0.25v-0.995h0.25v-0.995h-0.25v-0.995h0.25v-0.995h-0.25v-0.995h0.25v-0.995h-0.25v-0.995h0.25v-0.996h-0.25v-0.5h0.5v0.5h-0.25v0.996h0.25v0.995h-0.25v0.995h0.25v0.995h-0.25v0.995h0.25v0.995h-0.25v0.995h0.25v0.995h-0.25v0.262h0.475v-0.25h0.95v0.25h0.95v-0.25h0.951v0.25h0.95v-0.25h0.95v0.25h0.951v-0.25h0.95v0.25h0.95v-0.25h0.25v-8.693zm-0.25 8.943h-0.95v0.25h-0.95v-0.25h-0.951v0.25h-0.95v-0.25h-0.95v0.25h-0.951v-0.25h-0.95v0.25h-0.95v-0.25h-0.475v0.733h0.25v0.995h-0.25v0.995h0.25v0.995h-0.25v0.995h0.25v0.995h-0.25v0.995h0.25v0.995h-0.25v0.774h8.327v-8.222h-0.25v-0.25z" fill="#79C7F7" mask="url(#a)"/>
<path d="m30.248 29.75h-8.327v4e-3h8.327v-4e-3z" fill="#81CAF7" mask="url(#a)"/>
<path d="m21.921 21.278h-0.475v0.25h-0.95v-0.25h-0.951v0.25h-0.95v-0.25h-0.95v0.25h-0.95v-0.25h-0.951v0.25h-0.95v-0.25h-0.95v0.25h-0.25v8.222h8.327v-0.774h-0.25v-0.995h0.25v-0.995h-0.25v-0.995h0.25v-0.995h-0.25v-0.995h0.25v-0.995h-0.25v-0.995h0.25v-0.733z" fill="#79C7F7" mask="url(#a)"/>
<path d="m13.798 30.25h-0.204v0.22h16.654v-0.216h-8.077v0.216h-0.25-0.25v-0.216h-7.873v-4e-3z" fill="#74C4F6" mask="url(#a)"/>
<path d="m21.921 29.75h-8.327v0.5h0.204v-0.246-0.25h8.123v-4e-3z" fill="#81CAF7" mask="url(#a)"/>
<path d="m30.748 11.835h-17.654 0.493v9.193h7e-3v-8.693h16.654v8.693h0.25v0.5h-0.25v8.222h0.5v4e-3 -8.226h-0.25v-0.25-0.25h0.25v-9.193zm-17.154 9.693h-7e-3v8.222h7e-3v-8.222z" fill="#8BD0F9" mask="url(#a)"/>
<path d="m13.587 11.835h-0.493v9.193h0.243v0.5h-0.243v8.222h0.493v-8.222h-0.243v-0.25-0.25h0.243v-9.193z" fill="#93D4F9" mask="url(#a)"/>
<path d="m13.337 21.028h-0.243v0.5h0.243v-0.5z" fill="#99D6F9" mask="url(#a)"/>
<path d="m30.748 29.75h-0.5v4e-3h0.5v-4e-3zm-17.154 0h-7e-3v0.72h7e-3v-0.22-0.5z" fill="#93D4F9" mask="url(#a)"/>
<path d="m13.587 29.75h-0.493v0.72h0.493v-0.72z" fill="#9DD8F9" mask="url(#a)"/>
<path d="m30.748 30.254h-0.5v0.217h0.25 0.25v-0.217z" fill="#93D4F9" mask="url(#a)"/>
<path d="m21.921 13.055v0.995-0.995zm0 1.99v0.995-0.995zm0 1.99v0.995-0.995zm0 1.99v0.995-0.995zm0 1.99v0.262-0.262zm0 0.262v0.733-0.733zm0 1.728v0.995-0.995zm0 1.99v0.995-0.995zm0 1.99v0.995-0.995zm0 1.99v0.775-0.775z" fill="#74C4F6" mask="url(#a)"/>
<path d="m21.921 29.75v4e-3 -4e-3z" fill="#7AC6F6" mask="url(#a)"/>
<path d="m22.171 12.555h-0.5v0.5h0.25 0.25v-0.5z" fill="#86CDF8" mask="url(#a)"/>
<path d="m22.171 14.05h-0.25-0.25v0.995h0.25 0.25v-0.995zm0 1.99h-0.25-0.25v0.995h0.25 0.25v-0.995zm0 1.99h-0.25-0.25v0.995h0.25 0.25v-0.995zm0 1.99h-0.25-0.25v0.995h0.25 0.25v-0.995zm0 1.99h-0.25-0.25v0.995h0.25 0.25v-0.995zm0 1.99h-0.25-0.25v0.995h0.25 0.25v-0.995zm0 1.99h-0.25-0.25v0.995h0.25 0.25v-0.995zm0 1.99h-0.25-0.25v0.995h0.25 0.25v-0.995z" fill="#86CDF8" mask="url(#a)"/>
<path d="m22.171 30.254h-0.5v0.217h0.25 0.25v-0.217z" fill="#83CBF8" mask="url(#a)"/>
<path d="m29.998 21.278h-0.95 0.95zm-1.9 0h-0.951 0.951zm-1.901 0h-0.95 0.95zm-1.901 0h-0.95 0.95zm-1.9 0h-0.475 0.475zm-0.475 0h-0.475 0.475z" fill="#74C4F6" mask="url(#a)"/>
<path d="m20.496 21.278h-0.95 0.95zm-1.901 0h-0.95 0.95zm-1.9 0h-0.95 0.95zm-1.901 0h-0.95 0.95z" fill="#74C4F6" mask="url(#a)"/>
<path d="m30.248 21.028h-0.25v0.25 0.25h0.25v-0.5z" fill="#86CDF8" mask="url(#a)"/>
<path d="m30.498 21.028h-0.25v0.5h0.25v-0.5z" fill="#93D4F9" mask="url(#a)"/>
<path d="m29.048 21.028h-0.95v0.25 0.25h0.95v-0.25-0.25zm-1.9 0h-0.951v0.25 0.25h0.951v-0.25-0.25zm-1.901 0h-0.95v0.25 0.25h0.95v-0.25-0.25zm-1.901 0h-0.95v0.25 0.25h0.95v-0.25-0.25zm-1.9 0h-0.95v0.25 0.25h0.95v-0.25-0.25zm-1.901 0h-0.95v0.25 0.25h0.95v-0.25-0.25zm-1.9 0h-0.95v0.25 0.25h0.95v-0.25-0.25zm-1.901 0h-0.95v0.25 0.25h0.95v-0.25-0.25z" fill="#86CDF8" mask="url(#a)"/>
<path d="m13.844 21.028h-0.25v0.5h0.25v-0.25-0.25z" fill="#86CDF8" mask="url(#a)"/>
<path d="m13.594 21.028h-7e-3v0.5h7e-3v-0.5z" fill="#93D4F9" mask="url(#a)"/>
<path d="m13.587 21.028h-0.243v0.25 0.25h0.243v-0.5z" fill="#99D6F9" mask="url(#a)"/>
<path d="m30 0c-2.799 0-5.509 0.383-8.079 1.1v0.358h0.25v0.965h-0.25v0.469h0.475v-0.25h0.95v0.25h0.95v-0.25h0.951v0.25h0.95v-0.25h0.95v0.25h0.951v-0.25h0.95v0.25h0.95v-0.25h0.25v-2.641c-0.083-1e-3 -0.165-1e-3 -0.248-1e-3" fill="#79C7F7" mask="url(#a)"/>
<path d="m21.921 1.1004c-1.475 0.411-2.902 0.932-4.276 1.554v0.237h0.95v-0.25h0.95v0.25h0.951v-0.25h0.95v0.25h0.475v-0.468h-0.25v-0.966h0.25v-0.357" fill="#79C7F7" mask="url(#a)"/>
<path d="m29.998 2.8918h-0.95v0.25h-0.95v-0.25h-0.951v0.25h-0.95v-0.25h-0.95v0.25h-0.951v-0.25h-0.95v0.25h-0.95v-0.25h-0.475v0.497h0.25v0.966h-0.25v0.966h0.25v0.965h-0.25v0.966h0.25v0.966h-0.25v0.965h0.25v0.966h-0.25v0.965h0.25v0.5h-0.25-0.25v-0.5h0.25v-0.965h-0.25v-0.966h0.25v-0.965h-0.25v-0.966h0.25v-0.966h-0.25v-0.965h0.25v-0.966h-0.25v-0.966h0.25v-0.497h-0.475v0.25h-0.951v-0.25h-0.95v0.25h-0.95v-0.25h-0.95v0.25h-0.951v-0.037c-1.071 0.531-2.106 1.124-3.1 1.775v6.734h-7e-3 16.911-0.25v-8.472h-0.25v-0.25" fill="#79C7F7" mask="url(#a)"/>
<path d="m30.248 1e-3v2.641h0.25v0.5h-0.25v8.472h0.25 0.25v-8.472h-0.25v-0.25-0.25h0.25v-2.633c-0.166-4e-3 -0.333-7e-3 -0.5-8e-3" fill="#8BD0F9" mask="url(#a)"/>
<path d="m13.594 4.8795c-2e-3 2e-3 -4e-3 3e-3 -7e-3 4e-3v6.731h7e-3v-6.735" fill="#8BD0F9" mask="url(#a)"/>
<path d="m13.587 4.8839c-0.165 0.108-0.33 0.219-0.493 0.33v6.4h0.25 0.243v-6.73" fill="#93D4F9" mask="url(#a)"/>
<path d="m21.921 1.1004v0.357-0.357zm0 1.323v0.468-0.468zm0 0.468v0.498-0.498zm0 1.463v0.966-0.966zm0 1.932v0.965-0.965zm0 1.931v0.966-0.966zm0 1.931v0.966-0.966z" fill="#74C4F6" mask="url(#a)"/>
<path d="m22.171 1.4578h-0.25-0.25v0.966h0.25 0.25v-0.966zm0 1.931h-0.25-0.25v0.966h0.25 0.25v-0.966zm0 1.932h-0.25-0.25v0.965h0.25 0.25v-0.965zm0 1.931h-0.25-0.25v0.966h0.25 0.25v-0.966zm0 1.931h-0.25-0.25v0.966h0.25 0.25v-0.966z" fill="#86CDF8" mask="url(#a)"/>
<path d="m22.171 11.114h-0.25-0.25v0.5h0.25 0.25v-0.5z" fill="#86CDF8" mask="url(#a)"/>
<path d="m29.998 2.8918h-0.95 0.95zm-1.9 0h-0.951 0.951zm-1.901 0h-0.95 0.95zm-1.901 0h-0.95 0.95zm-1.9 0h-0.475 0.475zm-0.475 0h-0.475 0.475z" fill="#74C4F6" mask="url(#a)"/>
<path d="m20.496 2.8918h-0.95 0.95zm-1.901 0h-0.95 0.95z" fill="#74C4F6" mask="url(#a)"/>
<path d="m30.248 2.6418h-0.25v0.25 0.25h0.25v-0.5z" fill="#86CDF8" mask="url(#a)"/>
<path d="m30.498 2.642h-0.25v0.5h0.25v-0.5z" fill="#93D4F9" mask="url(#a)"/>
<path d="m29.048 2.6418h-0.95v0.25 0.25h0.95v-0.25-0.25zm-1.9 0h-0.951v0.25 0.25h0.951v-0.25-0.25zm-1.901 0h-0.95v0.25 0.25h0.95v-0.25-0.25zm-1.901 0h-0.95v0.25 0.25h0.95v-0.25-0.25zm-1.9 0h-0.95v0.25 0.25h0.95v-0.25-0.25zm-1.901 0h-0.95v0.25 0.25h0.95v-0.25-0.25z" fill="#86CDF8" mask="url(#a)"/>
<path d="m17.645 2.6543c-0.319 0.144-0.637 0.295-0.95 0.45v0.038h0.95v-0.25-0.238" fill="#86CDF8" mask="url(#a)"/>
<path d="m47.402 12.335h-16.24l7.663 8.427v-0.75h0.25v-0.996h-0.25v-0.996h0.25v-0.995h-0.25v-0.996h0.25v-0.996h-0.25v-0.996h0.25v-0.996h-0.25v-0.5h0.5v0.5h-0.25v0.996h0.25v0.996h-0.25v0.996h0.25v0.996h-0.25v0.995h0.25v0.996h-0.25v0.996h0.25v0.996h-0.25v0.029l0.218 0.241h0.257v-0.25h0.95v0.25h0.95v-0.25h0.951v0.25h0.95v-0.25h0.95v0.25h0.95v-0.25h0.951v0.25h0.95v-0.25h0.25v-8.693z" fill="#79C7F7" mask="url(#a)"/>
<path d="m39.075 21.008h-0.027l0.027 0.029v-0.029zm8.077 0.27h-0.95v0.25h-0.95v-0.25h-0.951v0.25h-0.95v-0.25h-0.95v0.25h-0.95v-0.25h-0.951v0.25h-0.95v-0.25h-0.256l7.703 8.472h0.405v-8.222h-0.25v-0.25z" fill="#79C7F7" mask="url(#a)"/>
<path d="m47.402 29.75h-0.405l3e-3 4e-3h0.218v0.239l0.184 0.202v-0.445z" fill="#81CAF7" mask="url(#a)"/>
<path d="m47.902 11.835h-16.967v0.25 0.25h0.227 16.24v-0.5h0.5z" fill="#8BD0F9" mask="url(#a)"/>
<path d="m47.902 11.835h-0.5v0.5 8.693h0.25 0.25v-8.693-0.5zm0 9.693h-0.25-0.25v8.222h0.5v-8.222z" fill="#93D4F9" mask="url(#a)"/>
<path d="m47.902 29.75h-0.5v0.72h0.5v-0.22-0.5z" fill="#9DD8F9" mask="url(#a)"/>
<path d="m47.902 21.028h-0.25v0.5h0.25v-0.5z" fill="#99D6F9" mask="url(#a)"/>
<path d="m39.075 13.041v0.996-0.996zm0 1.992v0.996-0.996zm0 1.992v0.995-0.995zm0 1.991v0.996-0.996z" fill="#74C4F6" mask="url(#a)"/>
<path d="m39.075 21.037v0.241-0.241zm0 0.241v0.725-0.725z" fill="#79C7F7" mask="url(#a)"/>
<path d="m39.075 21.008v0.029-0.029z" fill="#74C4F6" mask="url(#a)"/>
<path d="m39.075 22.999v0.996-0.996zm0 1.992v0.996-0.996zm0 1.991v0.996-0.996zm0 1.992v0.776-0.776z" fill="#79C7F7" mask="url(#a)"/>
<path d="m39.075 29.75v4e-3 -4e-3z" fill="#81CAF7" mask="url(#a)"/>
<path d="m39.325 12.541h-0.5v0.5h0.25 0.25v-0.5z" fill="#86CDF8" mask="url(#a)"/>
<path d="m39.325 14.037h-0.25-0.25v0.996h0.25 0.25v-0.996zm0 1.992h-0.25-0.25v0.996h0.25 0.25v-0.996zm0 1.991h-0.25-0.25v0.996h0.25 0.25v-0.996z" fill="#86CDF8" mask="url(#a)"/>
<path d="m38.825 20.762v0.245h0.223l-0.223-0.245z" fill="#8BD0F9" mask="url(#a)"/>
<path d="m39.325 20.012h-0.25-0.25v0.75l0.223 0.246h0.027 0.25v-0.996z" fill="#86CDF8" mask="url(#a)"/>
<path d="m39.325 22.004h-0.25-0.25v0.996h0.25 0.25v-0.996zm0 1.992h-0.25-0.25v0.996h0.25 0.25v-0.996zm0 1.992h-0.25-0.25v0.995h0.25 0.25v-0.995zm0 1.991h-0.25-0.25v0.996h0.25 0.25v-0.996z" fill="#8BD0F9" mask="url(#a)"/>
<path d="m39.325 30.254h-0.5v0.188h0.5v0.029-0.217z" fill="#86CDF8" mask="url(#a)"/>
<path d="m39.325 30.442h-0.5v0.029h0.25 0.25v-0.029z" fill="#90D2F9" mask="url(#a)"/>
<path d="m47.152 21.278h-0.95 0.95zm-1.901 0h-0.95 0.95zm-1.9 0h-0.95 0.95zm-1.901 0h-0.95 0.95z" fill="#74C4F6" mask="url(#a)"/>
<path d="m39.294 21.278h-0.219 0.219zm-0.219 0h-0.475 0.475z" fill="#79C7F7" mask="url(#a)"/>
<path d="m39.55 21.278h-0.256 0.256z" fill="#74C4F6" mask="url(#a)"/>
<path d="m37.65 21.278h-0.95 0.95zm-1.9 0h-0.951 0.951zm-1.901 0h-0.95 0.95zm-1.901 0h-0.95 0.95z" fill="#79C7F7" mask="url(#a)"/>
<path d="m47.402 21.028h-0.25v0.25 0.25h0.25v-0.5z" fill="#86CDF8" mask="url(#a)"/>
<path d="m47.652 21.028h-0.25v0.5h0.25v-0.25-0.25z" fill="#99D6F9" mask="url(#a)"/>
<path d="m47.652 21.028v0.25 0.25-0.5z" fill="#9DD8F9" mask="url(#a)"/>
<path d="m46.202 21.028h-0.95v0.25 0.25h0.95v-0.25-0.25zm-1.901 0h-0.95v0.25 0.25h0.95v-0.25-0.25zm-1.9 0h-0.95v0.25 0.25h0.95v-0.25-0.25zm-1.901 0h-0.95v0.25 0.25h0.95v-0.25-0.25z" fill="#86CDF8" mask="url(#a)"/>
<path d="m38.6 21.028h-0.95v0.25 0.25h0.95v-0.25-0.25zm-1.901 0h-0.95v0.25 0.25h0.95v-0.25-0.25zm-1.9 0h-0.95v0.25 0.25h0.95v-0.25-0.25zm-1.901 0h-0.95v0.25 0.25h0.95v-0.25-0.25z" fill="#8BD0F9" mask="url(#a)"/>
<path d="m30.998 21.028h-0.25v0.5h0.25v-0.25-0.25z" fill="#8BD0F9" mask="url(#a)"/>
<path d="m30.748 21.028h-0.25v0.25 0.25h0.25v-0.5z" fill="#93D4F9" mask="url(#a)"/>
<path d="m37.774 1.017 1.051 1.128v-0.721h0.25v-0.027c-0.429-0.136-0.864-0.263-1.301-0.38" fill="#79C7F7" mask="url(#a)"/>
<path d="m39.075 1.3971v0.027h0.084c-0.028-9e-3 -0.056-0.018-0.084-0.027" fill="#79C7F7" mask="url(#a)"/>
<path d="m39.325 1.4776v0.915h-0.25v0.02l0.213 0.229h0.087v0.093l0.146 0.157h0.901v-0.25h1.047v0.25h1.047v-0.164c-1.034-0.475-2.098-0.893-3.191-1.25" fill="#79C7F7" mask="url(#a)"/>
<path d="m42.517 2.8918h-1.047v0.25h-1.047v-0.25h-0.901l7.881 8.454v-5.785c-1.271-0.907-2.615-1.716-4.022-2.419h-0.864v-0.25" fill="#79C7F7" mask="url(#a)"/>
<path d="m39.075 2.3929h-0.019l0.019 0.02v-0.02z" fill="#79C7F7" mask="url(#a)"/>
<path d="m47.402 5.5603v6.054h0.5v-5.69c-0.165-0.122-0.332-0.244-0.5-0.364" fill="#93D4F9" mask="url(#a)"/>
<path d="m39.075 1.3971v0.027-0.027z" fill="#74C4F6" mask="url(#a)"/>
<path d="m39.075 2.413v0.229-0.229zm0 0.729v0.22-0.22z" fill="#79C7F7" mask="url(#a)"/>
<path d="m39.075 2.3929v0.02-0.02z" fill="#74C4F6" mask="url(#a)"/>
<path d="m39.075 4.331v0.969-0.969zm0 1.938v0.969-0.969zm0 1.938v0.969-0.969zm0 1.938v0.969-0.969z" fill="#79C7F7" mask="url(#a)"/>
<path d="m38.825 2.1449v0.248h0.231l-0.231-0.248z" fill="#8BD0F9" mask="url(#a)"/>
<path d="m39.159 1.4239h-0.084-0.25v0.721l0.231 0.248h0.019 0.25v-0.915c-0.055-0.018-0.111-0.036-0.166-0.054" fill="#86CDF8" mask="url(#a)"/>
<path d="m39.325 3.362h-0.25-0.25v0.969h0.25 0.25v-0.969zm0 1.938h-0.25-0.25v0.969h0.25 0.25v-0.969zm0 1.938h-0.25-0.25v0.969h0.25 0.25v-0.969zm0 1.938h-0.25-0.25v0.969h0.25 0.25v-0.969z" fill="#8BD0F9" mask="url(#a)"/>
<path d="m39.325 11.114h-0.25-0.25v0.5h0.25 0.25v-0.5z" fill="#8BD0F9" mask="url(#a)"/>
<path d="m42.517 2.8918h-1.047 1.047z" fill="#74C4F6" mask="url(#a)"/>
<path d="m39.522 2.8918h-0.146 0.146z" fill="#79C7F7" mask="url(#a)"/>
<path d="m40.422 2.8918h-0.901 0.901z" fill="#74C4F6" mask="url(#a)"/>
<path d="m38.328 2.8918h-1.047 1.047zm-2.094 0h-1.047 1.047zm-2.095 0h-1.047 1.047zm-2.094 0h-1.047 1.047z" fill="#79C7F7" mask="url(#a)"/>
<path d="m41.469 2.6418h-1.047v0.25 0.25h1.047v-0.25-0.25m1.047 0.086v0.164 0.25h0.864c-0.285-0.143-0.573-0.28-0.864-0.414" fill="#86CDF8" mask="url(#a)"/>
<path d="m39.288 2.6418h-0.213v0.5h0.3v-0.25-0.157l-0.087-0.093zm-0.213 0h-0.748v0.25 0.25h0.748v-0.5z" fill="#8BD0F9" mask="url(#a)"/>
<path d="m39.375 2.6418h-0.087l0.087 0.093v-0.093z" fill="#86CDF8" mask="url(#a)"/>
<path d="m39.075 2.6418v0.5-0.5z" fill="#86CDF8" mask="url(#a)"/>
<path d="m37.281 2.6418h-1.047v0.25 0.25h1.047v-0.25-0.25zm-2.094 0h-1.047v0.25 0.25h1.047v-0.25-0.25zm-2.095 0h-1.047v0.25 0.25h1.047v-0.25-0.25z" fill="#8BD0F9" mask="url(#a)"/>
<path d="m30.998 2.6418h-0.25v0.5h0.25v-0.25-0.25z" fill="#8BD0F9" mask="url(#a)"/>
<path d="m30.748 2.6418h-0.25v0.25 0.25h0.25v-0.5z" fill="#93D4F9" mask="url(#a)"/>
<path d="m47.219 30.25h-7.893v4e-3h7.893v-4e-3z" fill="#86CDF8" mask="url(#a)"/>
<path d="m47.001 29.754h-7.925v0.217h0.25v0.279h7.893v-0.256l-0.218-0.24z" fill="#93D4F9" mask="url(#a)"/>
<path d="m30.952 29.754h-0.204v0.5h0.44l-3e-3 -4e-3h-0.233v-0.25-0.246z" fill="#8BD0F9" mask="url(#a)"/>
<path d="m38.825 30.25h-7.64l3e-3 4e-3h7.637v-4e-3z" fill="#86CDF8" mask="url(#a)"/>
<path d="m39.075 29.754h-8.123v0.246 0.25h0.233 7.64v-0.279h0.25v-0.217z" fill="#93D4F9" mask="url(#a)"/>
<path d="m30.248 30.25h-8.077v4e-3h8.077v-4e-3z" fill="#83CBF8" mask="url(#a)"/>
<path d="m30.248 29.754h-8.327v0.217h0.25v0.279h8.077v4e-3 -0.5z" fill="#8CD0F8" mask="url(#a)"/>
<path d="m21.671 30.25h-7.873v4e-3h7.873v-4e-3z" fill="#83CBF8" mask="url(#a)"/>
<path d="m21.921 29.754h-8.123v0.25 0.246h7.873v-0.279h0.25v-0.217z" fill="#8CD0F8" mask="url(#a)"/>
<path d="m30.748 29.754h-0.5v0.5h0.5v-0.5z" fill="#99D6F9" mask="url(#a)"/>
<path d="m21.921 29.754v0.217-0.217z" fill="#87CCF8" mask="url(#a)"/>
<path d="m22.171 30.25h-0.5v4e-3h0.5v-4e-3z" fill="#8ED0F8" mask="url(#a)"/>
<path d="m22.171 29.97h-0.25-0.25v0.279h0.5v-0.279z" fill="#94D3F9" mask="url(#a)"/>
<path d="m47.219 29.754h-0.218l0.218 0.24v-0.24z" fill="#8CD0F8" mask="url(#a)"/>
<path d="m39.075 29.754v0.217-0.217z" fill="#8CD0F8" mask="url(#a)"/>
<path d="m39.325 30.25h-0.5v4e-3h0.5v-4e-3z" fill="#90D2F9" mask="url(#a)"/>
<path d="m39.325 29.97h-0.25-0.25v0.279h0.5v-0.279z" fill="#99D6F9" mask="url(#a)"/>
<g transform="translate(2 2)">
<path d="m32.746 29.642-4.611-12.176h-0.061l-4.792 12.176h9.464zm-3.948-13.472 8.499 21.519h-1.417l-2.712-6.901h-10.308l-2.742 6.901h-1.417l8.65-21.519h1.447z" fill="#fff"/>
<path d="m28 0h-0.014-4e-3 -0.011-4e-3 -0.013-4e-3 -0.01-5e-3 -0.012-2e-3 -0.014-4e-3 -0.011-4e-3 -0.013-3e-3 -0.011-5e-3 -0.011-3e-3l-0.014 1e-3h-4e-3 -0.01-4e-3 -0.014-3e-3 -0.011-5e-3 -0.01-4e-3 -0.013-5e-3 -9e-3 -5e-3 -0.012-5e-3l-0.01 1e-3h-6e-3 -9e-3 -5e-3 -0.013-5e-3 -9e-3 -5e-3 -0.011-5e-3 -0.011l-6e-3 1e-3h-8e-3 -6e-3 -0.012-6e-3 -8e-3 -7e-3 -7e-3 -0.01l-8e-3 1e-3h-7e-3 -7e-3 -7e-3 -8e-3 -0.011-6e-3 -8e-3l-6e-3 1e-3h-0.011-8e-3 -7e-3 -7e-3 -7e-3 -6e-3l-0.013 1e-3h-6e-3 -8e-3 -5e-3 -0.017l-2e-3 1e-3h-8e-3 -5e-3 -9e-3 -4e-3 -0.016l-4e-3 1e-3h-9e-3 -4e-3l-0.028 1e-3h-5e-3 -8e-3 -5e-3 -0.016-3e-3l-0.01 1e-3h-3e-3l-0.03 1e-3h-3e-3 -9e-3 -4e-3l-0.03 1e-3h-2e-3l-0.031 1e-3h-2e-3 -0.01-2e-3l-0.031 1e-3h-3e-3l-0.043 2e-3h-1e-3l-0.033 1e-3h-1e-3l-0.123 4e-3c-0.105 4e-3 -0.209 9e-3 -0.313 0.014h-1e-3l-0.044 3e-3h-1e-3l-0.077 4e-3h-1e-3l-0.032 2e-3h-1e-3 -0.011-1e-3l-0.031 2e-3h-3e-3l-0.031 2e-3h-1e-3l-0.01 1e-3h-3e-3l-0.03 1e-3 -3e-3 1e-3h-9e-3 -4e-3l-0.017 1e-3 -3e-3 1e-3h-8e-3 -5e-3l-8e-3 1e-3h-5e-3l-0.014 1e-3 -6e-3 1e-3h-7e-3 -8e-3l-7e-3 1e-3 -0.011 1e-3h-6e-3 -7e-3l-6e-3 1e-3 -0.013 1e-3h-4e-3l-0.01 1e-3h-5e-3l-0.01 1e-3h-4e-3l-0.013 1e-3h-4e-3l-0.01 1e-3h-4e-3l-0.028 2e-3h-3e-3l-0.014 1e-3 -0.031 2e-3 -0.016 1e-3c-0.275 0.02-0.483 0.259-0.463 0.534 0.018 0.264 0.238 0.465 0.498 0.465l0.036-1e-3c0.637-0.045 1.286-0.068 1.928-0.068 0.307 0 0.612 5e-3 0.917 0.015l0.017 1e-3c0.268 0 0.49-0.213 0.499-0.484 9e-3 -0.275-0.206-0.506-0.481-0.516l-0.216-7e-3h-3e-3 -9e-3 -4e-3l-0.028-1e-3h-5e-3 -7e-3 -6e-3 -7e-3 -9e-3l-9e-3 -1e-3h-7e-3 -6e-3 -8e-3 -6e-3 -0.012l-4e-3 -1e-3h-9e-3 -6e-3 -8e-3 -5e-3 -0.013l-0.013-1e-3h-4e-3 -0.01-4e-3 -0.013-1e-3l-0.013-1e-3h-4e-3 -0.01-4e-3 -0.012-1e-3 -0.014-3e-3 -0.011l-4e-3 -1e-3h-0.011-2e-3 -0.014-2e-3 -0.012-3e-3 -0.011-3e-3l-0.014-1e-3h-0.014-2e-3 -0.012-3e-3 -0.013-1e-3 -0.013-3e-3 -0.011-3e-3l-0.028-1e-3h-3e-3 -0.011-3e-3 -0.013-1e-3 -0.014-2e-3 -0.011-4e-3 -0.012-2e-3 -0.014-2e-3l-0.011-1e-3h-4e-3 -0.011-3e-3 -0.013-3e-3 -0.011-4e-3 -0.01-4e-3 -0.013-3e-3 -0.011-4e-3 -0.01-4e-3 -0.013-1e-3 -0.012-5e-3 -9e-3 -5e-3 -0.013zm3.867 0.27c-0.245 0-0.459 0.18-0.494 0.43-0.039 0.274 0.152 0.526 0.425 0.565 0.634 0.089 1.273 0.202 1.898 0.337l0.106 0.011c0.23 0 0.438-0.161 0.488-0.395 0.058-0.27-0.114-0.536-0.384-0.594-0.299-0.064-0.599-0.123-0.901-0.178h-1e-3l-0.03-5e-3 -1e-3 -1e-3 -0.014-2e-3h-1e-3l-0.014-3e-3h-2e-3l-0.012-2e-3 -3e-3 -1e-3 -0.014-2e-3 -2e-3 -1e-3 -0.012-2e-3 -4e-3 -1e-3 -0.012-2e-3h-2e-3l-0.013-2e-3 -5e-3 -1e-3 -9e-3 -2e-3 -5e-3 -1e-3 -0.012-2e-3 -5e-3 -1e-3 -9e-3 -1e-3 -0.015-3e-3 -8e-3 -1e-3 -7e-3 -1e-3 -7e-3 -2e-3 -7e-3 -1e-3 -0.018-3e-3 -8e-3 -1e-3 -4e-3 -1e-3 -0.028-5e-3h-4e-3l-8e-3 -2e-3h-2e-3l-0.018-3e-3 -3e-3 -1e-3 -0.01-1e-3 -1e-3 -1e-3 -0.031-5e-3h-1e-3l-0.032-5e-3c-0.225-0.037-0.449-0.072-0.675-0.104l-0.069-4e-3zm4.775 1.115c-0.209 0-0.405 0.133-0.474 0.343-0.087 0.263 0.055 0.545 0.318 0.632 0.607 0.201 1.215 0.427 1.807 0.671l0.19 0.038c0.197 0 0.383-0.117 0.463-0.31 0.105-0.255-0.017-0.547-0.272-0.652-0.269-0.111-0.539-0.218-0.812-0.321-0.351-0.132-0.705-0.257-1.062-0.375l-0.158-0.026zm4.5 1.952c-0.177 0-0.349 0.094-0.44 0.261-0.132 0.242-0.043 0.546 0.2 0.678 0.562 0.306 1.12 0.637 1.659 0.983 0.083 0.053 0.177 0.079 0.269 0.079 0.165 0 0.326-0.081 0.422-0.23 0.149-0.232 0.081-0.542-0.151-0.691l-2e-3 -1e-3 -9e-3 -6e-3 -5e-3 -3e-3 -8e-3 -5e-3 -4e-3 -3e-3 -9e-3 -6e-3 -5e-3 -3e-3 -7e-3 -4e-3 -5e-3 -4e-3 -0.015-9e-3 -7e-3 -4e-3 -4e-3 -3e-3 -0.01-7e-3 -5e-3 -3e-3 -7e-3 -4e-3 -0.015-9e-3 -5e-3 -4e-3 -6e-3 -4e-3 -0.02-0.012-7e-3 -5e-3 -0.02-0.012-6e-3 -4e-3 -5e-3 -3e-3 -0.01-7e-3 -5e-3 -3e-3 -6e-3 -4e-3 -6e-3 -3e-3 -9e-3 -6e-3 -6e-3 -3e-3 -6e-3 -5e-3 -5e-3 -3e-3 -9e-3 -5e-3 -6e-3 -4e-3 -7e-3 -4e-3 -5e-3 -3e-3 -9e-3 -6e-3 -5e-3 -3e-3 -8e-3 -5e-3 -4e-3 -3e-3 -9e-3 -5e-3 -5e-3 -4e-3 -8e-3 -5e-3 -5e-3 -3e-3 -8e-3 -4e-3 -5e-3 -4e-3 -9e-3 -5e-3 -5e-3 -3e-3 -7e-3 -5e-3 -6e-3 -3e-3 -9e-3 -6e-3 -5e-3 -3e-3 -6e-3 -4e-3 -0.02-0.012-7e-3 -5e-3 -5e-3 -2e-3 -0.01-7e-3 -5e-3 -3e-3 -7e-3 -4e-3 -4e-3 -3e-3 -0.011-6e-3 -4e-3 -3e-3 -8e-3 -5e-3 -4e-3 -2e-3 -0.011-7e-3 -4e-3 -2e-3 -7e-3 -5e-3 -0.015-9e-3 -4e-3 -3e-3 -8e-3 -5e-3 -5e-3 -2e-3 -0.01-7e-3 -4e-3 -2e-3 -8e-3 -5e-3 -4e-3 -2e-3 -0.011-7e-3 -4e-3 -2e-3 -8e-3 -5e-3 -4e-3 -3e-3 -0.011-6e-3 -2e-3 -2e-3 -0.01-6e-3 -4e-3 -2e-3 -0.01-6e-3 -3e-3 -2e-3 -0.01-6e-3 -4e-3 -2e-3 -0.012-8e-3 -0.011-6e-3 -3e-3 -2e-3 -0.01-6e-3 -2e-3 -1e-3 -0.012-7e-3 -3e-3 -2e-3 -0.01-6e-3 -2e-3 -2e-3 -0.011-7e-3 -4e-3 -2e-3 -9e-3 -5e-3 -3e-3 -2e-3 -0.011-7e-3 -4e-3 -2e-3 -9e-3 -5e-3 -3e-3 -2e-3 -0.011-7e-3 -3e-3 -1e-3 -0.01-6e-3 -3e-3 -2e-3 -0.011-7e-3 -3e-3 -2e-3 -0.01-5e-3 -3e-3 -2e-3 -0.011-7e-3 -3e-3 -1e-3 -0.01-6e-3 -3e-3 -2e-3 -0.011-7e-3 -2e-3 -1e-3 -0.011-6e-3 -3e-3 -2e-3 -0.012-7e-3 -1e-3 -1e-3 -0.011-7e-3 -2e-3 -1e-3 -0.013-7e-3 -0.012-7e-3 -3e-3 -2e-3 -0.024-0.014-2e-3 -2e-3 -0.025-0.014-3e-3 -2e-3 -0.024-0.014-2e-3 -1e-3 -0.025-0.015-2e-3 -1e-3 -0.013-7e-3 -0.012-8e-3 -2e-3 -1e-3 -0.012-7e-3h-1e-3l-0.012-7e-3 -2e-3 -1e-3 -0.012-7e-3 -1e-3 -1e-3 -0.013-7e-3 -1e-3 -1e-3 -0.012-7e-3 -1e-3 -1e-3 -0.013-7e-3 -1e-3 -1e-3 -0.012-7e-3h-1e-3l-0.013-8e-3 -0.014-7e-3v-1e-3l-0.013-7e-3 -1e-3 -1e-3 -0.012-7e-3h-1e-3l-0.026-0.015-2e-3 -1e-3 -0.026-0.015-1e-3 -1e-3 -0.026-0.014-1e-3 -1e-3 -0.026-0.015-1e-3 -1e-3 -0.026-0.014-1e-3 -1e-3 -0.027-0.015-1e-3 -1e-3 -0.026-0.014-1e-3 -1e-3 -0.012-7e-3h-1e-3l-0.013-8e-3h-1e-3l-0.013-7e-3v-1e-3l-0.013-7e-3h-2e-3l-0.012-7e-3 -1e-3 -1e-3 -0.013-7e-3 -0.013-8e-3h-1e-3l-0.013-7e-3 -1e-3 -1e-3 -0.012-6e-3 -2e-3 -2e-3 -0.013-7e-3 -0.012-7e-3 -2e-3 -1e-3 -0.013-7e-3h-1e-3l-0.012-7e-3 -2e-3 -1e-3 -0.025-0.014-2e-3 -1e-3 -0.013-7e-3 -0.012-7e-3 -3e-3 -2e-3 -0.025-0.013-3e-3 -2e-3 -0.011-6e-3 -1e-3 -1e-3 -0.016-8e-3 -0.01-6e-3 -0.014-7e-3 -3e-3 -2e-3 -0.01-5e-3 -3e-3 -2e-3 -0.011-6e-3 -2e-3 -1e-3 -0.238-0.061zm4.079 2.722c-0.146 0-0.291 0.063-0.389 0.186-0.174 0.215-0.139 0.53 0.076 0.703 0.499 0.401 0.99 0.826 1.459 1.261 0.096 0.09 0.218 0.134 0.34 0.134 0.134 0 0.268-0.054 0.366-0.16 0.188-0.202 0.177-0.517-0.024-0.705-0.49-0.455-0.995-0.892-1.517-1.311-0.091-0.073-0.201-0.108-0.311-0.108zm3.535 3.4c-0.117 0-0.234 0.041-0.328 0.123-0.209 0.181-0.231 0.497-0.049 0.705 0.42 0.484 0.828 0.988 1.213 1.499 0.098 0.131 0.248 0.2 0.4 0.2 0.104 0 0.21-0.033 0.3-0.101 0.22-0.165 0.265-0.477 0.1-0.698-0.401-0.534-0.822-1.054-1.26-1.557-0.099-0.113-0.237-0.171-0.376-0.171zm2.877 3.972-0.256 0.07c-0.237 0.142-0.314 0.449-0.173 0.686 0.328 0.55 0.64 1.118 0.928 1.69 0.088 0.174 0.264 0.275 0.447 0.275l0.225-0.053c0.246-0.124 0.345-0.424 0.222-0.671l-0.046-0.09-0.014-0.028v-1e-3l-0.015-0.027v-1e-3l-0.014-0.027-1e-3 -2e-3 -0.014-0.027-0.014-0.028v-1e-3l-0.015-0.027v-1e-3l-0.014-0.027v-1e-3l-0.015-0.028-5e-3 -0.01-0.029-0.056-0.03-0.056v-1e-3l-0.014-0.027-1e-3 -1e-3 -0.014-0.027-1e-3 -1e-3 -0.014-0.027-1e-3 -1e-3 -0.014-0.027v-1e-3l-0.015-0.027v-1e-3l-5e-3 -9e-3v-1e-3l-0.01-0.017v-1e-3l-5e-3 -9e-3v-1e-3l-9e-3 -0.017-1e-3 -1e-3 -5e-3 -9e-3 -1e-3 -2e-3 -9e-3 -0.016v-1e-3l-5e-3 -8e-3 -0.014-0.028-2e-3 -3e-3 -8e-3 -0.015-1e-3 -2e-3 -4e-3 -7e-3 -3e-3 -4e-3 -0.012-0.024-3e-3 -4e-3 -6e-3 -0.012-3e-3 -5e-3 -3e-3 -7e-3 -3e-3 -4e-3 -4e-3 -7e-3 -8e-3 -0.016-3e-3 -5e-3 -4e-3 -7e-3 -8e-3 -0.016-3e-3 -4e-3 -4e-3 -7e-3 -8e-3 -0.016-3e-3 -5e-3 -4e-3 -7e-3 -3e-3 -5e-3 -5e-3 -0.011-3e-3 -5e-3 -4e-3 -6e-3 -3e-3 -7e-3 -5e-3 -8e-3 -4e-3 -7e-3 -3e-3 -5e-3 -4e-3 -7e-3 -8e-3 -0.016-3e-3 -5e-3 -4e-3 -7e-3 -3e-3 -6e-3 -5e-3 -9e-3 -3e-3 -5e-3 -4e-3 -8e-3 -3e-3 -4e-3 -6e-3 -0.011-2e-3 -4e-3 -5e-3 -8e-3 -8e-3 -0.016-2e-3 -3e-3 -5e-3 -9e-3 -2e-3 -4e-3 -6e-3 -0.011-2e-3 -3e-3 -6e-3 -0.01-1e-3 -3e-3 -7e-3 -0.012-2e-3 -3e-3 -5e-3 -9e-3 -2e-3 -3e-3 -6e-3 -0.012-2e-3 -2e-3 -5e-3 -0.011-2e-3 -3e-3 -7e-3 -0.012v-1e-3l-7e-3 -0.011-1e-3 -3e-3 -7e-3 -0.012-1e-3 -1e-3 -7e-3 -0.014-0.015-0.025-1e-3 -2e-3 -0.014-0.026-1e-3 -1e-3 -0.015-0.026v-1e-3l-0.016-0.026c-0.087-0.154-0.177-0.307-0.267-0.458-0.094-0.157-0.26-0.244-0.43-0.244zm2.126 4.419-0.175 0.032c-0.259 0.097-0.39 0.385-0.293 0.643 0.225 0.6 0.43 1.215 0.611 1.828 0.064 0.218 0.264 0.359 0.48 0.359l0.141-0.02c0.265-0.078 0.417-0.356 0.338-0.621-0.11-0.376-0.229-0.749-0.355-1.119l-0.01-0.029v-1e-3l-0.01-0.028-1e-3 -2e-3 -4e-3 -0.013-5e-3 -0.014-5e-3 -0.015-1e-3 -2e-3 -4e-3 -0.013-1e-3 -3e-3 -4e-3 -0.01-1e-3 -4e-3 -5e-3 -0.012-1e-3 -4e-3 -3e-3 -0.01-2e-3 -4e-3 -4e-3 -0.012-1e-3 -4e-3 -3e-3 -8e-3 -2e-3 -6e-3 -9e-3 -0.024-2e-3 -6e-3 -2e-3 -7e-3 -4e-3 -0.01-2e-3 -6e-3 -2e-3 -8e-3 -2e-3 -5e-3 -9e-3 -0.026-1e-3 -3e-3 -0.01-0.028-1e-3 -1e-3c-0.055-0.155-0.111-0.308-0.168-0.462-0.076-0.199-0.266-0.322-0.468-0.322zm1.302 4.727-0.089 8e-3c-0.272 0.049-0.452 0.31-0.403 0.581 0.113 0.629 0.206 1.272 0.274 1.909 0.028 0.256 0.245 0.446 0.497 0.446l0.054-3e-3c0.275-0.029 0.473-0.276 0.444-0.55-0.072-0.667-0.167-1.327-0.285-1.979-0.044-0.242-0.254-0.412-0.492-0.412zm0.439 4.923c-0.276 0-0.5 0.224-0.5 0.5 0 0.63-0.022 1.266-0.065 1.892-0.019 0.275 0.189 0.514 0.464 0.533l0.035 2e-3c0.261 0 0.48-0.202 0.498-0.466 0.011-0.152 0.02-0.304 0.028-0.456v-1e-3l1e-3 -0.014v-1e-3l2e-3 -0.029v-2e-3 -0.014-1e-3l1e-3 -0.015 1e-3 -0.013v-4e-3l1e-3 -0.012v-2e-3 -0.013l1e-3 -4e-3v-0.01-5e-3l1e-3 -0.01v-4e-3l1e-3 -0.012v-6e-3 -8e-3 -6e-3l1e-3 -0.01v-7e-3l1e-3 -8e-3v-7e-3 -7e-3l1e-3 -7e-3v-0.01-8e-3l1e-3 -6e-3v-8e-3 -5e-3l1e-3 -0.016v-3e-3 -8e-3l1e-3 -5e-3v-8e-3 -5e-3l1e-3 -0.016v-3e-3 -9e-3 -4e-3l1e-3 -9e-3v-2e-3l1e-3 -0.018v-4e-3 -9e-3 -3e-3l1e-3 -0.029 1e-3 -4e-3v-9e-3 -3e-3l1e-3 -0.03v-3e-3l1e-3 -9e-3v-1e-3l1e-3 -0.032v-2e-3l1e-3 -0.032v-1e-3 -0.01-3e-3l1e-3 -0.031v-2e-3l1e-3 -0.01v-2e-3l1e-3 -0.031v-2e-3 -0.01-1e-3l1e-3 -0.032v-3e-3l1e-3 -0.03v-2e-3 -0.01-3e-3l1e-3 -0.03v-3e-3l1e-3 -9e-3v-3e-3 -0.03-4e-3l1e-3 -8e-3v-3e-3 -0.019-2e-3 -9e-3l1e-3 -4e-3v-9e-3 -2e-3 -0.018-4e-3 -8e-3l1e-3 -5e-3v-0.028-4e-3 -9e-3 -4e-3l1e-3 -0.015v-5e-3 -7e-3 -6e-3 -8e-3 -5e-3l1e-3 -0.015v-4e-3 -9e-3 -5e-3 -7e-3 -7e-3 -0.012-7e-3l1e-3 -7e-3v-6e-3 -7e-3 -0.012-6e-3 -7e-3 -7e-3 -7e-3 -8e-3l1e-3 -0.011v-6e-3 -8e-3 -5e-3 -0.01-7e-3 -0.01-5e-3 -9e-3 -5e-3 -0.013l1e-3 -4e-3v-0.01-5e-3 -9e-3 -5e-3 -0.013-5e-3 -9e-3 -5e-3 -0.01-4e-3 -0.013-5e-3 -9e-3 -5e-3 -0.012l1e-3 -2e-3v-0.013-5e-3 -9e-3 -4e-3 -0.014-3e-3 -0.011-4e-3 -0.011-3e-3 -0.014-4e-3 -0.01-4e-3 -0.012-2e-3 -0.014-4e-3 -0.01-4e-3 -0.014c0-0.276-0.224-0.5-0.5-0.5zm-0.427 4.85c-0.238 0-0.448 0.17-0.491 0.412-0.113 0.63-0.249 1.265-0.406 1.885-0.068 0.267 0.094 0.539 0.362 0.607l0.123 0.015c0.224 0 0.427-0.151 0.484-0.377l0.031-0.121 7e-3 -0.03 8e-3 -0.03v-1e-3l3e-3 -0.014v-1e-3l4e-3 -0.014v-1e-3l3e-3 -0.013 1e-3 -2e-3 8e-3 -0.032 2e-3 -0.011 1e-3 -2e-3 3e-3 -0.013 1e-3 -4e-3 2e-3 -0.011 1e-3 -3e-3 3e-3 -0.013 1e-3 -4e-3 3e-3 -9e-3 1e-3 -5e-3 3e-3 -0.013 1e-3 -4e-3 2e-3 -9e-3 1e-3 -6e-3 2e-3 -7e-3 2e-3 -9e-3 2e-3 -8e-3 2e-3 -6e-3 1e-3 -8e-3 2e-3 -6e-3 3e-3 -0.011 1e-3 -7e-3 2e-3 -6e-3 1e-3 -7e-3 1e-3 -5e-3 4e-3 -0.014 1e-3 -4e-3 2e-3 -9e-3v-3e-3l4e-3 -0.016 1e-3 -3e-3 2e-3 -9e-3 1e-3 -3e-3 4e-3 -0.019 2e-3 -9e-3 1e-3 -3e-3 7e-3 -0.029v-3e-3c0.07-0.303 0.135-0.607 0.195-0.914v-1e-3l6e-3 -0.03 1e-3 -2e-3 2e-3 -0.01v-1e-3l3e-3 -0.019 1e-3 -2e-3 2e-3 -9e-3v-4e-3l4e-3 -0.017v-2e-3l2e-3 -8e-3 1e-3 -5e-3 3e-3 -0.016v-3e-3l2e-3 -8e-3 1e-3 -5e-3 1e-3 -7e-3 1e-3 -8e-3 2e-3 -0.01 2e-3 -7e-3 1e-3 -7e-3 1e-3 -8e-3 2e-3 -7e-3 2e-3 -0.01 1e-3 -6e-3 1e-3 -8e-3 1e-3 -5e-3 3e-3 -0.013v-4e-3l2e-3 -0.01 1e-3 -4e-3 3e-3 -0.014v-1e-3l2e-3 -0.013 1e-3 -3e-3 5e-3 -0.028v-2e-3l6e-3 -0.03v-1e-3l0.022-0.123c0.048-0.272-0.133-0.531-0.405-0.58l-0.088-7e-3zm-1.288 4.731c-0.203 0-0.394 0.124-0.468 0.326-0.223 0.599-0.471 1.199-0.737 1.781-0.114 0.251-3e-3 0.548 0.248 0.663l0.207 0.045c0.19 0 0.371-0.109 0.455-0.293 0.276-0.605 0.531-1.221 0.764-1.848 0.096-0.259-0.036-0.547-0.295-0.643l-0.174-0.031zm-2.113 4.424c-0.171 1e-3 -0.337 0.088-0.431 0.246-0.326 0.55-0.677 1.096-1.042 1.622-0.157 0.227-0.101 0.538 0.126 0.696 0.087 0.06 0.186 0.089 0.285 0.089 0.158 0 0.314-0.075 0.411-0.215l0.159-0.231v-1e-3l0.017-0.025 1e-3 -1e-3 0.016-0.024 2e-3 -2e-3 7e-3 -0.011 1e-3 -1e-3 7e-3 -0.011 3e-3 -4e-3 5e-3 -9e-3 3e-3 -3e-3 6e-3 -0.01 4e-3 -5e-3 0.018-0.027 3e-3 -4e-3 8e-3 -0.013 2e-3 -2e-3 5e-3 -7e-3 2e-3 -4e-3 0.016-0.023 1e-3 -2e-3 0.017-0.025v-1e-3c0.27-0.405 0.529-0.818 0.779-1.238 0.139-0.238 0.06-0.543-0.177-0.683l-0.254-0.071zm-2.867 3.98c-0.141 0-0.28 0.058-0.379 0.173-0.419 0.484-0.86 0.959-1.313 1.412-0.195 0.196-0.194 0.512 1e-3 0.708 0.098 0.097 0.225 0.146 0.353 0.146s0.257-0.049 0.354-0.147c0.169-0.17 0.336-0.342 0.501-0.515l0.021-0.023 0.023-0.023 0.02-0.022 1e-3 -1e-3 0.021-0.022 0.011-0.011v-1e-3l0.01-0.01 1e-3 -2e-3 0.01-0.01v-1e-3l0.012-0.012 9e-3 -0.01 0.011-0.011 1e-3 -2e-3 9e-3 -9e-3 1e-3 -2e-3 0.01-0.01 1e-3 -2e-3 9e-3 -9e-3 2e-3 -1e-3 9e-3 -0.011 2e-3 -2e-3 8e-3 -9e-3 1e-3 -1e-3 0.01-0.011 0.01-0.01 2e-3 -3e-3 0.02-0.02 2e-3 -3e-3 9e-3 -0.01 0.01-0.01 2e-3 -3e-3 9e-3 -0.01 0.01-0.01 1e-3 -2e-3 0.01-0.011 0.01-0.01 2e-3 -3e-3 0.011-0.011 8e-3 -9e-3 2e-3 -2e-3 0.01-0.011 1e-3 -1e-3 8e-3 -0.01 3e-3 -2e-3 9e-3 -0.01 1e-3 -1e-3 8e-3 -9e-3 3e-3 -3e-3 9e-3 -0.01 1e-3 -1e-3 9e-3 -0.01 2e-3 -2e-3 0.019-0.021 2e-3 -2e-3 9e-3 -0.011 0.012-0.012 9e-3 -0.01v-1e-3l0.01-0.01 2e-3 -3e-3 9e-3 -9e-3v-1e-3l0.01-0.011 2e-3 -2e-3 9e-3 -0.01 0.01-0.011 2e-3 -2e-3 8e-3 -0.01 0.011-0.011 1e-3 -2e-3 9e-3 -0.01 1e-3 -1e-3 0.01-0.011 1e-3 -1e-3 9e-3 -0.01 1e-3 -1e-3 0.01-0.011 1e-3 -2e-3 9e-3 -0.01h1e-3l0.01-0.012 0.01-0.011v-1e-3l0.011-0.011v-1e-3l0.01-0.011c0.083-0.093 0.166-0.187 0.247-0.282 0.181-0.209 0.158-0.525-0.05-0.705-0.095-0.082-0.212-0.122-0.327-0.122zm-3.526 3.41c-0.111 0-0.222 0.036-0.315 0.111-0.498 0.403-1.016 0.793-1.541 1.159-0.227 0.158-0.282 0.469-0.124 0.696 0.097 0.139 0.252 0.214 0.41 0.214 0.099 0 0.199-0.029 0.286-0.09l0.038-0.027h1e-3l0.024-0.017 2e-3 -2e-3 0.012-8e-3 0.01-7e-3 0.012-9e-3 6e-3 -4e-3 8e-3 -5e-3 5e-3 -4e-3 6e-3 -4e-3 8e-3 -6e-3 0.012-8e-3 5e-3 -4e-3 0.01-7e-3 4e-3 -3e-3 7e-3 -5e-3 0.018-0.012v-1e-3l8e-3 -5e-3 2e-3 -1e-3 0.024-0.018h1e-3c0.14-0.1 0.278-0.2 0.416-0.303h1e-3l0.025-0.018 1e-3 -1e-3 0.023-0.017 3e-3 -3e-3 0.022-0.016 0.016-0.012 9e-3 -6e-3 0.01-8e-3 9e-3 -7e-3 6e-3 -4e-3 0.01-8e-3 9e-3 -7e-3 5e-3 -3e-3 6e-3 -5e-3 5e-3 -4e-3 0.01-7e-3 4e-3 -3e-3 7e-3 -5e-3 4e-3 -3e-3 0.01-8e-3 4e-3 -3e-3 7e-3 -5e-3 4e-3 -3e-3 0.01-8e-3 3e-3 -2e-3 0.012-9e-3 0.01-8e-3 2e-3 -1e-3 0.01-7e-3 2e-3 -2e-3 0.011-9e-3 2e-3 -1e-3 0.01-8e-3 2e-3 -1e-3 0.012-9e-3 0.011-9e-3 2e-3 -1e-3 0.023-0.018 2e-3 -1e-3 0.023-0.018 1e-3 -1e-3 0.024-0.018h1e-3c0.111-0.086 0.222-0.172 0.332-0.259l1e-3 -1e-3 0.023-0.018 2e-3 -1e-3 0.022-0.018 3e-3 -2e-3 0.021-0.017 3e-3 -3e-3 0.01-7e-3 2e-3 -2e-3 9e-3 -7e-3 4e-3 -4e-3 8e-3 -5e-3 5e-3 -5e-3 7e-3 -6e-3 5e-3 -4e-3 6e-3 -4e-3 9e-3 -7e-3 4e-3 -4e-3 7e-3 -5e-3 3e-3 -2e-3 0.022-0.018 1e-3 -1e-3 0.068-0.055c0.214-0.174 0.247-0.488 0.074-0.702-0.099-0.123-0.244-0.186-0.389-0.186zm-4.073 2.732-0.24 0.062c-0.562 0.308-1.141 0.599-1.723 0.866-0.251 0.115-0.361 0.412-0.246 0.663 0.084 0.184 0.266 0.292 0.455 0.292l0.208-0.046 0.156-0.072h1e-3l0.028-0.013v-1e-3l0.028-0.012v-1e-3l0.013-6e-3 2e-3 -1e-3 0.013-6e-3 2e-3 -1e-3 0.011-5e-3 3e-3 -1e-3 0.014-7e-3 0.011-5e-3 3e-3 -2e-3 0.013-5e-3 2e-3 -2e-3 0.01-4e-3 0.028-0.014 5e-3 -2e-3 0.014-7e-3 0.01-4e-3 5e-3 -3e-3 8e-3 -3e-3 6e-3 -3e-3 9e-3 -5e-3 5e-3 -2e-3 7e-3 -4e-3 8e-3 -3e-3 0.036-0.018 7e-3 -3e-3 5e-3 -2e-3 7e-3 -4e-3 0.01-4e-3 0.026-0.013 9e-3 -4e-3 5e-3 -3e-3 7e-3 -3e-3 3e-3 -1e-3 0.018-9e-3 7e-3 -4e-3 3e-3 -1e-3 0.015-7e-3 3e-3 -2e-3 0.038-0.019 0.016-7e-3 3e-3 -2e-3 0.01-5e-3 0.017-8e-3h1e-3l9e-3 -5e-3h1e-3l0.027-0.014 2e-3 -1e-3 0.027-0.013h1e-3l0.027-0.014h1e-3l0.028-0.014 1e-3 -1e-3 0.028-0.014 0.179-0.09h1e-3l0.028-0.014v-1e-3l0.056-0.028h1e-3l0.028-0.015 0.056-0.029h1e-3l0.037-0.019 1e-3 -1e-3 0.027-0.014h1e-3l0.027-0.014 1e-3 -1e-3 0.027-0.014 1e-3 -1e-3 0.027-0.014h1e-3l0.027-0.015h1e-3l0.027-0.014 2e-3 -1e-3 0.026-0.014 0.01-5e-3 1e-3 -1e-3 0.017-9e-3 0.012-6e-3 0.017-9e-3 9e-3 -5e-3 2e-3 -1e-3 0.026-0.014 0.028-0.014 2e-3 -2e-3 0.025-0.013 3e-3 -2e-3 0.025-0.013 3e-3 -2e-3 8e-3 -4e-3 0.016-9e-3 0.012-6e-3 3e-3 -2e-3 0.013-7e-3 4e-3 -2e-3 7e-3 -4e-3 5e-3 -2e-3 0.011-7e-3 5e-3 -2e-3 7e-3 -4e-3 0.016-8e-3 5e-3 -3e-3 6e-3 -4e-3 5e-3 -2e-3 0.012-7e-3 4e-3 -2e-3 7e-3 -4e-3 5e-3 -2e-3 0.012-7e-3 4e-3 -2e-3 7e-3 -4e-3 4e-3 -2e-3 0.012-7e-3 4e-3 -2e-3 7e-3 -4e-3 5e-3 -2e-3 5e-3 -3e-3c0.242-0.133 0.33-0.437 0.198-0.679-0.091-0.166-0.263-0.26-0.439-0.26zm-4.493 1.964-0.158 0.026c-0.607 0.203-1.23 0.386-1.85 0.544-0.267 0.068-0.429 0.341-0.36 0.608 0.057 0.226 0.261 0.377 0.484 0.377l0.124-0.016c0.649-0.166 1.288-0.354 1.918-0.564 0.262-0.088 0.404-0.371 0.316-0.633-0.07-0.209-0.265-0.342-0.474-0.342zm-4.771 1.129-0.072 5e-3c-0.633 0.091-1.278 0.16-1.918 0.206-0.275 0.019-0.482 0.258-0.463 0.534 0.019 0.263 0.239 0.464 0.498 0.464l0.037-1e-3c0.115-8e-3 0.23-0.017 0.344-0.027l0.015-1e-3h1e-3l0.03-3e-3h2e-3l0.029-2e-3 3e-3 -1e-3 0.012-1e-3h3e-3l0.014-1e-3h3e-3l0.011-1e-3 4e-3 -1e-3 0.013-1e-3h1e-3l0.013-1e-3 6e-3 -1e-3h9e-3l5e-3 -1e-3 0.012-1e-3h6e-3l8e-3 -1e-3 6e-3 -1e-3 9e-3 -1e-3h8e-3l9e-3 -1e-3 6e-3 -1e-3h7e-3l7e-3 -1e-3 0.012-1e-3 6e-3 -1e-3h7e-3l7e-3 -1e-3 8e-3 -1e-3 0.01-1e-3h7e-3l0.014-2e-3 0.01-1e-3h8e-3l8e-3 -1e-3 5e-3 -1e-3h8e-3l7e-3 -1e-3 0.012-1e-3 6e-3 -1e-3 7e-3 -1e-3h6e-3l0.012-1e-3 0.014-2e-3h6e-3l7e-3 -1e-3 0.012-1e-3 7e-3 -1e-3h6e-3l8e-3 -1e-3 6e-3 -1e-3 0.011-1e-3 7e-3 -1e-3h8e-3l6e-3 -1e-3 7e-3 -1e-3 0.011-1e-3 8e-3 -1e-3h6e-3l7e-3 -1e-3 6e-3 -1e-3 0.013-1e-3 6e-3 -1e-3h7e-3l6e-3 -1e-3 0.013-1e-3 6e-3 -1e-3 7e-3 -1e-3h6e-3l0.014-2e-3 0.012-1e-3 6e-3 -1e-3 8e-3 -1e-3h6e-3l0.011-2e-3h7e-3l0.021-3e-3 0.01-1e-3 9e-3 -1e-3h5e-3l8e-3 -1e-3 6e-3 -1e-3 0.012-1e-3 0.014-2e-3h6e-3l8e-3 -1e-3 0.01-1e-3 0.021-3e-3 8e-3 -1e-3 0.01-1e-3 7e-3 -1e-3h7e-3l7e-3 -1e-3 0.018-2e-3 7e-3 -1e-3 6e-3 -1e-3 7e-3 -1e-3h7e-3l0.012-2e-3h6e-3l8e-3 -1e-3 5e-3 -1e-3 0.012-1e-3 0.014-2e-3 6e-3 -1e-3 8e-3 -1e-3h3e-3l0.015-2e-3 6e-3 -1e-3h8e-3l5e-3 -1e-3 0.013-2e-3h6e-3l8e-3 -1e-3 5e-3 -1e-3 0.027-3e-3 4e-3 -1e-3 9e-3 -1e-3h2e-3l0.019-2e-3 1e-3 -1e-3 0.01-1e-3h3e-3l0.031-4e-3h1e-3l0.032-4e-3c0.157-0.02 0.314-0.041 0.47-0.064 0.272-0.04 0.461-0.293 0.422-0.565-0.036-0.249-0.25-0.429-0.494-0.429zm-6.86 0.127c-0.253 0-0.47 0.191-0.497 0.448-0.029 0.274 0.17 0.52 0.445 0.549l5e-3 1e-3h6e-3l7e-3 1e-3 5e-3 1e-3 0.015 1e-3 4e-3 1e-3 9e-3 1e-3h3e-3l0.03 3e-3h2e-3c0.632 0.065 1.267 0.108 1.91 0.13l0.016 1e-3c0.269 0 0.49-0.213 0.5-0.483 9e-3 -0.276-0.207-0.508-0.483-0.517-0.641-0.022-1.288-0.067-1.924-0.134l-0.053-3e-3zm-4.811-0.948c-0.216 0-0.416 0.142-0.48 0.36-0.077 0.264 0.074 0.541 0.338 0.62 0.113 0.033 0.226 0.065 0.34 0.097h1e-3l0.01 3e-3h1e-3l0.017 5e-3 0.016 4e-3 0.014 4e-3 5e-3 1e-3 7e-3 2e-3 6e-3 2e-3 7e-3 2e-3 0.011 3e-3 5e-3 1e-3 8e-3 2e-3 6e-3 2e-3 0.011 3e-3 5e-3 1e-3 9e-3 3e-3 5e-3 1e-3 0.011 3e-3 2e-3 1e-3 0.013 3e-3 4e-3 1e-3 0.012 4e-3h1e-3l0.014 4e-3h2e-3l0.013 4e-3h1e-3l0.029 8e-3h1e-3l0.03 8e-3c0.437 0.117 0.878 0.224 1.323 0.32l0.106 0.011c0.231 0 0.438-0.16 0.488-0.395 0.059-0.27-0.113-0.536-0.383-0.594-0.626-0.135-1.254-0.294-1.868-0.474l-0.141-0.02zm-4.563-1.793c-0.184 0-0.36 0.102-0.448 0.277-0.123 0.247-0.023 0.547 0.223 0.671 0.595 0.297 1.202 0.574 1.82 0.83l0.191 0.038c0.196 0 0.382-0.116 0.462-0.309 0.105-0.255-0.016-0.548-0.271-0.653-0.591-0.245-1.181-0.514-1.754-0.801l-0.223-0.053zm-4.172-2.578c-0.153 0-0.303 0.07-0.401 0.201-0.166 0.221-0.12 0.534 0.101 0.7 0.241 0.181 0.486 0.358 0.733 0.531l0.026 0.017v1e-3l0.025 0.017 0.025 0.018 2e-3 1e-3 0.024 0.016 2e-3 2e-3 0.023 0.016 3e-3 2e-3 0.011 8e-3h1e-3l0.011 8e-3 3e-3 2e-3 0.011 7e-3v1e-3l0.011 7e-3 4e-3 3e-3 9e-3 6e-3 2e-3 2e-3 0.011 7e-3 4e-3 3e-3 8e-3 5e-3 3e-3 2e-3 0.011 8e-3 4e-3 2e-3 8e-3 6e-3 3e-3 2e-3 0.01 7e-3 5e-3 3e-3 7e-3 5e-3 4e-3 3e-3 0.01 7e-3 5e-3 3e-3 0.021 0.014 5e-3 4e-3 6e-3 4e-3 5e-3 3e-3 0.01 7e-3 5e-3 4e-3 6e-3 3e-3 0.021 0.014 0.01 8e-3 0.01 6e-3 6e-3 4e-3 5e-3 3e-3 6e-3 5e-3 5e-3 3e-3 0.01 7e-3 4e-3 3e-3 7e-3 4e-3 4e-3 2e-3 0.011 8e-3 4e-3 3e-3 7e-3 5e-3 3e-3 1e-3 0.013 9e-3 3e-3 2e-3 8e-3 5e-3 1e-3 2e-3 0.015 9e-3 2e-3 2e-3 8e-3 5e-3 2e-3 1e-3 0.014 0.01 2e-3 1e-3 8e-3 5e-3 1e-3 1e-3 0.016 0.011 1e-3 1e-3 8e-3 5e-3 2e-3 1e-3 0.016 0.01 1e-3 1e-3 8e-3 5e-3 1e-3 1e-3 0.016 0.011h1e-3l8e-3 6e-3 2e-3 1e-3 0.016 0.011 8e-3 5e-3 2e-3 1e-3 0.025 0.017h1e-3l0.025 0.017h1e-3l0.026 0.017v1e-3l0.027 0.017 0.052 0.034h1e-3l0.112 0.073c0.083 0.053 0.177 0.079 0.269 0.079 0.164 0 0.325-0.081 0.421-0.23 0.149-0.232 0.082-0.541-0.15-0.691-0.538-0.346-1.071-0.716-1.584-1.1-0.09-0.067-0.195-0.1-0.299-0.1zm-3.651-3.276c-0.122 0-0.245 0.045-0.341 0.135-0.202 0.188-0.213 0.504-0.025 0.706l2e-3 2e-3 9e-3 0.01h1e-3l8e-3 0.01 0.013 0.013 9e-3 0.01 3e-3 2e-3 8e-3 9e-3 1e-3 2e-3 0.012 0.012 8e-3 9e-3 0.014 0.014 8e-3 9e-3 1e-3 1e-3 9e-3 0.01 3e-3 3e-3 7e-3 8e-3 3e-3 2e-3 8e-3 0.01 4e-3 3e-3 7e-3 7e-3 2e-3 3e-3 9e-3 9e-3 3e-3 4e-3 0.01 0.01 8e-3 9e-3 0.01 0.01 3e-3 4e-3 0.031 0.031 3e-3 4e-3 6e-3 7e-3 4e-3 3e-3 8e-3 9e-3 0.01 0.01 3e-3 4e-3 9e-3 8e-3 4e-3 5e-3 9e-3 9e-3 8e-3 9e-3 0.027 0.027 4e-3 5e-3 0.012 0.012 5e-3 6e-3 0.023 0.023 3e-3 4e-3 6e-3 5e-3 4e-3 5e-3 0.012 0.012 5e-3 6e-3 5e-3 4e-3 8e-3 9e-3 0.026 0.026 5e-3 6e-3 4e-3 3e-3 9e-3 0.01 0.013 0.013 9e-3 0.01 4e-3 3e-3 5e-3 6e-3 0.036 0.036 2e-3 3e-3 7e-3 6e-3 1e-3 1e-3 0.013 0.014h1e-3l7e-3 8e-3 1e-3 1e-3 0.013 0.014h1e-3l0.029 0.029 1e-3 2e-3 0.021 0.021h1e-3l0.021 0.022 2e-3 1e-3 0.021 0.021v1e-3l0.044 0.044 0.023 0.022v1e-3c0.231 0.23 0.466 0.456 0.704 0.678 0.097 0.089 0.218 0.133 0.34 0.133 0.134 0 0.267-0.053 0.366-0.159 0.188-0.202 0.177-0.519-0.026-0.707-0.468-0.436-0.928-0.895-1.364-1.363-0.099-0.105-0.232-0.159-0.366-0.159zm-3.014-3.869c-0.093 0-0.187 0.026-0.271 0.08-0.231 0.149-0.298 0.458-0.15 0.69l0.064 0.097 1e-3 2e-3 0.01 0.015 1e-3 2e-3 4e-3 7e-3 3e-3 4e-3 6e-3 9e-3 4e-3 7e-3 4e-3 5e-3 4e-3 7e-3 3e-3 5e-3 7e-3 0.01 2e-3 4e-3 6e-3 8e-3 2e-3 2e-3 7e-3 0.013 2e-3 2e-3 7e-3 0.01 1e-3 1e-3 8e-3 0.013v1e-3l9e-3 0.012v1e-3c0.241 0.365 0.49 0.725 0.747 1.078h1e-3l0.018 0.025 9e-3 0.013 9e-3 0.012 1e-3 1e-3 8e-3 0.012h1e-3l8e-3 0.012 2e-3 2e-3 7e-3 0.01 2e-3 2e-3 8e-3 0.011 0.01 0.015 8e-3 0.01 3e-3 4e-3 5e-3 8e-3 3e-3 3e-3 8e-3 0.01 2e-3 4e-3 6e-3 7e-3 3e-3 4e-3 7e-3 0.01 3e-3 5e-3 5e-3 6e-3 4e-3 5e-3 6e-3 8e-3 8e-3 0.012 5e-3 5e-3 4e-3 6e-3 7e-3 0.01 3e-3 4e-3 5e-3 6e-3 2e-3 4e-3 9e-3 0.011 2e-3 4e-3 5e-3 6e-3 3e-3 3e-3 9e-3 0.013 2e-3 3e-3 6e-3 7e-3 1e-3 1e-3 0.011 0.016h1e-3l6e-3 8e-3v1e-3l6e-3 8e-3c0.098 0.131 0.248 0.199 0.4 0.199 0.105 0 0.21-0.032 0.3-0.1 0.221-0.166 0.265-0.479 0.1-0.7-0.385-0.512-0.756-1.044-1.103-1.582-0.095-0.148-0.256-0.229-0.42-0.229zm-2.279-4.343-0.191 0.039c-0.255 0.106-0.376 0.398-0.27 0.653v1e-3l5e-3 0.013 1e-3 2e-3 0.011 0.027 1e-3 2e-3 0.012 0.027 0.012 0.029v1e-3c0.057 0.135 0.114 0.269 0.173 0.402l0.012 0.029 0.013 0.028v1e-3l0.012 0.028 1e-3 1e-3 6e-3 0.013v1e-3l0.012 0.028h1e-3l6e-3 0.014v1e-3l7e-3 0.014 6e-3 0.014 5e-3 0.013 2e-3 2e-3 5e-3 0.013 1e-3 1e-3 5e-3 0.012 1e-3 3e-3 0.012 0.026 1e-3 3e-3 6e-3 0.012v1e-3l6e-3 0.012 1e-3 4e-3 5e-3 0.011 1e-3 1e-3 6e-3 0.013 1e-3 4e-3 5e-3 9e-3 1e-3 3e-3 8e-3 0.016 3e-3 9e-3 2e-3 4e-3 5e-3 0.011 3e-3 6e-3 3e-3 7e-3 3e-3 5e-3 5e-3 0.011 2e-3 6e-3 6e-3 0.012 3e-3 8e-3 4e-3 9e-3 9e-3 0.018 5e-3 0.011 2e-3 5e-3 3e-3 7e-3 3e-3 5e-3 5e-3 0.012 2e-3 5e-3 4e-3 7e-3 2e-3 4e-3 6e-3 0.014 1e-3 3e-3 4e-3 8e-3 2e-3 3e-3 7e-3 0.016 1e-3 1e-3 4e-3 9e-3 1e-3 2e-3 0.012 0.027 1e-3 2e-3 0.013 0.027v1e-3c0.112 0.239 0.226 0.475 0.344 0.709 0.088 0.174 0.264 0.275 0.447 0.275l0.224-0.053c0.246-0.124 0.346-0.425 0.222-0.672-0.287-0.572-0.558-1.161-0.803-1.752-0.08-0.193-0.266-0.309-0.462-0.309zm-1.466-4.679-0.106 0.012c-0.27 0.058-0.441 0.325-0.383 0.595l0.055 0.244v1e-3l6e-3 0.03 1e-3 1e-3 3e-3 0.014v1e-3l3e-3 0.014 1e-3 3e-3 3e-3 0.011v3e-3l3e-3 0.014 1e-3 2e-3 3e-3 0.012v3e-3l3e-3 0.013 1e-3 4e-3 3e-3 9e-3 1e-3 6e-3 2e-3 9e-3 2e-3 7e-3 2e-3 9e-3 1e-3 7e-3 2e-3 6e-3 2e-3 0.01 2e-3 8e-3 2e-3 7e-3 1e-3 5e-3 2e-3 8e-3v1e-3l4e-3 0.018 1e-3 4e-3 7e-3 0.029v2e-3l2e-3 9e-3 1e-3 2e-3 7e-3 0.03v1e-3l8e-3 0.03v1e-3c0.109 0.455 0.229 0.905 0.36 1.35 0.064 0.218 0.263 0.358 0.479 0.358l0.141-0.02c0.265-0.078 0.417-0.356 0.339-0.621-0.18-0.614-0.341-1.242-0.476-1.868-0.051-0.234-0.258-0.394-0.489-0.394zm-0.608-4.866h-0.018c-0.276 0.01-0.492 0.242-0.482 0.518 8e-3 0.22 0.018 0.439 0.031 0.658v1e-3l2e-3 0.03v2e-3l1e-3 0.014 1e-3 0.015v2e-3l1e-3 0.013v2e-3l2e-3 0.03v2e-3l1e-3 0.013v2e-3l1e-3 0.014v3e-3l1e-3 0.011v3e-3l1e-3 0.015v1e-3l1e-3 0.013v4e-3l1e-3 0.011v3e-3l1e-3 0.014v4e-3l1e-3 0.01v5e-3l1e-3 0.012v4e-3l1e-3 0.011v5e-3l1e-3 9e-3v5e-3l1e-3 0.012v6e-3l1e-3 8e-3v6e-3l1e-3 0.01 1e-3 8e-3v7e-3l1e-3 8e-3v6e-3l1e-3 0.011v8e-3l1e-3 7e-3v6e-3l1e-3 8e-3v5e-3l1e-3 0.014 1e-3 5e-3v8e-3l1e-3 5e-3 1e-3 0.018v1e-3l1e-3 9e-3v4e-3l1e-3 9e-3v2e-3l1e-3 0.018 1e-3 3e-3v9e-3l1e-3 4e-3 2e-3 0.03v2e-3l2e-3 0.031 1e-3 1e-3v0.011 1e-3l3e-3 0.032v1e-3c0.02 0.241 0.042 0.482 0.068 0.721 0.028 0.256 0.244 0.445 0.496 0.445l0.054-3e-3c0.274-0.029 0.473-0.275 0.444-0.55-0.068-0.635-0.114-1.283-0.137-1.924-9e-3 -0.27-0.231-0.482-0.499-0.482zm0.256-4.899c-0.245 0-0.459 0.18-0.494 0.429-0.093 0.656-0.164 1.319-0.211 1.989-0.019 0.275 0.189 0.514 0.464 0.534l0.036 1e-3c0.26 0 0.479-0.202 0.498-0.465 0.045-0.64 0.113-1.285 0.203-1.918 0.039-0.273-0.151-0.526-0.425-0.565l-0.071-5e-3zm1.123-4.774c-0.21 0-0.405 0.133-0.474 0.343l-0.078 0.236-0.042 0.134h-1e-3l-9e-3 0.029v1e-3l-0.023 0.074v-1e-3l-0.01 0.031-9e-3 0.029v1e-3c-0.142 0.456-0.272 0.918-0.39 1.385-0.068 0.267 0.094 0.539 0.361 0.607l0.124 0.016c0.223 0 0.426-0.151 0.484-0.377 0.158-0.62 0.34-1.243 0.542-1.85 0.087-0.262-0.055-0.545-0.317-0.632l-0.158-0.026zm1.958-4.496c-0.177 0-0.348 0.094-0.439 0.26v1e-3c-0.057 0.104-0.114 0.209-0.17 0.315l-0.014 0.027-1e-3 1e-3 -0.028 0.054-1e-3 2e-3 -0.013 0.025-2e-3 3e-3 -6e-3 0.011-9e-3 0.018-5e-3 9e-3 -1e-3 3e-3 -6e-3 0.011-3e-3 5e-3 -6e-3 0.012-6e-3 0.011-6e-3 0.012-3e-3 5e-3 -5e-3 0.011-3e-3 5e-3 -3e-3 7e-3 -3e-3 5e-3 -5e-3 0.01-4e-3 6e-3 -3e-3 6e-3 -6e-3 0.014-5e-3 9e-3 -3e-3 5e-3 -3e-3 7e-3 -2e-3 3e-3 -7e-3 0.014-2e-3 3e-3 -4e-3 8e-3 -1e-3 1e-3 -0.014 0.028v1e-3c-0.19 0.369-0.371 0.743-0.544 1.122-0.113 0.251-2e-3 0.546 0.248 0.661l0.208 0.045c0.189 0 0.371-0.108 0.455-0.292 0.266-0.582 0.556-1.162 0.863-1.724 0.133-0.242 0.044-0.546-0.198-0.678l-0.24-0.062zm2.727-4.076c-0.146 0-0.291 0.064-0.389 0.186l-0.03 0.037-9e-3 0.011-1e-3 1e-3 -8e-3 0.011-2e-3 1e-3 -9e-3 0.011-1e-3 3e-3 -7e-3 9e-3 -3e-3 2e-3 -8e-3 0.011-3e-3 3e-3 -5e-3 7e-3 -4e-3 4e-3 -7e-3 0.01-4e-3 4e-3 -5e-3 6e-3 -3e-3 5e-3 -8e-3 9e-3 -3e-3 5e-3 -5e-3 6e-3 -4e-3 5e-3 -5e-3 6e-3 -6e-3 8e-3 -4e-3 5e-3 -5e-3 6e-3 -2e-3 3e-3 -0.01 0.012-2e-3 3e-3 -5e-3 6e-3 -0.012 0.016-3e-3 2e-3 -5e-3 7e-3 -2e-3 3e-3 -0.01 0.013-2e-3 2e-3 -6e-3 7e-3 -1e-3 2e-3 -0.011 0.014-1e-3 2e-3 -6e-3 7e-3 -1e-3 1e-3 -0.019 0.024-1e-3 1e-3 -0.018 0.024-1e-3 1e-3 -0.018 0.023-1e-3 2e-3 -0.038 0.048-1e-3 1e-3 -0.019 0.024v1e-3l-0.019 0.024v1e-3l-0.019 0.024-1e-3 1e-3 -0.017 0.023-3e-3 3e-3 -0.017 0.022-2e-3 3e-3 -5e-3 7e-3 -2e-3 2e-3 -0.012 0.016-5e-3 7e-3 -3e-3 3e-3 -9e-3 0.012-2e-3 3e-3 -5e-3 7e-3 -3e-3 3e-3 -8e-3 0.011-4e-3 4e-3 -8e-3 0.012-7e-3 8e-3 -4e-3 6e-3 -4e-3 5e-3 -5e-3 7e-3 -5e-3 6e-3 -5e-3 7e-3 -3e-3 4e-3 -7e-3 0.01-2e-3 2e-3 -7e-3 9e-3 -3e-3 4e-3 -7e-3 9e-3 -2e-3 3e-3 -7e-3 0.01-3e-3 3e-3 -8e-3 0.01v1e-3l-8e-3 0.011-2e-3 2e-3 -0.018 0.023-1e-3 2e-3 -0.018 0.024v1e-3c-0.2 0.266-0.395 0.536-0.586 0.81-0.157 0.227-0.101 0.539 0.126 0.696 0.087 0.061 0.186 0.09 0.285 0.09 0.158 0 0.313-0.075 0.411-0.215 0.365-0.525 0.754-1.045 1.156-1.543 0.173-0.215 0.14-0.53-0.075-0.703-0.093-0.075-0.204-0.111-0.314-0.111zm3.405-3.53c-0.116 0-0.233 0.04-0.328 0.122l-0.011 0.01-1e-3 1e-3 -0.023 0.02c-0.491 0.428-0.967 0.872-1.427 1.332-0.196 0.196-0.196 0.512 0 0.708 0.097 0.097 0.225 0.146 0.353 0.146s0.256-0.049 0.354-0.147c0.453-0.452 0.927-0.895 1.411-1.314 0.208-0.181 0.231-0.497 0.05-0.706-0.099-0.114-0.238-0.172-0.378-0.172zm3.975-2.873-0.255 0.071-6e-3 3e-3 -4e-3 3e-3 -7e-3 4e-3 -3e-3 1e-3 -0.015 0.01h-1e-3l-9e-3 5e-3 -1e-3 1e-3c-0.26 0.155-0.516 0.314-0.77 0.477l-1e-3 1e-3 -0.026 0.016-1e-3 1e-3 -0.027 0.018-0.024 0.015-3e-3 2e-3 -0.011 8e-3 -5e-3 3e-3 -6e-3 4e-3 -6e-3 3e-3 -5e-3 4e-3 -0.015 9e-3 -6e-3 4e-3 -5e-3 4e-3 -0.011 6e-3 -3e-3 3e-3 -9e-3 5e-3 -3e-3 2e-3 -0.011 8e-3 -3e-3 1e-3 -0.01 7e-3 -2e-3 1e-3 -0.012 8e-3 -1e-3 1e-3 -0.011 7e-3 -2e-3 1e-3 -0.025 0.017h-1e-3c-0.208 0.137-0.415 0.277-0.62 0.42-0.227 0.157-0.283 0.469-0.125 0.696 0.097 0.139 0.253 0.214 0.411 0.214 0.099 0 0.198-0.029 0.285-0.089 0.526-0.366 1.071-0.718 1.621-1.045 0.237-0.141 0.315-0.448 0.174-0.685-0.093-0.157-0.259-0.245-0.43-0.245zm4.422-2.119-0.174 0.031c-0.392 0.146-0.779 0.301-1.162 0.464h-1e-3l-0.057 0.024v1e-3l-0.028 0.012h-1e-3l-0.028 0.012-1e-3 1e-3 -0.013 5e-3 -1e-3 1e-3 -0.014 6e-3 -0.013 5e-3 -2e-3 1e-3 -0.014 6e-3 -0.013 6e-3 -2e-3 1e-3 -0.013 5e-3 -0.013 6e-3 -3e-3 1e-3 -0.011 5e-3 -2e-3 1e-3 -0.013 5e-3 -3e-3 2e-3 -0.01 4e-3 -3e-3 2e-3 -0.012 5e-3 -4e-3 2e-3 -9e-3 4e-3 -4e-3 2e-3 -0.012 5e-3 -4e-3 2e-3 -9e-3 3e-3 -4e-3 2e-3 -0.012 5e-3 -0.012 6e-3 -5e-3 2e-3 -0.011 5e-3 -5e-3 2e-3 -8e-3 3e-3 -5e-3 3e-3 -8e-3 3e-3 -8e-3 4e-3 -7e-3 3e-3 -6e-3 3e-3 -8e-3 3e-3 -7e-3 3e-3 -0.014 7e-3 -6e-3 2e-3 -0.01 5e-3 -6e-3 2e-3 -7e-3 4e-3 -0.015 6e-3 -0.014 6e-3 -5e-3 3e-3 -0.024 0.01-5e-3 3e-3 -7e-3 3e-3 -5e-3 2e-3 -0.012 5e-3 -5e-3 3e-3 -7e-3 3e-3 -4e-3 2e-3 -0.013 6e-3 -4e-3 1e-3 -8e-3 4e-3 -3e-3 1e-3 -0.014 7e-3 -4e-3 1e-3 -0.01 5e-3 -0.017 8e-3h-1e-3l-9e-3 4e-3 -2e-3 1e-3 -0.027 0.013h-1e-3l-8e-3 4e-3c-0.251 0.115-0.361 0.411-0.246 0.662 0.084 0.184 0.265 0.292 0.455 0.292l0.208-0.045c0.582-0.267 1.181-0.515 1.78-0.739 0.259-0.096 0.39-0.384 0.294-0.643-0.075-0.201-0.266-0.325-0.469-0.325zm4.73-1.295-0.088 8e-3c-0.165 0.029-0.33 0.06-0.493 0.093h-1e-3l-0.03 6e-3h-1e-3l-0.03 6e-3 -0.046 9e-3 -0.031 6e-3 -0.107 0.022c-0.409 0.085-0.814 0.179-1.216 0.281-0.267 0.068-0.429 0.34-0.361 0.608 0.058 0.226 0.261 0.376 0.484 0.376l0.124-0.015c0.62-0.158 1.254-0.295 1.884-0.408 0.272-0.049 0.453-0.309 0.404-0.581-0.043-0.242-0.254-0.411-0.492-0.411z" fill="#FCFDFF"/>
</g>
</g>
</g>
</svg>
