<?xml version="1.0" encoding="utf-8"?>
<!-- Generator: Adobe Illustrator 21.1.0, SVG Export Plug-In . SVG Version: 6.00 Build 0)  -->
<svg version="1.1" id="Layer_1" xmlns="http://www.w3.org/2000/svg" xmlns:xlink="http://www.w3.org/1999/xlink" x="0px" y="0px"
	 viewBox="0 0 15000 338" style="enable-background:new 0 0 15000 338;" xml:space="preserve">
<style type="text/css">
	.st0{fill:#FFFFFF;}
</style>
<g>
	<path d="M10461.8,292c-2.4-7.2-4.3-14.7-13.1-17.1c-3.2-0.9-6.4-1.9-9.9-3c-1.7,1.2-3.5,2.9-5.6,3.5c-1.6,0.5-4.2,0.2-5.4-0.8
		c-8.3-7.5-16.9-8.7-26.5-2.7c-3.1,1.9-6.7,1.8-8.5-2c-2.9-5.9-8.7-3.9-13.3-4.9c-4.6-1-9.7-2.8-13.4,2.9c-1.1,1.7-3.8,2.4-6.3,3.8
		c1.8,8,6.8,16.2,0.5,23.8c-3.1,3.6-7.3,7-11.7,8.7c-10.5,4.1-22.7-0.8-27.6-10.1c-5.2-10-2.1-17.4,12.6-29.1c-1.1-1.4-2-4-3.4-4.2
		c-8-1.4-15.9-5.2-24.1,0.1c-3.6,2.3-7.5,1.8-10.9-1.5c-3.9-3.9-7.9-4.5-12,0.1c-1.2,1.4-3.4,1.9-5.2,2.7c-4.2,1.8-5.7,4.9-5.5,9.5
		c0.4,10.9-3.1,16.5-11.6,19.5c-10,3.5-23.3,0.3-28.5-6.8c-6.6-9.2-1.8-21.6,10-25.4c3.6-1.2,7.4-2,11-4c-16.2-5.2-33.1-3-49.3-5.9
		c0-0.9-0.1-1.8-0.1-2.7c2.6-0.2,5.2-0.7,7.7-0.7c39.3,0.6,78.6,1.9,118,1.9c31,0,62-1.3,92.9-2.8c7.5-0.4,14.5-5.7,23.6-3.1
		c-0.6-3.5-0.7-5.7-1.4-7.7c-3.3-11.1-3.9-22.3-2.1-33.6c3.5-21.2,12.2-40.2,25.2-57.1c14.5-18.9,38.1-20.1,53.3-2.2
		c16,18.7,28,40,31.5,64.8c1.2,8.8,0,17.9-0.3,26.8c-0.1,2.6-0.6,5.2-1.1,9.2c6.2-0.4,11.7-1,17.2-0.9c5.8,0.1,12.1-3.6,17.2,2.7
		c1,1.2,4.5,0.5,6.8,0.6c54.3,2.2,108.6,1.1,162.9-1.1c41.2-1.6,82.4-2.3,123.7-3.2c51.3-1.1,102.5-4.4,153.8-6.8
		c1.6-0.1,3.2-0.5,5.7-0.9c-0.8-2.8-1.2-5.2-2.1-7.5c-7.3-18.5-8.8-37.6-5-57c5-25.6,15.2-49,31.5-69.4
		c15.9-19.9,44.8-22.2,61.1-2.7c30.7,36.8,48.1,78.2,35.8,127.5c-0.6,2.5-0.9,5.1-1.6,8.8c81.4,5.7,162.1,9.3,243.4,6.9
		c0.9-2.6,1.8-5,2.7-7.7c74.5,0.3,148.2-8.8,222.8-14.9c-0.9-3.5-1.2-5.8-2.1-7.9c-17.7-41.5-15.9-83.1-0.8-124.8
		c7.6-20.8,17.8-40.1,32.4-57.1c20-23.3,60.7-23.6,79.6,0.4c31.3,39.6,47,84.7,45.1,135.4c-0.5,14.5-4.1,28.3-8.6,42
		c-1.1,3.4-2,6.9-3,10.3c16.9,6.8,214.3,21.1,232.8,16.9c0.4-5.3,0.8-10.8,1.1-16.1c43.3-1.3,85.2-9.1,127.5-13.9
		c22.2-2.5,44.3-5.5,66.4-8.4c3.8-0.5,7.6-1.4,12.5-2.4c-1.3-4.5-1.9-8-3.3-11.3c-14.6-34.9-22.4-71.2-22.6-109
		c-0.1-12.6,0.7-25.3,1.9-37.9c1-10.2,3.4-20.4-0.8-30.4c77.3,0,154.7,0,232,0c-4.6,9-4.2,18.3-2.9,28.2c2.9,22.2,2.4,44.5,0.2,66.8
		c-2.9,28.8-11,56.1-22.1,82.7c-1.6,3.8-2.6,7.9-4.3,13.2c72.2,9.4,142.6,22.1,214.1,28.5c1.9-13.8-0.7-27.1,1.4-39.2
		c15.3-2.1,29.5-3.6,43.5-6.2c41.6-7.6,83.2-15.5,124.7-23.4c9.4-1.8,10.6-3.7,7.9-12.8c-0.7-2.6-1.8-5-2.7-7.5
		c-6.2-16.5-12.2-33.1-18.6-49.6c-10.1-26.4-14.3-54.6-25.3-80.7c116,0,232,0,348,0c-3.6,11.8-7.1,23.6-11,35.3
		c-11.6,35.6-27.5,69.3-43.6,103c-5.9,12.3-5.1,14,7.8,16.9c44.3,9.7,88.5,19.4,132.8,29.1c7.8,1.7,15.6,3.9,23.4,5.1
		c9.3,1.4,12.1-1.3,12.2-10.7c0.1-19.7,0-39.3,0.1-59c0-4.9,0.4-9.8,0.6-13.5c6.1-1.1,11.4-1.6,16.3-3c15.7-4.5,31.3-9.4,46.9-14.1
		c15.6-4.7,31.2-9.5,46.9-14.2c3.5-1.1,7.6-2,7-6.9c-1.3-9.5-1.5-19.5-4.8-28.4c-5-13.6-12.3-26.5-18.6-39.6c146,0,292,0,438,0
		c-1.6,3.3-3.2,6.6-5,9.8c-7.6,13.3-14.9,26.8-22.9,39.9c-5,8.2-6.7,17.3-8.5,26.4c-0.9,4.5,0.7,6.7,4.9,8.3
		c29.8,10.8,59.4,21.8,89.2,32.6c2.3,0.8,4.9,0.9,8.8,1.6c0.5-7.5,1.2-14.1,1.2-20.6c0.2-32.7,0.3-65.3,0.4-98
		c399.3,0,798.7,0,1198,0c0,112.7,0,225.3,0,338c-199.3,0-398.7,0-598,0c-0.1-24-0.1-48-0.4-72c-0.1-4.5-1.6-9-2.1-13.5
		c-0.3-2.5,0.2-5,0.6-7.5c0.4-2.5,1.2-4.9,2.1-8.5c-5,0-8.9,0-12.8,0c-3.7,0-6.2,1.5-7.8,5.1c-3,7-8.8,10.7-15.8,12.8
		c-10.2,3.1-20.3,6.6-30.7,8.9c-5.7,1.3-12,1.2-17.8,0.5c-3.2-0.4-6.3-3.1-9.1-5.2c-2.5-1.8-4.5-5.7-7-6c-4.4-0.4-9.3,0.6-13.3,2.4
		c-4.5,2-8.2,5.6-12.3,8.4c-19.6,13.2-39.2,26.6-59,39.4c-18.7,12.1-39.3,17.7-61.7,17.2c-7.3-0.2-14.7-0.6-22,0
		c-12.6,1-25.1,2.4-37.6,4.3c-2.8,0.4-5.1,3.4-8.2,5.7c-0.9-5.1-4.8-5.6-9.1-6.7c-17.2-4.5-34.7-5.6-52.4-5.8
		c-24-0.3-45-8.7-62.6-25c-18.6-17.2-36.9-34.7-55.2-52.2c-8.4-8-19.7-11.4-31.6-8.8c0,3.1,0.2,6.4,0,9.6c-0.6,8.6-4.7,12.8-13.2,13
		c-4.6,0.1-9.5,0.1-13.8-1.4c-15.4-5.3-31.2-9.9-43.9-19.7c-3.5,1.5-6.5,3.4-9.7,4.1c-4.2,1-8.7,0.6-12.8,1.8
		c-3.2,1-6.9,2.8-8.7,5.5c-3.3,4.7-7.4,7.8-12.7,9c-8.4,2-16.8,4.3-25.4,4.9c-10,0.8-12.3-2.2-12.3-12.1c0-1.3-0.1-2.6-0.2-4.4
		c-8.9-1.9-17.3-0.8-25.7,1.2c-1.8,0.4-3.8,2.8-4.5,4.7c-2.1,5.6-6.4,8.3-11.7,10c-5.1,1.6-10.1,3.5-15.4,4.3
		c-9.1,1.4-12-1.1-13.8-10.1c-0.5-2.2-0.8-4.5-1.3-7.5c-11.9-0.3-21.8,3.4-30.1,11.1c-10.8,9.9-21.5,19.9-32.3,29.9
		c-13.6,12.7-29.9,18.4-48.4,18c-13.3-0.3-26.7-0.2-39.7,3.3c-3.3,0.9-6.4,2.4-9.6,3.6c-1.1-0.8-2.6-2.9-4.5-3.2
		c-11.8-1.9-23.2-6-35.5-5.1c-4.3,0.3-8.6-0.4-13-0.7c-13.6-1-25.2-6.3-34.4-16.3c-8.8-9.6-17.4-19.3-25.3-29.6
		c-4.2-5.5-9-8.3-15.7-9.1c-8.2-1-16.3-2.8-24.6-4.2c-1.1,2.3-2.3,3.9-2.8,5.8c-2.7,9.7-7.5,10.1-15.2,7.9
		c-9.4-2.6-19.8-4.5-23.3-16.3c-0.5-1.8-4-3.5-6.4-3.9c-8.8-1.3-17.6-2-26-2.8c-1,1.8-1.5,2.3-1.5,2.9c-0.6,13.5-3.1,16.2-16.1,14.1
		c-14.2-2.2-28.2-5.5-37.6-18.2c-1-1.4-3.3-1.9-6.3-3.6c-2.6,20.6-0.4,40.4-1.7,60.1c-6.3,1.1-11.1,0.2-13.9-4.8
		c-4.3-7.6,2.6-12,6.6-18.1c-5.3-5.2-10-10.8-15.6-15.1c-2.5-1.9-7-1.4-10.5-1.8c-4.4-0.6-9.2,0.7-12.8-3.8
		c-1.2-1.5-4.9-1.6-7.5-1.5c-7,0.2-14,0.8-21,1.1c-7.1,0.3-13.5,0.7-16.8,9.3c-2.1,5.7-19.9,9.7-25.6,6.9c-1.9-0.9-3.5-3-4.4-5
		c-1.1-2.3-1.2-5-2-8.6c-8.1,0.6-16,1-23.9,1.7c-3.3,0.3-5.1,2.1-6.4,5.3c-2.9,7.3-11.6,12.3-19,10.9c-2.2-0.4-4.6-2.5-5.8-4.5
		c-1.5-2.5-1.9-5.6-2.9-9c-6.2,0-12.5-0.6-18.6,0.2c-6.4,0.8-17,13.3-16.8,20.4c0.2,14.4-10.2,20.8-19.6,28
		c-3.6,2.7-8.1,2.2-12.5,0.8c-6.5-2-13-4.7-21.4-3.1c2.5,2.6,4.2,4.4,6.3,6.6c-1.7,0.4-2.8,1-3.5,0.7c-2.8-0.9-5.7-1.9-8.3-3.3
		c-7-3.8-14.2-5.1-22.1-2.8c-5.3,1.5-10.7,1.7-15.9-0.1c-7.4-2.4-14.3-1.1-21.2,2.2c-3.1,1.5-6.5,2.3-9.7,3.4
		c-0.6-0.9-1.1-1.7-1.7-2.6c2-1,3.9-2.1,6.6-3.5c-1.9-1-2.8-1.8-3.5-1.7c-5.9,0.8-11.8,2.1-17.7,2.6c-3.8,0.4-8.6,1.1-11.5-0.7
		c-9.9-6.3-18.5-14.1-19.1-27.3c-0.6-13.9-8.5-21.8-22.2-22.8c-4.9-0.3-9.8-0.7-14.9-1c-1,3-1.7,5.2-2.4,7.3
		c-2.4,7.2-4.4,8.3-11.9,6.3c-5.9-1.6-11.3-3.5-12.9-10.8c-0.4-2.1-3.9-4.8-6.3-5.1c-8.1-1.3-16.4-1.7-24-2.4
		c-1.1,1.5-1.7,1.9-1.9,2.5c-3.4,11.8-6.1,13.4-17.8,10.3c-6.4-1.7-12.9-3.2-15.3-11.1c-0.6-2.1-4.4-4.1-7-4.4
		c-10.6-1.3-21.2-2-31.8-2.8c-1.3-0.1-3.1-0.1-3.8,0.6c-5.7,6.1-12.8,4-19.7,3.9c-1.7,0-3.3-0.4-5-0.2c-6.6,0.8-10.2,4.1-10.4,11
		c-0.4,11.3-0.2,22.6-0.4,34c-0.1,9.9-0.3,9.6-9.8,13.4c-11.4,4.5-22.9,7-35.1,5c-17.6-2.9-31.5-17-28.5-36.7
		c1.4-9.2-1.2-11.9-10.4-12.9c-3.4-0.4-6.4-0.5-8.5-4c-0.9-1.5-4-2.4-6-2.3c-8.3,0.3-16.6,1.1-24.9,1.7c-3.4,0.3-5,2.1-6.3,5.4
		c-2.4,6.3-11.2,10.8-16.8,8c-3.3-1.7-5.2-6.1-7.1-11.4c-9.1,0.6-18.2,1.2-27.6,1.9c-0.9,7.9-3.6,13-11.3,13.8
		c-8.7,0.9-6.7-7.6-10.2-11.3c-6,0-11.9-0.1-17.9,0.1c-1.5,0.1-3.8,0.6-4.5,1.7c-4.3,6.8-11.5,12-10.6,21.6
		c0.9,9.4-6.3,14.8-11.6,21.3c-8-0.8-13.1-11.9-23.8-5.6c5.3,4.5,10.2,8.6,15,12.7c-2.9,3.2-6.7,2.3-10.3-1.2
		c-3.4-3.2-6.7-6.5-9.9-9.9c-2.8-2.9-5.9-4.1-10.5-2.1c1.5,2.8,3,5.4,5.6,10.2c-8.4-5.2-12.5-12.4-22.7-11.3
		c-8.7,1-16.2,1.2-21.1,10.1c-0.5-0.6-0.9-1.1-1.4-1.7c1-2.3,2-4.5,3.2-7.1c-0.8-0.5-1.7-1.5-2.3-1.3c-3,1-6.2,1.9-8.7,3.7
		c-3.5,2.5-6.3,5.9-9.5,8.9c-3.4,3.2-6.9,3.5-10.6,0.7c4.9-3.9,9.8-7.7,15.3-12.1c-10.2-6.8-15.2,4-23.3,4.4
		c-6.5-5.9-11.8-12.7-11.3-22.6c0.4-7.8-5.6-12.5-8.9-18.4c-2.7-4.7-8.2-3.7-12.7-4c-3.6-0.3-7.2-0.1-11-0.1
		c-3.5,3.9-1.8,12.2-10.3,11.5c-8-0.7-10.2-6.2-11.5-13.8c-9-0.8-17.8-1.6-26.6-2.4c-1.1,1.9-1.9,3-2.3,4.2
		c-1.3,3.9-2.6,7.6-7.8,7.7c-6.4,0.2-13.2-2.6-14.7-7.8c-1.5-5.4-5.2-6.5-9.6-7c-7.3-0.8-14.6-1.3-21.9-1.7
		c-1.8-0.1-4.9,0.3-5.4,1.4c-2.3,5.1-6.5,4.7-10.9,5.1c-7.1,0.7-10.3,4.1-9,11.3c3.8,22.8-12.8,37.7-35.5,38.1
		c-9.2,0.2-18.4-1.9-28.5-3.1c-0.2-9.8-0.3-18.7-0.4-27.6c0-2.7,0.2-5.3,0-8c-0.3-4.6-2.8-7.2-7.6-7.7c-4.9-0.5-9.8-0.5-13.4-5.2
		c-1.1-1.5-7.1-1.8-8-0.6c-5.3,7.2-12.7,6.2-20,6.6c-1.5,0.1-3,1-5.3,1.8c1.1,2.8,2,5.2,2.9,7.6c4.3,11,2,21-6.6,29.2
		c-10.5,9.9-27.1,12.6-40.1,6.6c-12.3-5.8-17.8-17.4-14.3-30.5c2.1-8,2.1-8-6.2-10.5c-1.2-0.4-3.2-0.8-3.4-1.5
		c-2-7.7-7.9-5.6-12.9-5.3c-4.7,0.3-9.3,0.9-13.9,1.2c-3.3,0.3-6,1.3-6.4,5c-0.6,5.4-4,7.1-8.9,7.4c-5.1,0.3-7-2.8-8.1-7.1
		c-0.2-0.9-1-1.7-1.9-3.3c-7.9,0.6-16.1,1.3-24.1,1.9c-3.3,4.4-0.9,12-8.9,12.2c-6.9,0.1-5.8-6.2-9-10.5c-5.6,0.3-11.9,0.4-18,1.2
		c-1.9,0.2-4.3,2.2-5.1,4c-2.8,6.2-8,11.8-5.1,19.5c0.2,0.7-0.6,1.7-1.2,3.2c-1.4-1.8-2.4-3.2-3.9-5.2c-2.1,1.6-4,3.2-6.2,4.9
		c1.4,3.6,2.6,6.9,3.8,10.1c-0.5,0.4-1,0.8-1.4,1.2c-1.8-1.8-3.5-3.7-5.7-5.9c-1.1,3-2.1,5.9-3.2,8.8c-0.4,0-0.7-0.1-1.1-0.1
		c-0.1-2.8-0.3-5.5-0.4-8.9c-6.6-0.5-13-1.4-19.4,1.3c0,0,0.2-0.2,0.2-0.2c-11.3-0.3-22.7-1.3-34-0.6c-3.1,0.2-6,5.1-9.1,8
		c0.5-2.3,1.1-4.9,1.8-8.3c-6.1-0.4-11.5-0.8-17.9-1.3c0,3.6,0,6.6,0,9.7c-0.6,0.1-1.1,0.2-1.7,0.4c-0.6-1.3-1.4-2.5-1.8-3.8
		c-0.4-1.2-0.3-2.6-0.6-5c-2.5,2.1-4.4,3.6-6.3,5.1c-0.4-0.3-0.8-0.6-1.2-0.9c1.4-2.8,2.7-5.6,3.9-8c-2.3-6.8-6.1-6.3-10.6-3.1
		c-3-18.6-8.1-28.7-28.6-26.2c-0.7,1.7-1.7,3.7-2.5,5.8c-1.2,3.4-3.7,5.2-6.9,4.2c-2.5-0.8-6.2-3-6.4-4.9c-0.8-6.9-5.1-7.8-10.5-8
		c-5-0.2-9.9-0.5-15.3-0.8c-1,2-2.1,3.6-2.8,5.4c-1.4,3.7-4.2,5.1-7.9,4.6c-3.7-0.5-7.9-1-8.5-5.5c-0.9-6.2-5.2-7.1-10-7.5
		c-5-0.4-10-0.7-15-1c-3.3-0.2-6.4-0.5-8.2,3.8c-0.7,1.7-4.2,2.4-6.6,3.1c-5.3,1.6-6.4,3.1-5.5,8.6c0.2,1,0.6,1.9,0.8,2.9
		c3,15.3-5.2,27.9-20.6,31.3c-9.4,2.1-18.6,1.1-27.2-3.3c-14.7-7.5-19.6-20.7-13.3-36c0.6-1.5,1.2-3,2-5c-2.4-1.1-4.4-2.5-6.5-2.8
		c-5.4-0.6-10.3-1.5-14.4-5.8c-1.5-1.5-5.9-1.7-8.2-0.7c-9,4.2-8.9,4.5-17.3,5.2c0,11.4,0,22.9,0,34.4c-8.6,2.8-16.1,2.7-23.5,0.2
		c-9.1-3-13.8-9.9-13.6-19.6c0.2-8.1-0.5-9-8.5-12.1c-7.5-2.9-13.7-2.5-21.2,0c-2.7,0.9-7.7,0.6-9.1-1.2c-3.8-4.7-8.2-4-12.7-3.3
		c-5.4,0.9-11.4-1-17.2,4c2.2,1.9,4,3.5,6,4.9c15.6,11.1,14,31.2-3.2,39.5c-8.6,4.2-17.5,4.1-26-0.3c-10-5.1-14.1-15.5-10.8-26.2
		c0.8-2.5,1.8-4.9,2.7-7.1c-3.8-3-7.1-5.6-10.5-8.3c0.2-0.6,0.4-1.2,0.6-1.8c-7.2,0.7-14.5,1.1-21.7,2.2c-1.8,0.3-4.4,2.2-4.9,3.9
		c-1.1,3.6-2.3,6.1-6.5,6.1c-4.2,0.1-5.9-2.4-7-5.8c-0.2-0.6-0.8-1.1-1.7-2.3c-7.1,0.7-14.7,1.4-21.4,2.1c-4.4,2.5-1.5,10.6-8,9.3
		c-2.9-0.6-5.1-4.2-8.8-7.5c-2.1,0.2-5.7,0.4-9.3,0.7c-11.5,1.2-15,4.8-15.3,16.2c-0.1,3,0.7,5.6-3.9,5.7c-0.5,0-0.8,5.7-2.8,8.6
		c0-2.6,0-5.2,0-7.9c-0.4-0.2-1.3-0.8-1.5-0.6c-4.2,3.3-9.1,3.6-14.1,3.6c-13.1,0-26.2,0-39.8,0c-0.5,4.6-0.9,7.8-1.4,12
		c-1.4-4.6,0.9-11-5.2-11.4c-6-0.4-12.8-3-18.7,2.1c0.2-7.7-6-7.4-11.9-7c-0.7-2.7-1-5-1.8-7.1c-4.1-10.5-11.2-16.1-23.9-13.7
		c-0.7,1.1-1.7,3.3-3.3,4.8c-3.3,3.3-8.4,2.8-9.6-1.5c-1.6-5.6-5.2-6.3-9.7-6.5c-6.7-0.3-13.5-2.8-18.5,5.1
		c-2.2,3.5-9.1,1.8-10.5-2.6c-1.8-5.4-5.5-6.1-10-6.4c-5.6-0.4-11.2-0.9-14.5-1.1c-5.5,3.9-9.2,6.5-13.8,9.8
		c0.2,1.2,0.4,3.4,0.9,5.6c0.3,1.6,1.1,3.2,1.4,4.8c2,10.8-4.6,21-15.8,24.6c-13.9,4.5-29.9-1.9-34.9-13.9
		c-4.2-10.2-0.1-21.5,10-27.5c2.4-1.4,5-2.7,7.3-5.1c-8.6-2.7-16.9-6.9-25.6-0.1c-4.5,3.5-8.8,3.2-13.5-0.6c-6.5-5.2-6.4-5-12.7-0.4
		c-1.8,1.3-4.2,1.7-6.3,2.6c-5.9,2.3-8.3,5.9-8.1,12.1c0.3,9.9-5.2,17.2-15.4,20c-1.9,0.5-3.9,0.9-5.9,0.9c-4.6,0.1-9.2,0-15.1,0
		c-0.1-7.3-0.3-13.8-0.3-20.3c-0.1-6.3,0-12.6,0-19.1c3.5-0.5,6.3-0.9,9-1.3c-18.3-7-36.4-2.3-54.6-1.2c-0.2,0.8-0.3,1.5-0.5,2.3
		c2.5,0.9,5.1,1.6,7.6,2.6c3.7,1.5,7.8,2.5,10.8,4.9c7.9,6.4,7.7,17.8,0.1,24.5c-8.1,7.1-22.2,7.7-30.7,1.1c-5.2-4-7.6-9.4-6.1-15.9
		c1.2-5.5-0.1-9.1-5.7-10.9c-1.5-0.5-2.8-1.6-4.1-2.6c-5-3.6-8.2-4-12,0.4c-4.1,4.6-7.2,3.7-12,1c-6.8-3.9-14.4-1.2-21.4,0
		c-3.4,0.6-6.3,3.9-10.9,6.9c8,4.5,13.6,9.6,13.6,17.5c0,4.4-1.3,9.4-3.7,13.1c-6,9.4-19.5,11.7-29.4,6c-10.4-6-12.2-15.8-5.8-30.5
		c-0.3-0.6-0.4-1.3-0.8-1.7c-2.7-2.2-5.3-5.8-8.2-6.1c-5.5-0.5-11.3,0.5-16.8,1.7c-2.1,0.4-4.1,2.8-5.4,4.7c-1.8,2.9-5.1,4-6.6,2.1
		c-5-6.7-11.2-3.9-17.2-3.3c-5.5,0.6-12.1-0.6-12.3,9.6c-4-3.1-6.3-4.8-9.7-7.4c-5.8,2.3-13.7,3.5-19,7.9
		c-4.7,3.8-6.4,11.1-9.3,16.6c-0.2-0.4-0.7-1.9-2-5.1c-1.3,4.7-2.2,7.9-3.3,11.8c-3.1-1.5-5.8-3.8-8.6-3.9c-2.4,0-4.9,2.5-8.1,4.2
		c-1.1-2.7-2.2-5.2-3.9-9.3c-5.8,0-12.3,0-18.9,0c-6.5,0-6.4,6.7-9.9,10.2c-2.5-1.6-4.9-4.3-7.6-4.7c-2.3-0.3-5,2-8.4,3.6
		c-0.8-2.4-1.5-4.4-2.2-6.4c-1.7-4.8-3-5.2-8.3-2.7L10461.8,292z M12960.7,293.2c10.3,1.3,11.3,0.6,11.2-8
		C12967.7,288.2,12964.2,290.7,12960.7,293.2z M11938.7,251.9c10.4,5.4,11,5.3,14-1.6C11948.2,250.8,11944.5,251.3,11938.7,251.9z
		 M12823.7,283.2c0.4,8.7,2.3,10.1,11.8,9.3C12831.7,289.5,12828.5,287,12823.7,283.2z M12250.8,293.4c-4.2-2.8-6.4-4.2-8.7-5.7
		c-0.6,0.4-1.2,0.8-1.9,1.2c0.8,2.1,1,4.9,2.5,6.1C12243.7,295.8,12246.5,294.3,12250.8,293.4z M12357.6,287
		c-3.4,2.7-5.5,4.3-7.9,6.2C12356.7,296.8,12356.7,296.8,12357.6,287z M11402.4,250c-0.2-0.7-0.3-1.4-0.5-2.1
		c-2.8,0.2-5.7,0.5-8.5,0.7c0,0.5,0.1,0.9,0.1,1.4C11396.5,250,11399.4,250,11402.4,250z M11458,251.4c0-0.3,0.1-0.5,0.1-0.8
		c-1.6,0-3.1,0-4.7,0c0,0.3,0,0.5,0,0.8C11454.9,251.4,11456.5,251.4,11458,251.4z"/>
	<path d="M6582.2,259.6c-6.6-3.5-13.7-2.2-20.3-0.7c-16.2,3.8-32.1,8.5-48.8,13.1c1.9,6.9-2.5,10.2-8.7,12.3
		c-7.8,2.7-15.4,6.4-23.3,8.5c-5.3,1.4-11.6,2.1-16.8,0.7c-18.3-5.1-36.9-4-55.5-4.1c-3.7,0-7.4-1.2-13.3-2.1c8.2-8.9,18.6-3,25.8-9
		c-3.8-0.5-7-1.2-10.2-1.3c-10.7-0.4-21.3-1.1-32-0.7c-6.9,0.2-13.7,2.1-20.6,3c-6.2,0.9-12.5,2-18.7,2.1c-3,0-6.7-1.6-8.8-3.8
		c-3.3-3.5-7.1-4.8-11.5-5c-6.3-0.3-12.7-0.5-19-0.5c-2.3,0-4.9,0.2-6.7,1.4c-11.4,7.2-22.5,2.2-33.6-0.5c-1.1-0.3-2.8-1.6-2.9-2.4
		c-0.3-7.3-7-8.2-11.3-11.4c-4.5-3.4-9.5-6.3-13.6-10.1c-4.4-4.1-4.7-7.9-0.4-12.2c5.8-5.8,12.4-10.9,18.8-16.1
		c3.1-2.5,7.1-3.9,9.9-6.6c9.4-8.8,20.8-11.8,33.2-11.1c16.6,0.9,33.2,2.1,49.8,3.9c16.8,1.9,33.5,5.7,50.4,7
		c28.5,2.3,57.2,3.4,85.8,5c19.3,1,38.6,1.6,57.9,3c13.2,1,23.1-3,30.5-14.5c6.6-10.4,14.4-20,22-29.7c2.7-3.5,6.5-6.2,11-10.4
		c1.2,4,2.4,6,2.4,8c0.1,24,0.1,48,0,72c0,1.3-0.5,2.5-0.8,4.1c-3,0.5-5.8,1-10,1.8c4,1.3,6.8,2.1,10.2,3.2c0,8.4,0,16.9,0,25.3
		C6585.3,282.2,6581.3,277.4,6582.2,259.6z"/>
	<path d="M7159.9,230.1c-10,4.5-21.9,3.8-29.1,15.2c24.3,1.9,47.9-3.7,72.2-1.5c0,9.2,0.3,17.8-0.1,26.3c-0.2,4-3.4,6.2-7.2,7.4
		c-7.8,2.4-15.6,3.2-23.7,2c-5-0.7-9-2.8-10.8-7.6c-2-5.2-1-9.9,3.3-13.6c1.5-1.2,3.5-1.7,4.5-3.7c-6.9-2.9-12.9-3.8-18.4-1.2
		c-6.1,3-12.2,2.9-18.5,2.8c-6.7-0.1-13.3,0-20-0.1c-8.1-0.1-14.6,4.4-21.3,7.8c-4,2-5.1,6.1-3.9,10.3c1.2,4-0.6,6.1-3.4,8.4
		c-7.2,6-14.9,9.9-24.6,8.9c-2-0.2-4.2-0.3-5.9,0.4c-11.2,4.2-22.2,2.9-33.4,0c-3.1-0.8-6.6-0.3-9.9-0.5c-7.6-0.6-15.2-1.5-22.8-1.8
		c-5.6-0.2-11.2,0.2-16.8,1c-5.6,0.7-11.1,1.7-16.8-1.8c3.6-7,9.6-5.1,14.8-5c5.2,0.1,10.4,1,15.9-1c-1.3-4.1-3.9-4.3-6.5-4.4
		c-15.6-0.6-31.3-1.7-46.9-1.6c-6.4,0.1-12.9,2.6-19.1,4.6c-11.9,3.9-23.3,5.2-33.6-3c-11.1,1.9-21.7,0.3-32.1-2.9
		c-1.4-0.4-3.5-2.1-3.4-3.1c0.6-6.9-5.1-8.6-9.1-11.8c-4.1-3.3-8.4-6.6-12-10.5c-4.3-4.6-4.5-8.3-1-13.5c2.8-4.1,6-8,9.7-11.3
		c7.7-6.8,15.6-13.4,23.9-19.4c6.8-4.9,15-5.2,23.1-4.9c21.4,0.6,42.3,4.1,63.2,8.3c17.3,3.4,34.8,5.9,52.3,7.6
		c25.5,2.5,51.2,3.9,76.7,5.7c2,0.1,4,0.3,6,0.4c11.8,0.8,20.3-3.6,25.6-14.7c4.6-9.6,10.5-18.6,15.9-27.7
		c3.8-6.5,10.4-8.1,17.1-4.7c4.2,2.2,3.9,5.8,3.3,9.5c-1.4,9.2-3,18.4-4.4,27.6c-1.9,12.2,0,14.6,12.6,15.8
		C7150.2,229.3,7155.1,229.7,7159.9,230.1z"/>
	<path d="M9634.5,248.6c73.4,2.9,146.9,6.4,220.7,2.7c0-11.3-10-7.3-16.2-10.8c4.6-0.3,8.3-0.5,12.7-0.7c0.2-2.7,0.5-5.2,0.4-7.7
		c-0.5-24.3,9.7-44.6,24.3-63c10.3-12.9,32.3-12.2,41.8-0.9c16.9,19.9,30.8,41.1,30.1,68.8c0,1.3,0.3,2.6,0.6,4.7
		c12.6-1.2,25-2.4,37.3-3.6c-12.3,5-25.6,5.1-37.7,11c80,3.7,159.7-1.7,239.6-5.5c-5.2,4.1-11.5,2.8-17.3,3.8
		c-6.2,1-12.6,1.4-18.9,2.1c-6.2,0.7-12.4,1.6-18.9,4.2c1.8,1,3.5,2.2,5.4,3c2.4,1,5.2,1.5,7.5,2.6c6.5,3.2,9.6,9.9,8.1,16.6
		c-1.8,8.2-11.4,13.6-21.4,12.2c-9.9-1.4-16.9-8.9-14.6-17.8c1.9-7.4-1.3-9.7-6.5-13.1c-5.4-3.5-9-2.3-13.2,1.2
		c-1.3,1.1-3.8,2-5.3,1.5c-11-3.4-21.3-2.8-31.3,3.3c-1.3,0.8-3.8,0-5.7-0.2c-3-0.3-6-0.6-9-0.9c-0.2,0.7-0.4,1.3-0.6,2
		c1.4,1.1,2.7,2.4,4.2,3.3c1.1,0.6,2.6,0.6,3.8,1.1c10.4,4,15.2,13.8,11.4,23.1c-3.9,9.5-15.5,13.8-25.2,9.4
		c-10.1-4.5-13.4-14.9-8.2-25c0.8-1.5,1.7-2.8,2.8-4.5c-2.6-2.2-5-4.3-7.7-6.6c-7.5,2.5-16.9-1.1-22.4,7.8
		c-10.3-3.8-20.3-4.6-29.6,2.4c-0.9,0.7-2.8,1.1-3.5,0.6c-5.4-3.9-8.9,0.2-12,3.3c-4.3,4.2-7.8,9-12.3,14.4c0.2,0.2,1.6,2.1,3.6,4.5
		c-2.6,2.5-5,4.8-8.4,8.1c-1.4-3.7-2.2-5.9-3.7-9.9c-0.9,5.1-1.5,8.6-2.3,13.2c-5.3-3.8-10.2-5.7-16,1.4c-0.5-5.2-0.8-8.3-1.2-11.5
		c2.6-1.1,4.7-1.9,8.2-3.4c-6.6-2.2-11.6-3.9-15.8-5.3c-2.2,3.8-3.9,6.7-5.5,9.6c-2.5-1.6-5-3.1-7.6-4.8c-3,4.2-3,4.2-1.8,12.2
		c-6.1,3.7-12.5-6.6-18.8,3.7c-0.9-6.8-1.4-10.3-2.1-15.1c-1.5,1.6-2.8,2.5-3.1,3.6c-1.6,6.2-2.7,6.8-7,3.3c-1.5-1.2-2.6-2.9-4.3-5
		c2-1.9,3.8-3.6,5.3-5c-6-5.1-12-10.2-18-15.3c-0.5-0.4-1.3-1.1-1.7-1c-8,2.5-13.9-5.1-21.6-4.4c-3.6,0.3-7.3,0.2-10.7,1.1
		c-3.1,0.7-5.3,0.7-8.2-1.3c-9.2-6.2-18.5-5.2-28.6,2.5c0.8,2.2,1.8,4.6,2.6,7c3.3,9.8-1.2,19-10.9,22.4c-10.3,3.6-21.5-1-25-10.4
		c-3.3-8.6,1.1-17.6,10.7-21.8c2.3-1,4.7-1.9,7-4.6c-8.2-1.7-16.4-3.7-24.6-5.1c-2.8-0.5-6,0-8.8,0.8c-3.7,1-6.6,1-10.3-1.1
		c-9.2-5.1-19.8,2.1-19.1,12.5c0.6,9.3-3.7,15.4-12.7,17.5c-9.8,2.4-20.1-1.5-23.4-8.8c-3.6-7.8,0.6-16.5,9.6-20
		c3.1-1.2,6.3-2.2,9.4-3.4c0.5-0.2,0.7-1,1.8-2.5c-8.6-2.3-17-2.7-25.4-3.4c-8.2-0.7-16.4-1.5-24.6-2.3
		C9634.5,250.4,9634.5,249.5,9634.5,248.6z M9954.9,277.8c-0.3-0.9-0.7-1.7-1-2.6c-2.5,1.2-5.2,2.2-7.5,3.8
		c-0.5,0.3,0.6,2.8,1.3,5.4C9950.7,281.6,9952.8,279.7,9954.9,277.8z"/>
	<path d="M6003.1,219.5c0,16.1,0,30.6,0,45.9c-8.8,1.1-17.2,2.1-25.7,3.1c-9.6,1-19.2,1.8-28.8,2.9c-4.9,0.6-8.6,2.4-12.1,7.1
		c-9.9,13.3-24.4,18.1-40.3,13.8c-12.8-3.4-25.5-4.4-38.5-4.7c-4.8-0.1-9.9,0.3-14.5-3.3c2.9-6.3,9.5-3.2,13.9-7.3
		c-2.5-0.5-4.5-1.2-6.4-1.3c-15.6-0.8-31.2-1.3-46.8,2c-8.7,1.8-17.8,2.8-25.4-4.5c-1.6-1.5-5-1.5-7.6-1.6
		c-15-0.7-29.9-1.4-44.9-1.8c-3.6-0.1-7.5,0.5-10.7,1.9c-10.1,4.6-19.6,1.4-29.2-1.3c-0.9-0.3-2.3-0.7-2.6-1.4
		c-3-9.2-12.6-9.9-19-14.7c-2.9-2.2-6.2-4-8.9-6.4c-4.2-3.9-4.7-7.4-0.7-11.2c5.7-5.4,12.2-10.2,18.6-14.8c3.7-2.7,8.6-4.1,12-7
		c9.1-7.9,19.9-10.9,31.5-10.5c17,0.5,33.9,1.3,50.8,2.8c28.8,2.6,57.5,6.8,86.4,8.4c39.2,2.2,78.5,2.8,117.8,3.9
		C5982,219.8,5992,219.5,6003.1,219.5z"/>
	<path d="M7465.8,291.4c2.1,0.9,4.3,1.1,4.9,2.2c1.1,2.1,2,5,1.4,7.1c-0.3,1.3-3.4,2.5-5.4,2.7c-2.9,0.4-5.8-0.2-8.8-0.3
		c-4.8-5.1-0.8-9,2.7-13.8c-5.8-0.7-11.1-0.1-15.2-2.1c-4-1.9-6.8-6.4-11.3-10.9c-2.4,0-6.7,0.2-11-0.1c-4.5-0.3-8.6-2-10-6.9
		c-1.3-4.5-0.2-9.1,3.6-11.7c4.6-3.1,5-6.3,3.1-11c-2.8-6.9,1.4-12.6,5-17.4c5.9-8,12.8-15.3,19.7-22.6c6.2-6.5,14.5-8,23-7.8
		c16.8,0.5,33.1,3.8,48.9,9.1c18.5,6.1,37.3,9.7,56.6,11.6c9.3,0.9,18.5,2.3,27.8,3.5c3.3,0.4,6.6,0.9,9.9,1
		c15.2,0.6,16.6-0.3,22.4-14.3c6.3-15.2,6.3-15.2,23.7-11.1c0,2.3,0.1,4.9,0,7.4c-0.3,4.7-1,9.3-1,13.9c-0.1,8.6,2.5,11.5,11.2,11.7
		c7.3,0.2,14.6-0.6,21.9-0.9c3.6-0.2,7.3-0.4,11.1,0.8c-10.6,2.1-21.2,4-31.8,6.3c-7.7,1.6-8.3,2.2-13.4,11c6.2,0,11.7,0.4,17.1,0
		c37.9-2.5,75.8-5.1,113.7-7.6c5.5-0.4,11,0,16.8,1.6c-1.5,0.5-3,1.4-4.6,1.6c-9.6,1-19.2,2-28.9,2.7c-5.3,0.4-8.7,2.6-9.6,6.3
		c1.6,6.4,3.3,11.4,3.7,16.4c0.2,2.1-2.1,4.9-4,6.6c-5.3,4.7-15.9,4.3-21.3-0.4c-5.6-4.9-5.4-9.9,0.9-21.9
		c-4.9-2.7-10.4-3.1-15.4-1.9c-16.6,3.8-33.7,3.7-50.5,5.4c-4.6,0.5-8,2.6-11.3,5.5c-3,2.6-3.9,5.7-2.5,8.9
		c3.2,7.5,0.9,13.2-5.6,17.1c-6.8,4.1-14.1,4.3-20.9,0c-6.7-4.2-7.3-10.6-4.8-17.6c0.2-0.6-0.1-1.3-0.1-1.9
		c-12.2-2.2-18.9,1.9-24.8,15.6c3.2,1,6.5,1.7,9.5,3.1c1.2,0.5,2.4,2.5,2.4,3.7c-0.1,1.2-1.6,3.2-2.8,3.4c-3.6,0.6-7.3,1.1-10.9,0.7
		c-13.9-1.6-27.6-4.2-41.7-2.3c-5.2,0.7-9.8-0.9-11.5-7.1c-1.4-5.1-6.1-5.8-10.4-6.2c-16.2-1.3-32.5-2.7-48.8-3.6
		C7476.5,276.2,7470.1,280.3,7465.8,291.4z"/>
	<path d="M5403.2,217.6c0,17.7,0,34.6,0,52.5c-9.1,1.2-17.9,2.3-26.7,3.4c-2.3,0.3-4.8,0.1-6.9,0.8c-2,0.7-3.7,2.2-5.5,3.4
		c1.1,1.7,2.2,3.5,3.3,5.2c0.7,1,1.5,2,2.7,3.5c-1.7,1.2-2.8,2.6-4.2,2.8c-13.2,1.9-26.3,4.5-39.7,1.8c-9.1-1.8-18.3-3-27.4-4.8
		c-2.4-0.5-4.5-2.2-8.4-6.2c2.4-1.4,4.9-2.8,7.3-4.1c-0.6-0.6-1-1.5-1.3-1.5c-11.6,0.2-23.2-0.1-34.8,0.8
		c-10.3,0.8-20.3,2.9-29.9-3.4c-2.8-1.8-7-1.8-10.7-2c-20.6-1-41.3-1.9-61.9-2.6c-4.3-0.1-8.7,0.6-12.8,1.8
		c-7.7,2.3-15.2,1.3-22.7-0.5c-1.9-0.5-4.7-0.9-5.4-2.2c-4.1-8-12.7-9-19.2-13.3c-3.3-2.2-6.9-4.2-9.8-6.9
		c-3.8-3.5-4.1-6.7-0.4-10.3c4.8-4.6,9.9-8.9,15.4-12.5c6.3-4.2,13-8.1,19.9-11.3c5.6-2.6,11.7-5.3,17.7-5.8
		c12.6-0.9,25.3-1.2,37.9-0.3c22.6,1.6,45,4.5,67.6,6.3c19.2,1.5,38.5,2.7,57.8,3.2c29.6,0.8,59.3,1,88.9,1.5
		C5397.1,217,5400,217.3,5403.2,217.6z"/>
	<path d="M9567.6,244.6c-17.5,2.4-35.1,4.9-52.6,7.3c0.3,4.8,3.8,5,6.5,5.8c6.7,1.9,11.5,5.4,12.4,12.7c0.7,5.5-1.9,9.8-6.5,12.6
		c-6.2,3.9-12.7,3.7-18.9,0c-5.7-3.4-7.8-8.6-6.4-15.4c0.4-1.9,1.1-3.8,1.7-5.5c-8.3-8.4-8.6-8.4-19.5-3.6c-1.1,0.5-2.6,0.9-3.7,0.6
		c-10.1-2.8-19.5-0.6-28.9,3.2c-1.6,0.6-3.7-0.1-5.6,0c-3.8,0.2-7.5,0.6-11.3,0.8c-0.2,0.9-0.3,1.8-0.5,2.7c3,1.4,6,2.9,9,4.3
		c7.4,3.6,11.1,10.6,9.5,17.9c-1.6,7.3-8.4,12.3-16.3,12.1c-7.6-0.2-14.6-5.5-15.8-12.8c-0.5-3.1,0.3-6.6,1.2-9.7
		c0.7-2.4,2.6-4.5,3.9-6.7c-6.7-5.7-15.7-6.6-23.8-1.5c-2.5,1.6-4.2,1.4-6.8,1.4c-6.9,0-14,0.6-20.5,2.4c-10,2.9-9.8,3.4-14.3,13.1
		c-1.4,3-3.2,5.8-5.3,9.3c1.8,1.1,3.6,2.1,6.4,3.8c-1.3,2.6-2.6,5.2-5.1,10c-2.7-8.1-7.5-8-13.2-6.6c0.7-5.1-0.3-9.6,6.3-10.1
		c1.9-0.2,4-3.1,5.2-5.2c1.9-3.4,3.1-7.1,5.1-11.9c-5.3,0.7-9.2,1.2-13.6,1.7c-0.1,9.4-7.8,10-14.1,13.5c1.8,0.3,3.6,0.5,5.6,0.8
		c0,5.2,0,10.4,0,15.1c-4.7,0-9,0-14.4,0c-2.2-5.2-3.5-11.4,1.8-17.5c-15.5-1.7-16.4-1.3-19.2,7.7c1.9,1.3,4.3,2.2,5.4,3.9
		c1.9,2.9,0.4,12.1-1.4,11.8c-2.8-0.4-5.4-2.4-9.8-4.6c-0.7,1.7-1.8,4.2-2.6,6.1c-2.7-0.9-4-1-4.4-1.6c-1.9-3.2-3.7-6.2-9.1-3.4
		c2.1-14.2-9-20.2-14.4-29.2c-1-1.6-4.6-1.7-7.7-2.7c-0.5,6.9,3.4,10.8,6,15.2c0.5,0.8,2,1.6,3,1.6c6.7-0.5,6.3,3.9,6.7,8.9
		c-5.1,1.1-11.4-0.9-12.4,6.7c-4.9-2.5-6.2-5.6-5.6-8.9c0.3-1.5,3.2-2.5,5.1-3.8c-2.6-5.1-5.4-10.9-8.6-16.5c-0.7-1.3-2.3-2.5-3.7-3
		c-4.1-1.3-8.3-2.6-12.5-3.2c-9.7-1.4-19.7-0.8-29.3-4c-5.8-1.9-11.9-1.2-16.1,5.2c0.8,1.8,1.7,3.5,2.4,5.3c3,7.7,1.4,14.3-4.4,18.8
		c-6.2,4.9-15.3,5.1-21.4,0.4c-9.2-6.9-7.9-19.9,2.6-25.6c3.3-1.8,6.8-3.3,10.2-4.9c-0.1-0.9-0.3-1.8-0.4-2.7
		c-11.5-1.2-23-2.4-34.5-3.6c-3.2-0.3-6.7,0-9.6-1.3c-4.7-2-8.4-0.5-12.3,1.4c-3.8,1.9-5.1,4.4-4.6,8.8c1.7,14-9.4,22.5-22.6,17.7
		c-5.5-2-9-5.7-9.5-11.7c-0.4-6,2.6-10.2,7.8-12.8c3.8-1.9,7.7-3.4,11.5-6.1c-15.3-4.6-31.1-4.7-46.4-8.2
		c66.5,2.5,132.9,6.9,200.3,4.5c-0.9-4.6-1.6-8.5-2.4-12.8c-4.5-1.4-8.9-2.7-15.4-4.7c6.2,0,10.4,0,15.2,0
		c1.6-16.9,8.2-31.3,17.4-44.7c5.1-7.5,11.6-13,21.2-13.3c3.9-0.1,7.8,0.5,12.3,0.9c0.9-4.3,1.7-8.4,2.5-12.5
		c-0.7,12.8,6.8,21.1,14,30c9.6,11.8,16.3,25.1,18,41.7c12.6-1.4,24.7-2.8,36.8-4.2c0.1,0.4,0.1,0.9,0.2,1.3
		c-11.9,2.6-23.9,5.3-36.5,8.1c-0.2,2.9-0.4,5.7-0.6,9.1c74.6,0.5,148-6.5,221.4-12.3C9567.5,243.2,9567.6,243.9,9567.6,244.6z"/>
	<path d="M4803.1,215.9c0,24.3,0,47.8,0,72c-12.9,1.2-25.4,3.9-38.5,1.9c-9.8-1.5-19.9-1.1-29.9-1.5c-6.3-0.3-12.1-0.9-12.9-9.2
		c-0.4-3.6-3.4-4.5-6.6-4.8c-38.4-3.7-76.6-9.3-115.3-9.6c-4.9,0-9.9,1.4-14.8,1.6c-6.6,0.3-13.2,0.1-19.7-0.1
		c-1.9-0.1-4.7-0.8-5.4-2.1c-3.6-7.5-11.6-8.3-17.6-12.2c-3.6-2.3-7.5-4.4-10.7-7.2c-4-3.5-3.9-6.4-0.1-10.2
		c2.3-2.4,4.9-4.6,7.7-6.4c18.5-11.7,36.2-23.7,60.2-22.5c30.6,1.5,61.1,4.2,91.6,6.7c21.9,1.8,43.9,1.6,65.8,2.2
		C4772.1,215,4787.3,215.4,4803.1,215.9z"/>
	<path d="M8020.4,260.5c-7.5-0.7-15-2-22.5-2c-6.9,0-8.5,1.9-9.9,8.7c-2.4,11.1-18.3,17.7-27.7,11.4c-6.4-4.3-5.5-14.2,1.9-18
		c4-2.1,8.3-3.6,12.3-7.2c-2-0.6-4.1-1.3-6.1-1.9c-2.1-0.7-4.3-1.3-6.3-2.6c24.2-0.3,48,5.4,73.4,4.7c-3.4-14.9,1.6-27,8.4-38.8
		c10.7-18.5,22.2-21.9,43-15.2c9.4,3,18.1,8.4,27.4,11.9c11.8,4.4,23.8,8.3,36,11.7c3.6,1,7.9-0.1,11.9-0.4
		c8.5-0.7,16.6-0.7,21.8,8.1c2.2,3.8,6.2,4.7,10.5,4.4c8.3-0.7,16.6-1.2,24.9-1.9c3.6-0.3,7.1-0.6,10.9,0.7c-10.1,2-20.1,4-30.2,6.1
		c-3.3,0.7-6.7,1.1-9.6,2.6c-1.7,0.8-3.4,3.5-3.3,5.2c0.1,1.3,3,3.4,4.7,3.5c6,0.5,12,0.6,18,0.3c24.6-1.5,49.2-3,73.8-4.8
		c28.2-2.1,56.5-4.6,84.7-6.7c4.6-0.4,9.2,0,13.9,1c-11.3,1.5-22.5,3-33.8,4.4c-29.1,3.8-58.1,7.7-87.2,11.4
		c-6.9,0.9-13.9,1.2-20.8,2.4c-2.8,0.5-5.4,2.5-8.7,4.2c4.4,6.5,11.1,10.6,8.8,18.3c-0.9,3-2.8,6.2-5.1,8.2
		c-5.6,4.9-15,3.7-19.9-1.8c-6.1-6.9-4.2-13.2,7.3-24.6c-0.4-0.4-1-1.3-1.3-1.2c-14.6,4.4-30.2,2.8-44.7,7.4
		c-2.1,0.7-4.9,1.8-5.5,3.5c-3,7.4-9.5,7.5-15.7,8.5c-2.8,0.4-5.7,0.5-8.5,0.7c-0.2,0.7-0.5,1.4-0.7,2.1c1.6,1.1,3,2.9,4.7,3.1
		c7.9,0.7,15.9,0.9,23.8,1.4c3.4,0.2,8.5-0.8,8.1,4.5c-0.3,4.8-5.2,4.5-8.7,4.3c-9.6-0.5-19.2-1.7-28.8-2.1
		c-6.3-0.3-12.6,0.4-18.9,0.6c-2,0.1-4,0.4-6,0.4c-8.4-0.1-9.5-2.5-5.1-10c-11.3-5.6-23.1-4.2-35.1-3.3c-7.7,0.6-15.8-0.8-23.4-2.8
		c-3.1-0.8-5.8-5.2-7.6-8.5c-2.4-4.2-5.5-7.3-10.2-6.3c-4.7,1-6.2,5.4-6.4,10c-0.6,13.5-16,21.4-27.5,14.2
		c-7.7-4.9-7.1-15.9,1.3-20.5c4.6-2.5,9.5-4.4,14.2-6.5C8020.8,262.5,8020.6,261.5,8020.4,260.5z"/>
	<path d="M8768.2,274.6c-0.3,5.7-0.6,11.3-0.9,17.3c4,1.7,9,3.3,5.1,9.2c-4.3,0-8.3,0-13.2,0c-1.7-2-2-5,0.5-7.2
		c6.4-5.6,5.1-12.2,3.6-20.2c-4.9,0.8-9.3,1.5-14.6,2.3c-0.5,7.8-6.9,9.3-13.9,11c2.7,4.4,4.9,8.2,8,13.4c-5.2,0-8.4,0.3-11.4-0.1
		c-1.8-0.3-4.4-1.5-5-2.9c-1.1-2.6,0.8-4.2,3.6-4.6c0.9-0.1,1.8-0.6,2.7-1c-4.1-6.6-10.2-7.1-23.5-1.7c2.6,6,5.2,12,7.8,18
		c-9.6,6-14.5,3.6-23.9-11.6c2.4-1.8,4.8-3.5,8.7-6.4c-10-2.1-17.8-5.1-24.2-11.1c-1.3-1.2-3.6-1.7-5.6-2.1
		c-16.4-2.7-32.8-5.4-49.2-8c-4.5-0.7-8.6-0.3-12.1,4.3c0.9,2.2,1.9,4.5,2.8,6.9c2.6,7.8-0.5,15-7.8,18.3c-6.6,3-16.5-0.6-19.8-7.1
		c-2.8-5.5-0.6-12.5,5.3-16.6c2.4-1.6,5.1-2.8,9.3-5.1c-3.2-1.8-5.1-3.7-7.3-4c-9.2-1.4-18.4-2.3-27.7-3.5c-3.3-0.4-6.5-1.2-9.8-1.6
		c-8.2-1-12.2,3.1-11.1,11.3c0.9,6.9-1.1,11.2-6.5,14.3c-5.7,3.2-13.2,2.7-17.8-1.3c-6.8-5.9-5.7-15.3,2.5-19.9
		c3-1.7,6.3-3,10.7-5.1c-8-5.3-15.9-4-23.1-5.3c-7.5-1.3-15-2-22.5-3.7c61.1,2.7,122,8.2,183,6.7c3.4-13.4,2-16.5-10.4-20.4
		c4.6-0.7,7.8-1.3,11.6-1.9c1.5-3.9,2.7-8.1,4.8-11.8c3.8-7,7.6-14.1,12.1-20.6c6.6-9.3,16.9-9.7,27-9.2c2,0.1,4.5,1.7,5.8,3.3
		c9.7,12.6,21,24.2,25,41.1c10.1-1.2,19.5-2.4,29-3.5c0.1,0.5,0.2,1,0.3,1.5c-9,2.2-18.1,4.5-27.7,6.8c0,4.1,0,7.9,0,13.1
		c68.3-0.7,135.9-8.8,203.8-13.5c-16.3,2.6-32.6,5.3-48.9,7.9c-0.2,0.6-0.5,1.2-0.7,1.8c1.9,1.3,3.7,2.7,5.7,3.9
		c2.5,1.5,5.6,2.4,7.7,4.4c5.8,5.6,4.6,14.5-2.2,18.8c-5.4,3.4-12.8,3-17.9-0.8c-5-3.8-6.1-8.3-3.7-16c0.4-1.2,0.7-2.5,1.1-4
		c-3.4-3.1-6.5-5.8-11.5-4.9c-12.5,2.4-25,4.9-37.6,7c-5.1,0.8-10.3,0.7-15.5,1.1c-0.2,0.7-0.5,1.4-0.7,2.1c1.4,1.4,2.7,2.9,4.4,4.1
		c1,0.7,2.6,0.7,3.8,1.2c7.6,3.7,10.7,12.3,7.3,19.3c-3.5,7.1-12.3,9.9-19.7,6.2c-7.8-3.9-10.4-12.5-6.1-20.3c1-1.7,2.3-3.2,4.4-6
		c-3.2-1.3-6.4-3.9-8.7-3.3c-13,3.4-26.6,3.7-39.5,7.3C8771.9,272.4,8770.3,273.6,8768.2,274.6z"/>
	<path d="M4203.3,213.8c0,25.3,0,48.9,0,73.9c-10.3,0.9-20.4,1.1-30.6-0.5c-3.9-0.6-5.5-3.7-5.9-7.2c-0.8-5.9-4.4-7.2-9.7-7.7
		c-15.9-1.5-31.7-4-47.6-5.2c-23.2-1.7-46.5-2.8-69.8-3.9c-3.9-0.2-7.9,1.4-11.8,1.5c-6.3,0.2-12.5-0.1-18.8-0.4
		c-1.6-0.1-4-0.5-4.6-1.5c-5.3-9.1-15.9-10.2-23.5-15.7c-0.3-0.2-0.6-0.4-0.8-0.5c-9.2-6.2-10-10.2-1.2-16.5
		c11.3-8.1,23.4-15,35.5-21.9c3-1.7,7-2.2,10.6-2.4c12.3-0.5,24.7-1.3,36.9-0.5c23.6,1.5,47.1,4.3,70.7,5.9
		c19.6,1.4,39.2,1.8,58.9,2.6C4195.1,213.9,4198.7,213.8,4203.3,213.8z"/>
	<path d="M3603.1,212.2c0,19,0,37.8,0,57.4c-2.7,0.3-5.2,0.9-7.7,0.8c-6.6-0.3-13.4-0.4-19.9-1.5c-28-4.9-56.3-5.6-84.6-7
		c-6.6-0.3-13.2,1.1-19.8,1.3c-6.3,0.1-12.6-0.1-18.8-0.6c-3.3-0.3-6.3-1.4-7.7-5.3c-0.7-1.8-3.3-2.9-5.2-4
		c-5.8-3.3-11.9-6.1-17.4-9.7c-6.9-4.5-7.3-8.2-1.3-13.4c5-4.3,10.7-7.8,16.3-11.4c3.9-2.5,8.3-4.3,12-7c7-5.2,14.8-7.7,23.3-7.7
		c16,0,32-0.1,47.9,0.9c26.2,1.6,52.4,4.1,78.6,6.3C3600,211.4,3601.3,211.8,3603.1,212.2z"/>
	<path d="M3003,206.1c0,19.9,0,38.3,0,57.4c-4.9,0-9.1,0.2-13.4,0c-17.9-1-35.9-2.5-53.8-3.2c-7.2-0.3-14.5,1.1-21.8,1.2
		c-6.3,0.1-12.5-0.3-18.8-0.8c-1.6-0.1-4-0.6-4.6-1.7c-4.7-8.8-14.6-9.8-21.8-14.8c-0.5-0.4-1.1-0.7-1.7-1
		c-9.1-5.9-9.7-10.4-1.2-16.6c20.1-14.6,40.9-27.7,67.5-24.4c2,0.2,4,0,6,0.1C2960.4,203.5,2981.3,204.8,3003,206.1z"/>
	<path d="M2403,201.6c0,19.6,0,38.1,0,57.6c-5,0-9.8,0.4-14.6-0.1c-11.3-1-22.5-1.3-33.8,0.8c-5.6,1-11.8-0.7-17.7-1.4
		c-1.3-0.1-3.2-0.6-3.6-1.5c-3.9-8.7-13.1-9.5-19.9-13.6c-13.6-8.1-14.3-11.6-1.1-20.7c18.4-12.6,37.4-24.3,61.5-21.6
		C2383.2,202.1,2392.9,201.5,2403,201.6z"/>
	<path d="M1803.3,200.8c0,19.3,0,37.8,0,56.3c-10.1,4.3-23.2,1.4-30.4-6.2c-1.7-1.8-4.4-2.8-6.7-4.1c-5.8-3.3-11.8-6.2-17.2-10
		c-5.4-3.8-5.6-7.2-0.5-11.2c5.4-4.3,11.4-7.9,17.3-11.5c4.5-2.8,9.3-5.1,13.9-7.8C1787,202.1,1792.4,200.6,1803.3,200.8z"/>
	<path d="M8331.9,267.6c0.1,7.1-5.3,12.1-13,12c-7.5-0.1-12.8-5-13.1-12.2c-0.3-7.4,4.8-12.5,12.4-12.6
		C8325.9,254.8,8331.8,260.2,8331.9,267.6z"/>
	<path d="M8080.3,288.8c4.3,0.5,7.1,0.5,9.6,1.2c1.3,0.4,2.9,2.1,2.9,3.3c0.1,1.2-1.3,3.1-2.5,3.7c-5.5,2.9-11.2,5.8-16.9,8.2
		c-2.3,1-5.2,1.3-7.7,0.9c-3.4-0.5-5.3-4.8-2.9-6.8C8068.4,294.6,8072.8,287.2,8080.3,288.8z"/>
	<path d="M1202.7,239.5c-0.7,0.4-1.1,0.7-1.3,0.7c-8.2-1.4-15.2-6.4-15.2-10.7c0-4.4,7.1-9.6,16.5-11.7
		C1202.7,225,1202.7,232.1,1202.7,239.5z"/>
	<path d="M6870,283.7c2.5,2.9,4.3,4.7,5.7,6.7c1.2,1.7,3.1,4.4,2.6,5.5c-1,1.9-3.7,3.8-5.7,3.9c-3,0.1-6.9-0.6-8.7-2.5
		c-2.8-2.9,0.1-5.9,2.3-8.4C6867.6,287.2,6868.8,285.3,6870,283.7z"/>
	<path d="M7512.6,292.4c0.3-5.7,3.9-6.2,7.1-6.1c3.5,0,7.5,0.2,10.4,1.8c2.3,1.3,1.2,4.4-1.7,5.2
		C7523.3,294.6,7518.1,295.1,7512.6,292.4z"/>
	<path d="M6285.8,297.7c-2.4-2.7-5.4-4.5-5.6-6.6c-0.4-3.7,3-4.7,6.2-4.8c4-0.1,7.8,3.1,6.5,5.6C6291.9,294,6289,295.3,6285.8,297.7
		z"/>
	<path d="M5710.2,292.8c-2-2.1-3.4-3.5-4.7-4.9c1.9-1.3,3.7-3.1,5.8-3.6c2.6-0.6,5.9,0.3,5.1,3.8
		C5715.9,289.8,5712.8,290.9,5710.2,292.8z"/>
	<path d="M8658.7,297.2c6.6-3.5,10.7-1.3,15.2,2.3C8667.9,303.7,8666.2,303.5,8658.7,297.2z"/>
	<path d="M1800.6,268.3c0.9,0.9,2,1.7,1.9,2.2c-0.3,1-1.2,1.8-1.8,2.6c-0.5-0.7-1.5-1.4-1.5-2.1
		C1799.1,270.2,1799.9,269.4,1800.6,268.3z"/>
	<path d="M11723.4,306.6c2.2,2.3,4.3,4.7,6.5,7c-0.8,0.5-1.6,1-2.4,1.5c-1.3-2.9-2.6-5.8-3.9-8.6
		C11723.7,306.4,11723.4,306.6,11723.4,306.6z"/>
	<path d="M10461.5,292.3c1.9,1,3.8,2,5.7,2.9c-0.6,0.7-1.1,1.4-1.7,2c-1.2-1.8-2.5-3.5-3.7-5.3
		C10461.8,292,10461.5,292.3,10461.5,292.3z"/>
	<path d="M11723.7,306.4c-1-3.7-2-7.4-3-11.1c0,0-0.2,0.2-0.2,0.2c1,3.7,2,7.4,2.9,11.1C11723.4,306.6,11723.7,306.4,11723.7,306.4z
		"/>
	<path class="st0" d="M12960.7,293.2c3.5-2.5,7-5,11.2-8C12972,293.8,12971,294.6,12960.7,293.2z"/>
	<path class="st0" d="M11938.7,251.9c5.8-0.7,9.6-1.1,14-1.6C11949.7,257.2,11949,257.3,11938.7,251.9z"/>
	<path class="st0" d="M12823.7,283.2c4.8,3.7,8,6.3,11.8,9.3C12826,293.3,12824.1,292,12823.7,283.2z"/>
	<path class="st0" d="M12250.8,293.4c-4.2,0.9-7,2.4-8,1.6c-1.5-1.2-1.7-4-2.5-6.1c0.6-0.4,1.2-0.8,1.9-1.2
		C12244.3,289.2,12246.6,290.6,12250.8,293.4z"/>
	<path class="st0" d="M12357.6,287c-0.9,9.8-0.9,9.8-7.9,6.2C12352.1,291.3,12354.1,289.7,12357.6,287z"/>
	<path class="st0" d="M11402.4,250c-3,0-5.9,0-8.9,0c0-0.5-0.1-0.9-0.1-1.4c2.8-0.2,5.7-0.5,8.5-0.7
		C11402.1,248.5,11402.2,249.2,11402.4,250z"/>
	<path class="st0" d="M11458,251.4c-1.5,0-3,0-4.6,0c0-0.3,0-0.5,0-0.8c1.6,0,3.1,0,4.7,0C11458.1,250.9,11458,251.2,11458,251.4z"
		/>
	<path class="st0" d="M9954.9,277.8c-2.1,1.9-4.1,3.8-7.2,6.7c-0.6-2.6-1.7-5.1-1.3-5.4c2.3-1.6,5-2.6,7.5-3.8
		C9954.2,276.1,9954.5,276.9,9954.9,277.8z"/>
</g>
</svg>
