<?xml version="1.0" encoding="utf-8"?>
<!-- Generator: Adobe Illustrator 21.1.0, SVG Export Plug-In . SVG Version: 6.00 Build 0)  -->
<svg version="1.1" id="Layer_1" xmlns="http://www.w3.org/2000/svg" xmlns:xlink="http://www.w3.org/1999/xlink" x="0px" y="0px"
	 viewBox="0 0 15000 338" style="enable-background:new 0 0 15000 338;" xml:space="preserve">
<g>
	<path d="M12603,1.5c799.5,0,1599,0,2398.5,0c0,112.5,0,225,0,337.5c-799.5,0-1599,0-2398.5,0c-0.9-8,0.9-16.2-2.1-25.5
		c-8.6,8.5-14.5,17.7-21.9,25.5c-192,0-384,0-576,0c-0.1-35.6-0.3-71.2-0.4-107c-18.5,0-35.9,0-53.3,0.1c-1.7,0-3.5,1.1-5.7,1.9
		c1.4,2,2.1,3.2,3,4.4c12.8,16.4,25.5,32.7,38.3,49.1c5.2,6.7,5.2,7,0,13.4c-10.4,12.8-20.9,25.5-31.4,38.3c-183.5,0-367,0-550.5,0
		c-0.1-35.6-0.3-71.2-0.4-106.8c-1.8-0.3-2.8-0.7-3.7-0.7c-24.7,0-49.4-0.1-74.1,0.1c-3.3,0-6.6,1-11.1,1.6c2.6,3.5,4.3,5.9,6.1,8.2
		c12.2,15.8,24.5,31.5,36.7,47.3c3.8,4.9,3.8,5.7,0.2,10.4c-2,2.6-4.1,5-6.1,7.6c-8.5,10.8-17,21.5-25.5,32.3c-174,0-348,0-522,0
		c-0.1-35.6-0.3-71.2-0.4-106.7c-1.7-0.4-2.4-0.8-3.1-0.8c-35.7,0-71.5-0.1-107.2,0c-3.3,0-6.6,1.1-11,1.9c2.5,3.6,4,6.1,5.8,8.4
		c11.9,15.4,23.9,30.8,35.8,46.2c4.6,5.9,4.6,6.1-0.2,12.1c-2.2,2.7-4.5,5.4-6.6,8.1c-8,10.2-16,20.4-24,30.7c-163,0-326,0-489,0
		c-0.1-35.6-0.3-71.2-0.4-107.2c-3.3-0.2-5.7-0.4-8.2-0.4c-44.2,0-88.3,0-132.5,0c-3.7,0-7.5,0.3-11.2,0.8c-1.5,0.2-3,1.1-5.2,2
		c1.8,2.6,3.2,4.7,4.7,6.6c12.4,16,24.8,31.9,37.2,47.8c3.8,4.9,3.8,5.7,0.2,10.4c-2.1,2.8-4.4,5.4-6.6,8.2
		c-8.3,10.6-16.7,21.1-25,31.7c-151,0-302,0-453,0c-0.1-35.6-0.3-71.2-0.4-107.6c-3.9,0-6.8,0-9.8,0c-47,0-93.9,0-140.9,0
		c-10.5,0-21,0-31.5,0c-4.4,0-8.8,0.3-13.6,2.7c6.6,8.5,12.7,16.3,18.7,24.2c8.1,10.5,16.1,21,24.3,31.4c2.4,3.1,2.8,5.6,0.2,8.6
		c-1.2,1.3-2.2,2.7-3.3,4.1c-9.9,12.2-19.8,24.4-29.8,36.6c-138,0-276,0-414,0c-0.1-35.6-0.3-71.2-0.4-107.6c-4,0-6.9,0-9.9,0
		c-68.7,0-137.5,0-206.2,0c-4.2,0-8.5,0.3-12.7,0.6c-1.8,0.2-3.6,1-6.5,1.9c2,2.9,3.4,5.2,5,7.3c12.2,15.8,24.6,31.5,36.8,47.4
		c4,5.3,3.9,6.1-0.1,11c-7.4,9.1-14.9,18.1-22.3,27.3c-3.1,3.9-5.8,8.1-8.7,12.1c-125,0-250,0-375,0c-0.1-35.6-0.3-71.2-0.4-107.6
		c-3.9,0-6.8,0-9.8,0c-84.4,0-168.8,0-253.3,0c-3.5,0-7-0.1-10.5,0.1c-1.3,0.1-2.5,0.8-4.1,1.4c0.8,1.4,1.3,2.3,1.9,3
		c13.2,16.9,26.6,33.7,39.6,50.8c6,7.9,6.8,5.9-0.3,15c-9.9,12.5-20,24.9-30.1,37.3c-111,0-222,0-333,0
		c-0.1-35.6-0.3-71.2-0.4-107.6c-3.9,0-6.9,0-9.8,0c-65.2,0-130.4,0-195.6,0c-18.5,0-37,0-55.5,0.1c-7.1,0-8.9,1.8-9.1,8.8
		c-0.1,5.5,0.1,11,0,16.5c-0.1,6.3-0.2,6.3-6.7,6.6c-4.1,0.2-5.8,1.7-6.3,5.8c-0.2,1.5,0,3,0.1,4.5c0.4,6.2,2.8,11.6,7.1,16.1
		c2.7,2.9,2.8,5.6,0.2,8.6c-1.2,1.3-2.2,2.7-3.3,4.1c-9.9,12.2-19.9,24.4-29.8,36.6c-97,0-194,0-291,0c-0.1-35.6-0.3-71.2-0.4-107.2
		c-3.2-0.2-5.4-0.4-7.6-0.4c-63.7,0-127.5,0-191.2,0c-5.7,0-11.5,0.4-17.2,0.9c-6.5,0.6-6.9,1.2-7.1,8c-0.1,1.5,0,3,0,4.5
		c-0.2,7.7-0.8,8.3-8.8,8.5c-2.5,0-5-0.1-7.5,0.1c-4.9,0.4-8.4-1.5-11.4-5.5c-17.2-22.4-34.6-44.6-51.9-66.9
		c-3.8-4.9-7.6-9.7-11.5-14.7c8.7-10.8,16.9-20.9,25-30.9c13.1-16.1,26.1-32.2,39.3-48.2c1.4-1.7,3.9-3.3,6-3.6
		c4.9-0.6,9.9-0.3,14.9-0.6c3.5-0.2,5.1,1.4,5.1,4.8c0,1-0.2,2-0.2,3c-0.1,5.9,0.8,7.1,6.7,7.6c6.2,0.5,12.5,0.8,18.7,0.8
		c64,0.1,128,0,192,0c2.1,0,4.3-0.4,7-0.6c0-3.5,0-6.5,0-9.4c0.1-29.2,0.2-58.5,0.2-87.7c99.5,0,199,0,298.5,0
		c1.2,2.1,2.2,4.4,3.7,6.4c7,9.1,14.1,18.1,21.1,27.3c3.9,5.1,4.1,5.7-0.5,10.1c-6.6,6.3-8.2,14.6-10.3,22.7
		c-1.2,4.6,0.4,6.5,5.1,7.1c1,0.1,2,0,3,0.1c5.8,0.6,7.8,2.6,8.3,8.5c0.4,4.7,0.6,9.4,0.9,13.8c6.7,2.3,262.4,2.7,270.1,0.4
		c0-2.7,0-5.7,0-8.7c0.1-29.2,0.2-58.4,0.2-87.7c113.5,0,227,0,340.5,0c1.4,2.3,2.5,4.9,4.1,7c6.8,8.9,13.8,17.7,20.6,26.7
		c3.8,5.1,3.6,5.2-0.5,10.2c-13.1,16-26.2,32.1-39.2,48.2c-1,1.2-1.4,2.9-2.2,4.4c7.2,1.9,269.9,1.8,276.4-0.2c0-2.8,0-5.7,0-8.7
		c0.1-29.2,0.2-58.5,0.2-87.7c127,0,254,0,381,0c8.5,11.1,17,22.2,25.4,33.4c3.6,4.8,3.5,5.2,0.2,9.8c-1,1.4-2.2,2.7-3.3,4.1
		c-11.5,14.1-23.1,28.3-34.5,42.4c-1.3,1.6-2.2,3.6-4.1,6.8c16.7,2.2,32.1,1.1,47.4,1.2c15.7,0.2,31.5,0,47.2,0c15.5,0,31,0,46.5,0
		c15.7,0,31.5,0.1,47.2,0c15.4-0.1,30.8,0.6,46.8-0.5c0-3.7,0-6.6,0-9.6c0.1-29.2,0.2-58.5,0.2-87.7c140.5,0,281,0,421.5,0
		c1.3,2.1,2.6,4.3,4.1,6.2c6.1,7.9,12.3,15.7,18.4,23.7c6.7,8.8,6.7,8.8-0.3,17.4c-11.3,13.9-22.7,27.8-34,41.8
		c-1.6,2-4,3.8-3.2,6.9c8.2,2.3,185.9,2.7,193.3,0.3c0-2.8,0-5.7,0-8.7c0.1-29.2,0.2-58.4,0.2-87.6c153.5,0,307,0,460.5,0
		c1.7,2.7,3.1,5.6,5.1,8.2c6.2,8.1,12.6,16.1,18.9,24.2c4.8,6.1,4.8,6.1,0,11.9c-12.8,15.7-25.5,31.3-38.2,47.1
		c-1,1.2-1.6,2.8-3,5.3c5.7,0.5,10.3,1.2,14.9,1.2c44.9,0.1,89.8,0.1,134.7,0c2.1,0,4.2-0.4,6.8-0.7c0-3.6,0-6.6,0-9.6
		c0.1-29.2,0.2-58.4,0.2-87.6c165.5,0,331,0,496.5,0c1.3,2.1,2.4,4.3,3.9,6.3c7,9.1,14.1,18.1,21.1,27.2c3.7,4.8,3.6,5.3,0,9.7
		c-13.2,16.3-26.4,32.5-39.6,48.8c-0.8,1-1.3,2.4-2,3.7c7.8,2.7,112.2,3.3,119.9,0.6c0-2.8,0-5.7,0-8.7c0.1-29.2,0.2-58.4,0.2-87.5
		c176.5,0,353,0,529.5,0c1.5,2.3,2.8,4.7,4.5,6.9c7,9.1,14,18.2,21.2,27.1c2.5,3,2.9,5.6,0.1,8.5c-1.2,1.3-2.1,2.8-3.2,4.1
		c-12,14.7-24,29.3-36,44c-1.2,1.5-2.2,3.1-3.3,4.8c7.4,2.8,79,3.5,87,0.8c0-2.8,0-5.7,0-8.7c0.1-29.2,0.2-58.4,0.2-87.6
		c186.5,0,373,0,559.5,0c2.3,3.5,4.4,7.1,7,10.5c6,8,12.1,15.9,18.3,23.6c2.7,3.3,2.5,5.8-0.3,9.1c-13.2,15.9-26.2,32-39.2,48.1
		c-1,1.2-1.7,2.8-2.6,4.3c7.7,2.7,49.6,3.1,57,0.6c0-2.8,0-5.7,0-8.7c0.1-29.2,0.2-58.3,0.2-87.5c195,0,390,0,585,0
		c3.2,6.2,7.5,11.4,13.7,17.7C12602.2,12.2,12602.6,6.8,12603,1.5z M7441.8,166.3c2.6-3.4,4.6-6.5,7.1-9.3c4.2-4.6,5.7-9.8,5.1-15.9
		c-0.3-2.7-0.4-5.5-0.5-8.2c-0.3-7.4-0.3-7.4-7.4-8.4c-5.3-0.7-5.8-1.2-6.2-6.4c-0.1-1.2,0-2.5-0.1-3.7c-0.4-5.2-0.9-5.9-6.2-6.5
		c-5.2-0.6-10.5-1-15.7-1c-69.7-0.1-139.4-0.1-209.2,0c-1.9,0-3.8,0.4-5.5,0.6c-1.4,12.9-0.8,115.5,0.7,121.3
		c1.8,0.1,3.8,0.3,5.7,0.3c68.7,0,137.4,0,206.2,0c6,0,12-0.7,18-1c4-0.2,5.9-2.3,5.9-6.2c0-3,0.2-6,0.1-9c-0.1-4.1,0.7-7.4,5.4-8.6
		c2.9-0.7,3.8-2.9,3.9-5.7c0.2-3.5,0.7-7,1-10.4c0.4-5.9-0.6-11.4-4.4-16.2C7444.5,170.4,7443.4,168.7,7441.8,166.3z M8040.6,109.1
		c-0.2-0.7-0.4-1.3-0.6-2c-19.5-0.6-39.1-0.2-58.6-0.2c-19.7-0.1-39.5,0-59.2,0c-20,0-40,0-59.9,0c-19.6,0-39.3,0-59,0
		c0,41.2,0,81.3,0,122.2c20.1,0,39.8,0,59.5,0c20,0,40,0,59.9,0c19.7,0,39.5,0.1,59.2,0c19.8-0.1,39.7,0.4,61.1-0.3
		c-2.8-3.7-4.5-6.1-6.2-8.5c-12.4-16-24.9-31.9-37.2-47.9c-4.7-6.1-4.7-6.4,0-12.1c11.6-14.3,23.4-28.6,35-43
		C8036.6,114.6,8038.6,111.8,8040.6,109.1z M8594,110.1c-0.3-0.7-0.6-1.4-0.9-2.1c-21.1-2.5-42.3-0.9-63.4-1.2
		c-21-0.3-42-0.1-62.9-0.1c-21.1,0-42.3,0-63.5,0c0,41.2,0,81.3,0,122.2c3.1,0,5.8,0,8.5,0c54.5,0,108.9,0,163.4,0
		c3.2,0,6.5,0,9.7-0.4c3.1-0.3,6.1-1.1,10.7-1.9c-16.2-20.9-31.4-40.5-46.9-60.5C8564.1,147.2,8579,128.7,8594,110.1z M9103.8,166.4
		c15.6-19.3,30.6-37.8,46.3-57.3c-10.8-3.1-20.6-2.2-30.2-2.3c-9.7-0.1-19.5,0-29.2,0c-9.7,0-19.5,0-29.2,0s-19.5,0-29.2,0
		c-9.6,0-19.3,0.1-28.8,0.2c-1.4,12.5-0.9,116,0.6,121.6c0.9,0.1,1.8,0.4,2.8,0.4c43.5,0,87,0.1,130.5-0.1c3.9,0,7.7-1,13-1.8
		c-7.3-11.7-15.7-20.8-23.2-30.7C9119.6,186.5,9111.8,176.8,9103.8,166.4z M9603.3,107.7c0,40.5,0,80.6,0,120.7
		c1.2,0.3,1.9,0.6,2.7,0.6c29.5,0,59,0.1,88.4-0.1c4.1,0,8.2-1.1,13.2-1.8c-1.6-2.4-2.3-3.9-3.3-5.2c-12.9-16.6-25.8-33.1-38.7-49.6
		c-4.4-5.7-4.3-6.6-0.1-11.7c11.5-14.1,23.1-28.2,34.6-42.4c2.3-2.8,4.4-5.8,6.8-8.9C9698,106.6,9617.3,105.4,9603.3,107.7z
		 M10267.4,227.5c-1.8-2.9-2.6-4.3-3.7-5.7c-12.7-16.4-25.4-32.8-38.1-49.2c-5-6.5-4.9-6.7,0-12.7c11.7-14.3,23.4-28.6,35-43
		c2-2.4,3.7-5,6.4-8.7c-22.2-2.8-42.8-0.9-63.2-1.5c-1.7,8.2-1.5,116.1,0.3,122.3C10224.6,228.4,10245.2,230.5,10267.4,227.5z
		 M12569.6,233c3.1,7.3,26.8,37.2,31.9,40.2c2.1-13.8,1-27.3,1-41.5C12591.2,231.7,12580.5,230.3,12569.6,233z M12601.9,62
		c-0.8-0.2-1.5-0.5-2.3-0.7c-9.5,11.8-19.1,23.6-28.9,35.6c7.6,2.9,24.3,3.3,31.9,1C12602.6,86,12603.4,74,12601.9,62z M10830,226.1
		c-8.6-11.1-16.8-21.6-24.9-32.1c-0.5,0.2-1,0.5-1.5,0.7c-0.5,11.2-1.2,22.5-0.6,33.6C10814.4,229.8,10821.9,229.3,10830,226.1z
		 M10830.3,108.9c-9.9-2.5-18.4-2.3-26.7-1.8c0,11.1,0,21.4,0,31.8c0.5,0.2,1.1,0.4,1.6,0.6
		C10813.3,129.7,10821.3,119.9,10830.3,108.9z M13189.8,232.7c3.3,6,5.9,10.8,12.2,14.4c0.3-5.6,0.5-10.1,0.8-15.8
		C13198.2,231.8,13194.5,232.2,13189.8,232.7z M13203.1,99.4c-1.1-5,0.6-8.9-2.9-12.9c-3,3.8-5.7,7.1-9.4,11.7
		C13195.5,98.7,13198.6,99,13203.1,99.4z"/>
	<path d="M6859.5,1.5c3.8,5.5,7.5,11.1,11.4,16.5c4.5,6,9.3,11.8,13.8,17.8c3.3,4.4,3,4.8-0.4,9c-18.8,23-37.6,46.1-56.3,69.1
		c-1.6,1.9-3.3,3.7-4.8,5.8c-2.6,3.5-5.9,4.8-10.3,4.9c-4.4,0.1-8.8,1.1-14.2,1.9c-0.3-4.1-0.5-7.7-0.7-11.3c-0.3-6.3-0.8-7-6.9-7.3
		c-9.5-0.5-19-1.1-28.5-1.1c-50.5-0.1-101-0.1-151.5,0c-2.5,0-4.9,0.2-7.8,0.4c0,40.5,0,80.7,0,121.4c2.2,0.2,4.4,0.4,6.6,0.4
		c51.2,0,102.5,0.1,153.7,0c9.2,0,18.5-0.6,27.7-1.1c5.6-0.3,6.3-1.2,6.6-6.8c0.2-3.7,0.1-7.5,0.1-11.2c0-3.6,1.8-5.6,5.5-5.6
		c3,0,6,0.1,9,0c4.7-0.3,7.9,1.9,10.7,5.6c11.7,15.3,23.6,30.4,35.4,45.6c8.3,10.7,16.5,21.3,24.8,32c5.2,6.8,5.2,7.1-0.4,14
		c-10.3,12.6-20.6,25.1-30.9,37.7c-83,0-166,0-249,0c-0.1-30.5-0.2-61-0.2-91.4c0-5,0-9.9,0-15.2c-2.2-0.3-3.8-0.9-5.5-0.8
		c-53.7,0.3-107.4,0.7-161.1,1c-1.5,0-3,0-4.5,0.2c-4.7,0.5-5.4,1.2-5.8,6.1c-0.2,3-0.1,6-0.2,9c-0.1,3.6-2,5.5-5.6,5.7
		c-4.5,0.3-9,1.1-13.4,0.7c-2.4-0.2-5.1-2-6.8-3.8c-4.8-5.4-9.1-11.2-13.6-17c-15.3-19.7-30.6-39.5-45.9-59.2
		c-0.2-0.2-0.3-0.4-0.5-0.6c-5.7-7.4-5.6-7.6,0.1-14.5c19-23.2,38.1-46.3,56.8-69.7c3.8-4.8,7.8-7.4,13.9-6.8
		c2.7,0.3,5.5,0.1,8.2,0.1c3.7,0,5.2,1.8,5.6,5.5c1.1,10.1,1.2,10.4,11.6,10.4c53.7,0.3,107.4,0.6,161.2,0.8c1.5,0,2.9-0.3,5.3-0.6
		c0.1-32.5,0.3-64.9,0.4-97.2C6688.5,1.5,6774,1.5,6859.5,1.5z"/>
	<path d="M6217.5,1.5c8.3,11,16.5,22,24.8,32.9c4.1,5.5,4.2,5.5,0,10.8c-20.6,25.4-41.2,50.8-61.7,76.3c-3.2,4-6.9,6.2-12.2,5.9
		c-3.5-0.2-6.9,0-11.5,0c-0.2-2.7-0.7-5.8-0.7-8.9c-0.1-10.1-0.1-10.3-9.8-10.6c-19.2-0.5-38.5-0.8-57.7-1c-25.7-0.2-51.5,0-77.2,0
		c-2.7,0-5.3,0-8.4,0c0,41.1,0,81.2,0,121.8c2.5,0.2,4.7,0.4,6.9,0.4c37.5,0,74.9,0.1,112.4,0c9,0,18-0.6,27-1
		c5.7-0.3,6.4-1.1,6.7-6.7c0.2-4,0.1-8,0.2-12c0-3.2,1.7-5.3,4.8-5.7c3.9-0.5,8-1.3,11.9-0.8c2.3,0.3,5,2.3,6.5,4.2
		c9.7,12.1,19.2,24.3,28.7,36.5c12,15.4,23.9,30.8,35.8,46.2c0.9,1.2,1.7,2.4,3.2,4.4c-11.9,14.9-23.8,29.9-35.7,44.9
		c-69.5,0-139,0-208.5,0c-0.1-30.5-0.2-60.9-0.2-91.4c0-5,0-9.9,0-15.4c-2.4-0.3-4.3-0.7-6.2-0.7c-38.7,0.3-77.4,0.6-116.1,1
		c-9.6,0.1-10.4,1.3-10,11.1c0,0.5,0.1,1,0.1,1.5c0.3,8.3-1.1,8.8-9.1,10.1c-10.1,1.6-15.7-2.7-21.5-10.4c-18-24-36.7-47.4-55.1-71
		c-0.3-0.4-0.6-0.8-0.9-1.2c-4.5-5.9-4.6-6.6,0-12.2c6.7-8.4,13.5-16.7,20.3-25c12.4-15.3,25.1-30.5,37.3-46c4.5-5.7,9.3-9.5,17-8.3
		c3.1,0.5,6.4,0.1,10.5,0.1c0.2,3,0.5,6.2,0.6,9.3c0.3,6.8,1.1,7.8,7.9,7.9c16.2,0.4,32.5,0.7,48.7,0.8c22.5,0.1,45,0,67.4,0
		c2.7,0,5.4,0,9,0c0.1-33.1,0.3-65.5,0.4-97.8C6074.5,1.5,6146,1.5,6217.5,1.5z"/>
	<path d="M5577,1.5c7.9,10.3,15.7,20.7,23.6,31c5.8,7.7,5.8,7.8-0.3,15.2c-19.6,24-39.2,48-58.7,72c-1.7,2.1-3.3,4.5-5.4,6.2
		c-1.6,1.3-3.9,2.1-5.9,2.3c-4.4,0.3-8.8,0.1-14.2,0.1c-0.1-3.6-0.3-7.7-0.4-11.8c-0.2-8-0.5-8.7-8.5-8.8
		c-33.5-0.4-67-0.6-100.5-0.9c-1,0-1.9,0.3-2.8,0.4c-1.5,5.7-2,109.1-0.6,120.9c1,0.3,2.2,0.8,3.3,0.8c33.7-0.3,67.5-0.6,101.2-0.9
		c1.2,0,2.5-0.2,3.7-0.2c3.3-0.2,5-2.1,5.1-5.3c0.2-4.5,0-9,0.2-13.5c0.2-5.3,0.8-5.4,6-6.8c8-2.2,13.4-0.1,18.6,6.8
		c19.1,25.4,38.8,50.2,58.2,75.3c1.4,1.8,2.5,3.7,4.1,5.3c3.1,3.2,2.4,6.1-0.2,9.2c-4.9,6-9.7,12.1-14.6,18.1
		c-6,7.4-12,14.7-18.1,22c-56,0-112,0-168,0c-0.1-30.5-0.2-60.9-0.2-91.4c0-5,0-9.9,0-15.2c-2.1-0.4-3.8-0.9-5.5-0.9
		c-25.2,0.3-50.4,0.6-75.7,1c-8.1,0.1-8.5,0.8-8.6,8.6c0,2.5,0,5,0,7.5c-0.2,6.8-0.7,7.1-7.6,8.6c-7.6,1.7-13.3-0.3-18.2-6.7
		c-19.2-25.2-38.8-50.2-58.2-75.3c-1.1-1.4-2.2-2.8-3.2-4.2c-3.2-4.6-3.3-5.4,0.3-9.8c8.5-10.5,17-20.9,25.5-31.4
		c12.2-14.9,24.5-29.7,36.4-44.8c3.3-4.2,7-6.1,12.2-5.6c0.7,0.1,1.5,0,2.2,0c10.1,0,10.1,0,10.4,10.5c0.2,7.6,0.8,8.3,8.1,8.4
		c25.5,0.4,51,0.6,76.4,0.8c1.5,0,2.9-0.3,5.3-0.6c0.1-32.5,0.3-64.9,0.4-97.2C5461,1.5,5519,1.5,5577,1.5z"/>
	<path d="M4938,1.5c8.2,10.7,16.6,21.3,24.7,32c4.7,6.2,4.6,7.1-0.1,13c-20.9,25.8-41.8,51.6-62.8,77.3c-3.8,4.7-13.7,7.1-19,4.5
		c-1.3-0.6-2.4-2.5-2.7-4c-0.5-2.7-0.2-5.5-0.3-8.2c-0.2-7.3-0.7-7.9-8.3-8.4c-3.2-0.2-6.5-0.4-9.7-0.5c-17.5-0.2-35-0.3-52.4-0.4
		c-1.2,0-2.4,0.2-4.1,0.4c0,40.4,0,80.5,0,121c1.5,0.3,3.2,0.8,4.8,0.8c20.5-0.2,40.9-0.5,61.4-0.9c8.1-0.2,8.4-0.8,8.6-8.7
		c0.1-4.2,0.1-8.5,0.1-12.7c0-3.6,1.8-5.6,5.5-5.6c2.2,0,4.5,0.1,6.7-0.1c4.4-0.3,7.5,1.5,10.2,5c8.2,10.7,16.6,21.2,24.9,31.9
		c12.9,16.6,25.7,33.2,38.5,49.7c5.1,6.5,5.1,6.5-0.3,13.2c-8.1,10.1-16.3,20.2-24.5,30.3c-2,2.5-3.8,5.2-5.7,7.9
		c-43.5,0-87,0-130.5,0c-0.1-30.5-0.2-60.9-0.2-91.4c0-5,0-9.9,0-15.1c-1.9-0.4-3.3-1-4.7-0.9c-12.7,0.3-25.5,0.5-38.2,1
		c-5.5,0.2-6.2,1.1-6.4,7c-0.2,4.5,0.1,9-0.1,13.5c-0.2,5.2-1.1,5.9-6.3,6.3c-2,0.1-4-0.1-6,0.1c-4.4,0.4-7.5-1.4-10.2-4.9
		c-10.9-14.3-22.1-28.4-33.2-42.5c-10.8-13.8-21.5-27.6-32.2-41.4c-0.9-1.2-1.7-2.4-2.9-4.2c5.3-6.6,10.5-13.2,15.8-19.7
		c16-19.8,32.2-39.5,48.1-59.4c4.6-5.8,9.1-10.4,17.3-9.4c2.5,0.3,5.3-0.9,9-1.6c0.1,3.6,0.3,7,0.2,10.3c0,2.2-0.5,4.5-0.5,6.7
		c0,2.8,1.5,4.9,4.4,5c14.9,0.5,29.9,0.8,45.7,1.3c0.1-33.3,0.3-65.7,0.4-98.1C4848,1.5,4893,1.5,4938,1.5z"/>
	<path d="M4302,1.5c8.1,10.5,16.2,20.9,24.3,31.4c5.2,6.7,5.2,7.5-0.2,14.1c-20.9,25.8-41.8,51.6-62.7,77.4
		c-4.6,5.7-11.8,7.8-18.7,5.8c-3-0.9-3.7-3.1-3.6-5.8c0.1-3.7,0.6-7.5,0.7-11.2c0.1-2.8-1.1-5-4.2-5.1c-11.2-0.6-22.3-1-33.3-1.5
		c-1.7,6.4-2.2,108.6-0.8,121.9c2,0.2,4.1,0.6,6.2,0.5c8.7-0.2,17.5-0.5,26.2-1c5.3-0.3,6.1-1.1,6.3-6.3c0.2-5.5,0.1-11,0.1-16.5
		c0-3.6,1.6-5.2,5.2-6c7-1.6,12-0.3,16.8,5.9c22.1,29,44.7,57.6,67.1,86.3c0.5,0.6,0.7,1.3,1.7,2.9c-2.8,3.5-5.9,7.3-8.9,11.2
		c-8.8,11.1-17.7,22.3-26.5,33.4c-31.5,0-63,0-94.5,0c-0.1-24.5-0.3-49-0.4-73.5c0-8-0.1-16-0.2-24c-0.1-2.7-0.4-5.4-0.7-8.3
		c-2.2-0.3-3.9-0.6-5.6-0.7c-3.4-0.1-5.1,1.7-5.2,5c-0.1,4.5,0,9-0.2,13.5c-0.2,3.3,1.2,7.9-2.9,9.2c-5.1,1.7-10.8,2.8-15.7-1.2
		c-1.2-0.9-2.2-2.1-3.1-3.3c-22.4-28.8-44.8-57.6-67.1-86.5c-0.6-0.8-1-1.7-2-3.4c3.8-4.9,7.7-10,11.7-15
		c18.9-23.3,38.1-46.3,56.6-69.9c4.9-6.3,10.7-6.4,17.3-5.7c2.7,0.3,3.9,2.1,4,4.6c0.1,3.5,0,7,0.1,10.5c0.2,7.2,1.1,8.1,8.5,7.9
		c1,0,1.9-0.3,3.7-0.6c0.2-2.9,0.6-5.8,0.6-8.7c0.2-26.2,0.3-52.5,0.4-78.7c0-3,0.2-6,0.2-9C4236,1.5,4269,1.5,4302,1.5z"/>
	<path d="M3669,1.5c8.3,10.9,16.7,21.8,24.9,32.8c4.2,5.6,4.3,6-0.2,11.6c-20.4,25.2-40.9,50.4-61.4,75.5c-1.6,1.9-3.3,3.8-4.7,5.9
		c-3.5,5.2-8.3,6.8-14.2,6.1c-4.6-0.5-5.4-1.1-5.6-6.1c-0.2-4.5,0-9-0.1-13.5c-0.1-2.1,0.1-4.6-3-5.1c-2.3,6.8-2.8,107-0.6,118.5
		c4.1,1.1,4.8-1.6,4.9-4.6c0.2-5.5-0.1-11,0.2-16.5c0.1-3.3-1.5-7.9,3.1-9c4.8-1.2,10.1-1.8,14.1,2.5c2.7,2.9,5.1,6.1,7.6,9.3
		c20.7,26.6,41.3,53.2,62,79.9c4,5.1,3.9,5.7-0.3,10.9c-9.8,12.3-19.7,24.5-29.6,36.7c-0.6,0.8-1,1.7-1.5,2.6c-20.5,0-41,0-61.5,0
		c-0.1-19.2-0.9-38.5,0-57.7c0.8-16.8-3.5-30.6-14.7-43.7c-18.3-21.4-34.9-44.4-52.2-66.7c-1-1.3-1.9-2.8-3.3-4.8
		c2.1-2.8,4.2-5.6,6.3-8.3c19-23.5,38-47,57.3-70.3c4.1-5,5.9-10.3,6-16.4c0.1-10.7,0.2-21.5,0.3-32.2c0.1-12.5,0.2-25,0.3-37.5
		C3625,1.5,3647,1.5,3669,1.5z"/>
	<path d="M3039,1.5c9.7,12.6,19.5,25.2,29.5,38.3c-3.5,4.5-6.5,8.7-9.8,12.7c-16.2,19.9-32.3,39.9-48.8,59.7
		c-4.7,5.6-7.3,11.4-7.1,18.9c0.4,23.2,0.3,46.4,0.3,69.6c0,5,1.7,9,4.8,13c18.7,23.7,37.2,47.6,55.7,71.4c2.1,2.7,4.2,5.6,6.8,9.1
		c-12,15-24,29.9-35.9,44.9c-10.5,0-21,0-31.5,0c-0.1-26.2-0.2-52.4-0.3-78.6c0-10.5-0.2-21-0.2-31.4c0-6.5-2-12-6.1-17.2
		c-10.8-13.4-21.2-27.1-31.7-40.8c-1-1.4-2-2.8-3.3-4.8c4.3-5.5,8.5-11,12.9-16.4c7.2-8.9,14.3-18,21.8-26.6
		c4.5-5.2,6.7-10.7,6.6-17.6c-0.2-31.7,0-63.4,0-95.1c0-3,0.2-6,0.2-9C3015,1.5,3027,1.5,3039,1.5z"/>
	<path d="M2403,339c-0.4-31.8-0.5-63.7,0.1-97.2c2.7,2.5,4,3.5,5,4.8c11.2,14.4,22.2,28.9,33.6,43.1c2.8,3.5,2.4,5.9-0.3,9.1
		c-10.2,12.3-20.2,24.8-30.2,37.2c-0.8,1-1.5,2-2.2,3C2407,339,2405,339,2403,339z"/>
	<path d="M2413.5,1.5c7.9,10.3,15.8,20.6,23.8,30.8c5.9,7.6,5.9,7.6-0.3,15.2c-9.8,12-19.5,24-29.3,36c-0.9,1.1-1.7,2.3-3.4,3.2
		c-2-28.7-1.6-57-1.3-85.2C2406.5,1.5,2410,1.5,2413.5,1.5z"/>
	<path d="M1803.3,317.4c-0.9-15.7-0.9-31.3,0-47c0.5-0.2,1.1-0.4,1.6-0.6c2,2.4,4,4.8,5.9,7.3c3.5,4.5,7,9.1,10.6,13.6
		c1.5,1.9,2.5,3.9,0.7,6.1c-5.7,7.1-11.5,14.2-17.2,21.3C1804.4,317.8,1803.9,317.6,1803.3,317.4z"/>
	<path d="M1803.3,60.6c-0.9-14-0.9-28,0.1-42.4c3.4,2.4,15.8,16.5,16.5,19.5c0.5,1.9,0.1,4.5-1,6c-4.4,6-9.3,11.6-14,17.3
		C1804.4,60.9,1803.9,60.7,1803.3,60.6z"/>
	<path d="M2400.7,187.3c-5.1-6.7-9.5-12.3-13.9-18c-1.6-2.1-1.5-4.1,0.1-6.1c4.4-5.3,8.8-10.7,13.3-16.1
		C2403.4,152.5,2403.8,177.2,2400.7,187.3z"/>
	<path d="M1203.4,298.7c0-3.2,0-6,0-9C1208.9,293.7,1208.9,294.1,1203.4,298.7z"/>
	<path d="M1203.5,41.9c0-1.3,0-2.6,0-3.9c0.3,0,0.7-0.1,1-0.1c0.2,1.3,0.4,2.6,0.6,3.8C1204.6,41.7,1204.1,41.8,1203.5,41.9z"/>
</g>
</svg>
