<?xml version="1.0" encoding="UTF-8"?>
<svg width="100%" height="100%" version="1.1" xmlns="http://www.w3.org/2000/svg" xmlns:xlink="http://www.w3.org/1999/xlink" viewBox="0 0 16000 362" preserveAspectRatio="none">
    <!-- Generator: Sketch 48.2 (47327) - http://www.bohemiancoding.com/sketch -->
    <title>diamond-transition</title>
    <desc>Created with Sketch.</desc>
    <defs></defs>
    <g id="Page-1" stroke="none" stroke-width="1" fill="none" fill-rule="evenodd">
        <g id="diamond-transition" fill-rule="nonzero">
            <path d="M12392.6,360.6 C8261.9,360.6 4131.3,360.6 0.6,360.6 C0.6,240.6 0.6,120.6 0.6,0.6 C4131.3,0.6 8261.9,0.6 12392.6,0.6 C12391.3,2.6 12390.2,4.7 12388.6,6.5 C12340.5,62.7 12292.4,118.8 12244.4,175 C12242.7,177 12241.2,179 12239.7,181 C12241,182.8 12241.8,184.2 12242.8,185.4 C12269.8,216.9 12296.8,248.4 12323.8,279.9 C12346.7,306.7 12369.7,333.7 12392.6,360.6 Z M11601.9,347.2 C11642.5,291 11682.2,236.2 11722.1,181 C11682,125.6 11642.4,70.5 11601.9,14.9 C11561.4,70.9 11521.7,125.8 11481.8,181 C11521.7,236.2 11561.4,291.1 11601.9,347.2 Z M10802.2,32 C10800.2,34.9 10798.9,36.5 10797.8,38.3 C10770.3,83.8 10742.8,129.3 10715.2,174.7 C10712.2,179.5 10712.8,183.2 10715.6,187.8 C10742,231.2 10768.1,274.7 10794.4,318.1 C10796.7,321.8 10799.1,325.4 10802.2,330 C10832.7,279.6 10862.4,230.3 10892.2,180.9 C10862.2,131.4 10832.6,82.3 10802.2,32 Z M10001.4,317.2 C10002.9,315.8 10003.4,315.5 10003.6,315.1 C10025.3,272.2 10046.9,229.3 10068.6,186.4 C10070.8,182.1 10069.9,178.4 10067.9,174.4 C10049.4,137.7 10030.9,100.9 10012.4,64.1 C10009.2,57.8 10005.9,51.5 10002,44.1 C10000.1,47.3 9998.8,49.5 9997.6,51.7 C9992.8,61.2 9988,70.6 9983.2,80.1 C9967.1,112.1 9951,144.1 9934.8,176.1 C9933.1,179.5 9933.2,182.5 9935,185.9 C9953.7,222.9 9972.3,259.9 9990.9,296.9 C9994.3,303.6 9997.7,310.1 10001.4,317.2 Z M9201.1,308.1 C9201.7,308 9202.3,307.9 9202.9,307.8 C9204.7,303.7 9206.6,299.7 9208.4,295.5 C9223.9,258.8 9239.3,222.1 9255,185.5 C9256.4,182.3 9256.4,179.8 9255,176.5 C9239.4,139.9 9223.9,103.2 9208.4,66.5 C9206.6,62.2 9204.5,58.1 9202.1,53 C9200.4,56 9199.2,57.7 9198.4,59.6 C9183.8,93.8 9169.3,128 9154.8,162.2 C9152.2,168.3 9147.9,174.5 9147.8,180.7 C9147.8,186.9 9152.1,193 9154.5,199.2 C9154.7,199.7 9154.9,200.2 9155.1,200.7 C9166.6,227.8 9178.2,254.9 9189.7,282 C9193.5,290.7 9197.3,299.4 9201.1,308.1 Z M8401.6,303.7 C8403.1,301.1 8403.8,300.3 8404.1,299.3 C8417.6,262.7 8431,226 8444.7,189.5 C8447.1,183 8446.5,177.4 8444.2,171.2 C8432.1,138.6 8420.2,105.9 8408.2,73.3 C8406.5,68.7 8404.5,64.1 8402.1,58.1 C8400.3,62 8399,64.5 8398,67.2 C8394.8,75.9 8391.8,84.7 8388.6,93.4 C8378.6,120.5 8368.5,147.7 8358.4,174.8 C8356.8,179 8356.8,183 8358.4,187.2 C8360,191.4 8361.5,195.7 8363,199.9 C8372,224.3 8381,248.7 8390,273.1 C8393.6,282.9 8397.3,292.5 8401.6,303.7 Z M7602.8,63 C7602.3,63 7601.8,62.9 7601.3,62.9 C7600.2,65.6 7599,68.2 7598,71 C7594.8,80.6 7591.8,90.2 7588.6,99.8 C7580,125.2 7571.3,150.6 7562.6,176 C7561.2,180 7561.8,183.8 7563.2,187.7 C7566.6,197.2 7570,206.7 7573.2,216.3 C7580.5,238.2 7587.6,260.2 7594.9,282.2 C7596.8,288 7599.2,293.7 7601.9,301 C7603.3,297.7 7604.2,296.1 7604.7,294.4 C7607.8,284.8 7610.8,275.2 7614.1,265.6 C7622.8,239.9 7631.5,214.3 7640.3,188.7 C7642,183.7 7642.3,178.9 7640.4,173.9 C7638.8,169.7 7637.4,165.4 7636,161.1 C7626.8,133.6 7617.6,106.2 7608.4,78.7 C7606.6,73.3 7604.6,68.2 7602.8,63 Z M6802.1,62.1 C6800.6,65.7 6799.6,67.7 6798.8,69.8 C6794.6,82.4 6790.5,95.1 6786.4,107.7 C6778.9,131 6771.3,154.2 6764,177.6 C6763.4,179.6 6763.4,182.2 6764,184.3 C6766.9,194 6770.3,203.5 6773.4,213.1 C6780.6,235.6 6787.7,258.2 6795,280.7 C6796.9,286.6 6799.2,292.3 6801.3,298.2 C6804.5,293.2 6806.4,288.3 6808,283.3 C6818.6,250.7 6829.3,218.1 6839.6,185.4 C6840.6,182.4 6840.1,178.5 6839.2,175.4 C6834.6,160.4 6829.5,145.6 6824.7,130.6 C6819,112.9 6813.3,95.2 6807.6,77.5 C6806,72.9 6804.2,68.2 6802.1,62.1 Z M6001,297.6 C6001.6,297.6 6002.3,297.6 6002.9,297.6 C6005.3,289.8 6007.7,282 6010.2,274.3 C6020,244.5 6029.9,214.8 6039.6,185.1 C6040.4,182.7 6040.4,179.7 6039.7,177.3 C6037.3,168.9 6034.4,160.6 6031.6,152.3 C6023.8,128.6 6016.1,104.9 6008.3,81.2 C6006.4,75.6 6004.4,70 6002.4,64.4 C5999.5,68.9 5998.2,73.2 5996.8,77.4 C5985.8,111 5974.8,144.5 5963.9,178.1 C5963.4,179.7 5963.2,181.7 5963.6,183.3 C5966,191.4 5968.7,199.5 5971.4,207.6 C5977.4,226 5983.5,244.4 5989.5,262.8 C5993.4,274.4 5997.2,286 6001,297.6 Z M5202.9,67 C5202.4,67 5201.9,66.9 5201.4,66.9 C5200.4,69.3 5199.2,71.7 5198.4,74.2 C5187.8,106.5 5177.3,138.8 5166.5,171 C5164.1,178.2 5164.2,184.9 5166.9,191.8 C5169.2,197.7 5171.2,203.8 5173.2,209.9 C5180.5,232.4 5187.6,254.9 5194.9,277.4 C5196.8,283.3 5199.2,289.1 5202,296.8 C5204.5,289.8 5206.5,284.7 5208.2,279.5 C5218.7,247.7 5229.1,215.9 5239.4,184.1 C5240,182.2 5240,179.9 5239.5,178 C5238.2,173.4 5236.4,169 5234.9,164.4 C5227.6,142.2 5220.4,120 5213.1,97.8 C5209.7,87.6 5206.3,77.3 5202.9,67 Z M4401.2,290.2 C4401.7,290.1 4402.3,290 4402.8,290 C4403.5,288 4404.3,286.1 4405,284.1 C4408.2,274.5 4411.2,264.9 4414.4,255.3 C4421.8,233.1 4429.2,211 4436.9,188.9 C4438.8,183.3 4438.7,178.1 4436.7,172.7 C4434.9,167.7 4433.4,162.6 4431.7,157.5 C4423.9,134.3 4416.2,111.2 4408.3,88 C4406.4,82.4 4404.3,77 4401.8,69.9 C4400,74.8 4398.7,77.7 4397.7,80.7 C4394.5,90.3 4391.5,99.9 4388.3,109.5 C4380.9,131.4 4373.3,153.2 4366.3,175.2 C4365.2,178.7 4365.6,183.1 4366.3,186.9 C4367.3,191.8 4369.3,196.5 4370.9,201.3 C4378.7,224.7 4386.5,248.2 4394.4,271.6 C4396.6,277.8 4398.9,284 4401.2,290.2 Z M3603,80.2 C3602.4,80.1 3601.7,80 3601.1,79.9 C3599.6,84.1 3598.2,88.3 3596.7,92.5 C3586.9,120.9 3577,149.2 3567.2,177.6 C3566.6,179.5 3566.5,181.8 3567,183.7 C3568.1,188.1 3569.8,192.3 3571.2,196.6 C3578.8,218.7 3586.4,240.8 3594.2,262.9 C3596.5,269.4 3597.7,276.4 3602.4,283.4 C3607.4,268.9 3612,255.6 3616.6,242.3 C3622.8,224.2 3628.9,206.1 3635.4,188.1 C3637.1,183.3 3637.2,179 3635.5,174.2 C3627.8,152.4 3620.4,130.5 3612.9,108.7 C3609.7,99.2 3606.3,89.7 3603,80.2 Z M2802.7,92.3 C2802.1,92.4 2801.6,92.4 2801,92.5 C2799.5,96.7 2798,101 2796.4,105.2 C2787.8,128.6 2779.2,152.1 2770.5,175.5 C2769,179.5 2769.3,183.2 2770.7,187.1 C2778.8,209.3 2786.8,231.5 2795,253.7 C2797,259 2799.2,264.3 2801.8,270.5 C2803,268.6 2803.7,267.8 2804,266.9 C2813.5,241 2822.8,215 2832.5,189.1 C2834.8,182.9 2834.1,177.2 2831.9,171.3 C2824,149.9 2816.2,128.4 2808.4,106.9 C2806.5,102 2804.6,97.2 2802.7,92.3 Z M2001.5,249.8 C2002.9,247.7 2004,246.6 2004.5,245.3 C2012.4,226.2 2020.2,207 2028.3,187.9 C2030.4,182.8 2030,178.3 2028,173.4 C2020.2,154.8 2012.6,136.1 2004.8,117.5 C2004.2,116 2003,114.6 2001.7,112.7 C2000.3,115.3 1999.1,117.2 1998.3,119.1 C1990.5,138 1982.8,156.9 1974.9,175.8 C1973.2,179.9 1973.7,183.3 1975.4,187.3 C1980.4,199 1985.1,210.9 1990,222.6 C1993.6,231.4 1997.4,240.1 2001.5,249.8 Z M1223.5,181 C1216.5,169.9 1209.6,159 1201.4,146.1 C1200.4,148.4 1200.1,149.5 1199.5,150.4 C1193.8,159.4 1188.1,168.3 1182.4,177.3 C1180.6,180.1 1181,182.7 1182.8,185.5 C1188.1,193.8 1193.3,202.1 1198.6,210.4 C1199.5,211.8 1200.9,212.8 1202.6,214.4 C1209.8,202.9 1216.5,192.1 1223.5,181 Z" fill="none"></path>
            <path d="M15202.2,0.6 C15468.2,0.6 15734.2,0.6 16000.4,0.6 C16000.4,120.4 16000.4,240.3 16000.4,360.6 C15734.4,360.6 15468.3,360.6 15202.2,360.6 C15202.1,331.4 15202,302.1 15201.9,272.9 C15201.9,272.7 15201.6,272.5 15201.4,272.4 C15201.2,272.3 15200.9,272.2 15200.2,271.9 C15198.5,273 15196.5,274.3 15194.6,275.7 C15167.4,296.1 15140.2,316.4 15113,336.9 C15102.6,344.7 15092.4,352.7 15082.2,360.7 C14895,360.7 14707.8,360.7 14520.6,360.7 C14518.8,358.9 14517.2,356.9 14515.2,355.3 C14491.4,337.4 14467.6,319.5 14443.8,301.6 C14430,291.2 14416.2,280.9 14402.7,270.7 C14402.6,269.3 14402.4,268.5 14402.4,267.7 C14402.4,210.7 14402.5,153.7 14402.2,96.8 C14402.2,91.9 14404.7,89.7 14407.9,87.3 C14443.9,60.4 14479.8,33.4 14515.8,6.4 C14518.1,4.7 14520.1,2.5 14522.2,0.6 C14708.9,0.6 14895.5,0.6 15082.2,0.6 C15083.1,1.8 15083.9,3.2 15085.1,4.1 C15091.8,9.3 15098.7,14.4 15105.5,19.5 C15135.1,41.7 15164.7,64 15194.4,86.1 C15196.5,87.7 15198.3,90.7 15202.3,89.3 C15202.2,59.8 15202.2,30.2 15202.2,0.6 Z" class="svg-fill" fill="#000000"></path>
            <path d="M12411.8,0.6 C12659.8,0.6 12907.8,0.6 13155.8,0.6 C13153.2,3.6 13150.9,6.8 13148.1,9.6 C13092.3,65.4 13036.4,121.2 12980.5,177 C12979.3,178.2 12978.2,179.6 12977,181.1 C12978.3,182.5 12979.1,183.6 12980,184.5 C13022.7,227.2 13065.5,269.8 13108.1,312.5 C13124.1,328.5 13139.9,344.6 13155.8,360.6 C12907.8,360.6 12659.8,360.6 12411.8,360.6 C12413,358.9 12414.1,357 12415.4,355.4 C12457.9,305.6 12500.5,255.9 12543.1,206.2 C12550.2,197.9 12557.2,189.6 12564.5,181.1 C12562.3,178.5 12560.5,176.2 12558.7,174 C12511.1,118.4 12463.6,62.8 12416.1,7.1 C12414.3,5.2 12413.2,2.8 12411.8,0.6 Z" fill="none"></path>
            <path d="M14120.6,360.6 C14041.1,360.6 13961.7,360.6 13882.2,360.6 C13880.1,358.3 13878.1,355.9 13875.7,353.8 C13811.1,298 13746.4,242.2 13681.7,186.4 C13679.8,184.7 13678,182.9 13675.9,180.9 C13678.4,178.5 13680.3,176.7 13682.3,175 C13707.1,153.6 13731.9,132.3 13756.7,110.9 C13796.8,76.3 13836.9,41.8 13876.9,7.1 C13879,5.3 13880.4,2.8 13882.1,0.6 C13961.6,0.6 14041,0.6 14120.5,0.6 C14122.3,2.5 14123.8,4.7 14125.8,6.4 C14185.1,57.5 14244.4,108.6 14303.6,159.7 C14311.6,166.6 14319.6,173.6 14327.9,180.9 C14325.3,183.3 14323.2,185.3 14321,187.2 C14272.2,229.3 14223.4,271.3 14174.6,313.4 C14156.7,329.1 14138.7,344.9 14120.6,360.6 Z" class="svg-fill" fill="#000000"></path>
            <path d="M13882.2,0.6 C13880.5,2.8 13879.1,5.3 13877,7.1 C13837,41.8 13796.9,76.3 13756.8,110.9 C13732,132.3 13707.2,153.6 13682.4,175 C13680.4,176.7 13678.5,178.6 13676,180.9 C13678.1,182.9 13679.9,184.8 13681.8,186.4 C13746.5,242.2 13811.1,298 13875.8,353.8 C13878.1,355.8 13880.1,358.3 13882.3,360.6 C13671.1,360.6 13459.9,360.6 13248.7,360.6 C13250.2,358.8 13251.5,356.8 13253.2,355.1 C13307.2,301.2 13361.2,247.3 13415.2,193.3 C13419.1,189.4 13422.9,185.4 13427.2,181.1 C13424.6,178.3 13422.6,175.9 13420.4,173.7 C13364.9,118.3 13309.3,62.9 13253.8,7.4 C13251.8,5.4 13250.4,2.9 13248.8,0.6 C13459.8,0.6 13671,0.6 13882.2,0.6 Z" fill="none"></path>
            <path d="M13248.6,0.6 C13250.3,2.9 13251.6,5.5 13253.6,7.4 C13309.1,62.9 13364.7,118.3 13420.2,173.7 C13422.4,175.9 13424.4,178.3 13427,181.1 C13422.8,185.4 13419,189.4 13415,193.3 C13361,247.2 13307,301.1 13253,355.1 C13251.3,356.8 13250,358.7 13248.5,360.6 C13217.6,360.6 13186.6,360.6 13155.7,360.6 C13139.8,344.6 13123.9,328.4 13108,312.5 C13065.3,269.8 13022.6,227.2 12979.9,184.5 C12979,183.6 12978.2,182.5 12976.9,181.1 C12978.1,179.6 12979.2,178.2 12980.4,177 C13036.3,121.2 13092.2,65.4 13148,9.6 C13150.8,6.8 13153.2,3.6 13155.7,0.6 C13186.7,0.6 13217.7,0.6 13248.6,0.6 Z" class="svg-fill" fill="#000000"></path>
            <path d="M14120.6,360.6 C14138.7,344.9 14156.7,329.1 14174.8,313.4 C14223.6,271.3 14272.4,229.2 14321.2,187.2 C14323.4,185.3 14325.5,183.3 14328.1,180.9 C14319.8,173.6 14311.8,166.6 14303.8,159.7 C14244.5,108.6 14185.2,57.5 14126,6.4 C14124,4.7 14122.5,2.5 14120.7,0.6 C14254.6,0.6 14388.4,0.6 14522.3,0.6 C14520.2,2.5 14518.2,4.7 14515.9,6.4 C14480,33.4 14444,60.4 14408,87.3 C14404.7,89.7 14402.2,91.9 14402.3,96.8 C14402.5,153.8 14402.5,210.7 14402.5,267.7 C14402.5,268.5 14402.7,269.3 14402.8,270.7 C14416.3,280.8 14430.1,291.2 14443.9,301.6 C14467.7,319.5 14491.6,337.3 14515.3,355.3 C14517.3,356.8 14518.9,358.9 14520.7,360.7 C14387.3,360.6 14253.9,360.6 14120.6,360.6 Z" fill="none"></path>
            <path d="M12411.8,0.6 C12413.2,2.8 12414.3,5.2 12416,7.1 C12463.5,62.7 12511.1,118.4 12558.6,174 C12560.5,176.2 12562.3,178.5 12564.4,181.1 C12557.1,189.7 12550.1,198 12543,206.2 C12500.4,255.9 12457.9,305.7 12415.3,355.4 C12413.9,357 12412.9,358.8 12411.7,360.6 C12405.3,360.6 12398.9,360.6 12392.5,360.6 C12369.6,333.7 12346.6,306.7 12323.7,279.9 C12296.7,248.4 12269.7,216.9 12242.7,185.4 C12241.7,184.2 12240.9,182.8 12239.6,181 C12241.2,179 12242.7,176.9 12244.3,175 C12292.4,118.8 12340.5,62.7 12388.5,6.5 C12390,4.7 12391.1,2.6 12392.5,0.6 C12399,0.6 12405.4,0.6 12411.8,0.6 Z" class="svg-fill" fill="#000000"></path>
            <path d="M15202.2,0.6 C15202.2,30.2 15202.2,59.8 15202.2,89.3 C15198.3,90.7 15196.5,87.7 15194.3,86.1 C15164.6,64 15135,41.7 15105.4,19.5 C15098.6,14.4 15091.7,9.3 15085,4.1 C15083.8,3.2 15083.1,1.8 15082.1,0.6 C15122.2,0.6 15162.2,0.6 15202.2,0.6 Z" fill="none"></path>
            <path d="M15082.2,360.6 C15092.5,352.7 15102.7,344.6 15113,336.8 C15140.1,316.3 15167.4,296 15194.6,275.6 C15196.5,274.2 15198.5,273 15200.2,271.8 C15201,272.1 15201.2,272.2 15201.4,272.3 C15201.6,272.4 15201.9,272.7 15201.9,272.8 C15202,302 15202.1,331.3 15202.2,360.5 C15162.2,360.6 15122.2,360.6 15082.2,360.6 Z" fill="none"></path>
            <path d="M11601.9,347.2 C11561.4,291.1 11521.7,236.2 11481.7,181 C11521.6,125.8 11561.3,70.9 11601.8,14.9 C11642.3,70.6 11681.9,125.7 11722,181 C11682.2,236.2 11642.5,291 11601.9,347.2 Z" class="svg-fill" fill="#000000"></path>
            <path d="M10802.2,32 C10832.6,82.3 10862.3,131.4 10892.2,181 C10862.4,230.3 10832.6,279.6 10802.2,330.1 C10799.2,325.5 10796.7,321.9 10794.4,318.2 C10768.1,274.8 10742,231.3 10715.6,187.9 C10712.8,183.3 10712.2,179.6 10715.2,174.8 C10742.9,129.4 10770.3,83.9 10797.8,38.4 C10798.9,36.6 10800.2,34.9 10802.2,32 Z" class="svg-fill" fill="#000000"></path>
            <path d="M10001.4,317.2 C9997.7,310.1 9994.2,303.6 9990.9,297 C9972.3,260 9953.7,223 9935,186 C9933.3,182.6 9933.1,179.6 9934.8,176.2 C9951,144.2 9967.1,112.2 9983.2,80.2 C9988,70.7 9992.8,61.2 9997.6,51.8 C9998.8,49.5 10000.1,47.4 10002,44.2 C10005.9,51.6 10009.2,57.9 10012.4,64.2 C10030.9,100.9 10049.4,137.7 10067.9,174.5 C10069.9,178.5 10070.8,182.2 10068.6,186.5 C10046.9,229.4 10025.2,272.3 10003.6,315.2 C10003.4,315.5 10002.9,315.8 10001.4,317.2 Z" class="svg-fill" fill="#000000"></path>
            <path d="M9201.1,308.1 C9197.3,299.4 9193.5,290.7 9189.8,282 C9178.2,254.9 9166.7,227.8 9155.2,200.7 C9155,200.2 9154.8,199.7 9154.6,199.2 C9152.2,193 9147.8,186.8 9147.9,180.7 C9147.9,174.5 9152.3,168.4 9154.9,162.2 C9169.4,128 9183.9,93.8 9198.5,59.6 C9199.3,57.7 9200.5,56 9202.2,53 C9204.6,58.1 9206.6,62.3 9208.5,66.5 C9224,103.2 9239.5,139.9 9255.1,176.5 C9256.5,179.8 9256.4,182.3 9255.1,185.5 C9239.5,222.1 9224,258.8 9208.5,295.5 C9206.8,299.6 9204.9,303.7 9203,307.8 C9202.3,307.9 9201.7,308 9201.1,308.1 Z" class="svg-fill" fill="#000000"></path>
            <path d="M8401.6,303.7 C8397.4,292.5 8393.7,282.8 8390.1,273.1 C8381.1,248.7 8372.1,224.3 8363.1,199.9 C8361.5,195.7 8360.1,191.4 8358.5,187.2 C8356.9,183 8356.9,179 8358.5,174.8 C8368.6,147.7 8378.7,120.6 8388.7,93.4 C8391.9,84.7 8394.9,75.9 8398.1,67.2 C8399.1,64.6 8400.4,62.1 8402.2,58.1 C8404.6,64.1 8406.6,68.7 8408.3,73.3 C8420.3,105.9 8432.2,138.6 8444.3,171.2 C8446.6,177.4 8447.3,183 8444.8,189.5 C8431.1,226 8417.7,262.7 8404.2,299.3 C8403.8,300.3 8403.1,301.1 8401.6,303.7 Z" class="svg-fill" fill="#000000"></path>
            <path d="M7602.8,63 C7604.6,68.2 7606.6,73.4 7608.3,78.6 C7617.5,106 7626.7,133.5 7635.9,161 C7637.3,165.3 7638.7,169.6 7640.3,173.8 C7642.2,178.8 7642,183.6 7640.2,188.6 C7631.4,214.2 7622.7,239.9 7614,265.5 C7610.8,275.1 7607.8,284.7 7604.6,294.3 C7604,296 7603.2,297.6 7601.8,300.9 C7599.1,293.7 7596.8,288 7594.8,282.1 C7587.5,260.2 7580.4,238.2 7573.1,216.2 C7569.9,206.6 7566.6,197.1 7563.1,187.6 C7561.7,183.7 7561.2,179.9 7562.5,175.9 C7571.2,150.5 7579.9,125.1 7588.5,99.7 C7591.7,90.1 7594.7,80.5 7597.9,70.9 C7598.8,68.1 7600.1,65.5 7601.2,62.8 C7601.8,62.9 7602.3,62.9 7602.8,63 Z" class="svg-fill" fill="#000000"></path>
            <path d="M6802.1,62.1 C6804.3,68.2 6806.1,72.8 6807.6,77.5 C6813.3,95.2 6819,112.9 6824.7,130.6 C6829.5,145.5 6834.6,160.4 6839.2,175.4 C6840.2,178.5 6840.6,182.4 6839.6,185.4 C6829.3,218.1 6818.6,250.7 6808,283.3 C6806.4,288.3 6804.5,293.2 6801.3,298.2 C6799.2,292.4 6796.9,286.6 6795,280.7 C6787.7,258.2 6780.6,235.6 6773.4,213.1 C6770.3,203.5 6767,193.9 6764,184.3 C6763.4,182.2 6763.3,179.6 6764,177.6 C6771.4,154.3 6778.9,131 6786.4,107.7 C6790.5,95.1 6794.6,82.4 6798.8,69.8 C6799.5,67.7 6800.6,65.7 6802.1,62.1 Z" class="svg-fill" fill="#000000"></path>
            <path d="M6001,297.6 C5997.2,286 5993.4,274.4 5989.6,262.8 C5983.6,244.4 5977.5,226 5971.5,207.6 C5968.9,199.5 5966.2,191.5 5963.7,183.3 C5963.2,181.7 5963.4,179.7 5964,178.1 C5974.9,144.5 5985.9,111 5996.9,77.4 C5998.3,73.1 5999.7,68.9 6002.5,64.4 C6004.5,70 6006.5,75.5 6008.4,81.2 C6016.2,104.9 6023.9,128.6 6031.7,152.3 C6034.4,160.6 6037.3,168.9 6039.8,177.3 C6040.5,179.7 6040.5,182.7 6039.7,185.1 C6030,214.9 6020.1,244.6 6010.3,274.3 C6007.7,282 6005.4,289.9 6003,297.6 C6002.3,297.6 6001.6,297.6 6001,297.6 Z" class="svg-fill" fill="#000000"></path>
            <path d="M5202.9,67 C5206.3,77.3 5209.7,87.6 5213.1,97.9 C5220.4,120.1 5227.6,142.3 5234.9,164.5 C5236.4,169 5238.2,173.5 5239.5,178.1 C5240,180 5240,182.3 5239.4,184.2 C5229.1,216 5218.7,247.8 5208.2,279.6 C5206.5,284.8 5204.5,289.9 5202,296.9 C5199.2,289.2 5196.9,283.4 5194.9,277.5 C5187.6,255 5180.4,232.5 5173.2,210 C5171.2,203.9 5169.2,197.9 5166.9,191.9 C5164.2,184.9 5164.1,178.3 5166.5,171.1 C5177.3,138.9 5187.8,106.5 5198.4,74.3 C5199.2,71.8 5200.4,69.4 5201.4,67 C5201.9,66.9 5202.4,66.9 5202.9,67 Z" class="svg-fill" fill="#000000"></path>
            <path d="M4401.2,290.2 C4399,284 4396.7,277.8 4394.6,271.6 C4386.7,248.2 4378.9,224.7 4371.1,201.3 C4369.5,196.5 4367.5,191.8 4366.5,186.9 C4365.7,183.1 4365.3,178.8 4366.5,175.2 C4373.6,153.2 4381.2,131.4 4388.5,109.5 C4391.7,99.9 4394.7,90.3 4397.9,80.7 C4398.9,77.7 4400.1,74.7 4402,69.9 C4404.6,77 4406.6,82.5 4408.5,88 C4416.3,111.2 4424.1,134.3 4431.9,157.5 C4433.6,162.5 4435.1,167.6 4436.9,172.7 C4438.8,178.1 4439,183.4 4437.1,188.9 C4429.5,211 4422.1,233.2 4414.6,255.3 C4411.4,264.9 4408.3,274.5 4405.2,284.1 C4404.5,286.1 4403.7,288 4403,290 C4402.3,290.1 4401.7,290.1 4401.2,290.2 Z" class="svg-fill" fill="#000000"></path>
            <path d="M3603,80.2 C3606.3,89.7 3609.7,99.1 3613,108.6 C3620.5,130.4 3627.9,152.4 3635.6,174.1 C3637.3,178.9 3637.2,183.2 3635.5,188 C3629.1,206 3623,224.1 3616.7,242.2 C3612.1,255.5 3607.5,268.7 3602.5,283.3 C3597.8,276.3 3596.6,269.3 3594.3,262.8 C3586.5,240.8 3578.9,218.6 3571.3,196.5 C3569.8,192.2 3568.2,188 3567.1,183.6 C3566.6,181.7 3566.6,179.3 3567.3,177.5 C3577,149.1 3586.9,120.8 3596.8,92.4 C3598.3,88.2 3599.7,84 3601.2,79.8 C3601.7,80 3602.3,80.1 3603,80.2 Z" class="svg-fill" fill="#000000"></path>
            <path d="M2802.7,92.3 C2804.6,97.2 2806.5,102 2808.3,106.9 C2816.2,128.4 2823.9,149.8 2831.8,171.3 C2834,177.2 2834.7,182.9 2832.4,189.1 C2822.7,215 2813.4,241 2803.9,266.9 C2803.6,267.8 2802.9,268.6 2801.7,270.5 C2799.2,264.2 2796.9,259 2794.9,253.7 C2786.8,231.5 2778.7,209.3 2770.6,187.1 C2769.2,183.2 2768.9,179.5 2770.4,175.5 C2779.1,152.1 2787.7,128.7 2796.3,105.2 C2797.9,101 2799.4,96.7 2800.9,92.5 C2801.5,92.4 2802.1,92.4 2802.7,92.3 Z" class="svg-fill" fill="#000000"></path>
            <path d="M2001.5,249.8 C1997.4,240.1 1993.6,231.3 1990,222.5 C1985.1,210.7 1980.4,198.9 1975.4,187.2 C1973.7,183.3 1973.2,179.8 1974.9,175.7 C1982.8,156.8 1990.5,137.9 1998.3,119 C1999.1,117.1 2000.3,115.2 2001.7,112.6 C2003,114.5 2004.1,115.8 2004.8,117.4 C2012.5,136 2020.2,154.7 2028,173.3 C2030.1,178.2 2030.5,182.7 2028.3,187.8 C2020.2,206.9 2012.5,226.1 2004.5,245.2 C2003.9,246.6 2002.9,247.8 2001.5,249.8 Z" class="svg-fill" fill="#000000"></path>
            <path d="M1223.5,181 C1216.5,192.1 1209.8,202.9 1202.6,214.3 C1201,212.7 1199.5,211.7 1198.6,210.3 C1193.3,202 1188.1,193.7 1182.8,185.4 C1181,182.7 1180.6,180.1 1182.4,177.2 C1188.1,168.3 1193.8,159.3 1199.5,150.3 C1200.1,149.4 1200.4,148.3 1201.4,146 C1209.6,159 1216.5,169.8 1223.5,181 Z" class="svg-fill" fill="#000000"></path>
        </g>
    </g>
</svg>
