<?xml version="1.0" encoding="utf-8"?>
<!-- Generator: Adobe Illustrator 21.1.0, SVG Export Plug-In . SVG Version: 6.00 Build 0)  -->
<svg class="tooltip__shape" width="100%" height="100%" viewBox="0 0 400 300" version="1.1" id="Layer_1" xmlns="http://www.w3.org/2000/svg" xmlns:xlink="http://www.w3.org/1999/xlink" x="0px" y="0px"
	  style="enable-background:new 0 0 15000 338;" xml:space="preserve">
<path class="path-hador-1" d="M 154,283 A 6.12,6.12 0 0 1 149,290 6.12,6.12 0 0 1 142,286 6.12,6.12 0 0 1 146,278 6.12,6.12 0 0 1 154,283 Z"/>
<path class="path-hador-2" d="M 167,265 A 7.83,7.83 0 0 1 162,276 7.83,7.83 0 0 1 152,270 7.83,7.83 0 0 1 157,261 7.83,7.83 0 0 1 167,265 Z"/>
<path class="path-hador-3" d="M 183,244 A 11.9,11.9 0 0 1 174,258 11.9,11.9 0 0 1 160,250 11.9,11.9 0 0 1 168,235 11.9,11.9 0 0 1 183,244 Z"/>
<path class="path-hador-4" d="M 327,120 A 127,111 0 0 1 200,231 127,111 0 0 1 72.9,120 127,111 0 0 1 200,9.44 127,111 0 0 1 327,120 Z"/>
</svg>