<?xml version="1.0" encoding="UTF-8"?>
<svg version="1.1" viewBox="0 0 14 14" xmlns="http://www.w3.org/2000/svg">
<title>Mobile</title>
<desc>Created with Sketch.</desc>
<g fill="none" fill-rule="evenodd">
<g fill="#fff" fill-rule="nonzero">
<path d="m4.3896 12.477c-0.76625 0.76719-2.1018 0.76719-2.8681 0-0.79052-0.79052-0.79052-2.0776 0-2.8681l3.4411-3.4411c0.79052-0.79145 2.0776-0.79145 2.869 0l0.65612-0.65706c-1.1526-1.1526-3.0295-1.1526-4.1822 0l-3.4411 3.4411c-1.1526 1.1526-1.1526 3.0295 0 4.1822 0.55906 0.55906 1.302 0.86612 2.0916 0.86612s1.5325-0.30706 2.0906-0.86612l2.0748-2.0748-0.65706-0.65706-2.0748 2.0748zm8.7443-11.612c-1.1526-1.1526-3.0295-1.1526-4.1822 0l-2.0738 2.0748 0.65612 0.65612 2.0748-2.0738c0.78959-0.79145 2.0766-0.79145 2.869 0 0.38266 0.38359 0.59359 0.89225 0.59359 1.4336 0 0.54226-0.21093 1.0509-0.59359 1.4345l-3.4411 3.4421c-0.79145 0.79052-2.0785 0.79052-2.869 0l-0.65706 0.65612c0.57679 0.57679 1.3337 0.86519 2.0916 0.86519 0.75692 0 1.5148-0.2884 2.0906-0.86519l3.4411-3.4411c0.55906-0.55906 0.86612-1.301 0.86612-2.0916 0-0.78959-0.30706-1.5316-0.86612-2.0906z"/>
</g>
</g>
</svg>
